<?xml version="1.0" standalone="no"?>
<!DOCTYPE svg PUBLIC "-//W3C//DTD SVG 1.1//EN" "http://www.w3.org/Graphics/SVG/1.1/DTD/svg11.dtd" >
<svg xmlns="http://www.w3.org/2000/svg" xmlns:xlink="http://www.w3.org/1999/xlink" version="1.1">
<metadata>
Created by FontForge 20161116 at Sun Jun  7 15:33:12 2015
 By Jimmy Wärting
2010 published by FontShop International GmbH
</metadata>
<defs>
<font id="ClanOT-NarrNewsItalic" horiz-adv-x="545" >
  <font-face 
    font-family="Clan OT Narr News"
    font-weight="475"
    font-style="italic"
    font-stretch="semi-condensed"
    units-per-em="1000"
    panose-1="2 11 6 6 3 1 1 2 1 2"
    ascent="800"
    descent="-200"
    x-height="597"
    cap-height="750"
    bbox="-170 -226 1057 957"
    underline-thickness="50"
    underline-position="-125"
    slope="-8"
    unicode-range="U+0020-FEFF"
  />
<missing-glyph horiz-adv-x="552" 
d="M19 0v750h514v-750h-514zM74 55h404v640h-404v-640z" />
    <glyph glyph-name="f_j" unicode="fj" horiz-adv-x="567" 
d="M521 599l-72 -509c-24 -163 -102 -225 -238 -241l2 64c88 16 130 53 146 176l61 434h-210l-73 -523h-91l73 523h-78l13 70h75c24 157 88 210 252 210l-3 -68c-90 0 -142 -19 -158 -142h210c28 0 60 3 91 6zM500 797c34 0 51 -13 51 -39c0 -39 -24 -57 -65 -57
c-35 0 -53 10 -53 37c0 39 22 59 67 59z" />
    <glyph glyph-name="f_l" unicode="fl" horiz-adv-x="544" 
d="M42 529l12 64h75c24 158 105 210 277 210c51 0 93 -5 125 -10l-111 -793h-90l103 739c-11 1 -22 2 -37 2c-116 0 -160 -38 -176 -148h131l-11 -64h-129l-74 -529h-91l74 529h-78z" />
    <glyph glyph-name="f_i" unicode="fi" horiz-adv-x="567" 
d="M42 529l12 64h75c24 157 88 210 252 210l-3 -66c-92 0 -142 -20 -158 -144h210c33 0 63 3 91 6l-84 -599h-90l74 529h-210l-74 -529h-91l74 529h-78zM500 797c34 0 51 -13 51 -39c0 -39 -24 -57 -65 -57c-35 0 -53 10 -53 37c0 39 22 59 67 59z" />
    <glyph glyph-name=".notdef" horiz-adv-x="552" 
d="M19 0v750h514v-750h-514zM74 55h404v640h-404v-640z" />
    <glyph glyph-name="NULL" horiz-adv-x="0" 
 />
    <glyph glyph-name="NULL" horiz-adv-x="0" 
 />
    <glyph glyph-name="CR" horiz-adv-x="291" 
 />
    <glyph glyph-name="space" unicode=" " horiz-adv-x="291" 
 />
    <glyph glyph-name="oe" unicode="&#x153;" horiz-adv-x="828" 
d="M305 607c91 0 141 -33 160 -109h2c42 73 106 109 192 109c100 0 152 -46 152 -121c0 -112 -95 -195 -335 -230c-2 -19 -3 -36 -3 -51c0 -108 43 -140 117 -140c57 0 104 18 143 53l26 -55c-47 -43 -111 -72 -195 -72c-80 0 -134 28 -155 107h-2
c-41 -76 -102 -108 -194 -108c-131 0 -186 58 -186 198c0 33 3 70 9 112c29 216 107 307 269 307zM292 532c-94 0 -137 -55 -164 -236c-6 -42 -9 -78 -9 -107c0 -99 34 -127 106 -127c94 0 139 54 166 237c7 41 8 75 8 103c0 100 -35 130 -107 130zM654 536
c-88 0 -142 -60 -169 -213c182 24 244 82 244 151c0 37 -23 62 -75 62z" />
    <glyph glyph-name="g" unicode="g" horiz-adv-x="546" 
d="M509 597l-70 -504c-24 -179 -125 -244 -264 -244c-56 0 -109 13 -152 36l21 67c40 -20 82 -32 125 -32c97 0 160 38 179 172l3 19l-2 1c-36 -53 -89 -79 -156 -79c-93 0 -152 44 -152 181c0 243 119 391 311 391c48 0 85 -8 124 -8h33zM226 105c77 0 132 61 148 172
l36 252c-19 3 -39 4 -67 4c-120 0 -210 -113 -210 -312c0 -91 33 -116 93 -116z" />
    <glyph glyph-name="s" unicode="s" horiz-adv-x="438" 
d="M275 607c51 0 104 -14 140 -37l-35 -65c-33 19 -76 27 -117 27c-68 0 -115 -36 -115 -91c0 -107 228 -89 228 -247c0 -125 -78 -203 -213 -203c-65 0 -128 22 -165 57l32 66c35 -33 86 -50 135 -50c80 0 122 46 122 110c0 118 -227 101 -227 253c0 108 83 180 215 180z
" />
    <glyph glyph-name="germandbls" unicode="&#xdf;" horiz-adv-x="582" 
d="M41 89l60 424c23 161 106 250 251 250c93 0 151 -51 151 -119c0 -110 -149 -174 -149 -222c0 -50 168 -84 168 -220c0 -133 -107 -210 -233 -210c-47 0 -102 10 -134 37l17 76c27 -23 68 -35 113 -35c76 0 142 38 142 119c0 108 -172 135 -172 218c0 79 158 139 158 228
c0 32 -27 54 -74 54c-84 0 -128 -52 -145 -169l-62 -431c-24 -163 -105 -224 -238 -240l2 64c88 16 129 53 145 176z" />
    <glyph glyph-name="longs" unicode="&#x17f;" horiz-adv-x="280" 
d="M42 529l12 64h74c24 157 89 210 253 210l-4 -66c-91 0 -138 -20 -157 -145l-71 -502c-24 -163 -103 -225 -238 -241l2 64c87 16 129 53 145 176l61 440h-77z" />
    <glyph glyph-name="S" unicode="S" horiz-adv-x="515" 
d="M334 762c67 0 127 -14 172 -38l-24 -77c-49 21 -97 34 -153 34c-108 0 -158 -63 -158 -135c0 -143 289 -99 289 -303c0 -11 -1 -22 -3 -34c-20 -141 -113 -222 -266 -222c-77 0 -142 21 -191 54l27 80c48 -35 104 -53 173 -53c97 0 163 54 163 154
c0 150 -287 107 -287 304c0 133 93 236 258 236z" />
    <glyph glyph-name="dollar" unicode="$" horiz-adv-x="591" 
d="M420 822l-16 -64c52 -5 99 -16 126 -31l-19 -77c-39 16 -81 27 -126 31l-62 -257c84 -35 168 -79 168 -189v-17c0 -5 -1 -11 -2 -17c-21 -145 -107 -211 -268 -214l-21 -72l-52 5l16 69c-63 7 -122 22 -157 49c8 29 13 50 22 81c43 -28 95 -49 152 -56l68 292
c-84 37 -171 75 -171 180c0 141 105 221 267 226l18 65zM295 335l-63 -274c108 1 176 48 176 149c0 65 -52 96 -113 125zM280 442l53 242c-113 -1 -168 -58 -168 -131c0 -57 52 -85 115 -111z" />
    <glyph glyph-name="dollar.dnom" horiz-adv-x="291" 
d="M164 461h52l-17 -77c25 -2 48 -8 69 -17l-16 -49c-27 11 -52 17 -81 17c-52 0 -78 -27 -78 -58c0 -63 154 -36 154 -140c0 -72 -48 -118 -117 -127l-14 -75h-52l14 75c-32 3 -61 11 -82 26l16 50c27 -18 58 -27 93 -27c47 0 78 23 78 63c0 65 -152 42 -152 143
c0 60 39 110 116 119z" />
    <glyph glyph-name="dollar.pnum" 
d="M357 825l55 -3l-16 -64c48 -5 94 -16 121 -31l-18 -75c-35 15 -77 26 -121 30l-62 -260c114 -53 163 -94 163 -197c0 -132 -83 -233 -263 -236l-22 -72l-52 3l16 71c-57 7 -113 21 -152 46l23 79c40 -25 92 -44 147 -51l69 292c-83 37 -167 78 -167 179
c0 140 103 220 260 225zM287 337l-62 -275c103 1 169 45 169 148c0 65 -48 98 -107 127zM273 440l54 245c-111 -3 -164 -60 -164 -133c0 -56 49 -85 110 -112z" />
    <glyph glyph-name="dollar.onum_pnum" horiz-adv-x="442" 
d="M272 729h70l-26 -125c38 -6 70 -17 97 -34l-35 -65c-33 19 -76 27 -117 27c-68 0 -114 -36 -114 -91c0 -107 227 -89 227 -247c0 -109 -64 -187 -169 -200l-27 -138h-71l27 137c-56 5 -106 26 -138 55l32 66c35 -33 86 -50 135 -50c80 0 123 46 123 110
c0 118 -228 101 -228 253c0 101 72 170 189 179z" />
    <glyph glyph-name="dollar.onum" 
d="M449 173c-15 -100 -76 -171 -201 -183l-26 -137h-77l27 137c-59 4 -109 20 -146 49l25 77c43 -35 109 -53 168 -53c88 0 136 49 136 114c0 119 -274 70 -274 239c0 107 76 177 204 188l28 130h77l-29 -130c45 -5 85 -16 121 -33l-20 -76c-48 22 -99 33 -152 33
c-80 0 -130 -37 -130 -94c0 -112 271 -61 271 -235c0 -8 -1 -17 -2 -26z" />
    <glyph glyph-name="S.c2sc" horiz-adv-x="484" 
d="M301 659c61 0 118 -11 161 -34l-23 -71c-47 19 -92 31 -144 31c-99 0 -140 -53 -140 -113c0 -121 268 -80 268 -260c0 -138 -100 -223 -245 -223c-73 0 -133 17 -178 48l24 73c47 -32 98 -48 163 -48c88 0 146 49 146 129c0 129 -268 88 -268 261c0 116 80 207 236 207z
" />
    <glyph glyph-name="eight" unicode="8" horiz-adv-x="591" 
d="M353 758c131 0 190 -51 190 -148c0 -96 -48 -171 -136 -216v-2c58 -27 108 -67 108 -151c0 -12 -1 -24 -3 -37c-20 -145 -110 -213 -267 -213c-147 0 -213 53 -213 166c0 111 57 192 157 239v2c-47 27 -80 65 -80 136c0 140 83 224 244 224zM257 63c89 0 166 43 166 158
c0 75 -60 105 -161 142c-80 -40 -139 -98 -139 -196c0 -73 39 -104 134 -104zM342 688c-88 0 -145 -51 -145 -143c0 -75 67 -97 140 -124c83 43 121 91 121 171c0 67 -37 96 -116 96z" />
    <glyph glyph-name="eight.onum_pnum" horiz-adv-x="549" 
d="M314 638c129 0 185 -48 185 -132c0 -80 -44 -140 -116 -175v-2c54 -22 97 -59 97 -129c0 -140 -100 -209 -257 -209c-144 0 -207 49 -207 145c0 89 49 158 137 197v2c-41 23 -69 56 -69 113c0 117 73 190 230 190zM235 60c85 0 153 36 153 123c0 67 -53 84 -161 119
c-71 -31 -122 -77 -122 -154c0 -61 38 -88 130 -88zM303 569c-91 0 -133 -39 -133 -111c0 -64 67 -82 139 -103c73 33 107 72 107 136c0 52 -33 78 -113 78z" />
    <glyph glyph-name="eight.pnum" horiz-adv-x="567" 
d="M340 758c131 0 190 -51 190 -148c0 -96 -47 -171 -135 -216v-2c58 -27 108 -67 108 -151c0 -12 -1 -24 -3 -37c-20 -145 -111 -213 -268 -213c-145 0 -213 54 -213 167c0 111 58 192 157 239v2c-47 27 -79 66 -79 135c0 140 82 224 243 224zM244 63c90 0 166 43 166 158
c0 77 -56 102 -161 142c-80 -40 -139 -98 -139 -196c0 -73 39 -104 134 -104zM329 688c-104 0 -145 -64 -145 -142c0 -76 67 -98 140 -125c84 43 121 92 121 172c0 63 -39 95 -116 95z" />
    <glyph glyph-name="eight.onum" 
d="M223 -9c-144 0 -207 49 -207 145c0 89 49 158 137 197v2c-41 23 -69 56 -69 113c0 117 73 190 230 190c129 0 185 -48 185 -132c0 -80 -44 -140 -116 -175v-2c54 -22 97 -59 97 -129c0 -140 -100 -209 -257 -209zM285 282l-58 20c-71 -32 -121 -77 -121 -154
c0 -61 37 -88 129 -88c84 0 152 36 152 123c0 54 -45 81 -102 99zM303 569c-91 0 -133 -39 -133 -111c0 -64 67 -82 139 -103c73 33 106 73 106 137c0 52 -32 77 -112 77z" />
    <glyph glyph-name="ampersand" unicode="&#x26;" horiz-adv-x="642" 
d="M342 762c92 0 144 -44 144 -112c0 -99 -91 -164 -199 -246c36 -63 82 -127 138 -187c35 51 62 108 78 160h77c-13 -56 -49 -137 -104 -213c36 -36 76 -69 115 -96l-45 -77c-42 28 -85 64 -128 107c-64 -64 -143 -110 -236 -110c-120 0 -167 68 -167 156
c0 125 81 209 168 275c-25 56 -41 108 -41 153c0 108 71 190 200 190zM369 148c-57 64 -110 134 -150 203c-63 -53 -110 -112 -110 -191c0 -61 38 -95 98 -95c59 0 114 34 162 83zM330 696c-53 0 -103 -41 -103 -116c0 -31 9 -69 28 -110c77 56 141 105 141 170
c0 36 -26 56 -66 56z" />
    <glyph glyph-name="i" unicode="i" horiz-adv-x="251" 
d="M121 0h-91l83 594l92 5zM186 797c34 0 51 -13 51 -39c0 -39 -24 -57 -65 -57c-35 0 -53 10 -53 37c0 39 22 59 67 59z" />
    <glyph glyph-name="dotlessi" unicode="&#x131;" horiz-adv-x="251" 
d="M122 0h-92l83 594l93 5z" />
    <glyph glyph-name="j" unicode="j" horiz-adv-x="269" 
d="M223 599l-72 -509c-24 -163 -103 -225 -237 -241l2 64c87 16 129 53 145 176l71 505zM204 797c34 0 51 -13 51 -39c0 -39 -24 -57 -65 -57c-35 0 -53 10 -53 37c0 39 22 59 67 59z" />
    <glyph glyph-name="A" unicode="A" horiz-adv-x="641" 
d="M465 0l-28 187h-286l-81 -187h-103l349 750h118l140 -750h-109zM365 679h-2c-3 -11 -8 -24 -15 -38l-165 -380h243l-56 377c-3 15 -4 26 -5 41z" />
    <glyph glyph-name="Aring" unicode="&#xc5;" horiz-adv-x="641" 
d="M390 878c60 0 88 -25 88 -64c0 -35 -14 -61 -42 -76l138 -738h-109l-28 187h-286l-81 -187h-103l342 736c-17 10 -25 27 -25 50c0 53 34 92 106 92zM365 679h-2c-4 -13 -10 -25 -15 -38l-165 -380h243l-56 377c-3 15 -4 26 -5 41zM387 837c-36 0 -53 -18 -53 -45
c0 -19 11 -30 42 -30c33 0 50 15 50 44c0 19 -11 31 -39 31z" />
    <glyph glyph-name="AE" unicode="&#xc6;" horiz-adv-x="947" 
d="M941 670h-337l-13 -242h263l-11 -74h-257l-14 -274h295l-14 -80h-384l11 188h-267l-111 -188h-114l475 750h486zM485 262l26 422h-2c-7 -13 -14 -24 -21 -36l-230 -386h227z" />
    <glyph glyph-name="Delta" unicode="&#x2206;" horiz-adv-x="681" 
d="M428 754l162 -754h-599l371 754h66zM379 618h-2c-5 -13 -9 -25 -16 -37l-241 -510l356 -1l-91 508c-3 15 -3 27 -6 40z" />
    <glyph glyph-name="A.c2sc" horiz-adv-x="601" 
d="M430 0l-28 160h-264l-73 -160h-98l318 649h111l138 -649h-104zM330 580h-2c-4 -11 -9 -25 -16 -40l-143 -311h221l-54 308c-3 13 -5 31 -6 43z" />
    <glyph glyph-name="AE.c2sc" horiz-adv-x="860" 
d="M844 574h-310l-10 -202h244l-10 -68h-237l-11 -230h272l-12 -74h-358l7 160h-245l-101 -160h-109l434 649h454zM443 582h-4l-10 -18l-10 -17l-201 -318h205l14 289c1 19 3 51 6 64z" />
    <glyph glyph-name="B" unicode="B" horiz-adv-x="621" 
d="M142 750h246c123 0 184 -49 184 -147c0 -118 -58 -180 -128 -204v-2c67 -17 105 -61 105 -141c0 -161 -84 -256 -257 -256h-255zM181 356l-40 -280h162c84 0 149 44 149 180c0 69 -36 100 -113 100h-158zM225 673l-35 -249h153c84 0 133 52 133 161c0 64 -34 88 -102 88
h-149z" />
    <glyph glyph-name="E" unicode="E" horiz-adv-x="560" 
d="M145 80h336l-14 -80h-430l105 750h415l-8 -80h-321l-34 -241h275l-11 -75h-275z" />
    <glyph glyph-name="OE" unicode="&#x152;" horiz-adv-x="983" 
d="M891 0h-422l7 49c1 13 4 28 7 41l-2 1c-51 -73 -122 -104 -217 -104c-147 0 -218 71 -218 250c0 40 4 86 11 138c40 284 133 387 317 387c92 0 156 -29 187 -98h2c1 13 2 28 5 41l6 45h406l-8 -80h-321l-34 -242h275l-11 -74h-275l-38 -274h336zM514 375
c8 57 12 104 12 143c0 127 -45 162 -145 162c-130 0 -188 -59 -223 -305c-8 -55 -11 -99 -11 -138c0 -132 47 -169 147 -169c131 0 185 62 220 307z" />
    <glyph glyph-name="F" unicode="F" horiz-adv-x="533" 
d="M547 668h-320l-34 -248h268l-12 -78h-267l-48 -342h-97l106 750h414z" />
    <glyph glyph-name="B.c2sc" horiz-adv-x="567" 
d="M120 649h232c112 0 168 -43 168 -129c0 -100 -52 -157 -113 -176v-2c61 -15 96 -52 96 -123c0 -136 -77 -219 -233 -219h-241zM159 304l-33 -233h154c77 0 131 36 131 147c0 60 -31 86 -102 86h-150zM198 576l-29 -207h146c73 0 115 41 115 132c0 56 -29 75 -92 75h-140z
" />
    <glyph glyph-name="E.c2sc" horiz-adv-x="520" 
d="M130 74h313l-13 -74h-401l91 649h388l-9 -75h-299l-28 -202h256l-10 -68h-256z" />
    <glyph glyph-name="OE.c2sc" horiz-adv-x="895" 
d="M806 0h-388l5 39c2 13 5 26 8 41l-2 1c-47 -64 -114 -92 -198 -92c-137 0 -203 64 -203 221c0 34 3 72 9 114c35 242 120 335 289 335c83 0 142 -23 173 -83l1 1c1 13 1 23 4 36l5 36h374l-9 -75h-292l-28 -202h249l-10 -68h-249l-32 -229h306zM456 324
c7 47 10 84 10 116c0 111 -42 144 -134 144c-118 0 -171 -53 -200 -260c-6 -44 -9 -81 -9 -112c0 -115 42 -148 135 -148c118 0 169 56 198 260z" />
    <glyph glyph-name="F.c2sc" horiz-adv-x="501" 
d="M499 573h-298l-29 -207h261l-11 -73h-260l-41 -293h-91l90 649h387z" />
    <glyph glyph-name="G" unicode="G" horiz-adv-x="614" 
d="M561 399l-53 -373c-49 -24 -124 -39 -199 -39c-180 0 -262 78 -262 261c0 37 3 77 10 124c40 280 148 390 364 390c64 0 130 -14 174 -35l-22 -79c-44 21 -99 34 -159 34c-150 0 -221 -67 -256 -309c-7 -47 -10 -87 -10 -122c0 -136 53 -183 169 -183c41 0 78 6 112 18
l44 313h88z" />
    <glyph glyph-name="G.c2sc" horiz-adv-x="564" 
d="M370 660c60 0 122 -13 163 -32l-21 -75c-40 19 -92 30 -148 30c-137 0 -205 -60 -232 -260c-5 -37 -8 -70 -8 -98c0 -120 49 -160 158 -160c39 0 74 6 104 18l37 261h83l-45 -319c-48 -23 -118 -36 -187 -36c-169 0 -245 70 -245 233c0 31 3 64 8 101
c32 238 135 337 333 337z" />
    <glyph glyph-name="H" unicode="H" horiz-adv-x="679" 
d="M543 0h-98l49 349h-311l-49 -349h-97l105 750h97l-45 -320h311l45 320h98z" />
    <glyph glyph-name="H.c2sc" horiz-adv-x="629" 
d="M499 0h-92l42 299h-286l-42 -299h-92l91 649h92l-39 -275h286l39 275h92z" />
    <glyph glyph-name="C" unicode="C" horiz-adv-x="546" 
d="M408 762c56 0 116 -14 151 -33l-22 -77c-32 17 -82 29 -134 29c-140 0 -212 -70 -244 -298c-7 -48 -10 -90 -10 -125c0 -144 55 -190 170 -190c55 0 102 13 143 33l1 -74c-44 -23 -108 -40 -168 -40c-168 0 -247 80 -247 268c0 39 3 81 10 128c37 265 147 379 350 379z
" />
    <glyph glyph-name="Ccedilla" unicode="&#xc7;" horiz-adv-x="546" 
d="M177 -189l79 178c-141 11 -208 93 -208 266c0 39 3 81 10 128c37 265 147 379 350 379c56 0 116 -14 151 -33l-22 -77c-32 17 -82 29 -134 29c-140 0 -212 -70 -244 -298c-7 -48 -10 -90 -10 -125c0 -144 55 -190 170 -190c55 0 102 13 143 33l1 -74
c-37 -19 -90 -34 -142 -39l-57 -177h-87z" />
    <glyph glyph-name="Euro" unicode="&#x20ac;" horiz-adv-x="591" 
d="M455 344l-19 -52h-235c0 -9 -1 -17 -1 -25c0 -147 61 -199 175 -199c53 0 107 16 155 44l-1 -71c-51 -31 -116 -49 -187 -49c-163 0 -239 81 -239 262v18c0 7 0 13 1 20h-80l7 52h76c3 19 5 43 9 64h-76l7 54h79c47 193 162 294 331 294c64 0 121 -13 157 -34l-29 -74
c-37 19 -71 27 -122 27c-125 0 -200 -68 -239 -213h282l-20 -54h-273c-4 -21 -6 -45 -9 -64h251z" />
    <glyph glyph-name="Euro.onum_pnum" 
d="M386 659c61 0 122 -14 161 -35l-33 -70c-31 17 -73 27 -118 27c-117 0 -179 -47 -211 -163h275l-23 -49h-263c-4 -24 -7 -51 -10 -74h242l-24 -49h-221c0 -134 50 -182 161 -182c49 0 95 13 139 39l-2 -70c-43 -27 -102 -46 -170 -46c-164 0 -229 87 -230 259h-44l7 49
h40c3 21 7 57 11 74h-41l7 49h45c43 161 138 241 302 241z" />
    <glyph glyph-name="Euro.pnum" horiz-adv-x="604" 
d="M445 344l-19 -52h-234c0 -9 -1 -17 -1 -25c0 -147 59 -202 174 -202c52 0 105 16 153 44l-1 -68c-49 -31 -115 -49 -183 -49c-163 0 -236 80 -236 260v19c0 7 0 14 1 21h-80l7 52h76c3 20 5 43 9 64h-76l8 55h79c47 193 158 293 325 293c63 0 119 -12 155 -33l-28 -70
c-37 19 -71 27 -120 27c-125 0 -201 -72 -238 -217h279l-20 -55h-271c-4 -21 -7 -42 -9 -64h250z" />
    <glyph glyph-name="Euro.onum" 
d="M547 624l-33 -70c-31 17 -73 27 -118 27c-116 0 -178 -48 -211 -163h275l-23 -51h-263c-4 -23 -7 -49 -10 -72h243l-25 -50h-221c0 -132 54 -181 161 -181c49 0 98 13 141 40l-4 -71c-43 -27 -102 -46 -170 -46c-164 0 -229 83 -230 258h-44l7 50h40c3 24 8 59 11 72h-41
l7 51h45c43 161 138 241 302 241c61 0 122 -14 161 -35z" />
    <glyph glyph-name="C.c2sc" horiz-adv-x="504" 
d="M359 660c52 0 109 -14 142 -30l-21 -73c-31 15 -77 27 -126 27c-131 0 -195 -63 -222 -254c-5 -39 -8 -71 -8 -100c0 -124 52 -166 159 -166c49 0 95 11 134 30l1 -69c-41 -21 -102 -36 -158 -36c-157 0 -230 73 -230 238c0 31 3 64 8 103c32 228 130 330 321 330z" />
    <glyph glyph-name="Ccedilla.c2sc" horiz-adv-x="504" 
d="M137 -189l81 180c-128 12 -188 86 -188 235c0 31 3 65 8 104c32 228 130 330 321 330c52 0 109 -14 142 -30l-21 -73c-31 15 -77 27 -126 27c-131 0 -195 -63 -222 -254c-5 -39 -8 -71 -8 -100c0 -124 52 -166 159 -166c49 0 95 11 134 30l1 -69
c-37 -19 -88 -32 -139 -35l-56 -179h-86z" />
    <glyph glyph-name="c" unicode="c" horiz-adv-x="448" 
d="M308 606c51 0 96 -11 135 -34l-34 -65c-31 15 -57 22 -98 22c-100 0 -159 -65 -183 -232c-5 -36 -8 -67 -8 -94c0 -108 42 -139 110 -139c51 0 90 19 125 52l26 -54c-48 -48 -104 -72 -177 -72c-109 0 -176 57 -176 209c0 31 3 62 8 101c29 209 123 306 272 306z" />
    <glyph glyph-name="ccedilla" unicode="&#xe7;" horiz-adv-x="448" 
d="M103 -189l80 180c-97 8 -155 65 -155 207c0 31 3 63 8 102c29 209 123 306 272 306c51 0 96 -11 135 -34l-34 -65c-31 15 -57 22 -98 22c-100 0 -159 -65 -183 -232c-5 -36 -8 -67 -8 -94c0 -108 42 -139 110 -139c51 0 90 19 125 52l26 -54c-39 -39 -80 -61 -133 -69
l-58 -182h-87z" />
    <glyph glyph-name="cent" unicode="&#xa2;" horiz-adv-x="591" 
d="M366 729h70l-27 -126c33 -5 63 -15 91 -31l-34 -65c-31 15 -57 22 -98 22c-100 0 -159 -65 -183 -232c-5 -36 -8 -67 -8 -94c0 -108 42 -139 110 -139c51 0 90 19 125 52l26 -54c-38 -39 -83 -62 -135 -69l-26 -132h-70l25 131c-92 8 -147 69 -147 207c0 31 3 64 8 101
c27 197 111 294 247 305z" />
    <glyph glyph-name="cent.dnom" horiz-adv-x="291" 
d="M268 368l-11 -52c-19 8 -42 15 -65 15c-75 0 -104 -33 -116 -128c-3 -17 -4 -34 -4 -47c0 -67 27 -91 82 -91c27 0 51 9 74 21l-2 -48c-19 -12 -44 -21 -75 -24l-15 -79h-54l17 80c-64 11 -96 51 -96 131c0 17 2 36 5 57c16 113 62 172 154 181l17 77h53l-17 -78
c21 -3 39 -8 53 -15z" />
    <glyph glyph-name="cent.pnum" horiz-adv-x="458" 
d="M313 729h70l-27 -127c31 -5 60 -15 87 -30l-34 -65c-31 15 -57 22 -98 22c-100 0 -159 -65 -183 -232c-5 -36 -8 -67 -8 -94c0 -108 42 -139 110 -139c51 0 90 19 125 52l26 -54c-39 -39 -80 -61 -133 -69l-27 -137h-71l27 136c-92 8 -149 68 -149 208c0 31 3 63 8 100
c27 199 112 297 251 305z" />
    <glyph glyph-name="cent.onum_pnum" horiz-adv-x="453" 
d="M311 729h71l-27 -127c31 -5 61 -15 88 -30l-34 -65c-31 15 -57 22 -98 22c-100 0 -159 -65 -183 -232c-5 -36 -8 -67 -8 -94c0 -108 42 -139 110 -139c51 0 90 19 125 52l26 -54c-37 -38 -81 -61 -132 -69l-27 -137h-71l26 136c-92 8 -149 68 -149 208c0 31 3 63 8 100
c27 199 113 296 250 305z" />
    <glyph glyph-name="cent.onum" 
d="M360 734h74l-28 -133c39 -4 78 -15 106 -28l-17 -78c-35 17 -79 29 -124 29c-132 0 -194 -64 -215 -221c-4 -27 -6 -52 -6 -73c0 -121 58 -165 157 -165c49 0 96 13 137 36l-2 -71c-35 -23 -86 -38 -143 -42l-26 -136h-75l27 138c-115 15 -172 84 -172 221
c0 27 2 58 7 91c27 188 110 289 271 301z" />
    <glyph glyph-name="D" unicode="D" horiz-adv-x="666" 
d="M142 750h229c173 0 254 -70 254 -250c0 -36 -3 -77 -10 -122c-40 -277 -147 -378 -347 -378h-231zM227 668l-82 -586h132c132 0 201 53 236 297c6 45 9 84 9 117c0 135 -54 172 -163 172h-132z" />
    <glyph glyph-name="Eth" unicode="&#xd0;" horiz-adv-x="675" 
d="M150 750h229c173 0 254 -70 254 -250c0 -36 -3 -77 -10 -122c-40 -277 -147 -378 -347 -378h-231l51 363h-65l8 59h65zM235 668l-34 -246h96l-8 -59h-96l-40 -281h132c132 0 201 53 236 297c6 45 9 84 9 117c0 135 -54 172 -163 172h-132z" />
    <glyph glyph-name="D.c2sc" horiz-adv-x="608" 
d="M120 649h216c161 0 234 -65 234 -221c0 -31 -3 -64 -8 -101c-32 -236 -135 -327 -315 -327h-218zM200 573l-70 -497h125c121 0 184 49 213 252c5 36 8 66 8 93c0 116 -50 152 -151 152h-125z" />
    <glyph glyph-name="Eth.c2sc" horiz-adv-x="616" 
d="M128 649h216c161 0 234 -65 234 -221c0 -31 -3 -64 -8 -101c-32 -236 -135 -327 -315 -327h-218l43 310h-72l9 62h72zM208 573l-28 -201h117l-9 -62h-117l-33 -234h125c121 0 184 49 213 252c5 36 8 66 8 93c0 116 -50 152 -151 152h-125z" />
    <glyph glyph-name="I" unicode="I" horiz-adv-x="295" 
d="M48 0l105 750h100l-105 -750h-100z" />
    <glyph glyph-name="I.c2sc" horiz-adv-x="276" 
d="M41 0l91 649h94l-91 -649h-94z" />
    <glyph glyph-name="one" unicode="1" horiz-adv-x="591" 
d="M112 0l8 64h121l74 525c3 13 4 28 8 40l-2 2c-10 -7 -21 -15 -34 -22l-124 -74v78l217 139h55l-97 -688h116l-8 -64h-334z" />
    <glyph glyph-name="one.pnum" horiz-adv-x="429" 
d="M373 752l-105 -752h-97l81 582c3 16 5 31 8 40l-3 2c-11 -9 -22 -16 -33 -23l-120 -77v82l214 146h55z" />
    <glyph glyph-name="one.onum_pnum" horiz-adv-x="422" 
d="M350 631l-88 -631h-92l66 473c3 12 4 27 8 40l-2 2l-34 -23l-111 -66v77l200 128h53z" />
    <glyph glyph-name="one.onum" 
d="M54 0l8 57h154l58 420c3 13 4 28 8 40l-2 2l-35 -21l-155 -87v78l245 142h54l-80 -574h142l-8 -57h-389z" />
    <glyph glyph-name="J" unicode="J" horiz-adv-x="490" 
d="M458 750l-72 -514c-27 -182 -116 -247 -266 -247c-53 0 -105 13 -138 36l18 76c31 -23 76 -33 117 -33c97 0 153 43 170 167l72 515h99z" />
    <glyph glyph-name="J.c2sc" horiz-adv-x="416" 
d="M386 649l-64 -451c-21 -151 -103 -209 -218 -209c-49 0 -92 11 -119 34l18 74c23 -21 61 -33 94 -33c77 0 119 41 132 133l64 452h93z" />
    <glyph glyph-name="K" unicode="K" horiz-adv-x="635" 
d="M561 0h-119l-166 353h-93l-49 -353h-97l105 750h97l-45 -321h93l252 321h114l-280 -354z" />
    <glyph glyph-name="K.c2sc" horiz-adv-x="589" 
d="M518 0h-114l-156 302h-86l-42 -302h-91l91 649h91l-39 -276h89l230 276h107l-258 -306z" />
    <glyph glyph-name="k" unicode="k" horiz-adv-x="551" 
d="M114 0h-90l111 792l91 7l-40 -283c-3 -13 -4 -28 -7 -40l2 -1c59 87 136 132 213 132c79 0 113 -40 113 -107c0 -90 -65 -188 -181 -245c32 -103 93 -176 174 -192l-19 -70c-127 8 -225 125 -252 292c123 43 187 125 187 193c0 31 -15 51 -55 51
c-89 0 -190 -117 -217 -311z" />
    <glyph glyph-name="L" unicode="L" horiz-adv-x="516" 
d="M146 81h309l-14 -81h-404l105 750h98z" />
    <glyph glyph-name="Lslash" unicode="&#x141;" horiz-adv-x="539" 
d="M170 81h309l-14 -81h-404l42 304l-75 -35l3 76l84 40l51 365h98l-46 -323l199 94l-3 -80l-207 -96z" />
    <glyph glyph-name="L.c2sc" horiz-adv-x="481" 
d="M131 76h288l-13 -76h-377l91 649h92z" />
    <glyph glyph-name="Lslash.c2sc" horiz-adv-x="497" 
d="M148 76h288l-13 -76h-377l39 277l-70 -29l5 71l75 32l42 298h92l-37 -259l190 90l-3 -73l-197 -92z" />
    <glyph glyph-name="M" unicode="M" horiz-adv-x="827" 
d="M142 750h110l122 -571c3 -15 6 -28 7 -40h2l8 18l9 19l285 574h110l-105 -750h-88l76 544c3 13 5 28 9 41l-2 1l-289 -586h-69l-124 581h-2c-1 -13 -1 -28 -4 -41l-75 -540h-85z" />
    <glyph glyph-name="M.c2sc" horiz-adv-x="766" 
d="M120 649h103l118 -484l8 -40h2c4 11 11 23 18 36l256 488h102l-91 -649h-83l66 474c3 13 5 28 9 41l-2 1l-264 -516h-61l-120 505h-2c-1 -13 -1 -28 -4 -41l-64 -464h-82z" />
    <glyph glyph-name="N" unicode="N" horiz-adv-x="684" 
d="M547 0h-71l-271 593h-2c-1 -13 -1 -28 -4 -41l-77 -552h-85l105 750h89l256 -575h2c0 14 1 28 3 41l75 534h85z" />
    <glyph glyph-name="N.c2sc" horiz-adv-x="633" 
d="M504 0h-73l-251 506h-2c0 -15 -1 -28 -3 -41l-65 -465h-81l91 649h82l243 -495h2c1 13 1 28 4 41l64 454h80z" />
    <glyph glyph-name="O" unicode="O" horiz-adv-x="670" 
d="M617 375c-40 -285 -131 -388 -334 -388c-163 0 -237 72 -237 252c0 40 4 85 11 136c40 284 134 387 335 387c164 0 236 -69 236 -246c0 -41 -3 -88 -11 -141zM516 375c8 56 12 103 12 142c0 130 -47 165 -148 165c-129 0 -187 -59 -222 -307c-8 -55 -12 -102 -12 -139
c0 -132 48 -169 148 -169c131 0 187 62 222 308z" />
    <glyph glyph-name="Oslash" unicode="&#xd8;" horiz-adv-x="671" 
d="M39 -13l-45 41l70 82c-12 34 -18 77 -18 128c0 40 4 86 11 137c40 282 135 387 336 387c92 0 155 -21 192 -72l64 70l44 -41l-79 -87c10 -33 15 -73 15 -119c0 -40 -4 -86 -11 -138c-40 -285 -131 -388 -334 -388c-88 0 -151 22 -189 67zM160 375
c-8 -53 -11 -96 -11 -133v-24c0 -7 0 -15 1 -22l363 411c-21 52 -64 69 -132 69c-129 0 -186 -59 -221 -301zM515 375c8 57 11 114 12 173l-362 -410c21 -49 63 -65 131 -65c129 0 184 62 219 302z" />
    <glyph glyph-name="Q" unicode="Q" horiz-adv-x="670" 
d="M617 375c-35 -246 -107 -355 -257 -379l132 -118l-120 -29l-106 138c-152 5 -220 77 -220 251c0 40 4 86 11 137c40 284 134 387 335 387c164 0 236 -69 236 -246c0 -41 -3 -88 -11 -141zM516 375c8 56 12 103 12 142c0 130 -47 165 -148 165c-129 0 -187 -59 -222 -307
c-8 -55 -12 -102 -12 -139c0 -132 48 -169 148 -169c131 0 187 62 222 308z" />
    <glyph glyph-name="o" unicode="o" horiz-adv-x="535" 
d="M292 533c-94 0 -137 -54 -164 -237c-6 -43 -9 -79 -9 -107c0 -99 34 -128 105 -128c95 0 140 54 167 238c6 41 9 75 9 104c0 100 -36 130 -108 130zM305 607c131 0 186 -58 186 -198c0 -33 -3 -70 -9 -112c-29 -216 -107 -307 -269 -307c-131 0 -186 58 -186 198
c0 33 3 70 9 112c29 216 107 307 269 307z" />
    <glyph glyph-name="oslash" unicode="&#xf8;" horiz-adv-x="535" 
d="M305 607c70 0 120 -19 149 -56l42 49l35 -34l-53 -63c9 -26 13 -58 13 -97c0 -32 -3 -68 -9 -109c-29 -216 -107 -307 -269 -307c-71 0 -120 18 -148 54l-43 -48l-35 34l52 61c-8 26 -12 58 -12 95c0 33 3 71 9 114c29 216 107 307 269 307zM391 299c5 43 9 79 9 118
l-274 -293c13 -47 46 -63 98 -63c95 0 140 54 167 238zM292 533c-94 0 -137 -54 -164 -237c-5 -39 -9 -73 -9 -106v-11l273 291c-15 47 -48 63 -100 63z" />
    <glyph glyph-name="Oslash.c2sc" horiz-adv-x="605" 
d="M28 -13l-38 35l59 69c-13 31 -20 71 -20 122c0 33 1 70 8 111c35 240 121 335 308 335c80 0 135 -16 171 -55l55 60l38 -35l-63 -70c14 -32 21 -73 21 -122c0 -33 -3 -71 -9 -113c-35 -242 -120 -335 -307 -335c-80 0 -137 17 -173 56zM462 324c7 44 10 80 10 111
c0 20 -2 40 -3 56l-330 -370c20 -43 59 -57 122 -57c120 0 172 56 201 260zM132 324c-6 -43 -9 -80 -9 -110c0 -19 1 -36 2 -51l328 368c-21 39 -59 52 -119 52c-120 0 -173 -54 -202 -259z" />
    <glyph glyph-name="O.c2sc" horiz-adv-x="605" 
d="M345 659c155 0 222 -65 222 -222c0 -33 -3 -71 -9 -113c-35 -242 -120 -335 -307 -335c-155 0 -223 65 -223 224c0 33 3 70 9 111c35 240 121 335 308 335zM335 584c-121 0 -174 -53 -203 -260c-6 -43 -9 -80 -9 -111c0 -115 42 -150 138 -150c120 0 172 56 201 261
c7 45 10 82 10 113c0 114 -43 147 -137 147z" />
    <glyph glyph-name="Q.c2sc" horiz-adv-x="618" 
d="M351 659c155 0 222 -65 222 -222c0 -33 -3 -71 -9 -113c-29 -203 -91 -301 -226 -325l121 -109l-106 -19l-113 118c-143 5 -206 71 -206 223c0 33 3 71 9 112c35 240 121 335 308 335zM341 584c-121 0 -174 -53 -203 -260c-6 -43 -9 -80 -9 -111c0 -115 42 -150 138 -150
c120 0 172 56 201 261c7 45 10 82 10 113c0 114 -43 147 -137 147z" />
    <glyph glyph-name="zero" unicode="0" horiz-adv-x="591" 
d="M540 375c-40 -284 -127 -385 -297 -385c-137 0 -201 63 -201 234c0 43 4 94 12 151c40 291 125 384 298 384c136 0 201 -60 201 -231c0 -44 -5 -93 -13 -153zM447 376c9 63 13 111 13 151c0 125 -43 155 -119 155c-102 0 -159 -52 -194 -306c-9 -63 -13 -112 -13 -152
c0 -128 44 -159 121 -159c103 0 155 54 192 311z" />
    <glyph glyph-name="zero.dnom" horiz-adv-x="337" 
d="M176 399c79 0 116 -37 116 -130c0 -21 -2 -45 -6 -72c-20 -143 -72 -202 -168 -202c-80 0 -117 40 -117 133c0 20 1 42 5 69c21 147 71 202 170 202zM168 347c-51 0 -82 -26 -98 -150c-4 -27 -6 -50 -6 -69c0 -64 22 -81 61 -81c48 0 80 28 96 151c4 28 6 51 6 69
c0 64 -22 80 -59 80z" />
    <glyph glyph-name="zero.pnum" horiz-adv-x="575" 
d="M344 759c136 0 201 -60 201 -231c0 -44 -5 -93 -13 -153c-40 -284 -127 -385 -297 -385c-137 0 -200 64 -200 233c0 43 4 94 12 152c40 291 125 384 297 384zM333 682c-102 0 -159 -52 -194 -306c-9 -61 -13 -111 -13 -151c0 -128 44 -160 121 -160c104 0 156 55 193 311
c9 61 13 110 13 150c0 126 -43 156 -120 156z" />
    <glyph glyph-name="zero.pnum_zero" horiz-adv-x="575" 
d="M296 422c23 0 36 -10 36 -34c0 -44 -22 -59 -49 -59c-23 0 -34 7 -34 32c0 43 19 61 47 61zM344 759c136 0 201 -60 201 -231c0 -44 -5 -93 -13 -153c-40 -284 -127 -385 -297 -385c-137 0 -200 64 -200 233c0 43 4 94 12 152c40 291 125 384 297 384zM333 682
c-102 0 -159 -52 -194 -306c-9 -61 -13 -111 -13 -151c0 -128 44 -160 121 -160c104 0 156 55 193 311c9 61 13 110 13 150c0 126 -43 156 -120 156z" />
    <glyph glyph-name="zero.onum_pnum" horiz-adv-x="569" 
d="M324 638c135 0 198 -59 198 -210c0 -34 -3 -72 -9 -115c-32 -230 -116 -323 -281 -323c-137 0 -198 61 -198 212c0 33 3 70 9 111c35 237 115 325 281 325zM314 564c-98 0 -153 -50 -180 -250c-6 -43 -9 -80 -9 -109c0 -110 41 -141 118 -141c99 0 151 50 180 250
c6 42 9 78 9 108c0 111 -41 142 -118 142z" />
    <glyph glyph-name="zero.onum_pnum_zero" horiz-adv-x="569" 
d="M324 638c135 0 198 -59 198 -210c0 -34 -3 -72 -9 -115c-32 -230 -116 -323 -281 -323c-137 0 -198 61 -198 212c0 33 3 70 9 111c35 237 115 325 281 325zM312 557c-100 0 -154 -48 -181 -243c-6 -41 -9 -76 -9 -104c0 -109 42 -140 121 -140c102 0 154 50 183 245
c7 40 8 74 8 102c0 109 -41 140 -122 140zM284 362c23 0 36 -10 36 -34c0 -44 -22 -59 -49 -59c-23 0 -34 7 -34 32c0 43 19 61 47 61z" />
    <glyph glyph-name="zero.onum" 
d="M312 638c135 0 198 -59 198 -210c0 -34 -3 -72 -9 -115c-32 -230 -116 -323 -281 -323c-137 0 -199 62 -199 213c0 32 3 69 9 110c35 237 116 325 282 325zM302 564c-98 0 -154 -50 -181 -250c-6 -43 -9 -80 -9 -109c0 -111 41 -141 119 -141c99 0 151 50 180 250
c6 43 9 79 9 108c0 111 -41 142 -118 142z" />
    <glyph glyph-name="zero.onum_zero" 
d="M271 362c23 0 36 -10 36 -34c0 -44 -22 -59 -49 -59c-23 0 -34 7 -34 32c0 43 19 61 47 61zM312 638c135 0 198 -59 198 -210c0 -34 -3 -72 -9 -115c-32 -230 -116 -323 -281 -323c-137 0 -199 62 -199 213c0 32 3 69 9 110c35 237 116 325 282 325zM302 564
c-98 0 -154 -50 -181 -250c-6 -43 -9 -80 -9 -109c0 -111 41 -141 119 -141c99 0 151 50 180 250c6 43 9 79 9 108c0 111 -41 142 -118 142z" />
    <glyph glyph-name="zero.zero" horiz-adv-x="591" 
d="M300 422c23 0 36 -10 36 -34c0 -44 -22 -59 -49 -59c-23 0 -34 7 -34 32c0 43 19 61 47 61zM540 375c-40 -284 -127 -385 -297 -385c-137 0 -201 63 -201 234c0 43 4 94 12 151c40 291 125 384 298 384c136 0 201 -60 201 -231c0 -44 -5 -93 -13 -153zM447 376
c9 63 13 111 13 151c0 125 -43 155 -119 155c-102 0 -159 -52 -194 -306c-9 -63 -13 -112 -13 -152c0 -128 44 -159 121 -159c103 0 155 54 192 311z" />
    <glyph glyph-name="Omega" unicode="&#x2126;" horiz-adv-x="671" 
d="M391 761c153 0 236 -69 236 -236c0 -172 -71 -339 -230 -448v-3h178l-10 -74h-246l14 104c115 93 193 235 193 415c0 117 -47 163 -146 163c-121 0 -181 -68 -208 -252c-3 -24 -5 -46 -5 -69c0 -108 38 -193 98 -257l-14 -104h-245l10 74h177l1 3
c-88 73 -128 173 -128 288c0 23 2 46 5 69c33 228 144 327 320 327z" />
    <glyph glyph-name="P" unicode="P" horiz-adv-x="593" 
d="M142 750h223c148 0 215 -49 215 -169c0 -19 -2 -37 -5 -60c-21 -156 -101 -229 -274 -229h-126l-41 -292h-97zM228 672l-43 -305h126c105 0 148 39 164 154c3 17 4 31 4 46c0 80 -40 105 -125 105h-126z" />
    <glyph glyph-name="Thorn" unicode="&#xde;" horiz-adv-x="592" 
d="M220 615h110c160 0 230 -50 230 -171c0 -19 -1 -37 -4 -58c-21 -156 -103 -230 -291 -230h-110l-21 -156h-97l105 750h97zM208 537l-43 -305h111c110 0 164 34 180 155c2 16 3 31 3 44c0 80 -41 106 -140 106h-111z" />
    <glyph glyph-name="p" unicode="p" horiz-adv-x="548" 
d="M356 607c96 0 149 -48 149 -189c0 -35 -3 -74 -10 -121c-31 -212 -113 -307 -246 -307c-55 0 -100 14 -135 38l-24 -172h-91l104 739l72 5l-1 -43c0 -13 -1 -27 -1 -40l2 -1c45 61 109 91 181 91zM323 532c-80 0 -147 -69 -163 -178l-36 -255c27 -23 63 -35 106 -35
c95 0 149 65 173 235c6 42 9 77 9 105c0 100 -33 128 -89 128z" />
    <glyph glyph-name="thorn" unicode="&#xfe;" horiz-adv-x="552" 
d="M360 606c96 0 149 -48 149 -189c0 -35 -3 -73 -10 -120c-31 -212 -113 -306 -246 -306c-56 0 -101 14 -134 41l-2 -1c-1 -13 -2 -28 -5 -41l-19 -134h-90l132 936l91 7l-32 -230c-3 -13 -4 -28 -7 -40l1 -1c45 52 104 78 172 78zM327 531c-83 0 -149 -69 -165 -185
l-34 -245c27 -23 64 -36 107 -36c96 0 148 66 172 234c6 42 9 77 9 105c0 100 -33 127 -89 127z" />
    <glyph glyph-name="q" unicode="q" horiz-adv-x="548" 
d="M360 605c56 0 84 -8 126 -8h25l-104 -741h-91l24 172c3 13 4 28 8 40l-2 2c-45 -53 -105 -79 -169 -79c-100 0 -153 52 -153 184c0 271 137 430 336 430zM207 64c84 0 147 68 164 184l40 280c-20 3 -40 4 -64 4c-120 0 -199 -82 -224 -263c-5 -35 -7 -63 -7 -87
c0 -88 31 -118 91 -118z" />
    <glyph glyph-name="P.c2sc" horiz-adv-x="551" 
d="M120 649h210c137 0 197 -46 197 -151c0 -15 -2 -31 -5 -50c-19 -135 -90 -201 -249 -201h-118l-34 -247h-92zM201 577l-37 -261h119c88 0 133 25 146 132c2 14 3 27 3 39c0 68 -35 90 -112 90h-119z" />
    <glyph glyph-name="Thorn.c2sc" horiz-adv-x="551" 
d="M196 534h102c151 0 213 -45 213 -152c0 -15 -1 -30 -4 -49c-19 -135 -93 -201 -266 -201h-102l-18 -132h-92l91 649h92zM184 462l-36 -261h103c100 0 149 28 162 132c2 13 3 25 3 37c0 69 -39 92 -128 92h-104z" />
    <glyph glyph-name="R" unicode="R" horiz-adv-x="600" 
d="M142 750h225c135 0 198 -50 198 -159c0 -152 -68 -233 -165 -250l131 -341h-114l-110 325h-128l-45 -325h-97zM228 673l-39 -275h126c85 0 150 41 150 180c0 71 -35 95 -107 95h-130z" />
    <glyph glyph-name="R.c2sc" horiz-adv-x="566" 
d="M120 649h212c125 0 184 -45 184 -144c0 -124 -61 -197 -148 -213l121 -292h-110l-103 277h-117l-38 -277h-92zM202 578l-33 -236h118c85 0 133 39 133 155c0 59 -29 81 -97 81h-121z" />
    <glyph glyph-name="T" unicode="T" horiz-adv-x="528" 
d="M557 668h-201l-93 -668h-98l93 668h-200l14 82h494z" />
    <glyph glyph-name="T.c2sc" horiz-adv-x="490" 
d="M507 574h-186l-80 -574h-92l80 574h-185l12 75h460z" />
    <glyph glyph-name="product" unicode="&#x220f;" horiz-adv-x="674" 
d="M221 -148h-83v827l-80 7l-2 64h564l-2 -64l-79 -7v-827h-84v821h-234v-821z" />
    <glyph glyph-name="_110" horiz-adv-x="676" 
d="M152 -147h-86l116 830l-78 7l6 60h567l-11 -60l-79 -6l-117 -831h-86l116 825h-232z" />
    <glyph glyph-name="pi" unicode="&#x3c0;" horiz-adv-x="615" 
d="M368 141l54 381h-183l-73 -522h-89l73 522c-39 -3 -65 -9 -86 -24l-14 67c29 20 74 32 145 32h410l-10 -75h-84l-54 -381c-1 -6 -2 -12 -2 -17v-14c0 -37 14 -48 54 -48l-9 -66c-101 0 -136 25 -136 97c0 15 1 29 4 48z" />
    <glyph glyph-name="U" unicode="U" horiz-adv-x="664" 
d="M645 750l-70 -496c-27 -187 -127 -267 -295 -267c-147 0 -226 62 -226 203c0 20 2 41 5 64l70 496h97l-70 -499c-3 -19 -4 -36 -4 -51c0 -92 45 -131 140 -131c109 0 167 54 186 182l70 499h97z" />
    <glyph glyph-name="U.c2sc" horiz-adv-x="621" 
d="M591 649l-59 -420c-24 -168 -120 -240 -273 -240c-137 0 -210 54 -210 182c0 19 1 37 4 58l59 420h91l-60 -422c-2 -15 -3 -29 -3 -42c0 -84 42 -120 130 -120c103 0 154 49 170 162l60 422h91z" />
    <glyph glyph-name="V" unicode="V" horiz-adv-x="625" 
d="M560 750h101l-341 -750h-114l-132 750h107l91 -617c3 -13 4 -28 5 -41h2c4 12 10 26 15 38z" />
    <glyph glyph-name="V.c2sc" horiz-adv-x="588" 
d="M511 649h97l-311 -649h-106l-130 649h103l87 -528l3 -20l2 -20h2c4 12 8 26 15 38z" />
    <glyph glyph-name="v" unicode="v" horiz-adv-x="537" 
d="M401 588l85 21c9 -39 14 -80 14 -123c0 -340 -238 -496 -310 -496c-51 0 -136 77 -136 266c0 32 1 67 8 106l33 232l92 5l-34 -237c-6 -44 -9 -82 -9 -115c0 -124 38 -173 66 -173c45 0 201 145 201 412c0 39 -3 73 -10 102z" />
    <glyph glyph-name="W" unicode="W" horiz-adv-x="913" 
d="M460 750h107l43 -617l2 -41h2l11 39l203 619h97l-266 -750h-120l-39 614c-1 13 -2 28 -2 41h-2l-12 -39l-210 -616h-119l-56 750h100l28 -619c1 -7 1 -14 1 -21v-20h2c3 12 7 26 12 39z" />
    <glyph glyph-name="W.c2sc" horiz-adv-x="854" 
d="M420 649h100l45 -528c1 -13 2 -28 2 -41h2c3 12 8 26 12 39l180 530h92l-241 -649h-112l-42 520c-1 13 -2 28 -2 41h-2c-3 -13 -8 -27 -12 -39l-187 -522h-112l-60 649h97l28 -532c0 -13 1 -28 1 -41h2c3 13 8 26 13 39z" />
    <glyph glyph-name="w" unicode="w" horiz-adv-x="812" 
d="M676 588l85 21c9 -39 14 -80 14 -123c0 -334 -218 -496 -288 -496c-39 0 -98 55 -114 189h-1c-66 -133 -162 -189 -196 -189c-45 0 -121 79 -121 261c0 35 1 71 8 112l32 231l92 5l-33 -236c-7 -47 -9 -87 -9 -122c0 -115 30 -163 54 -163c28 0 135 97 164 308l29 209h91
l-32 -232c-6 -45 -9 -84 -9 -117c0 -117 33 -169 62 -169c35 0 181 131 181 414c0 37 -3 69 -9 97z" />
    <glyph glyph-name="X" unicode="X" horiz-adv-x="629" 
d="M638 750l-252 -362l159 -388h-111l-111 294c-5 12 -9 25 -13 38h-2l-21 -35l-190 -297h-113l263 391l-152 359h116l102 -266c4 -12 10 -26 13 -38h2l21 34l178 270h111z" />
    <glyph glyph-name="x" unicode="x" horiz-adv-x="546" 
d="M74 0h-100l227 314l-128 281l103 4l81 -202c5 -12 10 -26 14 -38h2c7 11 14 23 22 34l139 204h98l-209 -292l134 -305h-104l-85 220c-5 12 -10 25 -14 38h-2c-4 -8 -15 -23 -22 -34z" />
    <glyph glyph-name="X.c2sc" horiz-adv-x="592" 
d="M587 649l-230 -313l151 -336h-106l-103 245c-5 12 -10 25 -14 38h-2c-7 -11 -14 -23 -22 -34l-169 -249h-108l240 338l-143 311h111l93 -220l15 -38h2c7 11 14 23 22 34l156 224h107z" />
    <glyph glyph-name="Y" unicode="Y" horiz-adv-x="605" 
d="M74 750h110l109 -369l10 -39h2c5 11 11 23 19 36l210 372h107l-302 -495l-35 -255h-99l35 255z" />
    <glyph glyph-name="yen" unicode="&#xa5;" horiz-adv-x="591" 
d="M120 332h100l-132 418h108l88 -379l8 -40h2l8 18l9 19l196 382h105l-246 -418h101l-8 -57h-122l-7 -53h122l-8 -56h-122l-23 -166h-101l23 166h-124l8 56h124l7 53h-124z" />
    <glyph glyph-name="yen.pnum" horiz-adv-x="655" 
d="M148 334h103l-141 416h110l96 -374c4 -13 7 -27 9 -40h2c5 12 11 24 18 36l202 378h107l-253 -416h103l-7 -54h-125l-8 -53h126l-7 -54h-126l-24 -173h-105l24 173h-126l7 54h126l8 53h-126z" />
    <glyph glyph-name="yen.onum_pnum" 
d="M100 289h94l-128 360h99l89 -308c5 -17 7 -30 10 -39h2c5 11 11 23 19 36l176 311h97l-226 -360h94l-7 -48h-115l-7 -54h115l-7 -46h-115l-19 -141h-95l19 141h-116l7 46h116l7 54h-116z" />
    <glyph glyph-name="yen.onum" 
d="M100 289h94l-128 360h99l89 -308c2 -7 4 -14 5 -21l5 -18h2c5 11 11 23 19 36l176 311h97l-226 -360h94l-7 -48h-115l-7 -54h115l-7 -46h-115l-19 -141h-95l19 141h-116l7 46h116l7 54h-116z" />
    <glyph glyph-name="Y.c2sc" horiz-adv-x="570" 
d="M61 649h106l100 -315c3 -7 5 -14 6 -21l5 -18h2c5 12 12 24 19 35l190 319h102l-276 -429l-30 -220h-96l30 220z" />
    <glyph glyph-name="Z" unicode="Z" horiz-adv-x="555" 
d="M456 0h-465l8 62l417 574c7 11 16 19 25 30l-1 2h-345l15 82h453l-10 -69l-411 -568c-8 -11 -16 -21 -24 -30l1 -2h350z" />
    <glyph glyph-name="summation" unicode="&#x2211;" horiz-adv-x="626" 
d="M447 300l-211 -304l-47 -63l1 -3h392l-3 -78h-496v54l272 405l-272 380v59h481l2 -80h-370l-1 -2l48 -63l204 -285v-20z" />
    <glyph glyph-name="_131" horiz-adv-x="627" 
d="M441 301l-285 -344c-9 -11 -18 -18 -27 -29l1 -2h392l-12 -73h-499l7 50l332 408l-221 384l8 55h483l-8 -75h-373l-1 -2c8 -11 14 -22 21 -33l184 -321z" />
    <glyph glyph-name="Z.c2sc" horiz-adv-x="522" 
d="M425 0h-433l8 57l376 485c8 11 16 19 25 30l-1 2h-318l14 75h421l-9 -64l-370 -477c-7 -10 -16 -20 -26 -30l1 -2h324z" />
    <glyph glyph-name="z" unicode="z" horiz-adv-x="488" 
d="M459 535l-323 -432c-9 -12 -17 -22 -25 -30l1 -2h286l-11 -71h-385l8 62l323 431c8 11 16 19 25 30l-1 2h-272l13 72h369z" />
    <glyph glyph-name="two" unicode="2" horiz-adv-x="591" 
d="M349 758c131 0 199 -57 199 -161c0 -167 -165 -323 -392 -515v-3h326l-14 -79h-440l8 60c206 185 413 367 413 515c0 60 -36 103 -127 103c-65 0 -130 -30 -183 -71l-15 71c57 45 137 80 225 80z" />
    <glyph glyph-name="two.pnum" horiz-adv-x="571" 
d="M337 758c131 0 199 -59 199 -162c0 -165 -164 -322 -388 -511v-3h322l-14 -82h-441l8 60c208 187 413 371 413 515c0 60 -36 103 -127 103c-64 0 -129 -30 -182 -71l-16 71c59 45 137 80 226 80z" />
    <glyph glyph-name="two.onum_pnum" horiz-adv-x="530" 
d="M299 638c127 0 190 -56 190 -144c0 -144 -145 -263 -353 -415v-3h301l-13 -76h-417l8 57c194 159 379 297 379 416c0 51 -35 88 -120 88c-61 0 -122 -24 -173 -61l-15 68c56 39 132 70 213 70z" />
    <glyph glyph-name="two.onum" 
d="M307 638c127 0 190 -55 190 -146c0 -144 -145 -261 -356 -416v-3h304l-13 -73h-416l8 57c194 160 378 297 378 417c0 51 -33 87 -120 87c-61 0 -121 -25 -172 -61l-16 68c56 39 132 70 213 70z" />
    <glyph glyph-name="seven" unicode="7" horiz-adv-x="591" 
d="M591 749l-11 -74l-379 -675h-106l374 631l10 16l11 16l-1 2h-384l17 84h469z" />
    <glyph glyph-name="seven.dnom" horiz-adv-x="337" 
d="M311 394l-8 -54l-197 -340h-77l184 303l22 32l-1 2h-204l12 57h269z" />
    <glyph glyph-name="seven.pnum" horiz-adv-x="563" 
d="M573 750l-11 -75l-374 -675h-106l369 632c6 11 13 22 21 33l-1 2h-377l16 83h463z" />
    <glyph glyph-name="seven.onum_pnum" horiz-adv-x="526" 
d="M520 629l-10 -71l-365 -658h-102l348 612c6 11 13 22 21 33l-1 2h-343l18 82h434z" />
    <glyph glyph-name="seven.onum" 
d="M532 629l-10 -71l-365 -658h-100l346 611c6 11 13 22 21 33l-1 2h-343l18 83h434z" />
    <glyph glyph-name="b" unicode="b" horiz-adv-x="552" 
d="M360 606c96 0 149 -49 149 -189c0 -35 -3 -73 -10 -120c-31 -212 -122 -307 -271 -307c-76 0 -146 25 -197 64l104 739l91 6l-32 -231c-3 -13 -4 -28 -7 -40l1 -1c45 53 104 79 172 79zM326 531c-79 0 -147 -65 -163 -177l-36 -259c27 -20 65 -32 105 -32
c94 0 151 61 175 236c6 42 9 77 9 106c0 99 -33 126 -90 126z" />
    <glyph glyph-name="d" unicode="d" horiz-adv-x="550" 
d="M313 606c40 0 75 -6 107 -15l28 202l92 6l-112 -799h-70l-3 35c-1 7 -1 13 -1 20v21l-2 1c-45 -59 -108 -86 -177 -86c-96 0 -149 50 -149 190c0 294 121 425 287 425zM207 64c80 0 147 64 163 175l39 277c-26 10 -57 15 -94 15c-104 0 -164 -71 -188 -242
c-7 -40 -8 -74 -8 -102c0 -97 32 -123 88 -123z" />
    <glyph glyph-name="eth" unicode="&#xf0;" horiz-adv-x="558" 
d="M478 766l-80 -57c68 -85 117 -199 117 -318c0 -19 -1 -36 -4 -55c-40 -254 -117 -347 -287 -347c-116 0 -197 48 -197 205c0 28 2 60 7 96c28 199 108 281 251 281c51 0 92 -12 123 -37l2 1c-19 48 -44 91 -75 130l-86 -60l-31 34l85 61c-23 24 -50 45 -78 65l70 41
c24 -15 48 -36 71 -61l83 60zM296 496c-98 0 -147 -54 -168 -209c-5 -35 -7 -65 -7 -90c0 -107 42 -134 115 -134c99 0 151 71 178 252c3 19 4 35 4 51c0 87 -41 130 -122 130z" />
    <glyph glyph-name="partialdiff" unicode="&#x2202;" horiz-adv-x="575" 
d="M325 566c59 0 106 -20 137 -53l2 1c-3 117 -48 170 -148 170c-73 0 -127 -22 -179 -63l-16 61c60 47 123 77 219 77c119 0 207 -76 207 -249c0 -27 -3 -56 -7 -88c-34 -244 -158 -435 -344 -435c-119 0 -175 61 -175 174c0 19 2 39 5 60c31 224 142 345 299 345zM439 387
c1 3 1 8 1 15c0 50 -36 96 -110 96c-108 0 -187 -93 -214 -284c-2 -16 -3 -31 -3 -44c0 -75 34 -113 102 -113c116 0 200 154 224 330z" />
    <glyph glyph-name="f" unicode="f" horiz-adv-x="335" 
d="M42 529l12 64h75c24 157 88 210 252 210l-4 -66c-88 0 -141 -20 -157 -144h142l-13 -64h-138l-74 -529h-91l74 529h-78z" />
    <glyph glyph-name="fi" unicode="&#xfb01;" horiz-adv-x="567" 
d="M42 529l12 64h75c24 157 88 210 252 210l-3 -66c-92 0 -142 -20 -158 -144h210c33 0 63 3 91 6l-84 -599h-90l74 529h-210l-74 -529h-91l74 529h-78zM500 797c34 0 51 -13 51 -39c0 -39 -24 -57 -65 -57c-35 0 -53 10 -53 37c0 39 22 59 67 59z" />
    <glyph glyph-name="fl" unicode="&#xfb02;" horiz-adv-x="544" 
d="M42 529l12 64h75c24 158 105 210 277 210c51 0 93 -5 125 -10l-111 -793h-90l103 739c-11 1 -22 2 -37 2c-116 0 -160 -38 -176 -148h131l-11 -64h-129l-74 -529h-91l74 529h-78z" />
    <glyph glyph-name="florin" unicode="&#x192;" horiz-adv-x="374" 
d="M10 -145h-90l231 673h-57l23 68h57l18 56c27 83 93 132 189 132c28 0 57 -5 74 -12l-27 -59c-15 5 -31 9 -50 9c-49 0 -80 -25 -95 -72l-17 -54h127l-24 -68h-127z" />
    <glyph glyph-name="h" unicode="h" horiz-adv-x="556" 
d="M444 0h-90l54 389c3 19 4 36 4 51c0 68 -28 89 -84 89c-84 0 -149 -65 -165 -177l-49 -352h-90l111 792l91 7l-32 -229c-3 -13 -4 -28 -7 -40l2 -1c43 52 100 78 171 78c95 0 143 -49 143 -154c0 -19 -2 -39 -5 -62z" />
    <glyph glyph-name="l" unicode="l" horiz-adv-x="238" 
d="M114 0h-90l111 792l91 7z" />
    <glyph glyph-name="lslash" unicode="&#x142;" horiz-adv-x="321" 
d="M40 377l10 75l87 45l41 295l91 7l-37 -264l91 48l-9 -72l-93 -51l-64 -460h-90l59 423z" />
    <glyph glyph-name="m" unicode="m" horiz-adv-x="817" 
d="M317 0l53 383c3 23 5 43 5 60c0 64 -23 85 -70 85c-76 0 -129 -65 -145 -177l-49 -351h-91l83 594l72 5v-54c0 -7 0 -13 -1 -20l2 -1c42 55 97 83 164 83s107 -33 120 -98l2 -1c43 64 103 99 175 99c85 0 127 -51 127 -152c0 -20 -3 -45 -6 -72l-53 -383h-90l53 383
c3 23 5 42 5 59c0 64 -23 86 -70 86c-76 0 -130 -65 -146 -178l-49 -350h-91z" />
    <glyph glyph-name="n" unicode="n" horiz-adv-x="552" 
d="M349 0l54 388c3 19 4 36 4 51c0 68 -28 90 -84 90c-84 0 -148 -64 -164 -177l-49 -352h-91l83 594l72 5v-59c0 -7 0 -13 -1 -20l3 -1c43 57 104 88 180 88c95 0 142 -48 142 -155c0 -19 -1 -38 -4 -61l-54 -391h-91z" />
    <glyph glyph-name="r" unicode="r" horiz-adv-x="400" 
d="M350 606c25 0 49 -6 64 -14l-26 -87c-16 9 -33 12 -56 12c-85 0 -160 -74 -181 -229l-40 -288h-91l83 594l73 5l-2 -74l-2 -40l2 -1c45 85 108 122 176 122z" />
    <glyph glyph-name="t" unicode="t" horiz-adv-x="373" 
d="M45 525l14 69h77l38 154l71 11l-23 -165h147l-14 -69h-143l-48 -341c-2 -15 -3 -29 -3 -40c0 -55 21 -77 60 -77c25 0 51 9 74 24l3 -65c-31 -19 -67 -33 -110 -33c-79 0 -118 39 -118 131c0 17 1 36 4 57l48 344h-77z" />
    <glyph glyph-name="u" unicode="u" horiz-adv-x="541" 
d="M512 596l-57 -408c-19 -129 -96 -199 -237 -199c-124 0 -183 56 -183 156c0 13 1 28 3 43l57 406l92 5l-58 -412c-1 -5 -2 -11 -2 -16v-14c0 -61 34 -91 102 -91c78 0 123 40 135 121l57 409h91z" />
    <glyph glyph-name="mu" unicode="&#xb5;" horiz-adv-x="564" 
d="M203 -6c-41 0 -79 13 -98 56h-2c-7 -68 -12 -132 -16 -193l-89 -7l105 747h90l-58 -413c-1 -11 -2 -22 -2 -30c0 -57 27 -86 82 -86c75 0 156 61 169 160l51 369h90l-83 -595l-64 -6l-1 50v20c0 7 1 14 2 21l-2 1c-41 -59 -105 -94 -174 -94z" />
    <glyph glyph-name="y" unicode="y" horiz-adv-x="531" 
d="M424 597h89c-80 -322 -228 -604 -448 -744l-32 66c67 47 112 91 155 150l-130 523l99 7l88 -406l8 -40h2c67 116 126 260 169 444z" />
    <glyph glyph-name="three" unicode="3" horiz-adv-x="591" 
d="M341 758c127 0 200 -53 200 -154c0 -110 -63 -175 -144 -202v-2c73 -21 115 -65 115 -141c0 -11 -1 -23 -3 -35c-21 -140 -111 -232 -287 -232c-88 0 -149 23 -193 54l28 72c48 -33 102 -51 173 -51c120 0 188 80 188 188c0 76 -55 110 -198 110l9 67
c156 0 222 53 222 156c0 64 -47 92 -128 92c-72 0 -132 -27 -187 -70l-15 69c55 44 132 79 220 79z" />
    <glyph glyph-name="three.dnom" horiz-adv-x="324" 
d="M168 399c73 0 117 -28 117 -84c0 -57 -32 -89 -76 -105v-2c39 -11 59 -33 59 -73c0 -84 -58 -140 -163 -140c-48 0 -81 10 -112 30l21 48c27 -19 58 -28 97 -28c63 0 94 37 94 88c0 37 -28 52 -104 52l6 46c84 0 116 24 116 71c0 31 -24 45 -67 45
c-41 0 -73 -12 -106 -35l-9 46c31 24 79 41 127 41z" />
    <glyph glyph-name="three.pnum" horiz-adv-x="571" 
d="M330 758c128 0 200 -52 200 -153c0 -109 -62 -177 -144 -203v-2c73 -21 115 -65 115 -141c0 -11 -1 -23 -3 -35c-21 -140 -112 -232 -286 -232c-89 0 -150 23 -194 54l29 72c47 -33 101 -51 172 -51c119 0 189 77 189 189c0 77 -56 109 -199 109l9 67
c157 0 222 56 222 155c0 65 -47 94 -127 94c-73 0 -132 -28 -188 -71l-15 69c55 44 132 79 220 79z" />
    <glyph glyph-name="three.onum_pnum" horiz-adv-x="525" 
d="M281 639c124 0 183 -53 183 -137s-44 -145 -116 -176v-2c68 -19 99 -63 99 -127c0 -187 -167 -302 -403 -307l2 71c211 5 312 104 312 224c0 65 -42 97 -125 97c-19 0 -43 -2 -62 -5l4 61c155 19 204 64 204 145c0 51 -31 81 -115 81c-68 0 -123 -19 -174 -58l-14 67
c49 39 126 66 205 66z" />
    <glyph glyph-name="three.onum" 
d="M295 639c125 0 183 -53 183 -137s-44 -145 -116 -176v-2c68 -19 98 -63 98 -127c0 -187 -166 -302 -402 -307l1 71c212 5 313 104 313 224c0 65 -42 97 -125 97c-19 0 -43 -2 -62 -5l4 61c157 19 205 65 205 148c0 49 -31 78 -115 78c-65 0 -123 -19 -176 -58l-13 67
c51 39 129 66 205 66z" />
    <glyph glyph-name="four" unicode="4" horiz-adv-x="591" 
d="M520 167h-83l-23 -167h-87l23 167h-314v59l368 524h115l-71 -507h86zM364 243l59 384c2 13 5 26 8 41l-2 1c-7 -11 -15 -24 -23 -35l-245 -358c-8 -12 -16 -20 -24 -31l1 -2h226z" />
    <glyph glyph-name="four.pnum" horiz-adv-x="585" 
d="M515 167h-82l-23 -167h-88l23 167h-314v59l368 524h116l-71 -508h85zM359 242l59 383c2 13 5 26 8 41l-2 1c-7 -12 -16 -24 -23 -35l-245 -357c-8 -11 -14 -21 -25 -33h228z" />
    <glyph glyph-name="four.onum_pnum" horiz-adv-x="558" 
d="M490 69h-77l-24 -172l-85 -4l25 176h-329v58l391 510l101 -6l-69 -493h80zM342 138l58 374c2 13 5 26 8 41l-2 1c-7 -11 -16 -23 -24 -34l-262 -350c-9 -12 -17 -22 -25 -30l1 -2h246z" />
    <glyph glyph-name="four.onum" 
d="M484 631l-69 -492h80l-12 -70h-78l-24 -172l-84 -4l25 176h-330v58l391 510zM334 139l60 376c2 13 5 26 8 41l-2 1c-7 -11 -16 -23 -24 -34l-264 -352c-9 -12 -17 -22 -25 -30l1 -2h246z" />
    <glyph glyph-name="five" unicode="5" horiz-adv-x="591" 
d="M541 750l-7 -81h-300l-39 -180c-1 -7 -3 -14 -5 -21l-4 -18l1 -1c43 15 88 22 133 22c125 0 191 -52 191 -165c0 -15 -1 -32 -4 -49c-25 -177 -114 -265 -279 -265c-80 0 -140 19 -188 54l27 73c48 -33 94 -52 162 -52c111 0 165 57 182 182c2 14 3 27 3 38
c0 79 -44 110 -133 110c-59 0 -116 -15 -159 -38l-30 35l77 356h372z" />
    <glyph glyph-name="five.pnum" horiz-adv-x="548" 
d="M523 750l-7 -81h-300l-39 -180l-9 -39l1 -1c43 15 88 22 133 22c125 0 191 -52 191 -165c0 -15 -1 -32 -4 -49c-25 -177 -114 -265 -279 -265c-80 0 -140 19 -188 54l28 73c47 -33 94 -52 162 -52c109 0 164 57 181 182c2 14 3 27 3 38c0 79 -44 110 -133 110
c-59 0 -116 -15 -159 -38l-30 34l77 357h372z" />
    <glyph glyph-name="five.onum_pnum" horiz-adv-x="516" 
d="M477 629l-7 -79h-286l-36 -167c-1 -7 -3 -14 -5 -21l-4 -18l1 -1c41 16 84 24 130 24c119 0 178 -54 178 -151c0 -193 -157 -321 -406 -326l1 74c202 8 313 97 313 235c0 64 -37 96 -122 96c-65 0 -116 -16 -159 -39l-28 32l75 341h355z" />
    <glyph glyph-name="five.onum" 
d="M493 629l-7 -80h-287l-36 -166c-1 -7 -3 -14 -5 -21l-4 -18l1 -1c40 16 82 24 127 24c119 0 182 -53 182 -152c0 -192 -158 -320 -407 -325l1 74c198 8 314 95 314 230c0 65 -43 98 -129 98c-59 0 -112 -15 -153 -38l-27 34l75 341h355z" />
    <glyph glyph-name="six" unicode="6" horiz-adv-x="591" 
d="M336 477c123 0 185 -55 185 -164c0 -17 -1 -35 -4 -54c-27 -184 -118 -267 -269 -267c-128 0 -201 57 -201 230c0 37 3 80 10 129c40 284 156 407 343 407c56 0 100 -8 145 -27l-19 -75c-40 16 -77 24 -126 24c-132 0 -208 -81 -243 -266l1 -1c51 40 114 64 178 64z
M308 407c-52 0 -118 -28 -159 -74c-7 -43 -8 -80 -8 -111c0 -116 38 -155 117 -155c92 0 147 58 166 193c2 15 3 29 3 42c0 76 -38 105 -119 105z" />
    <glyph glyph-name="six.pnum" horiz-adv-x="562" 
d="M387 758c56 0 100 -8 145 -27l-19 -75c-40 16 -77 24 -126 24c-131 0 -210 -77 -243 -266l1 -1c51 40 114 64 177 64c125 0 186 -51 186 -164c0 -17 -1 -35 -4 -54c-27 -184 -118 -267 -269 -267c-128 0 -201 57 -201 230c0 37 3 80 10 129c40 284 156 407 343 407z
M295 407c-52 0 -118 -28 -159 -74c-7 -43 -8 -79 -8 -110c0 -116 38 -155 117 -155c92 0 147 59 166 192c2 15 3 28 3 41c0 75 -38 106 -119 106z" />
    <glyph glyph-name="six.onum_pnum" horiz-adv-x="539" 
d="M458 744l4 -74c-175 -7 -283 -100 -320 -267l1 -1c47 37 104 59 164 59c119 0 176 -49 176 -157c0 -16 -1 -33 -4 -52c-25 -180 -113 -260 -256 -260c-120 0 -192 59 -192 223c0 32 3 69 9 110c40 284 218 411 418 419zM234 68c85 0 138 55 157 184c2 14 3 27 3 38
c0 72 -37 102 -113 102c-49 0 -112 -28 -149 -71c-5 -40 -8 -75 -8 -104c0 -115 38 -149 110 -149z" />
    <glyph glyph-name="six.onum" 
d="M313 461c119 0 176 -49 176 -157c0 -16 -1 -33 -4 -52c-25 -180 -114 -260 -257 -260c-120 0 -193 58 -193 223c0 32 3 69 9 110c40 284 220 411 420 419l3 -74c-173 -7 -285 -100 -321 -271l1 -1c47 39 106 63 166 63zM287 392c-50 0 -114 -30 -150 -74
c-5 -39 -8 -73 -8 -102c0 -113 38 -148 110 -148c85 0 138 55 157 184c2 14 3 27 3 38c0 72 -36 102 -112 102z" />
    <glyph glyph-name="nine" unicode="9" horiz-adv-x="591" 
d="M341 758c132 0 204 -73 204 -241c0 -31 -3 -65 -8 -104c-45 -310 -152 -421 -333 -421c-64 0 -106 9 -153 32l24 72c40 -19 79 -28 131 -28c127 0 197 79 234 292l-2 2c-49 -39 -106 -56 -170 -56c-131 0 -192 64 -192 172c0 15 1 32 4 49c21 149 104 231 261 231z
M448 447c4 29 6 54 6 77c0 115 -47 158 -126 158c-95 0 -160 -59 -160 -188c0 -76 39 -116 126 -116c60 0 113 18 154 69z" />
    <glyph glyph-name="nine.pnum" horiz-adv-x="563" 
d="M330 758c132 0 204 -73 204 -241c0 -31 -3 -65 -8 -104c-45 -310 -152 -421 -333 -421c-64 0 -106 9 -153 32l23 72c41 -19 80 -28 131 -28c127 0 197 77 234 292l-2 2c-48 -39 -105 -56 -169 -56c-131 0 -192 64 -192 172c0 15 1 32 4 49c20 149 105 231 261 231z
M317 682c-95 0 -161 -60 -161 -188c0 -76 39 -116 127 -116c60 0 113 18 154 69c4 29 6 54 6 77c0 115 -47 158 -126 158z" />
    <glyph glyph-name="nine.onum_pnum" horiz-adv-x="532" 
d="M299 638c121 0 191 -63 191 -215c0 -28 -2 -59 -7 -94c-43 -304 -216 -430 -421 -438l2 74c155 8 272 103 315 287l-2 2c-40 -38 -92 -57 -155 -57c-108 0 -173 54 -173 167c0 173 94 274 250 274zM287 562c-88 0 -147 -60 -147 -185c0 -71 37 -107 111 -107
c60 0 111 22 142 77c4 31 6 58 6 81c0 97 -35 134 -112 134z" />
    <glyph glyph-name="nine.onum" 
d="M306 637c121 0 191 -63 191 -215c0 -28 -2 -58 -7 -93c-43 -304 -217 -430 -422 -438l2 74c156 8 271 103 316 287l-2 2c-42 -36 -93 -54 -154 -54c-108 0 -175 54 -175 166c0 17 1 33 4 48c20 143 102 223 247 223zM293 561c-88 0 -146 -60 -146 -185
c0 -71 37 -107 110 -107c60 0 111 22 142 78c4 30 6 57 6 80c0 96 -35 134 -112 134z" />
    <glyph glyph-name="quotesingle" unicode="'" horiz-adv-x="191" 
d="M108 771h91l-52 -232h-59z" />
    <glyph glyph-name="quotedbl" unicode="&#x22;" horiz-adv-x="349" 
d="M271 771h91l-52 -232h-59zM104 771h91l-52 -232h-59z" />
    <glyph glyph-name="quoteleft" unicode="&#x2018;" horiz-adv-x="217" 
d="M140 583c-35 0 -51 19 -51 50c0 51 51 129 106 189l28 -18c-21 -35 -41 -74 -56 -111c25 0 40 -15 40 -42c0 -40 -26 -68 -67 -68z" />
    <glyph glyph-name="quotedblleft" unicode="&#x201c;" horiz-adv-x="387" 
d="M140 583c-35 0 -51 19 -51 50c0 51 51 129 106 189l28 -18c-21 -35 -41 -74 -56 -111c25 0 40 -15 40 -42c0 -40 -26 -68 -67 -68zM311 583c-35 0 -51 19 -51 50c0 51 51 129 106 189l28 -18c-21 -35 -41 -74 -56 -111c25 0 40 -15 40 -42c0 -40 -26 -68 -67 -68z" />
    <glyph glyph-name="quoteright" unicode="&#x2019;" horiz-adv-x="217" 
d="M170 792c35 0 51 -20 51 -52c0 -48 -51 -129 -106 -187l-28 18c22 35 41 72 56 111h-1c-27 0 -40 13 -40 40c0 39 24 70 68 70z" />
    <glyph glyph-name="quotedblright" unicode="&#x201d;" horiz-adv-x="387" 
d="M170 791c35 0 50 -19 50 -50c0 -50 -49 -128 -105 -189l-28 18c22 35 41 72 56 111h-1c-25 0 -41 14 -41 41c0 39 26 69 69 69zM340 791c35 0 50 -19 50 -50c0 -50 -49 -128 -105 -189l-28 18c22 35 41 72 56 111h-1c-25 0 -41 14 -41 41c0 39 26 69 69 69z" />
    <glyph glyph-name="comma" unicode="," horiz-adv-x="232" 
d="M80 100c35 0 50 -19 50 -50c0 -50 -49 -128 -105 -189l-29 18c23 35 42 72 57 111h-1c-25 0 -41 14 -41 41c0 39 26 69 69 69z" />
    <glyph glyph-name="comma.dnom" horiz-adv-x="147" 
d="M30 64c27 0 37 -13 37 -32c0 -24 -33 -82 -61 -115l-24 6c11 20 24 45 33 68c-21 0 -32 13 -32 30c0 23 16 43 47 43z" />
    <glyph glyph-name="quotesinglbase" unicode="&#x201a;" horiz-adv-x="217" 
d="M73 100c35 0 50 -19 50 -50c0 -50 -49 -128 -105 -189l-29 18c23 35 42 72 57 111h-1c-25 0 -41 14 -41 41c0 39 26 69 69 69z" />
    <glyph glyph-name="quotedblbase" unicode="&#x201e;" horiz-adv-x="387" 
d="M243 100c35 0 50 -19 50 -50c0 -50 -49 -128 -105 -189l-29 18c23 35 42 72 57 111h-1c-25 0 -41 14 -41 41c0 39 26 69 69 69zM73 100c35 0 50 -19 50 -50c0 -50 -49 -128 -105 -189l-29 18c23 35 42 72 57 111h-1c-25 0 -41 14 -41 41c0 39 26 69 69 69z" />
    <glyph glyph-name="period" unicode="." horiz-adv-x="234" 
d="M81 101c35 0 52 -15 52 -44c0 -43 -25 -68 -68 -68c-35 0 -53 14 -53 42c0 44 24 70 69 70z" />
    <glyph glyph-name="period.dnom" horiz-adv-x="147" 
d="M32 66c25 0 37 -9 37 -28c0 -29 -13 -47 -48 -47c-25 0 -38 10 -38 30c0 29 18 45 49 45z" />
    <glyph glyph-name="ellipsis" unicode="&#x2026;" horiz-adv-x="608" 
d="M457 101c35 0 52 -15 52 -44c0 -43 -25 -68 -68 -68c-35 0 -53 14 -53 42c0 44 24 70 69 70zM273 101c35 0 52 -15 52 -44c0 -43 -25 -68 -68 -68c-35 0 -53 14 -53 42c0 44 24 70 69 70zM81 101c35 0 52 -15 52 -44c0 -43 -25 -68 -68 -68c-35 0 -53 14 -53 42
c0 44 24 70 69 70z" />
    <glyph glyph-name="colon" unicode=":" horiz-adv-x="234" 
d="M145 562c35 0 53 -15 53 -45c0 -41 -25 -67 -68 -67c-35 0 -53 14 -53 42c0 44 23 70 68 70zM81 101c35 0 52 -15 52 -44c0 -43 -25 -68 -68 -68c-35 0 -53 14 -53 42c0 44 24 70 69 70z" />
    <glyph glyph-name="semicolon" unicode=";" horiz-adv-x="237" 
d="M148 562c35 0 53 -15 53 -45c0 -41 -25 -67 -68 -67c-35 0 -53 14 -53 42c0 44 23 70 68 70zM82 100c35 0 50 -19 50 -50c0 -50 -49 -128 -105 -189l-29 18c23 35 42 72 57 111h-1c-25 0 -41 14 -41 41c0 39 26 69 69 69z" />
    <glyph glyph-name="exclam" unicode="!" horiz-adv-x="276" 
d="M148 196h-68l63 554h99zM102 93c35 0 52 -14 52 -41c0 -40 -23 -63 -67 -63c-35 0 -52 14 -52 41c0 39 24 63 67 63z" />
    <glyph glyph-name="exclamdown" unicode="&#xa1;" horiz-adv-x="275" 
d="M119 470h71l-73 -604h-96zM180 671c35 0 53 -13 53 -40c0 -40 -24 -63 -68 -63c-34 0 -51 14 -51 41c0 39 23 62 66 62z" />
    <glyph glyph-name="question" unicode="?" horiz-adv-x="462" 
d="M287 762c115 0 171 -49 171 -137c0 -128 -81 -216 -201 -285l-24 -144h-70l18 173c111 72 182 135 182 230c0 59 -36 83 -100 83s-116 -26 -163 -66l-25 67c51 47 128 79 212 79zM185 93c34 0 51 -14 51 -41c0 -40 -23 -63 -66 -63c-35 0 -53 13 -53 40c0 40 24 64 68 64
z" />
    <glyph glyph-name="questiondown" unicode="&#xbf;" horiz-adv-x="440" 
d="M167 -100c-115 0 -171 48 -171 136c0 128 80 214 199 285l26 144h71l-18 -172c-110 -75 -183 -133 -183 -230c0 -57 37 -82 100 -82c64 0 116 26 163 66l24 -69c-51 -45 -127 -78 -211 -78zM284 672c36 0 54 -14 54 -41c0 -40 -25 -63 -69 -63c-34 0 -51 14 -51 41
c0 39 23 63 66 63z" />
    <glyph glyph-name="periodcentered" unicode="&#xb7;" horiz-adv-x="261" 
d="M137 401c35 0 52 -15 52 -44c0 -43 -25 -68 -68 -68c-35 0 -53 14 -53 43c0 44 24 69 69 69z" />
    <glyph glyph-name="bullet" unicode="&#x2022;" horiz-adv-x="383" 
d="M202 453c76 0 114 -33 114 -98c0 -111 -55 -160 -150 -160c-75 0 -113 33 -113 99c0 108 54 159 149 159z" />
    <glyph glyph-name="logicalnot" unicode="&#xac;" horiz-adv-x="591" 
d="M415 305h-316v75h391v-221h-75v146z" />
    <glyph glyph-name="underscore" unicode="_" horiz-adv-x="397" 
d="M-36 -45h355l-8 -55h-355z" />
    <glyph glyph-name="equal" unicode="=" 
d="M473 389h-403v68h403v-68zM473 217h-403v69h403v-69z" />
    <glyph glyph-name="notequal" unicode="&#x2260;" horiz-adv-x="591" 
d="M373 574l60 -27l-44 -90h107v-68h-140l-50 -103h190v-69h-223l-59 -121l-61 26l46 95h-106v69h139l50 103h-189v68h223z" />
    <glyph glyph-name="approxequal" unicode="&#x2248;" horiz-adv-x="591" 
d="M394 362c-72 0 -139 51 -200 51c-39 0 -70 -12 -101 -33v70c29 19 62 31 101 31c70 0 137 -51 200 -51c40 0 71 13 102 33v-69c-28 -19 -62 -32 -102 -32zM394 195c-72 0 -139 51 -200 51c-39 0 -70 -12 -101 -33v69c29 19 62 33 101 33c70 0 137 -52 200 -52
c40 0 71 13 102 33v-69c-28 -19 -62 -32 -102 -32z" />
    <glyph glyph-name="emdash" unicode="&#x2014;" horiz-adv-x="659" 
d="M66 375h531l-9 -64h-531z" />
    <glyph glyph-name="endash" unicode="&#x2013;" horiz-adv-x="490" 
d="M66 375h362l-9 -64h-362z" />
    <glyph glyph-name="hyphen" unicode="-" horiz-adv-x="369" 
d="M65 375h243l-9 -64h-243z" />
    <glyph glyph-name="minus" unicode="&#x2212;" 
d="M466 301h-402l11 79h402z" />
    <glyph glyph-name="minus.dnom" horiz-adv-x="339" 
d="M275 178h-254v54h254v-54z" />
    <glyph glyph-name="plus" unicode="+" 
d="M480 302h-170v-171h-81v171h-166v78h166v174h81v-174h170v-78z" />
    <glyph glyph-name="plus.dnom" horiz-adv-x="339" 
d="M279 174h-105v-106h-56v106h-102v55h102v108h56v-108h105v-55z" />
    <glyph glyph-name="plusminus" unicode="&#xb1;" horiz-adv-x="591" 
d="M499 341h-166v-156h-81v156h-162v74h162v166h81v-166h166v-74zM497 79h-408v66h408v-66z" />
    <glyph glyph-name="divide" unicode="&#xf7;" 
d="M272 549c39 0 62 -19 62 -52c0 -35 -23 -51 -62 -51s-63 12 -63 51c0 35 24 52 63 52zM272 235c31 0 59 -15 62 -52c0 -35 -23 -50 -62 -50c-40 0 -63 13 -63 50c0 35 24 52 63 52zM486 301h-429v80h429v-80z" />
    <glyph glyph-name="less" unicode="&#x3c;" 
d="M463 487l-241 -130c-15 -9 -27 -14 -34 -17v-2l19 -9l20 -10l236 -124v-85l-383 207v43l383 214v-87z" />
    <glyph glyph-name="greater" unicode="&#x3e;" 
d="M80 110v85l240 126c12 7 22 11 35 16v2c-13 7 -26 12 -38 19l-237 129v87l384 -214v-43z" />
    <glyph glyph-name="lessequal" unicode="&#x2264;" horiz-adv-x="591" 
d="M492 521l-304 -118c-11 -5 -26 -10 -37 -13v-2c13 -4 27 -10 40 -14l301 -111v-83l-405 170v80l405 177v-86zM492 61h-401v71h401v-71z" />
    <glyph glyph-name="greaterequal" unicode="&#x2265;" horiz-adv-x="591" 
d="M87 180v83l304 113c11 4 26 9 37 12v2c-13 4 -19 6 -40 14l-301 117v86l405 -177v-80zM488 61h-401v71h401v-71z" />
    <glyph glyph-name="guillemotleft" unicode="&#xab;" horiz-adv-x="580" 
d="M511 442l-198 -117l165 -117l-10 -70l-246 183l1 8l297 183zM309 442l-198 -117l165 -117l-10 -70l-246 183l1 8l297 183z" />
    <glyph glyph-name="guillemotright" unicode="&#xbb;" horiz-adv-x="580" 
d="M239 138l10 70l196 117l-163 117l9 70l247 -183l-1 -8zM37 138l10 70l196 117l-163 117l9 70l247 -183l-1 -8z" />
    <glyph glyph-name="guilsinglleft" unicode="&#x2039;" horiz-adv-x="377" 
d="M326 442l-198 -117l165 -117l-10 -70l-246 183l1 8l297 183z" />
    <glyph glyph-name="guilsinglright" unicode="&#x203a;" horiz-adv-x="377" 
d="M32 138l10 70l196 117l-163 117l9 70l247 -183l-1 -8z" />
    <glyph glyph-name="numbersign" unicode="#" horiz-adv-x="591" 
d="M49 293h105l47 170h-127l9 66h134l57 221h71l-57 -221h103l57 221h70l-58 -221h98l-9 -66h-105l-45 -170h125l-10 -66h-133l-58 -227h-69l57 227h-103l-58 -227h-71l58 227h-98zM272 463l-47 -170h104l46 170h-103z" />
    <glyph glyph-name="numbersign.onum_pnum" 
d="M25 256h91l42 143h-111l8 61h119l51 189h71l-52 -189h120l51 189h70l-52 -189h86l-8 -61h-93l-41 -143h113l-8 -60h-120l-52 -196h-70l52 196h-120l-52 -196h-70l51 196h-84zM229 399l-42 -143h120l42 143h-120z" />
    <glyph glyph-name="numbersign.pnum" horiz-adv-x="582" 
d="M38 291h106l50 173h-130l9 63h138l59 223h73l-60 -223h103l59 223h72l-61 -223h101l-9 -63h-108l-49 -173h132l-9 -65h-140l-60 -226h-71l60 226h-103l-60 -226h-72l60 226h-99zM266 464l-49 -173h103l49 173h-103z" />
    <glyph glyph-name="numbersign.onum" 
d="M25 256h92l42 143h-112l8 62h120l51 188h70l-52 -188h120l51 188h69l-52 -188h87l-8 -62h-94l-41 -143h114l-8 -63h-122l-51 -193h-69l52 193h-120l-52 -193h-69l51 193h-85zM229 399l-42 -143h120l42 143h-120z" />
    <glyph glyph-name="parenleft" unicode="(" horiz-adv-x="309" 
d="M293 799l73 -5c-129 -165 -204 -367 -204 -587c0 -125 27 -234 75 -331l-75 -5c-56 89 -87 208 -87 341c0 241 88 436 218 587z" />
    <glyph glyph-name="parenleft.dnom" horiz-adv-x="194" 
d="M145 426l48 -4c-65 -85 -107 -191 -107 -304c0 -65 15 -123 39 -176l-48 -3c-33 49 -50 109 -50 181c0 127 45 226 118 306z" />
    <glyph glyph-name="parenright" unicode=")" horiz-adv-x="309" 
d="M66 794l74 5c57 -99 88 -205 88 -336c0 -225 -88 -448 -219 -592l-71 5c121 159 203 359 203 586c0 121 -26 233 -75 332z" />
    <glyph glyph-name="parenright.dnom" horiz-adv-x="194" 
d="M18 422l49 4c34 -51 51 -111 51 -178c0 -120 -46 -233 -119 -309l-49 3c63 87 107 187 107 306c0 64 -14 121 -39 174z" />
    <glyph glyph-name="bracketleft" unicode="[" horiz-adv-x="303" 
d="M19 -126l130 923h211l-9 -63h-128l-112 -798h129l-9 -62h-212z" />
    <glyph glyph-name="bracketright" unicode="]" horiz-adv-x="303" 
d="M278 797l-130 -923h-210l9 62h128l112 798h-129l9 63h211z" />
    <glyph glyph-name="braceleft" unicode="{" horiz-adv-x="347" 
d="M249 438c-7 -47 -32 -82 -71 -99v-2c29 -16 44 -43 44 -80v-9c0 -3 0 -6 -1 -9c-13 -83 -33 -135 -44 -215c-1 -3 -1 -7 -1 -10v-8c0 -40 21 -64 81 -64h26l-9 -66h-22c-119 0 -162 41 -162 110c0 8 1 17 2 28c11 81 37 145 48 225c1 2 1 4 1 6v7c0 36 -23 62 -60 67
l6 38c44 7 74 37 81 80c11 80 3 144 16 225c11 86 65 139 198 139h22l-9 -67h-26c-68 0 -97 -31 -104 -82c-11 -80 -5 -131 -16 -214z" />
    <glyph glyph-name="braceright" unicode="}" horiz-adv-x="347" 
d="M92 239c7 45 31 81 70 98v2c-28 15 -43 43 -43 80v9c0 3 0 7 1 10c11 83 33 134 44 214c1 3 1 6 1 9v9c0 39 -21 64 -81 64h-26l9 67h22c117 0 161 -42 161 -111c0 -8 -1 -17 -2 -28c-13 -81 -37 -145 -48 -225c-1 -3 -1 -8 -1 -13c0 -36 22 -62 61 -67l-6 -38
c-44 -7 -75 -37 -82 -80c-11 -80 -5 -144 -16 -225c-13 -85 -63 -138 -197 -138h-21l9 66h25c68 0 97 30 104 82c11 80 3 132 16 215z" />
    <glyph glyph-name="asterisk" unicode="*" horiz-adv-x="342" 
d="M210 792h47l-11 -109l107 29l9 -45l-106 -36l51 -91l-41 -28l-59 89l-88 -89l-33 26l77 93l-97 36l24 45l98 -29z" />
    <glyph glyph-name="slash" unicode="/" horiz-adv-x="401" 
d="M383 797h78l-444 -922h-76z" />
    <glyph glyph-name="backslash" unicode="\" horiz-adv-x="349" 
d="M70 797h73l141 -922h-73z" />
    <glyph glyph-name="fraction" unicode="&#x2044;" horiz-adv-x="269" 
d="M400 750h68l-570 -750h-68z" />
    <glyph glyph-name="bar" unicode="|" horiz-adv-x="264" 
d="M96 -173v987h70v-987h-70z" />
    <glyph glyph-name="brokenbar" unicode="&#xa6;" horiz-adv-x="264" 
d="M96 377v437h70v-437h-70zM96 -164v441h70v-441h-70z" />
    <glyph glyph-name="at" unicode="@" horiz-adv-x="805" 
d="M448 563c38 0 63 -14 76 -42h2l19 36l49 -4l-77 -259c-7 -20 -10 -40 -10 -56c0 -33 15 -56 54 -56c68 0 126 69 149 224c3 24 5 46 5 69c0 152 -78 256 -238 256c-249 0 -384 -240 -384 -488c0 -179 86 -294 275 -294c136 0 225 46 282 95l16 -47
c-72 -57 -173 -100 -305 -100c-212 0 -325 123 -325 340c0 277 162 547 450 547c183 0 285 -122 285 -303c0 -24 -1 -48 -5 -75c-29 -198 -123 -285 -222 -285c-53 0 -88 25 -95 76l-2 1c-35 -47 -82 -77 -139 -77c-63 0 -103 38 -103 122c0 163 119 320 243 320zM448 305
l48 159c-8 27 -26 36 -54 36c-75 0 -160 -122 -160 -244c0 -46 18 -69 55 -69c48 0 92 48 111 118z" />
    <glyph glyph-name="sterling" unicode="&#xa3;" horiz-adv-x="591" 
d="M75 339l6 71h51c-5 33 -10 65 -10 100c0 132 72 250 276 250c68 0 122 -15 161 -36l-24 -79c-32 19 -82 33 -137 33c-135 0 -182 -76 -182 -173c0 -31 4 -63 8 -95h232l-10 -71h-217v-28c0 -116 -38 -194 -103 -235l1 -2c60 12 118 16 194 16c65 0 125 -5 185 -12
l-16 -84c-79 9 -144 14 -220 14c-87 0 -160 -4 -259 -13l6 80c88 32 123 133 123 238v26h-65z" />
    <glyph glyph-name="sterling.pnum" horiz-adv-x="582" 
d="M66 344l5 66h52c-4 35 -10 66 -10 101c0 131 74 249 282 249c69 0 125 -15 165 -36l-23 -76c-35 19 -87 33 -142 33c-136 0 -183 -77 -183 -176c0 -31 4 -62 7 -95h236l-9 -66h-221v-21c0 -123 -35 -209 -106 -252l1 -2c61 12 123 17 199 17c68 0 127 -5 188 -12l-17 -80
c-80 9 -146 14 -225 14c-88 0 -162 -5 -263 -13l6 81c88 32 124 134 124 239c0 11 -1 20 -1 29h-65z" />
    <glyph glyph-name="sterling.onum_pnum" horiz-adv-x="505" 
d="M43 295l5 61h45c-4 27 -8 54 -8 83c0 113 64 218 252 218c61 0 110 -12 147 -31l-22 -69c-31 16 -78 28 -126 28c-123 0 -161 -65 -161 -153c0 -13 1 -25 2 -38l4 -38h211l-9 -61h-197v-24c0 -96 -30 -169 -90 -205l1 -2c55 11 108 14 176 14c59 0 114 -4 166 -11
l-15 -72c-72 7 -132 12 -203 12c-78 0 -143 -3 -233 -11l6 72c77 24 105 112 105 200v27h-56z" />
    <glyph glyph-name="sterling.onum" 
d="M48 295l5 62h46c-4 27 -8 52 -8 80c0 113 64 220 259 220c64 0 116 -13 155 -32l-22 -70c-32 17 -82 29 -134 29c-129 0 -168 -68 -168 -152c0 -25 3 -50 6 -75h222l-9 -62h-208c0 -115 -24 -186 -92 -229l1 -2c57 11 114 14 185 14c61 0 119 -4 174 -11l-15 -72
c-75 7 -138 12 -210 12c-82 0 -150 -3 -243 -11l7 72c80 27 106 111 106 200v27h-57z" />
    <glyph glyph-name="currency" unicode="&#xa4;" horiz-adv-x="591" 
d="M316 518c33 0 62 -10 86 -26l74 65l41 -49l-73 -64c11 -21 16 -44 16 -67c0 -41 -13 -78 -39 -110l53 -62l-56 -49l-52 61c-31 -19 -63 -28 -96 -28c-35 0 -65 10 -88 27l-69 -60l-41 48l70 62c-10 19 -15 40 -15 64c0 43 15 82 42 114l-54 64l55 48l55 -64
c27 16 58 26 91 26zM308 458c-63 0 -120 -54 -120 -118c0 -51 38 -89 91 -89c61 0 119 54 119 119c0 51 -37 88 -90 88z" />
    <glyph glyph-name="currency.pnum" horiz-adv-x="532" 
d="M98 355c5 35 20 65 41 92l-55 64l56 49l55 -65c28 16 60 26 93 26s61 -10 85 -26l76 65l41 -49l-74 -65c11 -21 16 -43 16 -66c0 -43 -15 -81 -39 -112l54 -63l-56 -50l-54 62c-28 -17 -61 -28 -96 -28s-65 10 -88 27l-71 -61l-42 50l71 61c-9 21 -14 43 -14 67v10
c0 4 0 8 1 12zM161 356c-1 -3 -1 -6 -1 -9v-7c0 -51 37 -88 90 -88c62 0 120 54 120 118c0 51 -38 90 -91 90c-59 0 -110 -45 -118 -104z" />
    <glyph glyph-name="currency.onum_pnum" 
d="M290 489c32 0 61 -10 84 -26l71 63l42 -48l-72 -62c9 -21 15 -44 15 -68c0 -39 -16 -74 -37 -105l51 -60l-55 -48l-50 59c-29 -17 -61 -27 -94 -27c-34 0 -63 9 -86 27l-68 -59l-40 48l68 59c-11 17 -14 37 -14 60c0 43 14 82 41 115l-52 61l53 48l54 -62
c27 15 57 25 89 25zM282 427c-62 0 -114 -52 -114 -114c0 -49 35 -84 86 -84c60 0 114 51 114 112c0 49 -35 86 -86 86z" />
    <glyph glyph-name="currency.onum" 
d="M290 489c32 0 61 -10 84 -26l71 63l42 -48l-72 -62c9 -21 15 -44 15 -68c0 -39 -16 -74 -37 -105l51 -60l-55 -48l-50 59c-29 -17 -61 -27 -94 -27c-34 0 -63 9 -86 27l-68 -59l-40 48l68 59c-11 17 -14 37 -14 60c0 43 14 82 41 115l-52 61l53 48l54 -62
c27 15 57 25 89 25zM282 427c-61 0 -114 -52 -114 -114c0 -49 35 -84 86 -84c60 0 114 51 114 112c0 49 -35 86 -86 86z" />
    <glyph glyph-name="section" unicode="&#xa7;" horiz-adv-x="510" 
d="M332 791c59 0 125 -16 164 -45l-18 -66c-45 28 -95 42 -151 42c-77 0 -128 -36 -128 -96c0 -106 267 -129 267 -306c0 -67 -35 -135 -115 -175c35 -31 61 -63 61 -110c0 -111 -92 -177 -225 -177c-59 0 -125 16 -164 45l17 66c47 -31 96 -42 151 -42c77 0 128 35 128 95
c0 106 -266 130 -266 306c0 65 33 136 113 176c-36 31 -61 64 -61 111c0 110 95 176 227 176zM227 460c-60 -23 -85 -65 -85 -113c0 -63 48 -97 148 -158c59 23 87 63 87 110c0 66 -51 100 -150 161z" />
    <glyph glyph-name="ordfeminine" unicode="&#xaa;" horiz-adv-x="428" 
d="M316 819c40 0 63 -7 95 -7h21l-61 -430h-62l-3 57l-2 1c-31 -44 -76 -65 -125 -65c-75 0 -114 39 -114 132c0 190 98 312 251 312zM307 757c-121 0 -161 -135 -161 -239c0 -60 19 -79 62 -79c56 0 98 48 109 125l27 191c-12 1 -24 2 -37 2z" />
    <glyph glyph-name="ordmasculine" unicode="&#xba;" horiz-adv-x="415" 
d="M407 596c-24 -164 -80 -221 -196 -221c-95 0 -142 39 -142 146c0 22 2 47 6 75c24 165 83 223 199 223c96 0 139 -39 139 -144c0 -23 -2 -49 -6 -79zM156 596c-4 -28 -6 -52 -6 -72c0 -65 22 -85 70 -85c60 0 91 33 107 157c4 29 6 53 6 73c0 65 -22 84 -69 84
c-63 0 -89 -33 -108 -157z" />
    <glyph glyph-name="degree" unicode="&#xb0;" horiz-adv-x="335" 
d="M232 817c64 0 108 -46 108 -109c0 -75 -69 -141 -143 -141c-64 0 -108 47 -108 106c0 77 66 144 143 144zM226 772c-53 0 -92 -43 -92 -94c0 -39 27 -66 70 -66c48 0 92 40 92 91c0 40 -29 69 -70 69z" />
    <glyph glyph-name="paragraph" unicode="&#xb6;" horiz-adv-x="610" 
d="M182 -148h-81l92 656c-75 3 -122 36 -122 104c0 78 59 138 159 138h393l-14 -71h-71l-116 -827h-81l116 827h-159z" />
    <glyph glyph-name="copyright" unicode="&#xa9;" horiz-adv-x="894" 
d="M506 771c197 0 341 -148 341 -338c0 -240 -219 -446 -451 -446c-198 0 -342 148 -342 337c0 240 217 447 452 447zM498 720c-208 0 -392 -181 -392 -388c0 -164 119 -297 295 -297c205 0 395 180 395 392c0 164 -123 293 -298 293zM494 635c64 0 115 -21 144 -44l-17 -65
c-29 19 -75 31 -118 31c-129 0 -209 -91 -209 -211c0 -89 56 -150 161 -150c51 0 98 16 137 40c1 -11 1 -21 1 -32v-31c-41 -29 -107 -56 -171 -56c-137 0 -223 89 -223 218c0 152 116 300 295 300z" />
    <glyph glyph-name="registered" unicode="&#xae;" horiz-adv-x="427" 
d="M281 833c85 0 150 -64 150 -148c0 -106 -95 -197 -199 -197c-87 0 -151 64 -151 148c0 108 99 197 200 197zM278 805c-84 0 -168 -74 -168 -165c0 -70 54 -124 127 -124c86 0 164 77 164 166c0 69 -51 123 -123 123zM197 763h81c49 0 67 -19 67 -48s-15 -57 -44 -66
l32 -84h-45l-28 79h-39l-11 -79h-41zM233 731l-8 -60h44c24 0 36 17 36 37c0 15 -11 23 -32 23h-40z" />
    <glyph glyph-name="trademark" unicode="&#x2122;" horiz-adv-x="617" 
d="M593 505h-48l24 168c3 13 5 29 9 42h-2l-111 -210h-41l-51 210h-2c0 -13 -1 -28 -4 -41l-24 -169h-48l38 269h71l41 -168l8 -40h2c4 11 11 21 18 36l90 172h68zM292 727h-78l-32 -222h-56l32 222h-78l6 47h212z" />
    <glyph glyph-name="dagger" unicode="&#x2020;" horiz-adv-x="468" 
d="M74 601l153 -7l20 199h91l-35 -199l159 7l-11 -79l-157 6l-87 -668h-91l102 668l-155 -6z" />
    <glyph glyph-name="daggerdbl" unicode="&#x2021;" horiz-adv-x="468" 
d="M396 132l-11 -78l-157 6l-21 -201h-91l36 201l-155 -6l11 78l154 -6l56 402l-155 -5l11 78l153 -7l20 199h91l-35 -199l159 7l-11 -78l-157 5l-57 -402z" />
    <glyph glyph-name="tilde" unicode="&#x2dc;" horiz-adv-x="373" 
d="M297 676c-55 0 -71 65 -105 65c-17 0 -31 -19 -42 -56h-53c15 69 52 113 99 113c55 0 71 -65 105 -65c17 0 31 19 41 56h53c-15 -69 -50 -113 -98 -113z" />
    <glyph glyph-name="asciitilde" unicode="~" horiz-adv-x="591" 
d="M165 635h-55c10 91 50 137 120 137c71 0 128 -69 187 -69c39 0 58 21 66 58h55c-9 -91 -49 -137 -120 -137s-128 69 -185 69c-39 0 -60 -22 -68 -58z" />
    <glyph glyph-name="grave" unicode="`" horiz-adv-x="373" 
d="M310 666h-70l-80 140h108z" />
    <glyph glyph-name="acute" unicode="&#xb4;" horiz-adv-x="373" 
d="M274 806h110l-125 -140h-71z" />
    <glyph glyph-name="hungarumlaut" unicode="&#x2dd;" horiz-adv-x="354" 
d="M207 806h97l-120 -140h-60zM357 806h98l-126 -140h-68z" />
    <glyph glyph-name="circumflex" unicode="&#x2c6;" horiz-adv-x="354" 
d="M200 806h79l77 -140h-70l-34 65c-7 11 -12 25 -17 37h-2l-24 -33l-54 -69h-69z" />
    <glyph glyph-name="caron" unicode="&#x2c7;" horiz-adv-x="354" 
d="M260 666h-79l-75 140h70l33 -69l16 -37h2c7 11 15 22 23 33l55 73h71z" />
    <glyph glyph-name="asciicircum" unicode="^" horiz-adv-x="591" 
d="M485 476l-161 257l-159 -257h-77l206 330h63l203 -330h-75z" />
    <glyph glyph-name="dieresis" unicode="&#xa8;" horiz-adv-x="348" 
d="M162 796c27 0 40 -12 40 -36c0 -37 -20 -55 -52 -55c-25 0 -38 11 -38 33c0 36 18 58 50 58zM313 796c27 0 40 -12 40 -36c0 -37 -20 -55 -52 -55c-26 0 -39 11 -39 33c0 36 19 58 51 58z" />
    <glyph glyph-name="dotaccent" unicode="&#x2d9;" horiz-adv-x="373" 
d="M249 797c34 0 51 -13 51 -39c0 -39 -24 -57 -65 -57c-35 0 -53 10 -53 37c0 39 22 59 67 59z" />
    <glyph glyph-name="macron" unicode="&#xaf;" horiz-adv-x="354" 
d="M368 768l-7 -55h-264l7 55h264z" />
    <glyph glyph-name="breve" unicode="&#x2d8;" horiz-adv-x="354" 
d="M307 806h63c-13 -93 -62 -148 -151 -148c-77 0 -112 38 -112 109c0 12 1 25 3 39h62c-1 -5 -2 -10 -2 -15v-14c0 -48 21 -70 56 -70c40 0 70 31 81 99z" />
    <glyph glyph-name="ring" unicode="&#x2da;" horiz-adv-x="354" 
d="M243 821c57 0 86 -26 86 -65c0 -56 -42 -86 -107 -86c-56 0 -87 21 -87 62c0 51 37 89 108 89zM239 785c-37 0 -57 -19 -57 -46c0 -23 15 -34 46 -34c35 0 54 17 54 46c0 20 -12 34 -43 34z" />
    <glyph glyph-name="ogonek" unicode="&#x2db;" horiz-adv-x="373" 
d="M158 -175c-64 0 -89 27 -89 66c0 53 43 100 106 123l36 -14c-47 -19 -69 -51 -69 -86c0 -21 13 -35 46 -35c19 0 38 5 57 14l1 -46c-27 -15 -57 -22 -88 -22z" />
    <glyph glyph-name="cedilla" unicode="&#xb8;" horiz-adv-x="373" 
d="M40 -189l87 195h62l-62 -195h-87z" />
    <glyph glyph-name="percent" unicode="%" horiz-adv-x="655" 
d="M233 763c73 0 112 -30 112 -115c0 -17 -2 -35 -5 -58c-17 -124 -68 -172 -156 -172c-76 0 -113 34 -113 118c0 16 1 34 4 54c17 124 63 173 158 173zM225 710c-47 0 -73 -23 -86 -119c-3 -20 -4 -36 -4 -51c0 -53 20 -68 57 -68c47 0 73 23 86 119c3 19 4 35 4 50
c0 55 -20 69 -57 69zM531 733l48 -38l-464 -678l-49 37zM477 339c73 0 112 -30 112 -118c0 -164 -69 -229 -162 -229c-76 0 -111 35 -111 118c0 17 1 35 4 55c17 124 62 174 157 174zM469 284c-47 0 -73 -23 -86 -119c-3 -20 -4 -36 -4 -51c0 -53 20 -68 57 -68
c47 0 73 23 86 119c3 19 4 35 4 50c0 55 -20 69 -57 69z" />
    <glyph glyph-name="perthousand" unicode="&#x2030;" horiz-adv-x="951" 
d="M233 763c73 0 113 -29 113 -116c0 -17 -2 -36 -5 -57c-17 -124 -69 -172 -157 -172c-76 0 -113 34 -113 118c0 16 1 34 4 54c17 124 63 173 158 173zM225 710c-48 0 -74 -23 -87 -119c-3 -20 -4 -35 -4 -50c0 -55 21 -69 58 -69c46 0 74 23 87 119c3 19 4 33 4 48
c0 56 -21 71 -58 71zM531 733l50 -38l-464 -678l-51 37zM477 339c73 0 112 -30 112 -118c0 -164 -69 -229 -162 -229c-76 0 -111 35 -111 118c0 17 1 35 4 55c17 124 62 174 157 174zM469 284c-48 0 -74 -23 -87 -119c-3 -20 -4 -35 -4 -50c0 -55 21 -69 58 -69
c46 0 74 23 87 119c3 19 4 34 4 49c0 56 -19 70 -58 70zM772 339c73 0 113 -31 113 -119c0 -16 -1 -35 -4 -55c-19 -124 -70 -173 -158 -173c-76 0 -112 34 -112 118c0 16 1 35 4 55c17 124 62 174 157 174zM764 284c-47 0 -73 -23 -86 -119c-3 -20 -4 -35 -4 -50
c0 -55 20 -69 57 -69c47 0 75 23 88 119c3 19 4 33 4 48c0 56 -20 71 -59 71z" />
    <glyph glyph-name="radical" unicode="&#x221a;" horiz-adv-x="537" 
d="M15 414l11 79h142l54 -355c3 -13 4 -28 5 -41h2c4 12 9 26 14 38l257 662h95l-323 -797h-109l-72 414h-76z" />
    <glyph glyph-name="infinity" unicode="&#x221e;" horiz-adv-x="674" 
d="M483 176c-68 0 -113 32 -148 85c-29 -47 -68 -85 -143 -85c-85 0 -150 63 -150 173c0 103 52 173 149 173c68 0 113 -31 148 -86c29 48 69 86 144 86c85 0 149 -62 149 -174c0 -101 -53 -172 -149 -172zM194 254c60 0 87 58 113 118c-28 49 -60 77 -111 77
c-52 0 -81 -42 -81 -98c0 -64 35 -97 79 -97zM480 444c-62 0 -86 -58 -113 -120c27 -48 59 -75 111 -75s80 42 80 98c0 64 -34 97 -78 97z" />
    <glyph glyph-name="_281" horiz-adv-x="676" 
d="M215 521c68 0 108 -31 135 -87h2c33 49 79 87 155 87c77 0 129 -49 129 -138c0 -119 -72 -205 -177 -205c-68 0 -109 32 -136 85h-2c-35 -48 -78 -85 -153 -85c-77 0 -130 48 -130 136c0 117 70 207 177 207zM180 250c63 0 94 59 131 123c-21 51 -49 80 -101 80
c-57 0 -96 -56 -96 -124c0 -51 27 -79 66 -79zM494 449c-62 0 -95 -60 -132 -124c21 -51 49 -79 101 -79c58 0 96 57 96 125c0 51 -26 78 -65 78z" />
    <glyph glyph-name="integral" unicode="&#x222b;" horiz-adv-x="290" 
d="M190 613v-578c0 -129 -57 -189 -185 -189l-2 60c67 3 97 39 97 126v582c0 123 61 184 184 185l2 -62c-60 -1 -96 -40 -96 -124z" />
    <glyph glyph-name="_283" horiz-adv-x="291" 
d="M228 613l-82 -578c-19 -129 -84 -188 -212 -188l6 56c65 3 101 41 113 129l82 582c17 123 88 184 213 185l-6 -58c-61 0 -102 -43 -114 -128z" />
    <glyph glyph-name="lozenge" unicode="&#x25ca;" horiz-adv-x="555" 
d="M28 329l249 322l249 -322l-249 -322zM121 329l155 -200l157 200l-156 201z" />
    <glyph glyph-name="_285" horiz-adv-x="556" 
d="M23 327l296 321l204 -321l-295 -320zM115 328l130 -203l187 202l-131 205z" />
    <glyph glyph-name="one.dnom" horiz-adv-x="248" 
d="M195 396l-55 -396h-66l38 272c3 13 4 27 7 40l-2 2l-34 -23l-51 -30v56l120 79h43z" />
    <glyph glyph-name="two.dnom" horiz-adv-x="324" 
d="M171 399c76 0 112 -33 112 -89c0 -88 -87 -163 -206 -253v-3h173l-8 -54h-253l5 42c115 99 218 183 218 254c0 29 -16 49 -64 49c-36 0 -69 -15 -101 -36l-10 50c36 23 82 40 134 40z" />
    <glyph glyph-name="four.dnom" horiz-adv-x="337" 
d="M281 83h-41l-11 -83h-60l11 83h-188l1 39l212 272h79l-37 -262h43zM188 132l26 163c2 13 5 26 8 41l-2 1c-7 -11 -16 -23 -24 -34l-108 -139c-9 -12 -16 -21 -27 -32h127z" />
    <glyph glyph-name="five.dnom" horiz-adv-x="337" 
d="M289 394l-6 -53h-166l-21 -100c23 5 45 9 68 9c73 0 110 -30 110 -90c0 -107 -59 -165 -159 -165c-45 0 -82 9 -112 28l18 49c31 -17 56 -27 95 -27c64 0 93 32 93 104c0 35 -20 53 -68 53c-31 0 -64 -6 -87 -17l-24 18l44 191h215z" />
    <glyph glyph-name="six.dnom" horiz-adv-x="337" 
d="M289 384l-12 -52c-23 11 -44 14 -75 14c-72 0 -106 -38 -125 -121l1 -1c29 19 60 29 93 29c72 0 108 -30 108 -91c0 -112 -68 -167 -156 -167c-76 0 -120 34 -120 129c0 19 2 38 5 61c20 148 88 214 196 214c31 0 60 -5 85 -15zM154 206c-24 0 -63 -13 -80 -34
c-3 -19 -4 -35 -4 -50c0 -56 20 -77 61 -77c43 0 82 32 82 109c0 35 -20 52 -59 52z" />
    <glyph glyph-name="eight.dnom" horiz-adv-x="337" 
d="M119 -5c-87 0 -126 30 -126 91c0 54 27 94 80 121v2c-24 15 -39 35 -39 70c0 76 47 120 142 120c76 0 111 -28 111 -81c0 -48 -22 -84 -67 -109v-2c31 -15 54 -36 54 -79c0 -89 -59 -133 -155 -133zM122 183c-37 -20 -64 -46 -64 -89c0 -33 23 -50 69 -50
c43 0 81 20 81 71c0 39 -43 55 -86 68zM169 352c-44 0 -73 -23 -73 -66c0 -35 35 -45 73 -59c37 19 57 42 57 77c0 32 -19 48 -57 48z" />
    <glyph glyph-name="nine.dnom" horiz-adv-x="337" 
d="M169 400c79 0 119 -43 119 -130c0 -17 -1 -35 -4 -55c-21 -158 -85 -220 -188 -220c-41 0 -64 7 -91 18l17 49c25 -11 45 -17 76 -17c65 0 102 34 123 141l-2 2c-26 -21 -56 -31 -89 -31c-80 0 -112 35 -112 94c0 87 54 149 151 149zM161 349c-47 0 -80 -28 -80 -89
c0 -36 18 -56 63 -56c29 0 61 11 77 32c2 15 3 28 3 40c0 56 -22 73 -63 73z" />
    <glyph glyph-name="equal.dnom" horiz-adv-x="339" 
d="M273 236h-252v47h252v-47zM273 125h-252v48h252v-48z" />
    <glyph glyph-name="emdash.case" horiz-adv-x="658" 
d="M72 414h531l-9 -64h-531z" />
    <glyph glyph-name="endash.case" horiz-adv-x="489" 
d="M72 414h362l-9 -64h-362z" />
    <glyph glyph-name="hyphen.case" horiz-adv-x="368" 
d="M71 414h243l-9 -64h-243z" />
    <glyph glyph-name="guillemotleft.case" horiz-adv-x="580" 
d="M522 488l-197 -117l164 -117l-10 -70l-246 183l1 8l298 183zM320 488l-197 -117l164 -117l-10 -70l-246 183l1 8l298 183z" />
    <glyph glyph-name="guillemotright.case" horiz-adv-x="580" 
d="M243 184l10 70l197 117l-164 117l10 70l246 -183l-1 -8zM41 184l10 70l197 117l-164 117l10 70l246 -183l-1 -8z" />
    <glyph glyph-name="guilsinglleft.case" horiz-adv-x="376" 
d="M331 481l-197 -117l164 -117l-10 -70l-246 183l1 8l298 183z" />
    <glyph glyph-name="guilsinglright.case" horiz-adv-x="376" 
d="M37 177l10 70l197 117l-164 117l10 70l246 -183l-1 -8z" />
    <glyph glyph-name="parenleft.case" horiz-adv-x="310" 
d="M298 838l74 -5c-129 -164 -205 -366 -205 -585c0 -125 28 -236 76 -333l-75 -5c-56 89 -88 209 -88 342c0 241 88 435 218 586z" />
    <glyph glyph-name="parenright.case" horiz-adv-x="309" 
d="M72 833l73 5c57 -99 88 -205 88 -336c0 -228 -87 -448 -218 -592l-71 5c121 159 202 359 202 587c0 121 -26 232 -74 331z" />
    <glyph glyph-name="bracketleft.case" horiz-adv-x="303" 
d="M24 -87l130 923h211l-9 -63h-128l-112 -798h129l-9 -62h-212z" />
    <glyph glyph-name="bracketright.case" horiz-adv-x="304" 
d="M283 836l-130 -923h-210l8 62h129l112 798h-129l9 63h211z" />
    <glyph glyph-name="braceleft.case" horiz-adv-x="347" 
d="M255 477c-7 -47 -33 -82 -72 -99v-2c30 -15 45 -42 45 -80v-9c0 -3 0 -6 -1 -9c-13 -83 -34 -135 -45 -215c-1 -3 -1 -6 -1 -9v-9c0 -40 22 -64 82 -64h26l-9 -66h-22c-119 0 -162 41 -162 110c0 8 1 17 2 28c11 81 35 145 48 225c1 2 1 4 1 6v7c0 36 -23 62 -60 67l5 38
c44 7 74 37 81 80c11 80 5 144 16 225c11 86 67 139 199 139h22l-10 -67h-26c-68 0 -96 -31 -103 -82c-11 -80 -5 -132 -16 -214z" />
    <glyph glyph-name="braceright.case" horiz-adv-x="347" 
d="M98 278c7 45 30 81 69 98v2c-28 15 -43 42 -43 77c0 7 1 14 2 22c11 83 33 134 44 214c1 3 1 6 1 9v8c0 40 -22 65 -82 65h-26l10 67h22c117 0 160 -41 160 -110c0 -9 -1 -18 -2 -29c-11 -81 -37 -145 -48 -225c-1 -3 -1 -8 -1 -13c0 -36 22 -62 61 -67l-5 -38
c-44 -7 -75 -37 -82 -80c-13 -80 -5 -144 -16 -225c-13 -85 -63 -138 -197 -138h-21l8 66h26c68 0 96 30 103 82c11 80 4 132 17 215z" />
    <glyph glyph-name="tilde.case" horiz-adv-x="373" 
d="M157 798h-46c13 60 46 101 97 101c53 0 76 -62 111 -62c17 0 31 16 42 48h43c-12 -60 -46 -100 -95 -100c-52 0 -79 60 -111 60c-19 0 -32 -19 -41 -47z" />
    <glyph glyph-name="grave.case" horiz-adv-x="373" 
d="M324 795h-75l-97 113h113z" />
    <glyph glyph-name="acute.case" horiz-adv-x="373" 
d="M267 908h121l-135 -113h-74z" />
    <glyph glyph-name="hungarumlaut.case" horiz-adv-x="373" 
d="M187 910h97l-106 -114h-60zM338 910h100l-126 -114h-67z" />
    <glyph glyph-name="circumflex.case" horiz-adv-x="373" 
d="M214 909h95l91 -114h-86l-57 78l-78 -78h-84z" />
    <glyph glyph-name="caron.case" horiz-adv-x="373" 
d="M295 795h-96l-88 114h85l56 -79l80 79h83z" />
    <glyph glyph-name="dieresis.case" horiz-adv-x="373" 
d="M174 889c26 0 39 -11 39 -34c0 -35 -19 -52 -51 -52c-27 0 -39 8 -39 32c0 35 19 54 51 54zM350 889c26 0 39 -11 39 -34c0 -35 -19 -52 -51 -52c-27 0 -39 8 -39 32c0 35 19 54 51 54z" />
    <glyph glyph-name="dotaccent.case" horiz-adv-x="373" 
d="M261 889c39 0 54 -12 54 -35c0 -36 -19 -53 -66 -53c-39 0 -55 10 -55 35c0 35 20 53 67 53z" />
    <glyph glyph-name="macron.case" horiz-adv-x="373" 
d="M390 862l-7 -47h-265l7 47h265z" />
    <glyph glyph-name="breve.case" horiz-adv-x="373" 
d="M339 910h69c-11 -76 -62 -118 -159 -118c-87 0 -130 32 -130 96c0 7 1 14 2 22h68c-1 -3 -1 -8 -1 -14c0 -41 29 -56 68 -56c44 0 76 19 83 70z" />
    <glyph glyph-name="ring.case" horiz-adv-x="373" 
d="M258 888c60 0 88 -25 88 -64c0 -59 -40 -90 -109 -90c-57 0 -85 21 -85 62c0 53 34 92 106 92zM255 847c-36 0 -53 -18 -53 -45c0 -19 11 -30 42 -30c33 0 50 15 50 44c0 19 -11 31 -39 31z" />
    <glyph glyph-name="ogonek.case" horiz-adv-x="373" 
d="M177 18l37 -18c-41 0 -75 -47 -75 -82c0 -24 14 -39 49 -39c20 0 38 5 55 14l2 -47c-27 -15 -55 -23 -88 -23c-63 0 -92 27 -92 70c0 61 48 112 112 125z" />
    <glyph glyph-name="uni00AD" unicode="&#xad;" horiz-adv-x="369" 
d="M65 375h243l-9 -64h-243z" />
    <glyph glyph-name="multiply" unicode="&#xd7;" 
d="M460 201l-52 -53l-136 136l-135 -136l-53 53l135 136l-136 136l54 54l136 -136l135 136l54 -54l-137 -136z" />
    <glyph glyph-name="franc" unicode="&#x20a3;" horiz-adv-x="591" 
d="M-2 175h79l81 575h424l-10 -82h-329l-33 -241h259l-11 -78h-259l-25 -174h84l-9 -63h-84l-15 -112h-97l15 112h-79z" />
    <glyph glyph-name="lira" unicode="&#x20a4;" horiz-adv-x="591" 
d="M86 404l5 54h35c-2 16 -3 32 -3 49c0 134 70 253 274 253c71 0 124 -15 163 -36l-24 -79c-32 19 -83 33 -139 33c-132 0 -180 -80 -180 -176c0 -15 1 -29 2 -44h256l-8 -54h-242c3 -20 5 -39 6 -62h228l-8 -54h-221c-8 -103 -42 -174 -103 -212l1 -2c60 12 118 16 194 16
c67 0 125 -5 185 -12l-16 -84c-79 9 -144 14 -220 14c-87 0 -160 -4 -259 -13l6 80c81 30 115 116 123 213h-67l5 54h62l-3 32l-4 30h-48z" />
    <glyph glyph-name="peseta" unicode="&#x20a7;" horiz-adv-x="591" 
d="M583 494h-53c-27 -140 -102 -202 -254 -202h-115l-41 -292h-90l69 494h-55l7 50h55l29 206h205c137 0 199 -45 199 -165c0 -13 -1 -26 -2 -41h54zM171 365h115c85 0 130 28 151 129h-248zM214 673l-18 -129h248c1 5 1 9 1 13v13c0 77 -37 103 -116 103h-115z" />
    <glyph glyph-name="_324" horiz-adv-x="373" 
d="M133 -40c37 0 52 -14 52 -35c0 -32 -46 -82 -97 -122l-20 11c17 24 32 48 43 72c-27 0 -41 11 -41 30c0 24 18 44 63 44z" />
    <glyph glyph-name="_325" horiz-adv-x="373" 
d="M233 669c-29 0 -44 15 -44 36c0 31 39 80 84 122l22 -11c-16 -25 -32 -48 -43 -72c23 0 34 -11 34 -30c0 -25 -16 -45 -53 -45z" />
    <glyph glyph-name="_326" horiz-adv-x="373" 
d="M253 807c31 0 43 -16 43 -37c0 -35 -40 -81 -83 -122l-23 12c16 25 31 47 42 71c-21 0 -34 11 -34 30c0 25 18 46 55 46z" />
    <glyph glyph-name="_327" horiz-adv-x="656" 
d="M335 -13c-69 0 -130 127 -159 164c-54 64 -118 199 -118 345s72 269 277 269c207 0 278 -123 278 -269c0 -143 -64 -282 -117 -345c-32 -40 -94 -164 -161 -164zM336 33c47 0 99 107 126 139c43 48 103 172 103 291c0 75 -56 99 -229 99c-179 0 -228 -24 -228 -99
c0 -122 60 -241 102 -291c26 -31 78 -139 126 -139zM425 210c-27 7 -56 10 -87 10s-61 -3 -89 -10c-20 23 -37 54 -44 89c41 -15 86 -22 131 -22c47 0 91 7 132 22c-7 -35 -22 -66 -43 -89zM321 379l-23 -31c-40 7 -90 20 -125 37c0 33 8 63 25 80c33 -41 82 -67 123 -86z
M374 348l-20 31c39 19 87 45 122 86c16 -17 25 -48 25 -80c-35 -17 -87 -30 -127 -37z" />
    <glyph glyph-name="uni00AD.case" horiz-adv-x="368" 
d="M71 414h243l-9 -64h-243z" />
    <glyph glyph-name="hungarumlaut.c2sc" horiz-adv-x="369" 
d="M217 831h95l-121 -129h-60zM366 831h97l-128 -129h-67z" />
    <glyph glyph-name="tilde.c2sc" horiz-adv-x="368" 
d="M295 712c-55 0 -71 59 -105 59c-19 0 -32 -17 -41 -51h-53c13 63 49 101 97 101c55 0 72 -59 105 -59c17 0 31 17 41 51h53c-15 -61 -49 -101 -97 -101z" />
    <glyph glyph-name="ogonek.c2sc" horiz-adv-x="358" 
d="M164 17l33 -17c-43 0 -74 -47 -74 -82c0 -25 16 -38 49 -38c19 0 36 4 53 13l3 -48c-27 -15 -57 -22 -89 -22c-63 0 -92 27 -92 68c0 65 53 113 117 126z" />
    <glyph glyph-name="ring.c2sc" horiz-adv-x="362" 
d="M247 822c60 0 91 -28 91 -67c0 -59 -44 -91 -113 -91c-59 0 -91 22 -91 66c0 55 38 92 113 92zM243 784c-39 0 -58 -21 -58 -49c0 -22 15 -33 46 -33c35 0 57 19 57 47c0 21 -14 35 -45 35z" />
    <glyph glyph-name="dotaccent.c2sc" horiz-adv-x="348" 
d="M239 818c32 0 48 -12 48 -35c0 -36 -21 -52 -60 -52c-33 0 -50 8 -50 35c0 35 21 52 62 52z" />
    <glyph glyph-name="breve.c2sc" horiz-adv-x="362" 
d="M313 828h64c-12 -84 -61 -133 -149 -133c-80 0 -113 36 -113 101v16c0 5 1 11 2 16h63c-1 -9 -2 -18 -2 -25c0 -45 21 -64 56 -64c39 0 70 28 79 89z" />
    <glyph glyph-name="caron.c2sc" horiz-adv-x="362" 
d="M270 699h-80l-77 129h73l49 -95l75 95h74z" />
    <glyph glyph-name="circumflex.c2sc" horiz-adv-x="362" 
d="M207 828h79l79 -129h-73l-50 93l-76 -93h-71z" />
    <glyph glyph-name="Aring.c2sc" horiz-adv-x="601" 
d="M357 779c60 0 91 -28 91 -67c0 -37 -18 -64 -49 -79l135 -633h-104l-28 160h-264l-73 -160h-98l309 632c-21 10 -32 28 -32 55c0 55 38 92 113 92zM330 580h-2c-4 -11 -9 -25 -16 -40l-142 -311h220l-54 308c-3 13 -5 31 -6 43zM353 741c-39 0 -58 -21 -58 -49
c0 -22 15 -33 46 -33c35 0 57 19 57 47c0 21 -14 35 -45 35z" />
    <glyph glyph-name="questiondown.c2sc" horiz-adv-x="474" 
d="M176 -84c-117 0 -173 47 -173 135c0 126 81 205 199 275l24 133h70l-16 -160c-111 -72 -183 -132 -183 -224c0 -57 38 -82 102 -82s117 26 164 65l24 -64c-51 -47 -127 -78 -211 -78zM289 662c34 0 51 -13 51 -40c0 -40 -23 -64 -66 -64c-35 0 -53 14 -53 42
c0 39 25 62 68 62z" />
    <glyph glyph-name="cedilla.c2sc" horiz-adv-x="373" 
d="M41 -189l87 194h60l-61 -194h-86z" />
    <glyph glyph-name="acute.c2sc" horiz-adv-x="355" 
d="M275 828h114l-143 -129h-76z" />
    <glyph glyph-name="macron.c2sc" horiz-adv-x="373" 
d="M381 793l-7 -51h-264l7 51h264z" />
    <glyph glyph-name="dieresis.c2sc" horiz-adv-x="373" 
d="M176 814c25 0 38 -11 38 -32c0 -33 -16 -49 -49 -49c-27 0 -40 8 -40 31c0 33 20 50 51 50zM328 814c26 0 39 -11 39 -32c0 -33 -17 -49 -50 -49c-25 0 -39 7 -39 30c0 33 19 51 50 51z" />
    <glyph glyph-name="exclamdown.c2sc" horiz-adv-x="275" 
d="M116 459h71l-66 -553h-96zM179 665c35 0 53 -13 53 -40c0 -41 -25 -63 -68 -63c-34 0 -51 13 -51 40c0 39 23 63 66 63z" />
    <glyph glyph-name="grave.c2sc" horiz-adv-x="373" 
d="M301 699h-68l-90 129h105z" />
    <glyph glyph-name="question.c2sc" horiz-adv-x="445" 
d="M264 659c108 0 160 -45 160 -125c0 -111 -77 -184 -184 -243l-21 -119h-65l14 148c101 61 164 110 164 193c0 49 -32 71 -91 71c-60 0 -104 -20 -151 -59l-23 64c47 41 118 70 197 70zM175 85c32 0 48 -13 48 -39c0 -33 -22 -56 -61 -56c-32 0 -48 12 -48 35
c0 39 20 60 61 60z" />
    <glyph glyph-name="ampersand.c2sc" horiz-adv-x="606" 
d="M469 330h74c-12 -48 -44 -120 -95 -185c35 -31 71 -57 107 -80l-42 -73c-39 24 -81 55 -121 91c-57 -55 -128 -94 -212 -94c-112 0 -154 63 -154 139c0 107 72 177 148 232c-23 45 -35 89 -35 128c0 98 60 171 178 171c85 0 136 -39 136 -99c0 -87 -71 -138 -182 -212
c33 -53 76 -106 127 -157c32 45 56 95 71 139zM203 60c51 0 100 28 141 68c-52 53 -100 112 -136 171c-52 -43 -93 -93 -93 -158c0 -52 32 -81 88 -81zM306 596c-49 0 -87 -35 -87 -102c0 -26 7 -56 22 -89c68 46 128 85 128 141c0 35 -24 50 -63 50z" />
    <glyph glyph-name="exclam.c2sc" horiz-adv-x="267" 
d="M141 172h-66l54 477h93zM96 85c32 0 48 -13 48 -39c0 -33 -22 -56 -61 -56c-32 0 -48 12 -48 35c0 39 20 60 61 60z" />
    <glyph glyph-name="peseta.onum" 
d="M115 649h194c129 0 185 -44 185 -149v-14c0 -5 0 -10 -1 -15h55l-7 -47h-55c-25 -119 -92 -173 -233 -173h-108l-35 -251h-86l59 424h-52l7 47h52zM299 582h-108l-15 -111h229c1 5 1 8 1 11v7c0 69 -34 93 -107 93zM154 314h108c78 0 118 23 136 110h-229z" />
    <glyph glyph-name="lira.onum" 
d="M60 349l3 48h31c-1 12 -2 24 -2 37c0 113 63 223 260 223c64 0 116 -13 155 -32l-22 -69c-33 17 -83 28 -135 28c-133 0 -169 -71 -169 -162c0 -8 1 -17 1 -25h244l-6 -48h-232c1 -17 4 -35 4 -54h220l-7 -48h-214c0 -84 -38 -150 -90 -181l1 -2c57 11 114 14 186 14
c61 0 118 -4 174 -11l-15 -72c-75 7 -138 12 -211 12c-80 0 -150 -3 -243 -11l7 72c59 19 95 75 104 139c3 15 2 27 3 40h-59l4 48h55c-1 19 -2 37 -5 54h-42z" />
    <glyph glyph-name="franc.onum" 
d="M4 154h72l70 495h395l-9 -76h-309l-29 -204h239l-10 -72h-239l-20 -143h79l-8 -58h-79l-13 -96h-88l13 96h-72z" />
    <glyph glyph-name="peseta.pnum" horiz-adv-x="742" 
d="M119 750h122c93 0 138 -33 138 -138c0 -23 -2 -49 -6 -79c-24 -164 -76 -221 -194 -221h-52l-43 -312h-70zM521 404h-55l-44 -313c-1 -3 -1 -8 -1 -13c0 -24 10 -32 25 -32c3 0 7 1 10 2l10 4l-6 -53c-7 -4 -25 -8 -41 -8c-41 0 -62 23 -62 70v14c0 5 1 11 2 16l44 313
h-28l8 52h30l25 106l51 6l-15 -112h55zM232 683h-53l-43 -308h52c65 0 93 27 112 157c4 28 6 52 6 71c0 63 -23 80 -74 80zM676 151c0 -69 -28 -161 -119 -161c-27 0 -49 6 -64 21l12 56c16 -15 34 -21 53 -21c32 0 57 31 57 94c0 77 -80 70 -80 167c0 96 48 156 116 156
c23 0 42 -6 57 -18l-12 -59c-16 11 -32 16 -48 16c-31 0 -52 -29 -52 -78c0 -72 80 -64 80 -173z" />
    <glyph glyph-name="lira.pnum" horiz-adv-x="602" 
d="M78 404l5 54h36c-2 15 -3 30 -3 47c0 133 69 255 280 255c69 0 125 -15 165 -36l-23 -75c-35 19 -86 33 -142 33c-144 0 -183 -83 -183 -184c0 -15 1 -27 2 -40h259l-8 -54h-245c3 -20 4 -39 5 -62h232l-8 -54h-225c-7 -104 -42 -178 -107 -218l1 -2c61 13 125 18 202 18
c67 0 127 -5 187 -12l-16 -80c-80 9 -146 14 -226 14c-88 0 -162 -5 -263 -13l6 81c81 27 115 111 123 212h-66l5 54h62l-3 32l-4 30h-48z" />
    <glyph glyph-name="franc.pnum" horiz-adv-x="556" 
d="M-8 175h77l81 575h415l-10 -82h-319l-34 -243h247l-12 -77h-246l-24 -173h81l-9 -65h-81l-15 -110h-98l15 110h-77z" />
    <glyph glyph-name="peseta.onum_pnum" 
d="M78 649h94c65 0 95 -21 95 -102c0 -23 -2 -51 -7 -84c-21 -152 -56 -189 -141 -189h-41l-38 -274h-53zM373 351h-43l-39 -273c-1 -3 -1 -8 -1 -13c0 -19 8 -25 19 -25c6 0 11 1 16 4l-5 -43c-7 -5 -17 -7 -30 -7c-31 0 -49 17 -49 58c0 8 1 20 2 27l38 272h-21l6 45h22
l22 92l39 7l-14 -99h46zM486 130c0 -66 -27 -138 -95 -138c-20 0 -36 6 -47 17l8 47c11 -11 24 -15 39 -15c27 0 48 26 48 83c0 64 -60 62 -60 142c0 84 41 136 93 136c17 0 32 -5 44 -15l-11 -48c-11 7 -23 12 -35 12c-27 0 -44 -28 -44 -71c0 -61 60 -56 60 -150zM164 595
h-40l-38 -271h39c43 0 65 18 81 139c4 31 7 54 7 73c0 49 -16 59 -49 59z" />
    <glyph glyph-name="lira.onum_pnum" 
d="M352 657c64 0 116 -13 155 -32l-22 -69c-33 17 -83 28 -135 28c-133 0 -169 -70 -169 -162v-8c0 -3 0 -9 1 -16h244l-6 -47h-232c3 -19 4 -39 5 -58h219l-7 -46h-213c0 -84 -38 -149 -90 -181l1 -2c57 11 113 14 185 14c61 0 118 -4 174 -11l-15 -72
c-75 7 -138 12 -211 12c-80 0 -150 -3 -243 -11l7 72c59 19 95 75 104 139c3 15 2 27 3 40h-59l4 46h56l-3 30l-4 28h-41l3 47h31c-1 11 -2 23 -2 36c0 113 63 223 260 223z" />
    <glyph glyph-name="franc.onum_pnum" 
d="M4 154h72l70 495h395l-9 -76h-309l-29 -204h239l-10 -72h-239l-20 -143h79l-8 -58h-79l-13 -96h-88l13 96h-72z" />
    <glyph glyph-name="uni2189" unicode="&#x2189;" horiz-adv-x="901" 
d="M226 755c79 0 116 -37 116 -130c0 -21 -2 -45 -6 -72c-20 -143 -72 -202 -168 -202c-80 0 -117 40 -117 133c0 20 1 42 5 69c21 147 71 202 170 202zM218 703c-51 0 -82 -26 -98 -150c-4 -27 -6 -50 -6 -69c0 -64 22 -81 61 -81c48 0 80 28 96 151c4 28 6 51 6 69
c0 64 -22 80 -59 80zM708 750h68l-570 -750h-68zM745 399c73 0 117 -28 117 -84c0 -57 -32 -89 -76 -105v-2c39 -11 59 -33 59 -73c0 -84 -58 -140 -163 -140c-48 0 -81 10 -112 30l21 48c27 -19 58 -28 97 -28c63 0 94 37 94 88c0 37 -28 52 -104 52l6 46
c84 0 116 24 116 71c0 31 -24 45 -67 45c-41 0 -73 -12 -106 -35l-9 46c31 24 79 41 127 41z" />
    <glyph glyph-name="uni215F" unicode="&#x215f;" horiz-adv-x="517" 
d="M245 752l-55 -396h-66l38 272c3 13 4 27 7 40l-2 2l-34 -23l-51 -30v56l120 79h43zM648 750h68l-570 -750h-68z" />
    <glyph glyph-name="seveneighths" unicode="&#x215e;" horiz-adv-x="943" 
d="M361 750l-8 -54l-197 -340h-77l184 303l22 32l-1 2h-204l12 57h269zM737 750h68l-570 -750h-68zM725 -5c-87 0 -126 30 -126 91c0 54 27 94 80 121v2c-24 15 -39 35 -39 70c0 76 47 120 142 120c76 0 111 -28 111 -81c0 -48 -22 -84 -67 -109v-2c31 -15 54 -36 54 -79
c0 -89 -59 -133 -155 -133zM728 183c-37 -20 -64 -46 -64 -89c0 -33 23 -50 69 -50c43 0 81 20 81 71c0 39 -43 55 -86 68zM775 352c-44 0 -73 -23 -73 -66c0 -35 35 -45 73 -59c37 19 57 42 57 77c0 32 -19 48 -57 48z" />
    <glyph glyph-name="fiveeighths" unicode="&#x215d;" horiz-adv-x="943" 
d="M339 750l-6 -53h-166l-21 -100c23 5 45 9 68 9c73 0 110 -30 110 -90c0 -107 -59 -165 -159 -165c-45 0 -82 9 -112 28l18 49c31 -17 56 -27 95 -27c64 0 93 32 93 104c0 35 -20 53 -68 53c-31 0 -64 -6 -87 -17l-24 18l44 191h215zM737 750h68l-570 -750h-68zM725 -5
c-87 0 -126 30 -126 91c0 54 27 94 80 121v2c-24 15 -39 35 -39 70c0 76 47 120 142 120c76 0 111 -28 111 -81c0 -48 -22 -84 -67 -109v-2c31 -15 54 -36 54 -79c0 -89 -59 -133 -155 -133zM728 183c-37 -20 -64 -46 -64 -89c0 -33 23 -50 69 -50c43 0 81 20 81 71
c0 39 -43 55 -86 68zM775 352c-44 0 -73 -23 -73 -66c0 -35 35 -45 73 -59c37 19 57 42 57 77c0 32 -19 48 -57 48z" />
    <glyph glyph-name="threeeighths" unicode="&#x215c;" horiz-adv-x="930" 
d="M218 755c73 0 117 -28 117 -84c0 -57 -32 -89 -76 -105v-2c39 -11 59 -33 59 -73c0 -84 -58 -140 -163 -140c-48 0 -81 10 -112 30l21 48c27 -19 58 -28 97 -28c63 0 94 37 94 88c0 37 -28 52 -104 52l6 46c84 0 116 24 116 71c0 31 -24 45 -67 45
c-41 0 -73 -12 -106 -35l-9 46c31 24 79 41 127 41zM724 750h68l-570 -750h-68zM712 -5c-87 0 -126 30 -126 91c0 54 27 94 80 121v2c-24 15 -39 35 -39 70c0 76 47 120 142 120c76 0 111 -28 111 -81c0 -48 -22 -84 -67 -109v-2c31 -15 54 -36 54 -79
c0 -89 -59 -133 -155 -133zM715 183c-37 -20 -64 -46 -64 -89c0 -33 23 -50 69 -50c43 0 81 20 81 71c0 39 -43 55 -86 68zM762 352c-44 0 -73 -23 -73 -66c0 -35 35 -45 73 -59c37 19 57 42 57 77c0 32 -19 48 -57 48z" />
    <glyph glyph-name="oneeighth" unicode="&#x215b;" horiz-adv-x="854" 
d="M245 752l-55 -396h-66l38 272c3 13 4 27 7 40l-2 2l-34 -23l-51 -30v56l120 79h43zM648 750h68l-570 -750h-68zM636 -5c-87 0 -126 30 -126 91c0 54 27 94 80 121v2c-24 15 -39 35 -39 70c0 76 47 120 142 120c76 0 111 -28 111 -81c0 -48 -22 -84 -67 -109v-2
c31 -15 54 -36 54 -79c0 -89 -59 -133 -155 -133zM639 183c-37 -20 -64 -46 -64 -89c0 -33 23 -50 69 -50c43 0 81 20 81 71c0 39 -43 55 -86 68zM686 352c-44 0 -73 -23 -73 -66c0 -35 35 -45 73 -59c37 19 57 42 57 77c0 32 -19 48 -57 48z" />
    <glyph glyph-name="uni215A" unicode="&#x215a;" horiz-adv-x="943" 
d="M339 750l-6 -53h-166l-21 -100c23 5 45 9 68 9c73 0 110 -30 110 -90c0 -107 -59 -165 -159 -165c-45 0 -82 9 -112 28l18 49c31 -17 56 -27 95 -27c64 0 93 32 93 104c0 35 -20 53 -68 53c-31 0 -64 -6 -87 -17l-24 18l44 191h215zM737 750h68l-570 -750h-68zM895 384
l-12 -52c-23 11 -44 14 -75 14c-72 0 -106 -38 -125 -121l1 -1c29 19 60 29 93 29c72 0 108 -30 108 -91c0 -112 -68 -167 -156 -167c-76 0 -120 34 -120 129c0 19 2 38 5 61c20 148 88 214 196 214c31 0 60 -5 85 -15zM760 206c-24 0 -63 -13 -80 -34c-3 -19 -4 -35 -4 -50
c0 -56 20 -77 61 -77c43 0 82 32 82 109c0 35 -20 52 -59 52z" />
    <glyph glyph-name="uni2159" unicode="&#x2159;" horiz-adv-x="854" 
d="M245 752l-55 -396h-66l38 272c3 13 4 27 7 40l-2 2l-34 -23l-51 -30v56l120 79h43zM648 750h68l-570 -750h-68zM806 384l-12 -52c-23 11 -44 14 -75 14c-72 0 -106 -38 -125 -121l1 -1c29 19 60 29 93 29c72 0 108 -30 108 -91c0 -112 -68 -167 -156 -167
c-76 0 -120 34 -120 129c0 19 2 38 5 61c20 148 88 214 196 214c31 0 60 -5 85 -15zM671 206c-24 0 -63 -13 -80 -34c-3 -19 -4 -35 -4 -50c0 -56 20 -77 61 -77c43 0 82 32 82 109c0 35 -20 52 -59 52z" />
    <glyph glyph-name="uni2158" unicode="&#x2158;" horiz-adv-x="943" 
d="M331 439h-41l-11 -83h-60l11 83h-188l1 39l212 272h79l-37 -262h43zM238 488l26 163c2 13 5 26 8 41l-2 1c-7 -11 -16 -23 -24 -34l-108 -139c-9 -12 -16 -21 -27 -32h127zM737 750h68l-570 -750h-68zM895 394l-6 -53h-166l-21 -100c23 5 45 9 68 9c73 0 110 -30 110 -90
c0 -107 -59 -165 -159 -165c-45 0 -82 9 -112 28l18 49c31 -17 56 -27 95 -27c64 0 93 32 93 104c0 35 -20 53 -68 53c-31 0 -64 -6 -87 -17l-24 18l44 191h215z" />
    <glyph glyph-name="uni2157" unicode="&#x2157;" horiz-adv-x="930" 
d="M218 755c73 0 117 -28 117 -84c0 -57 -32 -89 -76 -105v-2c39 -11 59 -33 59 -73c0 -84 -58 -140 -163 -140c-48 0 -81 10 -112 30l21 48c27 -19 58 -28 97 -28c63 0 94 37 94 88c0 37 -28 52 -104 52l6 46c84 0 116 24 116 71c0 31 -24 45 -67 45
c-41 0 -73 -12 -106 -35l-9 46c31 24 79 41 127 41zM724 750h68l-570 -750h-68zM882 394l-6 -53h-166l-21 -100c23 5 45 9 68 9c73 0 110 -30 110 -90c0 -107 -59 -165 -159 -165c-45 0 -82 9 -112 28l18 49c31 -17 56 -27 95 -27c64 0 93 32 93 104c0 35 -20 53 -68 53
c-31 0 -64 -6 -87 -17l-24 18l44 191h215z" />
    <glyph glyph-name="uni2156" unicode="&#x2156;" horiz-adv-x="930" 
d="M221 755c76 0 112 -33 112 -89c0 -88 -87 -163 -206 -253v-3h173l-8 -54h-253l5 42c115 99 218 183 218 254c0 29 -16 49 -64 49c-36 0 -69 -15 -101 -36l-10 50c36 23 82 40 134 40zM724 750h68l-570 -750h-68zM882 394l-6 -53h-166l-21 -100c23 5 45 9 68 9
c73 0 110 -30 110 -90c0 -107 -59 -165 -159 -165c-45 0 -82 9 -112 28l18 49c31 -17 56 -27 95 -27c64 0 93 32 93 104c0 35 -20 53 -68 53c-31 0 -64 -6 -87 -17l-24 18l44 191h215z" />
    <glyph glyph-name="uni2155" unicode="&#x2155;" horiz-adv-x="854" 
d="M245 752l-55 -396h-66l38 272c3 13 4 27 7 40l-2 2l-34 -23l-51 -30v56l120 79h43zM648 750h68l-570 -750h-68zM806 394l-6 -53h-166l-21 -100c23 5 45 9 68 9c73 0 110 -30 110 -90c0 -107 -59 -165 -159 -165c-45 0 -82 9 -112 28l18 49c31 -17 56 -27 95 -27
c64 0 93 32 93 104c0 35 -20 53 -68 53c-31 0 -64 -6 -87 -17l-24 18l44 191h215z" />
    <glyph glyph-name="twothirds" unicode="&#x2154;" horiz-adv-x="917" 
d="M221 755c76 0 112 -33 112 -89c0 -88 -87 -163 -206 -253v-3h173l-8 -54h-253l5 42c115 99 218 183 218 254c0 29 -16 49 -64 49c-36 0 -69 -15 -101 -36l-10 50c36 23 82 40 134 40zM724 750h68l-570 -750h-68zM761 399c73 0 117 -28 117 -84c0 -57 -32 -89 -76 -105v-2
c39 -11 59 -33 59 -73c0 -84 -58 -140 -163 -140c-48 0 -81 10 -112 30l21 48c27 -19 58 -28 97 -28c63 0 94 37 94 88c0 37 -28 52 -104 52l6 46c84 0 116 24 116 71c0 31 -24 45 -67 45c-41 0 -73 -12 -106 -35l-9 46c31 24 79 41 127 41z" />
    <glyph glyph-name="onethird" unicode="&#x2153;" horiz-adv-x="841" 
d="M245 752l-55 -396h-66l38 272c3 13 4 27 7 40l-2 2l-34 -23l-51 -30v56l120 79h43zM648 750h68l-570 -750h-68zM685 399c73 0 117 -28 117 -84c0 -57 -32 -89 -76 -105v-2c39 -11 59 -33 59 -73c0 -84 -58 -140 -163 -140c-48 0 -81 10 -112 30l21 48
c27 -19 58 -28 97 -28c63 0 94 37 94 88c0 37 -28 52 -104 52l6 46c84 0 116 24 116 71c0 31 -24 45 -67 45c-41 0 -73 -12 -106 -35l-9 46c31 24 79 41 127 41z" />
    <glyph glyph-name="uni2152" unicode="&#x2152;" horiz-adv-x="1102" 
d="M245 752l-55 -396h-66l38 272c3 13 4 27 7 40l-2 2l-34 -23l-51 -30v56l120 79h43zM648 750h68l-570 -750h-68zM712 396l-55 -396h-66l38 272c3 13 4 27 7 40l-2 2l-34 -23l-51 -30v56l120 79h43zM941 399c79 0 116 -37 116 -130c0 -21 -2 -45 -6 -72
c-20 -143 -72 -202 -168 -202c-80 0 -117 40 -117 133c0 20 1 42 5 69c21 147 71 202 170 202zM933 347c-51 0 -82 -26 -98 -150c-4 -27 -6 -50 -6 -69c0 -64 22 -81 61 -81c48 0 80 28 96 151c4 28 6 51 6 69c0 64 -22 80 -59 80z" />
    <glyph glyph-name="uni2151" unicode="&#x2151;" horiz-adv-x="854" 
d="M245 752l-55 -396h-66l38 272c3 13 4 27 7 40l-2 2l-34 -23l-51 -30v56l120 79h43zM648 750h68l-570 -750h-68zM686 400c79 0 119 -43 119 -130c0 -17 -1 -35 -4 -55c-21 -158 -85 -220 -188 -220c-41 0 -64 7 -91 18l17 49c25 -11 45 -17 76 -17c65 0 102 34 123 141
l-2 2c-26 -21 -56 -31 -89 -31c-80 0 -112 35 -112 94c0 87 54 149 151 149zM678 349c-47 0 -80 -28 -80 -89c0 -36 18 -56 63 -56c29 0 61 11 77 32c2 15 3 28 3 40c0 56 -22 73 -63 73z" />
    <glyph glyph-name="uni2150" unicode="&#x2150;" horiz-adv-x="854" 
d="M245 752l-55 -396h-66l38 272c3 13 4 27 7 40l-2 2l-34 -23l-51 -30v56l120 79h43zM648 750h68l-570 -750h-68zM828 394l-8 -54l-197 -340h-77l184 303l22 32l-1 2h-204l12 57h269z" />
    <glyph glyph-name="threequarters" unicode="&#xbe;" horiz-adv-x="930" 
d="M218 755c73 0 117 -28 117 -84c0 -57 -32 -89 -76 -105v-2c39 -11 59 -33 59 -73c0 -84 -58 -140 -163 -140c-48 0 -81 10 -112 30l21 48c27 -19 58 -28 97 -28c63 0 94 37 94 88c0 37 -28 52 -104 52l6 46c84 0 116 24 116 71c0 31 -24 45 -67 45
c-41 0 -73 -12 -106 -35l-9 46c31 24 79 41 127 41zM724 750h68l-570 -750h-68zM874 83h-41l-11 -83h-60l11 83h-188l1 39l212 272h79l-37 -262h43zM781 132l26 163c2 13 5 26 8 41l-2 1c-7 -11 -16 -23 -24 -34l-108 -139c-9 -12 -16 -21 -27 -32h127z" />
    <glyph glyph-name="onehalf" unicode="&#xbd;" horiz-adv-x="841" 
d="M245 752l-55 -396h-66l38 272c3 13 4 27 7 40l-2 2l-34 -23l-51 -30v56l120 79h43zM648 750h68l-570 -750h-68zM688 399c76 0 112 -33 112 -89c0 -88 -87 -163 -206 -253v-3h173l-8 -54h-253l5 42c115 99 218 183 218 254c0 29 -16 49 -64 49c-36 0 -69 -15 -101 -36
l-10 50c36 23 82 40 134 40z" />
    <glyph glyph-name="onequarter" unicode="&#xbc;" horiz-adv-x="854" 
d="M245 752l-55 -396h-66l38 272c3 13 4 27 7 40l-2 2l-34 -23l-51 -30v56l120 79h43zM648 750h68l-570 -750h-68zM798 83h-41l-11 -83h-60l11 83h-188l1 39l212 272h79l-37 -262h43zM705 132l26 163c2 13 5 26 8 41l-2 1c-7 -11 -16 -23 -24 -34l-108 -139
c-9 -12 -16 -21 -27 -32h127z" />
    <glyph glyph-name="fl.smcp" horiz-adv-x="982" 
d="M499 573h-298l-29 -207h261l-11 -73h-260l-41 -293h-91l90 649h387zM632 76h288l-13 -76h-377l91 649h92z" />
    <glyph glyph-name="fi.smcp" horiz-adv-x="777" 
d="M499 573h-298l-29 -207h261l-11 -73h-260l-41 -293h-91l90 649h387zM542 0l91 649h94l-91 -649h-94z" />
    <glyph glyph-name="longs.smcp" horiz-adv-x="484" 
d="M301 659c61 0 118 -11 161 -34l-23 -71c-47 19 -92 31 -144 31c-99 0 -140 -53 -140 -113c0 -121 268 -80 268 -260c0 -138 -100 -223 -245 -223c-73 0 -133 17 -178 48l24 73c47 -32 98 -48 163 -48c88 0 146 49 146 129c0 129 -268 88 -268 261c0 116 80 207 236 207z
" />
    <glyph glyph-name="Zcaron.c2sc" horiz-adv-x="522" 
d="M425 0h-433l8 57l376 485c8 11 16 19 25 30l-1 2h-318l14 75h421l-9 -64l-370 -477c-7 -10 -16 -20 -26 -30l1 -2h324zM351 699h-80l-77 129h73l49 -95l75 95h74z" />
    <glyph glyph-name="Scaron.c2sc" horiz-adv-x="484" 
d="M301 659c61 0 118 -11 161 -34l-23 -71c-47 19 -92 31 -144 31c-99 0 -140 -53 -140 -113c0 -121 268 -80 268 -260c0 -138 -100 -223 -245 -223c-73 0 -133 17 -178 48l24 73c47 -32 98 -48 163 -48c88 0 146 49 146 129c0 129 -268 88 -268 261c0 116 80 207 236 207z
M349 699h-80l-77 129h73l49 -95l75 95h74z" />
    <glyph glyph-name="IJ.c2sc" horiz-adv-x="692" 
d="M41 0l91 649h94l-91 -649h-94zM662 649l-64 -451c-21 -151 -103 -209 -218 -209c-49 0 -92 11 -119 34l18 74c23 -21 61 -33 94 -33c77 0 119 41 132 133l64 452h93z" />
    <glyph glyph-name="dotlessi.smcp" horiz-adv-x="276" 
d="M41 0l91 649h94l-91 -649h-94z" />
    <glyph glyph-name="Ydieresis.c2sc" horiz-adv-x="570" 
d="M61 649h106l100 -315c3 -7 5 -14 6 -21l5 -18h2c5 12 12 24 19 35l190 319h102l-276 -429l-30 -220h-96l30 220zM273 814c25 0 38 -11 38 -32c0 -33 -16 -49 -49 -49c-27 0 -40 8 -40 31c0 33 20 50 51 50zM425 814c26 0 39 -11 39 -32c0 -33 -17 -49 -50 -49
c-25 0 -39 7 -39 30c0 33 19 51 50 51z" />
    <glyph glyph-name="Yacute.c2sc" horiz-adv-x="570" 
d="M61 649h106l100 -315c3 -7 5 -14 6 -21l5 -18h2c5 12 12 24 19 35l190 319h102l-276 -429l-30 -220h-96l30 220zM377 828h114l-143 -129h-76z" />
    <glyph glyph-name="Udieresis.c2sc" horiz-adv-x="621" 
d="M591 649l-59 -420c-24 -168 -120 -240 -273 -240c-137 0 -210 54 -210 182c0 19 1 37 4 58l59 420h91l-60 -422c-2 -15 -3 -29 -3 -42c0 -84 42 -120 130 -120c103 0 154 49 170 162l60 422h91zM297 814c25 0 38 -11 38 -32c0 -33 -16 -49 -49 -49c-27 0 -40 8 -40 31
c0 33 20 50 51 50zM449 814c26 0 39 -11 39 -32c0 -33 -17 -49 -50 -49c-25 0 -39 7 -39 30c0 33 19 51 50 51z" />
    <glyph glyph-name="Ucircumflex.c2sc" horiz-adv-x="621" 
d="M591 649l-59 -420c-24 -168 -120 -240 -273 -240c-137 0 -210 54 -210 182c0 19 1 37 4 58l59 420h91l-60 -422c-2 -15 -3 -29 -3 -42c0 -84 42 -120 130 -120c103 0 154 49 170 162l60 422h91zM333 828h79l79 -129h-73l-50 93l-76 -93h-71z" />
    <glyph glyph-name="Uacute.c2sc" horiz-adv-x="621" 
d="M591 649l-59 -420c-24 -168 -120 -240 -273 -240c-137 0 -210 54 -210 182c0 19 1 37 4 58l59 420h91l-60 -422c-2 -15 -3 -29 -3 -42c0 -84 42 -120 130 -120c103 0 154 49 170 162l60 422h91zM403 828h114l-143 -129h-76z" />
    <glyph glyph-name="Ugrave.c2sc" horiz-adv-x="621" 
d="M591 649l-59 -420c-24 -168 -120 -240 -273 -240c-137 0 -210 54 -210 182c0 19 1 37 4 58l59 420h91l-60 -422c-2 -15 -3 -29 -3 -42c0 -84 42 -120 130 -120c103 0 154 49 170 162l60 422h91zM406 699h-68l-90 129h105z" />
    <glyph glyph-name="Odieresis.c2sc" horiz-adv-x="605" 
d="M345 659c155 0 222 -65 222 -222c0 -33 -3 -71 -9 -113c-35 -242 -120 -335 -307 -335c-155 0 -223 65 -223 224c0 33 3 70 9 111c35 240 121 335 308 335zM335 584c-121 0 -174 -53 -203 -260c-6 -43 -9 -80 -9 -111c0 -115 42 -150 138 -150c120 0 172 56 201 261
c7 45 10 82 10 113c0 114 -43 147 -137 147zM294 814c25 0 38 -11 38 -32c0 -33 -16 -49 -49 -49c-27 0 -40 8 -40 31c0 33 20 50 51 50zM446 814c26 0 39 -11 39 -32c0 -33 -17 -49 -50 -49c-25 0 -39 7 -39 30c0 33 19 51 50 51z" />
    <glyph glyph-name="Otilde.c2sc" horiz-adv-x="605" 
d="M345 659c155 0 222 -65 222 -222c0 -33 -3 -71 -9 -113c-35 -242 -120 -335 -307 -335c-155 0 -223 65 -223 224c0 33 3 70 9 111c35 240 121 335 308 335zM335 584c-121 0 -174 -53 -203 -260c-6 -43 -9 -80 -9 -111c0 -115 42 -150 138 -150c120 0 172 56 201 261
c7 45 10 82 10 113c0 114 -43 147 -137 147zM416 712c-55 0 -71 59 -105 59c-19 0 -32 -17 -41 -51h-53c13 63 49 101 97 101c55 0 72 -59 105 -59c17 0 31 17 41 51h53c-15 -61 -49 -101 -97 -101z" />
    <glyph glyph-name="Ocircumflex.c2sc" horiz-adv-x="605" 
d="M345 659c155 0 222 -65 222 -222c0 -33 -3 -71 -9 -113c-35 -242 -120 -335 -307 -335c-155 0 -223 65 -223 224c0 33 3 70 9 111c35 240 121 335 308 335zM335 584c-121 0 -174 -53 -203 -260c-6 -43 -9 -80 -9 -111c0 -115 42 -150 138 -150c120 0 172 56 201 261
c7 45 10 82 10 113c0 114 -43 147 -137 147zM333 828h79l79 -129h-73l-50 93l-76 -93h-71z" />
    <glyph glyph-name="Oacute.c2sc" horiz-adv-x="605" 
d="M345 659c155 0 222 -65 222 -222c0 -33 -3 -71 -9 -113c-35 -242 -120 -335 -307 -335c-155 0 -223 65 -223 224c0 33 3 70 9 111c35 240 121 335 308 335zM335 584c-121 0 -174 -53 -203 -260c-6 -43 -9 -80 -9 -111c0 -115 42 -150 138 -150c120 0 172 56 201 261
c7 45 10 82 10 113c0 114 -43 147 -137 147zM405 828h114l-143 -129h-76z" />
    <glyph glyph-name="Ograve.c2sc" horiz-adv-x="605" 
d="M345 659c155 0 222 -65 222 -222c0 -33 -3 -71 -9 -113c-35 -242 -120 -335 -307 -335c-155 0 -223 65 -223 224c0 33 3 70 9 111c35 240 121 335 308 335zM335 584c-121 0 -174 -53 -203 -260c-6 -43 -9 -80 -9 -111c0 -115 42 -150 138 -150c120 0 172 56 201 261
c7 45 10 82 10 113c0 114 -43 147 -137 147zM403 699h-68l-90 129h105z" />
    <glyph glyph-name="Ntilde.c2sc" horiz-adv-x="633" 
d="M504 0h-73l-251 506h-2c0 -15 -1 -28 -3 -41l-65 -465h-81l91 649h82l243 -495h2c1 13 1 28 4 41l64 454h80zM430 712c-55 0 -71 59 -105 59c-19 0 -32 -17 -41 -51h-53c13 63 49 101 97 101c55 0 72 -59 105 -59c17 0 31 17 41 51h53c-15 -61 -49 -101 -97 -101z" />
    <glyph glyph-name="Idieresis.c2sc" horiz-adv-x="276" 
d="M41 0l91 649h94l-91 -649h-94zM126 814c25 0 38 -11 38 -32c0 -33 -16 -49 -49 -49c-27 0 -40 8 -40 31c0 33 20 50 51 50zM278 814c26 0 39 -11 39 -32c0 -33 -17 -49 -50 -49c-25 0 -39 7 -39 30c0 33 19 51 50 51z" />
    <glyph glyph-name="Icircumflex.c2sc" horiz-adv-x="276" 
d="M41 0l91 649h94l-91 -649h-94zM162 828h79l79 -129h-73l-50 93l-76 -93h-71z" />
    <glyph glyph-name="Iacute.c2sc" horiz-adv-x="276" 
d="M41 0l91 649h94l-91 -649h-94zM248 828h114l-143 -129h-76z" />
    <glyph glyph-name="Igrave.c2sc" horiz-adv-x="276" 
d="M41 0l91 649h94l-91 -649h-94zM229 699h-68l-90 129h105z" />
    <glyph glyph-name="Edieresis.c2sc" horiz-adv-x="520" 
d="M130 74h313l-13 -74h-401l91 649h388l-9 -75h-299l-28 -202h256l-10 -68h-256zM262 814c25 0 38 -11 38 -32c0 -33 -16 -49 -49 -49c-27 0 -40 8 -40 31c0 33 20 50 51 50zM414 814c26 0 39 -11 39 -32c0 -33 -17 -49 -50 -49c-25 0 -39 7 -39 30c0 33 19 51 50 51z" />
    <glyph glyph-name="Ecircumflex.c2sc" horiz-adv-x="520" 
d="M130 74h313l-13 -74h-401l91 649h388l-9 -75h-299l-28 -202h256l-10 -68h-256zM305 828h79l79 -129h-73l-50 93l-76 -93h-71z" />
    <glyph glyph-name="Eacute.c2sc" horiz-adv-x="520" 
d="M130 74h313l-13 -74h-401l91 649h388l-9 -75h-299l-28 -202h256l-10 -68h-256zM359 828h114l-143 -129h-76z" />
    <glyph glyph-name="Egrave.c2sc" horiz-adv-x="520" 
d="M130 74h313l-13 -74h-401l91 649h388l-9 -75h-299l-28 -202h256l-10 -68h-256zM379 699h-68l-90 129h105z" />
    <glyph glyph-name="Adieresis.c2sc" horiz-adv-x="601" 
d="M430 0l-28 160h-264l-73 -160h-98l318 649h111l138 -649h-104zM330 580h-2c-4 -11 -9 -25 -16 -40l-143 -311h221l-54 308c-3 13 -5 31 -6 43zM278 814c25 0 38 -11 38 -32c0 -33 -16 -49 -49 -49c-27 0 -40 8 -40 31c0 33 20 50 51 50zM430 814c26 0 39 -11 39 -32
c0 -33 -17 -49 -50 -49c-25 0 -39 7 -39 30c0 33 19 51 50 51z" />
    <glyph glyph-name="Atilde.c2sc" horiz-adv-x="601" 
d="M430 0l-28 160h-264l-73 -160h-98l318 649h111l138 -649h-104zM330 580h-2c-4 -11 -9 -25 -16 -40l-143 -311h221l-54 308c-3 13 -5 31 -6 43zM400 712c-55 0 -71 59 -105 59c-19 0 -32 -17 -41 -51h-53c13 63 49 101 97 101c55 0 72 -59 105 -59c17 0 31 17 41 51h53
c-15 -61 -49 -101 -97 -101z" />
    <glyph glyph-name="Acircumflex.c2sc" horiz-adv-x="601" 
d="M430 0l-28 160h-264l-73 -160h-98l318 649h111l138 -649h-104zM330 580h-2c-4 -11 -9 -25 -16 -40l-143 -311h221l-54 308c-3 13 -5 31 -6 43zM320 828h79l79 -129h-73l-50 93l-76 -93h-71z" />
    <glyph glyph-name="Aacute.c2sc" horiz-adv-x="601" 
d="M430 0l-28 160h-264l-73 -160h-98l318 649h111l138 -649h-104zM330 580h-2c-4 -11 -9 -25 -16 -40l-143 -311h221l-54 308c-3 13 -5 31 -6 43zM414 828h114l-143 -129h-76z" />
    <glyph glyph-name="Agrave.c2sc" horiz-adv-x="601" 
d="M430 0l-28 160h-264l-73 -160h-98l318 649h111l138 -649h-104zM330 580h-2c-4 -11 -9 -25 -16 -40l-143 -311h221l-54 308c-3 13 -5 31 -6 43zM397 699h-68l-90 129h105z" />
    <glyph glyph-name="germandbls.smcp" horiz-adv-x="968" 
d="M301 659c61 0 118 -11 161 -34l-23 -71c-47 19 -92 31 -144 31c-99 0 -140 -53 -140 -113c0 -121 268 -80 268 -260c0 -138 -100 -223 -245 -223c-73 0 -133 17 -178 48l24 73c47 -32 98 -48 163 -48c88 0 146 49 146 129c0 129 -268 88 -268 261c0 116 80 207 236 207z
M785 659c61 0 118 -11 161 -34l-23 -71c-47 19 -92 31 -144 31c-99 0 -140 -53 -140 -113c0 -121 268 -80 268 -260c0 -138 -100 -223 -245 -223c-73 0 -133 17 -178 48l24 73c47 -32 98 -48 163 -48c88 0 146 49 146 129c0 129 -268 88 -268 261c0 116 80 207 236 207z" />
    <glyph glyph-name="_413" horiz-adv-x="982" 
d="M499 573h-298l-29 -207h261l-11 -73h-260l-41 -293h-91l90 649h387zM632 76h288l-13 -76h-377l91 649h92z" />
    <glyph glyph-name="_414" horiz-adv-x="777" 
d="M499 573h-298l-29 -207h261l-11 -73h-260l-41 -293h-91l90 649h387zM542 0l91 649h94l-91 -649h-94z" />
    <glyph glyph-name="uni2007.onum" 
 />
    <glyph glyph-name="space.frac" horiz-adv-x="58" 
 />
    <glyph glyph-name="minus.numr" horiz-adv-x="339" 
d="M325 534h-254v54h254v-54z" />
    <glyph glyph-name="cent.numr" horiz-adv-x="291" 
d="M318 724l-11 -52c-19 8 -42 15 -65 15c-75 0 -104 -33 -116 -128c-3 -17 -4 -34 -4 -47c0 -67 27 -91 82 -91c27 0 51 9 74 21l-2 -48c-19 -12 -44 -21 -75 -24l-15 -79h-54l17 80c-64 11 -96 51 -96 131c0 17 2 36 5 57c16 113 62 172 154 181l17 77h53l-17 -78
c21 -3 39 -8 53 -15z" />
    <glyph glyph-name="equal.numr" horiz-adv-x="339" 
d="M323 592h-252v47h252v-47zM323 481h-252v48h252v-48z" />
    <glyph glyph-name="nine.numr" horiz-adv-x="337" 
d="M219 756c79 0 119 -43 119 -130c0 -17 -1 -35 -4 -55c-21 -158 -85 -220 -188 -220c-41 0 -64 7 -91 18l17 49c25 -11 45 -17 76 -17c65 0 102 34 123 141l-2 2c-26 -21 -56 -31 -89 -31c-80 0 -112 35 -112 94c0 87 54 149 151 149zM211 705c-47 0 -80 -28 -80 -89
c0 -36 18 -56 63 -56c29 0 61 11 77 32c2 15 3 28 3 40c0 56 -22 73 -63 73z" />
    <glyph glyph-name="eight.numr" horiz-adv-x="337" 
d="M169 351c-87 0 -126 30 -126 91c0 54 27 94 80 121v2c-24 15 -39 35 -39 70c0 76 47 120 142 120c76 0 111 -28 111 -81c0 -48 -22 -84 -67 -109v-2c31 -15 54 -36 54 -79c0 -89 -59 -133 -155 -133zM172 539c-37 -20 -64 -46 -64 -89c0 -33 23 -50 69 -50
c43 0 81 20 81 71c0 39 -43 55 -86 68zM219 708c-44 0 -73 -23 -73 -66c0 -35 35 -45 73 -59c37 19 57 42 57 77c0 32 -19 48 -57 48z" />
    <glyph glyph-name="seven.numr" horiz-adv-x="337" 
d="M361 750l-8 -54l-197 -340h-77l184 303l22 32l-1 2h-204l12 57h269z" />
    <glyph glyph-name="six.numr" horiz-adv-x="337" 
d="M339 740l-12 -52c-23 11 -44 14 -75 14c-72 0 -106 -38 -125 -121l1 -1c29 19 60 29 93 29c72 0 108 -30 108 -91c0 -112 -68 -167 -156 -167c-76 0 -120 34 -120 129c0 19 2 38 5 61c20 148 88 214 196 214c31 0 60 -5 85 -15zM204 562c-24 0 -63 -13 -80 -34
c-3 -19 -4 -35 -4 -50c0 -56 20 -77 61 -77c43 0 82 32 82 109c0 35 -20 52 -59 52z" />
    <glyph glyph-name="five.numr" horiz-adv-x="337" 
d="M339 750l-6 -53h-166l-21 -100c23 5 45 9 68 9c73 0 110 -30 110 -90c0 -107 -59 -165 -159 -165c-45 0 -82 9 -112 28l18 49c31 -17 56 -27 95 -27c64 0 93 32 93 104c0 35 -20 53 -68 53c-31 0 -64 -6 -87 -17l-24 18l44 191h215z" />
    <glyph glyph-name="four.numr" horiz-adv-x="337" 
d="M331 439h-41l-11 -83h-60l11 83h-188l1 39l212 272h79l-37 -262h43zM238 488l26 163c2 13 5 26 8 41l-2 1c-7 -11 -16 -23 -24 -34l-108 -139c-9 -12 -16 -21 -27 -32h127z" />
    <glyph glyph-name="three.numr" horiz-adv-x="324" 
d="M218 755c73 0 117 -28 117 -84c0 -57 -32 -89 -76 -105v-2c39 -11 59 -33 59 -73c0 -84 -58 -140 -163 -140c-48 0 -81 10 -112 30l21 48c27 -19 58 -28 97 -28c63 0 94 37 94 88c0 37 -28 52 -104 52l6 46c84 0 116 24 116 71c0 31 -24 45 -67 45
c-41 0 -73 -12 -106 -35l-9 46c31 24 79 41 127 41z" />
    <glyph glyph-name="two.numr" horiz-adv-x="324" 
d="M221 755c76 0 112 -33 112 -89c0 -88 -87 -163 -206 -253v-3h173l-8 -54h-253l5 42c115 99 218 183 218 254c0 29 -16 49 -64 49c-36 0 -69 -15 -101 -36l-10 50c36 23 82 40 134 40z" />
    <glyph glyph-name="one.numr" horiz-adv-x="248" 
d="M245 752l-55 -396h-66l38 272c3 13 4 27 7 40l-2 2l-34 -23l-51 -30v56l120 79h43z" />
    <glyph glyph-name="zero.numr" horiz-adv-x="337" 
d="M226 755c79 0 116 -37 116 -130c0 -21 -2 -45 -6 -72c-20 -143 -72 -202 -168 -202c-80 0 -117 40 -117 133c0 20 1 42 5 69c21 147 71 202 170 202zM218 703c-51 0 -82 -26 -98 -150c-4 -27 -6 -50 -6 -69c0 -64 22 -81 61 -81c48 0 80 28 96 151c4 28 6 51 6 69
c0 64 -22 80 -59 80z" />
    <glyph glyph-name="period.numr" horiz-adv-x="147" 
d="M82 422c25 0 37 -9 37 -28c0 -29 -13 -47 -48 -47c-25 0 -38 10 -38 30c0 29 18 45 49 45z" />
    <glyph glyph-name="comma.numr" horiz-adv-x="147" 
d="M80 420c27 0 37 -13 37 -32c0 -24 -33 -82 -61 -115l-24 6c11 20 24 45 33 68c-21 0 -32 13 -32 30c0 23 16 43 47 43z" />
    <glyph glyph-name="plus.numr" horiz-adv-x="339" 
d="M329 530h-105v-106h-56v106h-102v55h102v108h56v-108h105v-55z" />
    <glyph glyph-name="parenright.numr" horiz-adv-x="194" 
d="M68 778l49 4c34 -51 51 -111 51 -178c0 -120 -46 -233 -119 -309l-49 3c63 87 107 187 107 306c0 64 -14 121 -39 174z" />
    <glyph glyph-name="parenleft.numr" horiz-adv-x="194" 
d="M195 782l48 -4c-65 -85 -107 -191 -107 -304c0 -65 15 -123 39 -176l-48 -3c-33 49 -50 109 -50 181c0 127 45 226 118 306z" />
    <glyph glyph-name="dollar.numr" horiz-adv-x="291" 
d="M214 817h52l-17 -77c25 -2 48 -8 69 -17l-16 -49c-27 11 -52 17 -81 17c-52 0 -78 -27 -78 -58c0 -63 154 -36 154 -140c0 -72 -48 -118 -117 -127l-14 -75h-52l14 75c-32 3 -61 11 -82 26l16 50c27 -18 58 -27 93 -27c47 0 78 23 78 63c0 65 -152 42 -152 143
c0 60 39 110 116 119z" />
    <glyph glyph-name="cent.sups" horiz-adv-x="291" 
d="M337 864l-11 -52c-19 8 -42 15 -65 15c-75 0 -104 -33 -116 -128c-3 -17 -4 -34 -4 -47c0 -67 27 -91 82 -91c27 0 51 9 74 21l-2 -48c-19 -12 -44 -21 -75 -24l-15 -79h-54l17 80c-64 11 -96 51 -96 131c0 17 2 36 5 57c16 113 62 172 154 181l17 77h53l-17 -78
c21 -3 39 -8 53 -15z" />
    <glyph glyph-name="period.sups" horiz-adv-x="147" 
d="M101 562c25 0 37 -9 37 -28c0 -29 -13 -47 -48 -47c-25 0 -38 10 -38 30c0 29 18 45 49 45z" />
    <glyph glyph-name="comma.sups" horiz-adv-x="147" 
d="M99 560c27 0 37 -13 37 -32c0 -24 -33 -82 -61 -115l-24 6c11 20 24 45 33 68c-21 0 -32 13 -32 30c0 23 16 43 47 43z" />
    <glyph glyph-name="dollar.sups" horiz-adv-x="291" 
d="M233 957h52l-17 -77c25 -2 48 -8 69 -17l-16 -49c-27 11 -52 17 -81 17c-52 0 -78 -27 -78 -58c0 -63 154 -36 154 -140c0 -72 -48 -118 -117 -127l-14 -75h-52l14 75c-32 3 -61 11 -82 26l16 50c27 -18 58 -27 93 -27c47 0 78 23 78 63c0 65 -152 42 -152 143
c0 60 39 110 116 119z" />
    <glyph glyph-name="cent.subs" horiz-adv-x="291" 
d="M249 225l-11 -52c-19 8 -42 15 -65 15c-75 0 -104 -33 -116 -128c-3 -17 -4 -34 -4 -47c0 -67 27 -91 82 -91c27 0 51 9 74 21l-2 -48c-19 -12 -44 -21 -75 -24l-15 -79h-54l17 80c-64 11 -96 51 -96 131c0 17 2 36 5 57c16 113 62 172 154 181l17 77h53l-17 -78
c21 -3 39 -8 53 -15z" />
    <glyph glyph-name="period.subs" horiz-adv-x="147" 
d="M13 -77c25 0 37 -9 37 -28c0 -29 -13 -47 -48 -47c-25 0 -38 10 -38 30c0 29 18 45 49 45z" />
    <glyph glyph-name="comma.subs" horiz-adv-x="147" 
d="M11 -79c27 0 37 -13 37 -32c0 -24 -33 -82 -61 -115l-24 6c11 20 24 45 33 68c-21 0 -32 13 -32 30c0 23 16 43 47 43z" />
    <glyph glyph-name="dollar.subs" horiz-adv-x="291" 
d="M145 318h52l-17 -77c25 -2 48 -8 69 -17l-16 -49c-27 11 -52 17 -81 17c-52 0 -78 -27 -78 -58c0 -63 154 -36 154 -140c0 -72 -48 -118 -117 -127l-14 -75h-52l14 75c-32 3 -61 11 -82 26l16 50c27 -18 58 -27 93 -27c47 0 78 23 78 63c0 65 -152 42 -152 143
c0 60 39 110 116 119z" />
    <glyph glyph-name="dotmath" unicode="&#x22c5;" 
d="M281 401c35 0 52 -15 52 -44c0 -43 -25 -68 -68 -68c-35 0 -53 14 -53 43c0 44 24 69 69 69z" />
    <glyph glyph-name="uni2219" unicode="&#x2219;" 
d="M290 453c76 0 114 -33 114 -98c0 -111 -55 -160 -150 -160c-75 0 -113 33 -113 99c0 108 54 159 149 159z" />
    <glyph glyph-name="uni208E" unicode="&#x208e;" horiz-adv-x="194" 
d="M-1 279l49 4c34 -51 51 -111 51 -178c0 -120 -46 -233 -119 -309l-49 3c63 87 107 187 107 306c0 64 -14 121 -39 174z" />
    <glyph glyph-name="uni208D" unicode="&#x208d;" horiz-adv-x="194" 
d="M126 283l48 -4c-65 -85 -107 -191 -107 -304c0 -65 15 -123 39 -176l-48 -3c-33 49 -50 109 -50 181c0 127 45 226 118 306z" />
    <glyph glyph-name="uni208C" unicode="&#x208c;" horiz-adv-x="339" 
d="M254 93h-252v47h252v-47zM254 -18h-252v48h252v-48z" />
    <glyph glyph-name="uni208B" unicode="&#x208b;" horiz-adv-x="339" 
d="M256 35h-254v54h254v-54z" />
    <glyph glyph-name="uni208A" unicode="&#x208a;" horiz-adv-x="339" 
d="M260 31h-105v-106h-56v106h-102v55h102v108h56v-108h105v-55z" />
    <glyph glyph-name="uni2089" unicode="&#x2089;" horiz-adv-x="337" 
d="M150 257c79 0 119 -43 119 -130c0 -17 -1 -35 -4 -55c-21 -158 -85 -220 -188 -220c-41 0 -64 7 -91 18l17 49c25 -11 45 -17 76 -17c65 0 102 34 123 141l-2 2c-26 -21 -56 -31 -89 -31c-80 0 -112 35 -112 94c0 87 54 149 151 149zM142 206c-47 0 -80 -28 -80 -89
c0 -36 18 -56 63 -56c29 0 61 11 77 32c2 15 3 28 3 40c0 56 -22 73 -63 73z" />
    <glyph glyph-name="uni2088" unicode="&#x2088;" horiz-adv-x="337" 
d="M100 -148c-87 0 -126 30 -126 91c0 54 27 94 80 121v2c-24 15 -39 35 -39 70c0 76 47 120 142 120c76 0 111 -28 111 -81c0 -48 -22 -84 -67 -109v-2c31 -15 54 -36 54 -79c0 -89 -59 -133 -155 -133zM103 40c-37 -20 -64 -46 -64 -89c0 -33 23 -50 69 -50
c43 0 81 20 81 71c0 39 -43 55 -86 68zM150 209c-44 0 -73 -23 -73 -66c0 -35 35 -45 73 -59c37 19 57 42 57 77c0 32 -19 48 -57 48z" />
    <glyph glyph-name="uni2087" unicode="&#x2087;" horiz-adv-x="337" 
d="M292 251l-8 -54l-197 -340h-77l184 303l22 32l-1 2h-204l12 57h269z" />
    <glyph glyph-name="uni2086" unicode="&#x2086;" horiz-adv-x="337" 
d="M270 241l-12 -52c-23 11 -44 14 -75 14c-72 0 -106 -38 -125 -121l1 -1c29 19 60 29 93 29c72 0 108 -30 108 -91c0 -112 -68 -167 -156 -167c-76 0 -120 34 -120 129c0 19 2 38 5 61c20 148 88 214 196 214c31 0 60 -5 85 -15zM135 63c-24 0 -63 -13 -80 -34
c-3 -19 -4 -35 -4 -50c0 -56 20 -77 61 -77c43 0 82 32 82 109c0 35 -20 52 -59 52z" />
    <glyph glyph-name="uni2085" unicode="&#x2085;" horiz-adv-x="337" 
d="M270 251l-6 -53h-166l-21 -100c23 5 45 9 68 9c73 0 110 -30 110 -90c0 -107 -59 -165 -159 -165c-45 0 -82 9 -112 28l18 49c31 -17 56 -27 95 -27c64 0 93 32 93 104c0 35 -20 53 -68 53c-31 0 -64 -6 -87 -17l-24 18l44 191h215z" />
    <glyph glyph-name="uni2084" unicode="&#x2084;" horiz-adv-x="337" 
d="M262 -60h-41l-11 -83h-60l11 83h-188l1 39l212 272h79l-37 -262h43zM169 -11l26 163c2 13 5 26 8 41l-2 1c-7 -11 -16 -23 -24 -34l-108 -139c-9 -12 -16 -21 -27 -32h127z" />
    <glyph glyph-name="uni2083" unicode="&#x2083;" horiz-adv-x="324" 
d="M149 256c73 0 117 -28 117 -84c0 -57 -32 -89 -76 -105v-2c39 -11 59 -33 59 -73c0 -84 -58 -140 -163 -140c-48 0 -81 10 -112 30l21 48c27 -19 58 -28 97 -28c63 0 94 37 94 88c0 37 -28 52 -104 52l6 46c84 0 116 24 116 71c0 31 -24 45 -67 45
c-41 0 -73 -12 -106 -35l-9 46c31 24 79 41 127 41z" />
    <glyph glyph-name="uni2082" unicode="&#x2082;" horiz-adv-x="324" 
d="M152 256c76 0 112 -33 112 -89c0 -88 -87 -163 -206 -253v-3h173l-8 -54h-253l5 42c115 99 218 183 218 254c0 29 -16 49 -64 49c-36 0 -69 -15 -101 -36l-10 50c36 23 82 40 134 40z" />
    <glyph glyph-name="uni2081" unicode="&#x2081;" horiz-adv-x="248" 
d="M176 253l-55 -396h-66l38 272c3 13 4 27 7 40l-2 2l-34 -23l-51 -30v56l120 79h43z" />
    <glyph glyph-name="uni2080" unicode="&#x2080;" horiz-adv-x="337" 
d="M157 256c79 0 116 -37 116 -130c0 -21 -2 -45 -6 -72c-20 -143 -72 -202 -168 -202c-80 0 -117 40 -117 133c0 20 1 42 5 69c21 147 71 202 170 202zM149 204c-51 0 -82 -26 -98 -150c-4 -27 -6 -50 -6 -69c0 -64 22 -81 61 -81c48 0 80 28 96 151c4 28 6 51 6 69
c0 64 -22 80 -59 80z" />
    <glyph glyph-name="uni207E" unicode="&#x207e;" horiz-adv-x="194" 
d="M88 918l49 4c34 -51 51 -111 51 -178c0 -120 -46 -233 -119 -309l-49 3c63 87 107 187 107 306c0 64 -14 121 -39 174z" />
    <glyph glyph-name="uni207D" unicode="&#x207d;" horiz-adv-x="194" 
d="M215 922l48 -4c-65 -85 -107 -191 -107 -304c0 -65 15 -123 39 -176l-48 -3c-33 49 -50 109 -50 181c0 127 45 226 118 306z" />
    <glyph glyph-name="uni207C" unicode="&#x207c;" horiz-adv-x="339" 
d="M343 732h-252v47h252v-47zM343 621h-252v48h252v-48z" />
    <glyph glyph-name="uni207B" unicode="&#x207b;" horiz-adv-x="339" 
d="M345 674h-254v54h254v-54z" />
    <glyph glyph-name="uni207A" unicode="&#x207a;" horiz-adv-x="339" 
d="M349 670h-105v-106h-56v106h-102v55h102v108h56v-108h105v-55z" />
    <glyph glyph-name="uni2079" unicode="&#x2079;" horiz-adv-x="337" 
d="M239 896c79 0 119 -43 119 -130c0 -17 -1 -35 -4 -55c-21 -158 -85 -220 -188 -220c-41 0 -64 7 -91 18l17 49c25 -11 45 -17 76 -17c65 0 102 34 123 141l-2 2c-26 -21 -56 -31 -89 -31c-80 0 -112 35 -112 94c0 87 54 149 151 149zM231 845c-47 0 -80 -28 -80 -89
c0 -36 18 -56 63 -56c29 0 61 11 77 32c2 15 3 28 3 40c0 56 -22 73 -63 73z" />
    <glyph glyph-name="uni2078" unicode="&#x2078;" horiz-adv-x="337" 
d="M189 491c-87 0 -126 30 -126 91c0 54 27 94 80 121v2c-24 15 -39 35 -39 70c0 76 47 120 142 120c76 0 111 -28 111 -81c0 -48 -22 -84 -67 -109v-2c31 -15 54 -36 54 -79c0 -89 -59 -133 -155 -133zM192 679c-37 -20 -64 -46 -64 -89c0 -33 23 -50 69 -50
c43 0 81 20 81 71c0 39 -43 55 -86 68zM239 848c-44 0 -73 -23 -73 -66c0 -35 35 -45 73 -59c37 19 57 42 57 77c0 32 -19 48 -57 48z" />
    <glyph glyph-name="uni2077" unicode="&#x2077;" horiz-adv-x="337" 
d="M381 890l-8 -54l-197 -340h-77l184 303l22 32l-1 2h-204l12 57h269z" />
    <glyph glyph-name="uni2076" unicode="&#x2076;" horiz-adv-x="337" 
d="M359 880l-12 -52c-23 11 -44 14 -75 14c-72 0 -106 -38 -125 -121l1 -1c29 19 60 29 93 29c72 0 108 -30 108 -91c0 -112 -68 -167 -156 -167c-76 0 -120 34 -120 129c0 19 2 38 5 61c20 148 88 214 196 214c31 0 60 -5 85 -15zM224 702c-24 0 -63 -13 -80 -34
c-3 -19 -4 -35 -4 -50c0 -56 20 -77 61 -77c43 0 82 32 82 109c0 35 -20 52 -59 52z" />
    <glyph glyph-name="uni2075" unicode="&#x2075;" horiz-adv-x="337" 
d="M359 890l-6 -53h-166l-21 -100c23 5 45 9 68 9c73 0 110 -30 110 -90c0 -107 -59 -165 -159 -165c-45 0 -82 9 -112 28l18 49c31 -17 56 -27 95 -27c64 0 93 32 93 104c0 35 -20 53 -68 53c-31 0 -64 -6 -87 -17l-24 18l44 191h215z" />
    <glyph glyph-name="uni2074" unicode="&#x2074;" horiz-adv-x="337" 
d="M351 579h-41l-11 -83h-60l11 83h-188l1 39l212 272h79l-37 -262h43zM258 628l26 163c2 13 5 26 8 41l-2 1c-7 -11 -16 -23 -24 -34l-108 -139c-9 -12 -16 -21 -27 -32h127z" />
    <glyph glyph-name="uni2070" unicode="&#x2070;" horiz-adv-x="337" 
d="M246 895c79 0 116 -37 116 -130c0 -21 -2 -45 -6 -72c-20 -143 -72 -202 -168 -202c-80 0 -117 40 -117 133c0 20 1 42 5 69c21 147 71 202 170 202zM238 843c-51 0 -82 -26 -98 -150c-4 -27 -6 -50 -6 -69c0 -64 22 -81 61 -81c48 0 80 28 96 151c4 28 6 51 6 69
c0 64 -22 80 -59 80z" />
    <glyph glyph-name="uni200B" unicode="&#x200b;" horiz-adv-x="0" 
 />
    <glyph glyph-name="uni2008" unicode="&#x2008;" horiz-adv-x="234" 
 />
    <glyph glyph-name="uni2007" unicode="&#x2007;" horiz-adv-x="591" 
 />
    <glyph glyph-name="uni03BC" unicode="&#x3bc;" horiz-adv-x="564" 
d="M203 -6c-41 0 -79 13 -98 56h-2c-7 -68 -12 -132 -16 -193l-89 -7l105 747h90l-58 -413c-1 -11 -2 -22 -2 -30c0 -57 27 -86 82 -86c75 0 156 61 169 160l51 369h90l-83 -595l-64 -6l-1 50v20c0 7 1 14 2 21l-2 1c-41 -59 -105 -94 -174 -94z" />
    <glyph glyph-name="uni03A9" unicode="&#x3a9;" horiz-adv-x="671" 
d="M391 761c153 0 236 -69 236 -236c0 -172 -71 -339 -230 -448v-3h178l-10 -74h-246l14 104c115 93 193 235 193 415c0 117 -47 163 -146 163c-121 0 -181 -68 -208 -252c-3 -24 -5 -46 -5 -69c0 -108 38 -193 98 -257l-14 -104h-245l10 74h177l1 3
c-88 73 -128 173 -128 288c0 23 2 46 5 69c33 228 144 327 320 327z" />
    <glyph glyph-name="uni0394" unicode="&#x394;" horiz-adv-x="681" 
d="M428 754l162 -754h-599l371 754h66zM379 618h-2c-5 -13 -9 -25 -16 -37l-241 -510l356 -1l-91 508c-3 15 -3 27 -6 40z" />
    <glyph glyph-name="uni02BC" unicode="&#x2bc;" horiz-adv-x="217" 
d="M170 792c35 0 51 -20 51 -52c0 -48 -51 -129 -106 -187l-28 18c22 35 41 72 56 111h-1c-27 0 -40 13 -40 40c0 39 24 70 68 70z" />
    <glyph glyph-name="uni02BB" unicode="&#x2bb;" horiz-adv-x="217" 
d="M140 583c-35 0 -51 19 -51 50c0 51 51 129 106 189l28 -18c-21 -35 -41 -74 -56 -111c25 0 40 -15 40 -42c0 -40 -26 -68 -67 -68z" />
    <glyph glyph-name="zcaron" unicode="&#x17e;" horiz-adv-x="488" 
d="M459 535l-323 -432c-9 -12 -17 -22 -25 -30l1 -2h286l-11 -71h-385l8 62l323 431c8 11 16 19 25 30l-1 2h-272l13 72h369zM322 666h-79l-75 140h70l33 -69l16 -37h2c7 11 15 22 23 33l55 73h71z" />
    <glyph glyph-name="Zcaron" unicode="&#x17d;" horiz-adv-x="555" 
d="M456 0h-465l8 62l417 574c7 11 16 19 25 30l-1 2h-345l15 82h453l-10 -69l-411 -568c-8 -11 -16 -21 -24 -30l1 -2h350zM395 795h-96l-88 114h85l56 -79l80 79h83z" />
    <glyph glyph-name="Ydieresis" unicode="&#x178;" horiz-adv-x="605" 
d="M74 750h110l109 -369l10 -39h2c5 11 11 23 19 36l210 372h107l-302 -495l-35 -255h-99l35 255zM291 889c26 0 39 -11 39 -34c0 -35 -19 -52 -51 -52c-27 0 -39 8 -39 32c0 35 19 54 51 54zM467 889c26 0 39 -11 39 -34c0 -35 -19 -52 -51 -52c-27 0 -39 8 -39 32
c0 35 19 54 51 54z" />
    <glyph glyph-name="scaron" unicode="&#x161;" horiz-adv-x="438" 
d="M275 607c51 0 104 -14 140 -37l-35 -65c-33 19 -76 27 -117 27c-68 0 -115 -36 -115 -91c0 -107 228 -89 228 -247c0 -125 -78 -203 -213 -203c-65 0 -128 22 -165 57l32 66c35 -33 86 -50 135 -50c80 0 122 46 122 110c0 118 -227 101 -227 253c0 108 83 180 215 180z
M315 666h-79l-75 140h70l33 -69l16 -37h2c7 11 15 22 23 33l55 73h71z" />
    <glyph glyph-name="Scaron" unicode="&#x160;" horiz-adv-x="515" 
d="M334 762c67 0 127 -14 172 -38l-24 -77c-49 21 -97 34 -153 34c-108 0 -158 -63 -158 -135c0 -143 289 -99 289 -303c0 -11 -1 -22 -3 -34c-20 -141 -113 -222 -266 -222c-77 0 -142 21 -191 54l27 80c48 -35 104 -53 173 -53c97 0 163 54 163 154
c0 150 -287 107 -287 304c0 133 93 236 258 236zM389 795h-96l-88 114h85l56 -79l80 79h83z" />
    <glyph glyph-name="ij" unicode="&#x133;" horiz-adv-x="520" 
d="M121 0h-91l83 594l92 5zM186 797c34 0 51 -13 51 -39c0 -39 -24 -57 -65 -57c-35 0 -53 10 -53 37c0 39 22 59 67 59zM474 599l-72 -509c-24 -163 -103 -225 -237 -241l2 64c87 16 129 53 145 176l71 505zM455 797c34 0 51 -13 51 -39c0 -39 -24 -57 -65 -57
c-35 0 -53 10 -53 37c0 39 22 59 67 59z" />
    <glyph glyph-name="IJ" unicode="&#x132;" horiz-adv-x="785" 
d="M48 0l105 750h100l-105 -750h-100zM753 750l-72 -514c-27 -182 -116 -247 -266 -247c-53 0 -105 13 -138 36l18 76c31 -23 76 -33 117 -33c97 0 153 43 170 167l72 515h99z" />
    <glyph glyph-name="ydieresis" unicode="&#xff;" horiz-adv-x="531" 
d="M424 597h89c-80 -322 -228 -604 -448 -744l-32 66c67 47 112 91 155 150l-130 523l99 7l88 -406l8 -40h2c67 116 126 260 169 444zM252 796c27 0 40 -12 40 -36c0 -37 -20 -55 -52 -55c-25 0 -38 11 -38 33c0 36 18 58 50 58zM403 796c27 0 40 -12 40 -36
c0 -37 -20 -55 -52 -55c-26 0 -39 11 -39 33c0 36 19 58 51 58z" />
    <glyph glyph-name="yacute" unicode="&#xfd;" horiz-adv-x="531" 
d="M424 597h89c-80 -322 -228 -604 -448 -744l-32 66c67 47 112 91 155 150l-130 523l99 7l88 -406l8 -40h2c67 116 126 260 169 444zM343 806h110l-125 -140h-71z" />
    <glyph glyph-name="udieresis" unicode="&#xfc;" horiz-adv-x="541" 
d="M512 596l-57 -408c-19 -129 -96 -199 -237 -199c-124 0 -183 56 -183 156c0 13 1 28 3 43l57 406l92 5l-58 -412c-1 -5 -2 -11 -2 -16v-14c0 -61 34 -91 102 -91c78 0 123 40 135 121l57 409h91zM252 796c27 0 40 -12 40 -36c0 -37 -20 -55 -52 -55c-25 0 -38 11 -38 33
c0 36 18 58 50 58zM403 796c27 0 40 -12 40 -36c0 -37 -20 -55 -52 -55c-26 0 -39 11 -39 33c0 36 19 58 51 58z" />
    <glyph glyph-name="ucircumflex" unicode="&#xfb;" horiz-adv-x="541" 
d="M512 596l-57 -408c-19 -129 -96 -199 -237 -199c-124 0 -183 56 -183 156c0 13 1 28 3 43l57 406l92 5l-58 -412c-1 -5 -2 -11 -2 -16v-14c0 -61 34 -91 102 -91c78 0 123 40 135 121l57 409h91zM292 806h79l77 -140h-70l-34 65c-7 11 -12 25 -17 37h-2l-24 -33l-54 -69
h-69z" />
    <glyph glyph-name="uacute" unicode="&#xfa;" horiz-adv-x="541" 
d="M512 596l-57 -408c-19 -129 -96 -199 -237 -199c-124 0 -183 56 -183 156c0 13 1 28 3 43l57 406l92 5l-58 -412c-1 -5 -2 -11 -2 -16v-14c0 -61 34 -91 102 -91c78 0 123 40 135 121l57 409h91zM347 806h110l-125 -140h-71z" />
    <glyph glyph-name="ugrave" unicode="&#xf9;" horiz-adv-x="541" 
d="M512 596l-57 -408c-19 -129 -96 -199 -237 -199c-124 0 -183 56 -183 156c0 13 1 28 3 43l57 406l92 5l-58 -412c-1 -5 -2 -11 -2 -16v-14c0 -61 34 -91 102 -91c78 0 123 40 135 121l57 409h91zM371 666h-70l-80 140h108z" />
    <glyph glyph-name="odieresis" unicode="&#xf6;" horiz-adv-x="535" 
d="M292 533c-94 0 -137 -54 -164 -237c-6 -43 -9 -79 -9 -107c0 -99 34 -128 105 -128c95 0 140 54 167 238c6 41 9 75 9 104c0 100 -36 130 -108 130zM305 607c131 0 186 -58 186 -198c0 -33 -3 -70 -9 -112c-29 -216 -107 -307 -269 -307c-131 0 -186 58 -186 198
c0 33 3 70 9 112c29 216 107 307 269 307zM253 796c27 0 40 -12 40 -36c0 -37 -20 -55 -52 -55c-25 0 -38 11 -38 33c0 36 18 58 50 58zM404 796c27 0 40 -12 40 -36c0 -37 -20 -55 -52 -55c-26 0 -39 11 -39 33c0 36 19 58 51 58z" />
    <glyph glyph-name="otilde" unicode="&#xf5;" horiz-adv-x="535" 
d="M292 533c-94 0 -137 -54 -164 -237c-6 -43 -9 -79 -9 -107c0 -99 34 -128 105 -128c95 0 140 54 167 238c6 41 9 75 9 104c0 100 -36 130 -108 130zM305 607c131 0 186 -58 186 -198c0 -33 -3 -70 -9 -112c-29 -216 -107 -307 -269 -307c-131 0 -186 58 -186 198
c0 33 3 70 9 112c29 216 107 307 269 307zM378 676c-55 0 -71 65 -105 65c-17 0 -31 -19 -42 -56h-53c15 69 52 113 99 113c55 0 71 -65 105 -65c17 0 31 19 41 56h53c-15 -69 -50 -113 -98 -113z" />
    <glyph glyph-name="ocircumflex" unicode="&#xf4;" horiz-adv-x="535" 
d="M292 533c-94 0 -137 -54 -164 -237c-6 -43 -9 -79 -9 -107c0 -99 34 -128 105 -128c95 0 140 54 167 238c6 41 9 75 9 104c0 100 -36 130 -108 130zM305 607c131 0 186 -58 186 -198c0 -33 -3 -70 -9 -112c-29 -216 -107 -307 -269 -307c-131 0 -186 58 -186 198
c0 33 3 70 9 112c29 216 107 307 269 307zM293 806h79l77 -140h-70l-34 65c-7 11 -12 25 -17 37h-2l-24 -33l-54 -69h-69z" />
    <glyph glyph-name="oacute" unicode="&#xf3;" horiz-adv-x="535" 
d="M292 533c-94 0 -137 -54 -164 -237c-6 -43 -9 -79 -9 -107c0 -99 34 -128 105 -128c95 0 140 54 167 238c6 41 9 75 9 104c0 100 -36 130 -108 130zM305 607c131 0 186 -58 186 -198c0 -33 -3 -70 -9 -112c-29 -216 -107 -307 -269 -307c-131 0 -186 58 -186 198
c0 33 3 70 9 112c29 216 107 307 269 307zM344 806h110l-125 -140h-71z" />
    <glyph glyph-name="ograve" unicode="&#xf2;" horiz-adv-x="535" 
d="M292 533c-94 0 -137 -54 -164 -237c-6 -43 -9 -79 -9 -107c0 -99 34 -128 105 -128c95 0 140 54 167 238c6 41 9 75 9 104c0 100 -36 130 -108 130zM305 607c131 0 186 -58 186 -198c0 -33 -3 -70 -9 -112c-29 -216 -107 -307 -269 -307c-131 0 -186 58 -186 198
c0 33 3 70 9 112c29 216 107 307 269 307zM366 666h-70l-80 140h108z" />
    <glyph glyph-name="ntilde" unicode="&#xf1;" horiz-adv-x="552" 
d="M349 0l54 388c3 19 4 36 4 51c0 68 -28 90 -84 90c-84 0 -148 -64 -164 -177l-49 -352h-91l83 594l72 5v-59c0 -7 0 -13 -1 -20l3 -1c43 57 104 88 180 88c95 0 142 -48 142 -155c0 -19 -1 -38 -4 -61l-54 -391h-91zM384 676c-55 0 -71 65 -105 65c-17 0 -31 -19 -42 -56
h-53c15 69 52 113 99 113c55 0 71 -65 105 -65c17 0 31 19 41 56h53c-15 -69 -50 -113 -98 -113z" />
    <glyph glyph-name="idieresis" unicode="&#xef;" horiz-adv-x="251" 
d="M122 0h-92l83 594l93 5zM111 796c27 0 40 -12 40 -36c0 -37 -20 -55 -52 -55c-25 0 -38 11 -38 33c0 36 18 58 50 58zM262 796c27 0 40 -12 40 -36c0 -37 -20 -55 -52 -55c-26 0 -39 11 -39 33c0 36 19 58 51 58z" />
    <glyph glyph-name="icircumflex" unicode="&#xee;" horiz-adv-x="251" 
d="M122 0h-92l83 594l93 5zM151 806h79l77 -140h-70l-34 65c-7 11 -12 25 -17 37h-2l-24 -33l-54 -69h-69z" />
    <glyph glyph-name="iacute" unicode="&#xed;" horiz-adv-x="251" 
d="M122 0h-92l83 594l93 5zM215 806h110l-125 -140h-71z" />
    <glyph glyph-name="igrave" unicode="&#xec;" horiz-adv-x="251" 
d="M122 0h-92l83 594l93 5zM212 666h-70l-80 140h108z" />
    <glyph glyph-name="edieresis" unicode="&#xeb;" horiz-adv-x="473" 
d="M304 607c101 0 151 -47 151 -118c0 -117 -92 -195 -333 -230c-2 -21 -3 -41 -3 -58c0 -106 40 -136 115 -136c57 0 104 18 143 53l26 -55c-47 -43 -110 -72 -194 -72c-109 0 -181 55 -181 211c0 29 3 62 8 98c29 207 119 307 268 307zM294 537c-91 0 -139 -66 -164 -213
c179 24 244 81 244 152c0 36 -25 61 -80 61zM240 796c27 0 40 -12 40 -36c0 -37 -20 -55 -52 -55c-25 0 -38 11 -38 33c0 36 18 58 50 58zM391 796c27 0 40 -12 40 -36c0 -37 -20 -55 -52 -55c-26 0 -39 11 -39 33c0 36 19 58 51 58z" />
    <glyph glyph-name="ecircumflex" unicode="&#xea;" horiz-adv-x="473" 
d="M304 607c101 0 151 -47 151 -118c0 -117 -92 -195 -333 -230c-2 -21 -3 -41 -3 -58c0 -106 40 -136 115 -136c57 0 104 18 143 53l26 -55c-47 -43 -110 -72 -194 -72c-109 0 -181 55 -181 211c0 29 3 62 8 98c29 207 119 307 268 307zM294 537c-91 0 -139 -66 -164 -213
c179 24 244 81 244 152c0 36 -25 61 -80 61zM281 806h79l77 -140h-70l-34 65c-7 11 -12 25 -17 37h-2l-24 -33l-54 -69h-69z" />
    <glyph glyph-name="eacute" unicode="&#xe9;" horiz-adv-x="473" 
d="M304 607c101 0 151 -47 151 -118c0 -117 -92 -195 -333 -230c-2 -21 -3 -41 -3 -58c0 -106 40 -136 115 -136c57 0 104 18 143 53l26 -55c-47 -43 -110 -72 -194 -72c-109 0 -181 55 -181 211c0 29 3 62 8 98c29 207 119 307 268 307zM294 537c-91 0 -139 -66 -164 -213
c179 24 244 81 244 152c0 36 -25 61 -80 61zM340 806h110l-125 -140h-71z" />
    <glyph glyph-name="egrave" unicode="&#xe8;" horiz-adv-x="473" 
d="M304 607c101 0 151 -47 151 -118c0 -117 -92 -195 -333 -230c-2 -21 -3 -41 -3 -58c0 -106 40 -136 115 -136c57 0 104 18 143 53l26 -55c-47 -43 -110 -72 -194 -72c-109 0 -181 55 -181 211c0 29 3 62 8 98c29 207 119 307 268 307zM294 537c-91 0 -139 -66 -164 -213
c179 24 244 81 244 152c0 36 -25 61 -80 61zM360 666h-70l-80 140h108z" />
    <glyph glyph-name="aring" unicode="&#xe5;" horiz-adv-x="548" 
d="M360 605c62 0 91 -8 140 -8h11l-83 -597h-71l-1 40v20c0 7 1 14 2 21l-2 1c-47 -63 -110 -91 -179 -91c-100 0 -153 52 -153 184c0 271 137 430 336 430zM207 64c81 0 147 64 163 175l41 288c-20 3 -40 4 -64 4c-121 0 -197 -81 -224 -262c-5 -35 -7 -63 -7 -87
c0 -88 31 -118 91 -118zM367 821c57 0 86 -26 86 -65c0 -56 -42 -86 -107 -86c-56 0 -87 21 -87 62c0 51 37 89 108 89zM363 785c-37 0 -57 -19 -57 -46c0 -23 15 -34 46 -34c35 0 54 17 54 46c0 20 -12 34 -43 34z" />
    <glyph glyph-name="adieresis" unicode="&#xe4;" horiz-adv-x="548" 
d="M360 605c62 0 91 -8 140 -8h11l-83 -597h-71l-1 40v20c0 7 1 14 2 21l-2 1c-47 -63 -110 -91 -179 -91c-100 0 -153 52 -153 184c0 271 137 430 336 430zM207 64c81 0 147 64 163 175l41 288c-20 3 -40 4 -64 4c-121 0 -197 -81 -224 -262c-5 -35 -7 -63 -7 -87
c0 -88 31 -118 91 -118zM297 796c27 0 40 -12 40 -36c0 -37 -20 -55 -52 -55c-25 0 -38 11 -38 33c0 36 18 58 50 58zM448 796c27 0 40 -12 40 -36c0 -37 -20 -55 -52 -55c-26 0 -39 11 -39 33c0 36 19 58 51 58z" />
    <glyph glyph-name="atilde" unicode="&#xe3;" horiz-adv-x="548" 
d="M360 605c62 0 91 -8 140 -8h11l-83 -597h-71l-1 40v20c0 7 1 14 2 21l-2 1c-47 -63 -110 -91 -179 -91c-100 0 -153 52 -153 184c0 271 137 430 336 430zM207 64c81 0 147 64 163 175l41 288c-20 3 -40 4 -64 4c-121 0 -197 -81 -224 -262c-5 -35 -7 -63 -7 -87
c0 -88 31 -118 91 -118zM426 676c-55 0 -71 65 -105 65c-17 0 -31 -19 -42 -56h-53c15 69 52 113 99 113c55 0 71 -65 105 -65c17 0 31 19 41 56h53c-15 -69 -50 -113 -98 -113z" />
    <glyph glyph-name="acircumflex" unicode="&#xe2;" horiz-adv-x="548" 
d="M360 605c62 0 91 -8 140 -8h11l-83 -597h-71l-1 40v20c0 7 1 14 2 21l-2 1c-47 -63 -110 -91 -179 -91c-100 0 -153 52 -153 184c0 271 137 430 336 430zM207 64c81 0 147 64 163 175l41 288c-20 3 -40 4 -64 4c-121 0 -197 -81 -224 -262c-5 -35 -7 -63 -7 -87
c0 -88 31 -118 91 -118zM325 806h79l77 -140h-70l-34 65c-7 11 -12 25 -17 37h-2l-24 -33l-54 -69h-69z" />
    <glyph glyph-name="aacute" unicode="&#xe1;" horiz-adv-x="548" 
d="M360 605c62 0 91 -8 140 -8h11l-83 -597h-71l-1 40v20c0 7 1 14 2 21l-2 1c-47 -63 -110 -91 -179 -91c-100 0 -153 52 -153 184c0 271 137 430 336 430zM207 64c81 0 147 64 163 175l41 288c-20 3 -40 4 -64 4c-121 0 -197 -81 -224 -262c-5 -35 -7 -63 -7 -87
c0 -88 31 -118 91 -118zM395 806h110l-125 -140h-71z" />
    <glyph glyph-name="agrave" unicode="&#xe0;" horiz-adv-x="548" 
d="M360 605c62 0 91 -8 140 -8h11l-83 -597h-71l-1 40v20c0 7 1 14 2 21l-2 1c-47 -63 -110 -91 -179 -91c-100 0 -153 52 -153 184c0 271 137 430 336 430zM207 64c81 0 147 64 163 175l41 288c-20 3 -40 4 -64 4c-121 0 -197 -81 -224 -262c-5 -35 -7 -63 -7 -87
c0 -88 31 -118 91 -118zM423 666h-70l-80 140h108z" />
    <glyph glyph-name="Yacute" unicode="&#xdd;" horiz-adv-x="605" 
d="M74 750h110l109 -369l10 -39h2c5 11 11 23 19 36l210 372h107l-302 -495l-35 -255h-99l35 255zM396 908h121l-135 -113h-74z" />
    <glyph glyph-name="Udieresis" unicode="&#xdc;" horiz-adv-x="664" 
d="M645 750l-70 -496c-27 -187 -127 -267 -295 -267c-147 0 -226 62 -226 203c0 20 2 41 5 64l70 496h97l-70 -499c-3 -19 -4 -36 -4 -51c0 -92 45 -131 140 -131c109 0 167 54 186 182l70 499h97zM318 889c26 0 39 -11 39 -34c0 -35 -19 -52 -51 -52c-27 0 -39 8 -39 32
c0 35 19 54 51 54zM494 889c26 0 39 -11 39 -34c0 -35 -19 -52 -51 -52c-27 0 -39 8 -39 32c0 35 19 54 51 54z" />
    <glyph glyph-name="Ucircumflex" unicode="&#xdb;" horiz-adv-x="664" 
d="M645 750l-70 -496c-27 -187 -127 -267 -295 -267c-147 0 -226 62 -226 203c0 20 2 41 5 64l70 496h97l-70 -499c-3 -19 -4 -36 -4 -51c0 -92 45 -131 140 -131c109 0 167 54 186 182l70 499h97zM361 909h95l91 -114h-86l-57 78l-78 -78h-84z" />
    <glyph glyph-name="Uacute" unicode="&#xda;" horiz-adv-x="664" 
d="M645 750l-70 -496c-27 -187 -127 -267 -295 -267c-147 0 -226 62 -226 203c0 20 2 41 5 64l70 496h97l-70 -499c-3 -19 -4 -36 -4 -51c0 -92 45 -131 140 -131c109 0 167 54 186 182l70 499h97zM424 908h121l-135 -113h-74z" />
    <glyph glyph-name="Ugrave" unicode="&#xd9;" horiz-adv-x="664" 
d="M645 750l-70 -496c-27 -187 -127 -267 -295 -267c-147 0 -226 62 -226 203c0 20 2 41 5 64l70 496h97l-70 -499c-3 -19 -4 -36 -4 -51c0 -92 45 -131 140 -131c109 0 167 54 186 182l70 499h97zM447 795h-75l-97 113h113z" />
    <glyph glyph-name="Odieresis" unicode="&#xd6;" horiz-adv-x="670" 
d="M617 375c-40 -285 -131 -388 -334 -388c-163 0 -237 72 -237 252c0 40 4 85 11 136c40 284 134 387 335 387c164 0 236 -69 236 -246c0 -41 -3 -88 -11 -141zM516 375c8 56 12 103 12 142c0 130 -47 165 -148 165c-129 0 -187 -59 -222 -307c-8 -55 -12 -102 -12 -139
c0 -132 48 -169 148 -169c131 0 187 62 222 308zM322 889c26 0 39 -11 39 -34c0 -35 -19 -52 -51 -52c-27 0 -39 8 -39 32c0 35 19 54 51 54zM498 889c26 0 39 -11 39 -34c0 -35 -19 -52 -51 -52c-27 0 -39 8 -39 32c0 35 19 54 51 54z" />
    <glyph glyph-name="Otilde" unicode="&#xd5;" horiz-adv-x="670" 
d="M617 375c-40 -285 -131 -388 -334 -388c-163 0 -237 72 -237 252c0 40 4 85 11 136c40 284 134 387 335 387c164 0 236 -69 236 -246c0 -41 -3 -88 -11 -141zM516 375c8 56 12 103 12 142c0 130 -47 165 -148 165c-129 0 -187 -59 -222 -307c-8 -55 -12 -102 -12 -139
c0 -132 48 -169 148 -169c131 0 187 62 222 308zM294 798h-46c13 60 46 101 97 101c53 0 76 -62 111 -62c17 0 31 16 42 48h43c-12 -60 -46 -100 -95 -100c-52 0 -79 60 -111 60c-19 0 -32 -19 -41 -47z" />
    <glyph glyph-name="Ocircumflex" unicode="&#xd4;" horiz-adv-x="670" 
d="M617 375c-40 -285 -131 -388 -334 -388c-163 0 -237 72 -237 252c0 40 4 85 11 136c40 284 134 387 335 387c164 0 236 -69 236 -246c0 -41 -3 -88 -11 -141zM516 375c8 56 12 103 12 142c0 130 -47 165 -148 165c-129 0 -187 -59 -222 -307c-8 -55 -12 -102 -12 -139
c0 -132 48 -169 148 -169c131 0 187 62 222 308zM365 909h95l91 -114h-86l-57 78l-78 -78h-84z" />
    <glyph glyph-name="Oacute" unicode="&#xd3;" horiz-adv-x="670" 
d="M617 375c-40 -285 -131 -388 -334 -388c-163 0 -237 72 -237 252c0 40 4 85 11 136c40 284 134 387 335 387c164 0 236 -69 236 -246c0 -41 -3 -88 -11 -141zM516 375c8 56 12 103 12 142c0 130 -47 165 -148 165c-129 0 -187 -59 -222 -307c-8 -55 -12 -102 -12 -139
c0 -132 48 -169 148 -169c131 0 187 62 222 308zM428 908h121l-135 -113h-74z" />
    <glyph glyph-name="Ograve" unicode="&#xd2;" horiz-adv-x="670" 
d="M617 375c-40 -285 -131 -388 -334 -388c-163 0 -237 72 -237 252c0 40 4 85 11 136c40 284 134 387 335 387c164 0 236 -69 236 -246c0 -41 -3 -88 -11 -141zM516 375c8 56 12 103 12 142c0 130 -47 165 -148 165c-129 0 -187 -59 -222 -307c-8 -55 -12 -102 -12 -139
c0 -132 48 -169 148 -169c131 0 187 62 222 308zM455 795h-75l-97 113h113z" />
    <glyph glyph-name="Ntilde" unicode="&#xd1;" horiz-adv-x="684" 
d="M547 0h-71l-271 593h-2c-1 -13 -1 -28 -4 -41l-77 -552h-85l105 750h89l256 -575h2c0 14 1 28 3 41l75 534h85zM310 798h-46c13 60 46 101 97 101c53 0 76 -62 111 -62c17 0 31 16 42 48h43c-12 -60 -46 -100 -95 -100c-52 0 -79 60 -111 60c-19 0 -32 -19 -41 -47z" />
    <glyph glyph-name="Idieresis" unicode="&#xcf;" horiz-adv-x="295" 
d="M48 0l105 750h100l-105 -750h-100zM134 889c26 0 39 -11 39 -34c0 -35 -19 -52 -51 -52c-27 0 -39 8 -39 32c0 35 19 54 51 54zM310 889c26 0 39 -11 39 -34c0 -35 -19 -52 -51 -52c-27 0 -39 8 -39 32c0 35 19 54 51 54z" />
    <glyph glyph-name="Icircumflex" unicode="&#xce;" horiz-adv-x="295" 
d="M48 0l105 750h100l-105 -750h-100zM178 909h95l91 -114h-86l-57 78l-78 -78h-84z" />
    <glyph glyph-name="Iacute" unicode="&#xcd;" horiz-adv-x="295" 
d="M48 0l105 750h100l-105 -750h-100zM248 908h121l-135 -113h-74z" />
    <glyph glyph-name="Igrave" unicode="&#xcc;" horiz-adv-x="295" 
d="M48 0l105 750h100l-105 -750h-100zM259 795h-75l-97 113h113z" />
    <glyph glyph-name="Edieresis" unicode="&#xcb;" horiz-adv-x="560" 
d="M145 80h336l-14 -80h-430l105 750h415l-8 -80h-321l-34 -241h275l-11 -75h-275zM282 889c26 0 39 -11 39 -34c0 -35 -19 -52 -51 -52c-27 0 -39 8 -39 32c0 35 19 54 51 54zM458 889c26 0 39 -11 39 -34c0 -35 -19 -52 -51 -52c-27 0 -39 8 -39 32c0 35 19 54 51 54z" />
    <glyph glyph-name="Ecircumflex" unicode="&#xca;" horiz-adv-x="560" 
d="M145 80h336l-14 -80h-430l105 750h415l-8 -80h-321l-34 -241h275l-11 -75h-275zM327 909h95l91 -114h-86l-57 78l-78 -78h-84z" />
    <glyph glyph-name="Eacute" unicode="&#xc9;" horiz-adv-x="560" 
d="M145 80h336l-14 -80h-430l105 750h415l-8 -80h-321l-34 -241h275l-11 -75h-275zM386 908h121l-135 -113h-74z" />
    <glyph glyph-name="Egrave" unicode="&#xc8;" horiz-adv-x="560" 
d="M145 80h336l-14 -80h-430l105 750h415l-8 -80h-321l-34 -241h275l-11 -75h-275zM410 795h-75l-97 113h113z" />
    <glyph glyph-name="Adieresis" unicode="&#xc4;" horiz-adv-x="641" 
d="M465 0l-28 187h-286l-81 -187h-103l349 750h118l140 -750h-109zM365 679h-2c-3 -11 -8 -24 -15 -38l-165 -380h243l-56 377c-3 15 -4 26 -5 41zM304 889c26 0 39 -11 39 -34c0 -35 -19 -52 -51 -52c-27 0 -39 8 -39 32c0 35 19 54 51 54zM480 889c26 0 39 -11 39 -34
c0 -35 -19 -52 -51 -52c-27 0 -39 8 -39 32c0 35 19 54 51 54z" />
    <glyph glyph-name="Atilde" unicode="&#xc3;" horiz-adv-x="641" 
d="M465 0l-28 187h-286l-81 -187h-103l349 750h118l140 -750h-109zM365 679h-2c-3 -11 -8 -24 -15 -38l-165 -380h243l-56 377c-3 15 -4 26 -5 41zM292 798h-46c13 60 46 101 97 101c53 0 76 -62 111 -62c17 0 31 16 42 48h43c-12 -60 -46 -100 -95 -100
c-52 0 -79 60 -111 60c-19 0 -32 -19 -41 -47z" />
    <glyph glyph-name="Acircumflex" unicode="&#xc2;" horiz-adv-x="641" 
d="M465 0l-28 187h-286l-81 -187h-103l349 750h118l140 -750h-109zM365 679h-2c-3 -11 -8 -24 -15 -38l-165 -380h243l-56 377c-3 15 -4 26 -5 41zM339 909h95l91 -114h-86l-57 78l-78 -78h-84z" />
    <glyph glyph-name="Aacute" unicode="&#xc1;" horiz-adv-x="641" 
d="M465 0l-28 187h-286l-81 -187h-103l349 750h118l140 -750h-109zM365 679h-2c-3 -11 -8 -24 -15 -38l-165 -380h243l-56 377c-3 15 -4 26 -5 41zM418 908h121l-135 -113h-74z" />
    <glyph glyph-name="Agrave" unicode="&#xc0;" horiz-adv-x="641" 
d="M465 0l-28 187h-286l-81 -187h-103l349 750h118l140 -750h-109zM365 679h-2c-3 -11 -8 -24 -15 -38l-165 -380h243l-56 377c-3 15 -4 26 -5 41zM423 795h-75l-97 113h113z" />
    <glyph glyph-name="onesuperior" unicode="&#xb9;" horiz-adv-x="248" 
d="M265 892l-55 -396h-66l38 272c3 13 4 27 7 40l-2 2l-34 -23l-51 -30v56l120 79h43z" />
    <glyph glyph-name="threesuperior" unicode="&#xb3;" horiz-adv-x="324" 
d="M238 895c73 0 117 -28 117 -84c0 -57 -32 -89 -76 -105v-2c39 -11 59 -33 59 -73c0 -84 -58 -140 -163 -140c-48 0 -81 10 -112 30l21 48c27 -19 58 -28 97 -28c63 0 94 37 94 88c0 37 -28 52 -104 52l6 46c84 0 116 24 116 71c0 31 -24 45 -67 45
c-41 0 -73 -12 -106 -35l-9 46c31 24 79 41 127 41z" />
    <glyph glyph-name="twosuperior" unicode="&#xb2;" horiz-adv-x="324" 
d="M241 895c76 0 112 -33 112 -89c0 -88 -87 -163 -206 -253v-3h173l-8 -54h-253l5 42c115 99 218 183 218 254c0 29 -16 49 -64 49c-36 0 -69 -15 -101 -36l-10 50c36 23 82 40 134 40z" />
    <glyph glyph-name="uni00A0" unicode="&#xa0;" horiz-adv-x="291" 
 />
    <glyph glyph-name="e" unicode="e" horiz-adv-x="473" 
d="M304 607c101 0 151 -47 151 -118c0 -117 -92 -195 -333 -230c-2 -21 -3 -41 -3 -58c0 -106 40 -136 115 -136c57 0 104 18 143 53l26 -55c-47 -43 -110 -72 -194 -72c-109 0 -181 55 -181 211c0 29 3 62 8 98c29 207 119 307 268 307zM294 537c-91 0 -139 -66 -164 -213
c179 24 244 81 244 152c0 36 -25 61 -80 61z" />
    <glyph glyph-name="ae" unicode="&#xe6;" horiz-adv-x="815" 
d="M354 605c60 0 99 -10 134 -21l-7 -45l2 -1c39 46 93 69 163 69c99 0 151 -46 151 -121c0 -112 -95 -195 -334 -230c-2 -19 -3 -37 -3 -52c0 -108 41 -139 117 -139c56 0 103 18 142 53l26 -55c-45 -43 -110 -72 -194 -72c-91 0 -147 37 -163 137h-2
c-44 -93 -122 -137 -211 -137c-99 0 -151 51 -151 183c0 293 149 431 330 431zM207 64c81 0 147 64 163 175l41 290c-19 3 -38 5 -61 5c-124 0 -200 -84 -225 -260c-5 -37 -8 -67 -8 -94c0 -87 30 -116 90 -116zM640 537c-87 0 -141 -60 -168 -213c184 27 243 81 243 153
c0 36 -23 60 -75 60z" />
    <glyph glyph-name="a" unicode="a" horiz-adv-x="548" 
d="M360 605c62 0 91 -8 140 -8h11l-83 -597h-71l-1 40v20c0 7 1 14 2 21l-2 1c-47 -63 -110 -91 -179 -91c-100 0 -153 52 -153 184c0 271 137 430 336 430zM207 64c81 0 147 64 163 175l41 288c-20 3 -40 4 -64 4c-121 0 -197 -81 -224 -262c-5 -35 -7 -63 -7 -87
c0 -88 31 -118 91 -118z" />
    <glyph glyph-name="uniFEFF" unicode="&#xfeff;" horiz-adv-x="0" 
 />
    </font>
</defs>
</svg>
