<?xml version="1.0" standalone="no"?>
<!DOCTYPE svg PUBLIC "-//W3C//DTD SVG 1.1//EN" "http://www.w3.org/Graphics/SVG/1.1/DTD/svg11.dtd" >
<svg xmlns="http://www.w3.org/2000/svg" xmlns:xlink="http://www.w3.org/1999/xlink" version="1.1">
<metadata>
Created by FontForge 20161116 at Sun Jun  7 15:33:11 2015
 By Jimmy Wärting
2010 published by FontShop International GmbH
</metadata>
<defs>
<font id="ClanOT-NarrNews" horiz-adv-x="372" >
  <font-face 
    font-family="Clan OT Narr News"
    font-weight="475"
    font-stretch="semi-condensed"
    units-per-em="1000"
    panose-1="2 11 6 6 2 1 1 2 1 2"
    ascent="800"
    descent="-200"
    x-height="598"
    cap-height="750"
    bbox="-242 -228 1069 956"
    underline-thickness="50"
    underline-position="-125"
    unicode-range="U+000D-FEFF"
  />
<missing-glyph horiz-adv-x="563" 
d="M76 0v750h411v-750h-411zM134 58h295v634h-295v-634z" />
    <glyph glyph-name="f_j" unicode="fj" horiz-adv-x="633" 
d="M196 0h-87v528h-80v70h80v30c0 99 54 168 178 168c27 0 56 -4 72 -9l-2 -63c-15 3 -33 6 -52 6c-77 0 -109 -37 -109 -104v-28h337v-608c0 -109 -57 -144 -133 -144c-23 0 -47 4 -66 12l6 66c13 -5 26 -8 39 -8c39 0 67 21 67 76v536h-250v-528zM547 748
c0 -33 -19 -50 -58 -50c-37 0 -57 14 -57 50c0 33 19 50 57 50c39 0 58 -17 58 -50z" />
    <glyph glyph-name="f_l" unicode="fl" horiz-adv-x="606" 
d="M513 0h-88v729c-31 4 -58 7 -89 7c-103 0 -140 -39 -140 -111v-27h114v-70h-114v-528h-88v528h-79v70h79v31c0 100 59 172 229 172c69 0 114 -10 176 -13v-788z" />
    <glyph glyph-name="f_i" unicode="fi" horiz-adv-x="633" 
d="M534 0h-90v528h-248v-528h-87v528h-80v70h80v30c0 99 54 168 178 168c27 0 56 -4 72 -9l-2 -63c-15 3 -33 6 -52 6c-77 0 -109 -37 -109 -104v-28h338v-598zM547 748c0 -33 -19 -50 -58 -50c-37 0 -57 14 -57 50c0 33 19 50 57 50c39 0 58 -17 58 -50z" />
    <glyph glyph-name=".notdef" horiz-adv-x="563" 
d="M76 0v750h411v-750h-411zM134 58h295v634h-295v-634z" />
    <glyph glyph-name="a" unicode="a" horiz-adv-x="522" 
d="M387 0l-8 71l-3 1c-32 -51 -89 -80 -158 -80c-100 0 -168 57 -168 190c0 116 67 181 196 181c45 0 88 -9 121 -22v64c0 95 -37 125 -125 125c-56 0 -103 -11 -151 -35l-8 76c51 25 109 38 174 38c141 0 197 -61 197 -217v-392h-67zM367 166v110c-13 9 -52 21 -105 21
c-89 0 -128 -39 -128 -114c0 -86 45 -116 108 -116c66 0 125 48 125 99z" />
    <glyph glyph-name="ae" unicode="&#xe6;" horiz-adv-x="838" 
d="M257 607c87 0 137 -24 162 -83h2c35 55 91 83 167 83c123 0 207 -79 207 -274c0 -15 -1 -33 -2 -46h-343c3 -166 57 -217 171 -217c55 0 101 14 146 38l10 -78c-45 -27 -101 -41 -166 -41c-107 0 -170 36 -203 105h-3c-32 -67 -97 -104 -178 -104
c-109 0 -177 57 -177 190c0 116 67 181 196 181c47 0 89 -10 121 -23v65c0 95 -37 125 -125 125c-56 0 -103 -11 -151 -35l-8 76c53 25 110 38 174 38zM367 180v94c-13 9 -52 21 -105 21c-89 0 -129 -39 -129 -114c0 -86 45 -116 109 -116c72 0 125 48 125 115zM448 350h266
c-3 132 -55 179 -131 179c-91 0 -130 -54 -135 -179z" />
    <glyph glyph-name="e" unicode="e" horiz-adv-x="525" 
d="M297 -11c-178 0 -252 96 -252 326c0 195 74 292 223 292c131 0 214 -79 214 -274c0 -15 0 -33 -3 -46h-343c3 -166 55 -217 171 -217c56 0 101 13 146 36l10 -76c-45 -27 -99 -41 -166 -41zM134 350h266c0 132 -55 179 -131 179c-92 0 -130 -54 -135 -179z" />
    <glyph glyph-name="oe" unicode="&#x153;" horiz-adv-x="905" 
d="M680 -11c-108 0 -171 33 -204 113h-3c-32 -84 -94 -115 -193 -115c-156 0 -228 81 -228 310c0 228 74 310 228 310c97 0 159 -32 191 -104h3c30 69 89 104 178 104c127 0 210 -79 210 -274c0 -15 -1 -33 -2 -46h-342c3 -166 55 -217 171 -217c53 0 100 14 145 38l10 -78
c-45 -27 -100 -41 -164 -41zM142 297c0 -180 41 -233 144 -233s141 55 141 233s-38 233 -141 233s-144 -55 -144 -233zM516 350h265c0 132 -56 179 -131 179c-91 0 -130 -54 -134 -179z" />
    <glyph glyph-name="g" unicode="g" horiz-adv-x="520" 
d="M257 256c-25 0 -51 1 -74 8c-27 -9 -41 -24 -41 -45c0 -20 15 -37 48 -40l129 -13c130 -13 174 -60 174 -143c0 -110 -62 -177 -230 -177c-147 0 -210 62 -210 155c0 43 19 83 55 114c-27 15 -49 42 -49 82c0 37 24 71 71 92c-41 25 -67 69 -67 141c0 112 54 177 193 177
c47 0 96 -9 132 -36l93 39l20 -45l-68 -50c11 -23 16 -50 16 -85c0 -116 -53 -174 -192 -174zM304 86l-128 14c-31 -24 -46 -56 -46 -87c0 -61 38 -96 131 -96c120 0 151 38 151 93c0 42 -23 68 -108 76zM257 536c-79 0 -107 -35 -107 -108c0 -85 45 -106 106 -106
c83 0 108 33 108 106c0 81 -32 108 -107 108z" />
    <glyph glyph-name="s" unicode="s" horiz-adv-x="446" 
d="M406 173c0 -116 -57 -185 -192 -185c-64 0 -121 15 -164 46l11 79c40 -31 100 -47 152 -47c79 0 112 39 112 99c0 139 -275 78 -275 277c0 100 65 165 190 165c53 0 101 -11 145 -32l-8 -77c-44 20 -94 31 -137 31c-67 0 -106 -31 -106 -82c0 -129 272 -67 272 -274z" />
    <glyph glyph-name="germandbls" unicode="&#xdf;" horiz-adv-x="580" 
d="M81 0v512c0 164 74 251 213 251c100 0 167 -60 167 -138c0 -96 -121 -153 -121 -198c0 -56 203 -88 203 -249c0 -119 -83 -186 -203 -186c-48 0 -106 10 -141 37l7 80c29 -23 74 -34 119 -34c73 0 129 31 129 100c0 123 -207 147 -207 240c0 73 129 129 129 207
c0 39 -32 63 -84 63c-83 0 -124 -53 -124 -166v-519h-87z" />
    <glyph glyph-name="longs" unicode="&#x17f;" horiz-adv-x="280" 
d="M11 529l3 64h73c0 157 62 210 224 210l5 -66c-91 0 -137 -20 -137 -145v-502c0 -163 -73 -225 -203 -241l-7 64c84 16 118 53 118 176v440h-76z" />
    <glyph glyph-name="S" unicode="S" horiz-adv-x="513" 
d="M476 211c0 -143 -82 -224 -233 -224c-79 0 -145 21 -198 54l15 87c55 -33 112 -53 181 -53c96 0 144 46 144 130c0 172 -334 107 -334 351c0 118 70 206 225 206c67 0 129 -14 177 -38l-13 -85c-52 21 -102 33 -158 33c-102 0 -140 -48 -140 -112
c0 -164 334 -98 334 -349z" />
    <glyph glyph-name="dollar" unicode="$" horiz-adv-x="590" 
d="M280 -84l-51 5l6 68c-61 7 -121 23 -160 48l12 89c44 -27 99 -48 156 -55l27 276c-96 40 -195 86 -195 214s83 197 235 200l6 64l55 -4l-7 -63c51 -5 95 -16 122 -31l-7 -84c-39 15 -80 25 -123 29l-25 -244c93 -37 189 -87 189 -224c0 -149 -76 -214 -233 -217zM448 192
c0 71 -58 106 -127 135l-26 -259c102 1 153 42 153 124zM156 565c0 -61 55 -91 124 -117l21 227c-101 -3 -145 -46 -145 -110z" />
    <glyph glyph-name="dollar.dnom" horiz-adv-x="290" 
d="M148 460h52l-5 -75c26 -3 49 -8 70 -17l-8 -56c-31 11 -54 16 -85 16c-51 0 -66 -20 -66 -45c0 -69 172 -35 172 -162c0 -61 -34 -102 -98 -111l-3 -74h-52l4 73c-35 3 -64 12 -88 27l9 57c31 -19 60 -28 97 -28c45 0 68 17 68 52c0 71 -172 40 -172 163
c0 55 31 97 100 105z" />
    <glyph glyph-name="dollar.subs" horiz-adv-x="290" 
d="M148 316h52l-5 -76c26 -3 49 -8 70 -17l-8 -56c-31 11 -54 16 -85 16c-51 0 -66 -20 -66 -45c0 -70 172 -33 172 -161c0 -63 -34 -102 -98 -111l-3 -75h-52l4 74c-33 3 -64 11 -88 26l9 57c31 -19 60 -28 97 -28c45 0 68 17 68 52c0 71 -172 40 -172 163
c0 55 31 97 100 105z" />
    <glyph glyph-name="dollar.sups" horiz-adv-x="290" 
d="M148 955h52l-5 -75c26 -3 49 -8 70 -17l-8 -56c-31 11 -54 16 -85 16c-51 0 -66 -20 -66 -45c0 -69 172 -36 172 -161c0 -63 -34 -103 -98 -112l-3 -74h-52l4 73c-35 3 -64 12 -88 27l9 57c31 -19 60 -28 97 -28c45 0 68 17 68 52c0 71 -172 40 -172 163
c0 55 31 97 100 105z" />
    <glyph glyph-name="dollar.pnum" horiz-adv-x="545" 
d="M257 -84l-52 5l6 68c-61 7 -121 23 -160 48l12 89c44 -27 99 -48 156 -55l27 277c-96 40 -194 84 -194 213c0 128 82 197 234 200l6 64l55 -4l-7 -63c51 -5 95 -16 122 -31l-7 -84c-39 15 -80 25 -123 29l-24 -244c92 -37 188 -87 188 -224c0 -148 -75 -214 -232 -217z
M424 192c0 69 -57 105 -126 134l-26 -258c101 2 152 43 152 124zM132 565c0 -62 55 -90 123 -116l22 226c-101 -3 -145 -46 -145 -110z" />
    <glyph glyph-name="dollar.onum_pnum" horiz-adv-x="443" 
d="M405 173c0 -104 -46 -169 -151 -182l-6 -133h-69l6 131c-52 4 -100 18 -136 45l11 79c40 -31 100 -47 152 -47c79 0 112 39 112 99c0 139 -275 78 -275 277c0 93 56 155 164 164l8 123h69l-9 -125c35 -4 70 -14 103 -29l-8 -77c-44 20 -94 31 -137 31
c-67 0 -106 -31 -106 -82c0 -129 272 -67 272 -274z" />
    <glyph glyph-name="dollar.onum" horiz-adv-x="544" 
d="M473 175c0 -101 -52 -174 -175 -185l-7 -135h-75l7 135c-59 5 -111 20 -151 48l13 82c47 -34 118 -52 176 -52c85 0 120 41 120 98c0 136 -308 69 -308 273c0 95 59 157 178 166l9 129h75l-9 -129c44 -5 85 -15 124 -32l-9 -82c-51 22 -103 33 -156 33
c-76 0 -118 -31 -118 -80c0 -128 306 -58 306 -269z" />
    <glyph glyph-name="S.c2sc" horiz-adv-x="482" 
d="M445 184c0 -123 -76 -195 -216 -195c-71 0 -133 16 -184 48l14 80c51 -31 105 -48 169 -48c88 0 131 41 131 110c0 146 -309 83 -309 299c0 101 65 181 208 181c61 0 120 -11 165 -34l-12 -78c-51 19 -96 30 -149 30c-92 0 -125 -43 -125 -94c0 -141 308 -76 308 -299z
" />
    <glyph glyph-name="eight" unicode="8" horiz-adv-x="590" 
d="M58 206c0 84 48 151 124 190v3c-57 29 -99 79 -99 170c0 120 64 189 213 189c147 0 213 -64 213 -189c0 -76 -37 -136 -105 -175v-2c72 -29 129 -79 129 -186c0 -145 -80 -215 -237 -215c-165 0 -238 70 -238 215zM444 199c0 94 -76 122 -184 162
c-65 -35 -114 -83 -114 -156c0 -96 42 -136 153 -136c88 0 145 37 145 130zM168 565c0 -89 75 -116 159 -143c68 36 100 77 100 140c0 80 -40 117 -131 117c-85 0 -128 -38 -128 -114z" />
    <glyph glyph-name="eight.onum_pnum" horiz-adv-x="547" 
d="M45 175c0 69 42 126 111 158v3c-51 25 -87 65 -87 141c0 100 61 162 205 162c141 0 204 -58 204 -162c0 -64 -33 -114 -90 -145v-2c63 -24 114 -67 114 -155c0 -124 -77 -184 -228 -184c-160 0 -229 63 -229 184zM414 170c0 84 -93 102 -181 131
c-57 -27 -102 -65 -102 -125c0 -79 40 -111 145 -111c84 0 138 29 138 105zM153 473c0 -75 76 -92 157 -116c60 28 88 62 88 111c0 67 -34 98 -125 98c-88 0 -120 -33 -120 -93z" />
    <glyph glyph-name="eight.pnum" horiz-adv-x="565" 
d="M45 206c0 84 48 151 124 190v3c-57 29 -99 79 -99 170c0 120 64 189 213 189c147 0 213 -64 213 -189c0 -76 -37 -136 -105 -175v-2c72 -29 129 -79 129 -186c0 -145 -80 -215 -237 -215c-164 0 -238 70 -238 215zM431 199c0 93 -72 122 -184 162
c-65 -35 -114 -83 -114 -156c0 -96 44 -136 153 -136c89 0 145 37 145 130zM155 565c0 -90 75 -116 159 -143c69 36 100 76 100 140c0 80 -40 117 -131 117c-85 0 -128 -38 -128 -114z" />
    <glyph glyph-name="eight.onum" horiz-adv-x="544" 
d="M45 175c0 69 43 126 111 158v3c-51 25 -87 65 -87 141c0 100 61 162 205 162c141 0 204 -58 204 -162c0 -64 -33 -114 -90 -145v-2c63 -24 114 -67 114 -155c0 -124 -77 -184 -228 -184c-160 0 -229 63 -229 184zM414 170c0 84 -93 102 -181 131
c-57 -27 -102 -65 -102 -125c0 -79 40 -111 145 -111c84 0 138 29 138 105zM153 473c0 -72 70 -92 157 -116c60 28 88 62 88 111c0 67 -34 98 -125 98c-88 0 -120 -33 -120 -93z" />
    <glyph glyph-name="ampersand" unicode="&#x26;" horiz-adv-x="640" 
d="M630 74l-33 -83c-47 28 -96 64 -145 107c-56 -64 -126 -110 -218 -110c-137 0 -191 92 -191 196c0 103 62 175 132 234c-39 67 -63 128 -63 177c0 96 52 167 172 167c100 0 160 -51 160 -134c0 -89 -77 -153 -164 -224c43 -61 99 -124 162 -183c29 51 49 107 58 158h76
c-7 -56 -31 -135 -75 -211c43 -36 86 -67 129 -94zM248 76c56 0 105 30 145 75c-65 64 -126 133 -174 201c-49 -47 -86 -96 -86 -160c0 -73 44 -116 115 -116zM194 595c0 -35 16 -78 44 -126c63 50 120 96 120 152c0 45 -29 68 -76 68c-51 0 -88 -33 -88 -94z" />
    <glyph glyph-name="i" unicode="i" horiz-adv-x="285" 
d="M187 0h-89v594l89 6v-600zM200 746c0 -33 -19 -49 -57 -49c-39 0 -57 13 -57 49c0 33 19 50 57 50s57 -17 57 -50z" />
    <glyph glyph-name="dotlessi" unicode="&#x131;" horiz-adv-x="285" 
d="M187 0h-89v594l89 6v-600z" />
    <glyph glyph-name="j" unicode="j" horiz-adv-x="284" 
d="M186 600v-610c0 -109 -57 -144 -133 -144c-23 0 -46 4 -65 12l6 66c13 -5 25 -8 38 -8c40 0 66 21 66 76v603zM198 748c0 -33 -19 -50 -57 -50c-39 0 -57 14 -57 50c0 33 19 50 57 50s57 -17 57 -50z" />
    <glyph glyph-name="A" unicode="A" horiz-adv-x="639" 
d="M515 0l-53 181h-291l-53 -181h-101l244 750h116l244 -750h-106zM317 679l-22 -79l-99 -334h242l-98 334l-20 79h-3z" />
    <glyph glyph-name="Aring" unicode="&#xc5;" horiz-adv-x="639" 
d="M223 801c0 47 27 79 94 79c64 0 95 -31 95 -78c0 -30 -10 -52 -31 -65l240 -737h-106l-53 181h-291l-53 -181h-101l239 735c-22 12 -33 34 -33 66zM317 679l-22 -79l-99 -334h242l-98 334l-20 79h-3zM273 799c0 -23 12 -37 45 -37c31 0 46 12 46 37c0 23 -14 37 -46 37
c-33 0 -45 -14 -45 -37z" />
    <glyph glyph-name="AE" unicode="&#xc6;" horiz-adv-x="945" 
d="M895 660h-337l19 -228h265v-83h-258l23 -260h296l-2 -89h-382l-15 182h-271l-83 -182h-112l371 750h483zM462 683l-32 -75l-158 -342h225l-27 335l-5 81z" />
    <glyph glyph-name="Delta" unicode="&#x2206;" horiz-adv-x="680" 
d="M372 754l266 -754h-597l267 754h64zM338 636l-25 -78l-163 -476h376l-161 476l-24 78h-3z" />
    <glyph glyph-name="A.c2sc" horiz-adv-x="599" 
d="M480 0l-49 154h-269l-49 -154h-95l227 649h107l229 -649h-101zM297 577l-24 -78l-86 -267h219l-84 267l-22 78h-3z" />
    <glyph glyph-name="AE.c2sc" horiz-adv-x="857" 
d="M811 566h-309l17 -191h244v-75h-237l20 -218h273l-2 -82h-355l-15 154h-250l-76 -154h-107l344 649h450zM407 581l-35 -74l-136 -275h204l-25 267l-5 81z" />
    <glyph glyph-name="B" unicode="B" horiz-adv-x="620" 
d="M565 213c0 -135 -64 -213 -224 -213h-254v750h245c137 0 206 -62 206 -186c0 -92 -39 -144 -99 -165v-2c80 -20 126 -76 126 -184zM470 220c0 92 -41 130 -132 130h-159v-266h163c82 0 128 35 128 136zM446 547c0 87 -36 117 -117 117h-150v-237h154c79 0 113 37 113 120
z" />
    <glyph glyph-name="E" unicode="E" horiz-adv-x="559" 
d="M182 89h337l-3 -89h-429v750h414l2 -90h-321v-228h275v-83h-275v-260z" />
    <glyph glyph-name="OE" unicode="&#x152;" horiz-adv-x="982" 
d="M939 0h-420v88l-3 1c-39 -72 -104 -102 -199 -102c-181 0 -262 106 -262 388s79 387 263 387c91 0 159 -27 198 -92h3v80h405l2 -90h-321v-228h275v-83h-275v-260h337zM512 375c0 240 -47 296 -178 296c-130 0 -180 -59 -180 -296s50 -297 181 -297c130 0 177 60 177 297
z" />
    <glyph glyph-name="F" unicode="F" horiz-adv-x="532" 
d="M503 658h-320v-235h268l-1 -88h-267v-335h-95v750h413z" />
    <glyph glyph-name="B.c2sc" horiz-adv-x="565" 
d="M523 185c0 -116 -59 -185 -204 -185h-239v649h230c125 0 187 -54 187 -162c0 -80 -36 -123 -88 -142v-2c72 -19 114 -66 114 -158zM434 191c0 76 -37 110 -118 110h-150v-223h154c75 0 114 28 114 113zM412 471c0 72 -33 98 -105 98h-141v-198h146c69 0 100 32 100 100z
" />
    <glyph glyph-name="E.c2sc" horiz-adv-x="519" 
d="M169 82h313l-3 -82h-399v649h386l2 -83h-299v-191h256v-75h-256v-218z" />
    <glyph glyph-name="OE.c2sc" horiz-adv-x="894" 
d="M854 0h-386v79l-3 1c-35 -63 -98 -91 -182 -91c-165 0 -241 95 -241 335c0 241 73 335 242 335c83 0 146 -24 181 -80h3v70h373l2 -84h-293v-189h250v-77h-250v-216h307zM462 324c0 200 -43 251 -163 251c-119 0 -164 -51 -164 -251c0 -197 45 -251 165 -251
c118 0 162 54 162 251z" />
    <glyph glyph-name="F.c2sc" horiz-adv-x="499" 
d="M467 564h-297v-197h260v-81h-260v-286h-90v649h385z" />
    <glyph glyph-name="G" unicode="G" horiz-adv-x="614" 
d="M556 400v-372c-48 -25 -121 -41 -196 -41c-215 0 -305 113 -305 385c0 280 95 390 308 390c64 0 131 -14 178 -35l-10 -87c-47 20 -103 33 -163 33c-149 0 -214 -65 -214 -300c0 -228 59 -295 203 -295c45 0 83 6 114 19v303h85z" />
    <glyph glyph-name="G.c2sc" horiz-adv-x="563" 
d="M506 345v-321c-44 -21 -113 -35 -181 -35c-200 0 -283 101 -283 334c0 236 87 337 285 337c60 0 123 -13 166 -32l-10 -80c-43 17 -95 29 -151 29c-139 0 -196 -57 -196 -253c0 -192 51 -252 187 -252c39 0 73 6 103 17v256h80z" />
    <glyph glyph-name="H" unicode="H" horiz-adv-x="678" 
d="M591 0h-95v344h-314v-344h-95v750h95v-315h314v315h95v-750z" />
    <glyph glyph-name="H.c2sc" horiz-adv-x="628" 
d="M548 0h-90v294h-289v-294h-89v649h89v-271h289v271h90v-649z" />
    <glyph glyph-name="C" unicode="C" horiz-adv-x="545" 
d="M506 730l-11 -88c-35 17 -86 29 -139 29c-140 0 -202 -67 -202 -288c0 -239 63 -307 205 -307c55 0 99 13 138 33l12 -82c-41 -23 -103 -40 -163 -40c-200 0 -291 116 -291 396c0 264 92 379 295 379c56 0 119 -16 156 -32z" />
    <glyph glyph-name="Ccedilla" unicode="&#xc7;" horiz-adv-x="545" 
d="M256 -189l54 178c-176 13 -255 133 -255 394c0 264 92 379 295 379c56 0 119 -16 156 -32l-11 -88c-35 17 -86 29 -139 29c-140 0 -202 -67 -202 -288c0 -239 63 -307 205 -307c55 0 99 13 138 33l12 -82c-35 -20 -86 -35 -137 -39l-32 -177h-84z" />
    <glyph glyph-name="Euro" unicode="&#x20ac;" horiz-adv-x="590" 
d="M456 345l-12 -56h-236c19 -157 86 -216 207 -216c52 0 105 16 149 43l9 -76c-47 -31 -110 -48 -179 -48c-175 0 -260 92 -280 297h-81v56h77v62h-77v57h81c20 191 118 292 286 292c64 0 123 -13 162 -34l-19 -79c-40 17 -74 26 -125 26c-125 0 -190 -65 -209 -205h281
l-12 -57h-274v-62h252z" />
    <glyph glyph-name="Euro.onum_pnum" horiz-adv-x="544" 
d="M508 624l-23 -75c-35 17 -77 27 -122 27c-115 0 -170 -46 -187 -158h275l-17 -53h-262c-1 -5 -1 -11 -1 -17v-35c0 -6 0 -12 1 -17h241l-16 -51h-221c17 -128 82 -176 186 -176c51 0 96 13 136 39l5 -75c-39 -27 -96 -46 -163 -46c-156 0 -244 79 -264 258h-45v51h41v69
h-41v53h46c20 161 104 241 265 241c63 0 123 -12 166 -35z" />
    <glyph glyph-name="Euro.pnum" horiz-adv-x="603" 
d="M446 345l-12 -56h-235c19 -160 85 -217 206 -217c52 0 103 15 148 42l8 -74c-45 -31 -108 -48 -176 -48c-172 0 -257 92 -277 297h-80v56h76v62h-76v57h79c20 192 118 292 283 292c63 0 121 -13 160 -34l-18 -77c-39 17 -75 25 -124 25c-125 0 -190 -65 -209 -206h280
l-12 -57h-272v-62h251z" />
    <glyph glyph-name="Euro.onum" horiz-adv-x="544" 
d="M508 624l-23 -75c-35 17 -77 27 -122 27c-115 0 -170 -46 -187 -158h275l-17 -53h-262c-1 -5 -1 -11 -1 -17v-35c0 -6 0 -12 1 -17h241l-16 -51h-221c17 -128 82 -176 186 -176c51 0 96 13 136 39l5 -75c-39 -27 -96 -46 -163 -46c-156 0 -244 79 -264 258h-45v51h41v69
h-41v53h46c20 161 104 241 265 241c63 0 123 -12 166 -35z" />
    <glyph glyph-name="C.c2sc" horiz-adv-x="503" 
d="M462 630l-11 -81c-33 15 -81 27 -130 27c-130 0 -186 -58 -186 -246c0 -199 57 -259 188 -259c51 0 94 11 130 30l11 -77c-39 -20 -96 -35 -152 -35c-185 0 -270 104 -270 341c0 225 85 330 274 330c52 0 111 -14 146 -30z" />
    <glyph glyph-name="Ccedilla.c2sc" horiz-adv-x="503" 
d="M215 -189l55 180c-157 15 -228 119 -228 339c0 225 85 330 274 330c52 0 111 -14 146 -30l-11 -81c-33 15 -81 27 -130 27c-130 0 -186 -58 -186 -246c0 -199 57 -259 188 -259c51 0 94 11 130 30l11 -77c-35 -19 -84 -31 -133 -34l-32 -179h-84z" />
    <glyph glyph-name="c" unicode="c" horiz-adv-x="451" 
d="M409 578l-6 -80c-31 15 -68 25 -107 25c-116 0 -160 -59 -160 -219c0 -175 54 -236 158 -236c42 0 79 11 112 32l7 -74c-32 -23 -81 -39 -137 -39c-154 0 -231 92 -231 317c0 207 70 302 233 302c48 0 96 -11 131 -28z" />
    <glyph glyph-name="ccedilla" unicode="&#xe7;" horiz-adv-x="451" 
d="M184 -189l54 178c-129 15 -193 108 -193 315s70 302 233 302c48 0 96 -11 131 -28l-6 -80c-31 15 -68 25 -107 25c-116 0 -160 -59 -160 -219c0 -175 54 -236 158 -236c42 0 79 11 112 32l7 -74c-28 -20 -66 -34 -113 -38l-32 -177h-84z" />
    <glyph glyph-name="cent" unicode="&#xa2;" horiz-adv-x="590" 
d="M462 578l-6 -80c-31 15 -68 25 -107 25c-116 0 -160 -59 -160 -219c0 -175 54 -236 158 -236c42 0 79 11 112 32l7 -74c-28 -20 -68 -35 -115 -38l-6 -130h-69l6 133c-123 17 -184 112 -184 313c0 193 61 289 202 301l8 124h69l-8 -126c35 -4 66 -12 93 -25z" />
    <glyph glyph-name="cent.pnum" horiz-adv-x="590" 
d="M462 578l-6 -80c-31 15 -68 25 -107 25c-116 0 -160 -59 -160 -219c0 -175 54 -236 158 -236c42 0 79 11 112 32l7 -74c-28 -20 -68 -35 -115 -38l-6 -130h-69l6 133c-123 17 -184 112 -184 313c0 193 61 289 202 301l8 124h69l-8 -126c35 -4 66 -12 93 -25z" />
    <glyph glyph-name="cent.subs" horiz-adv-x="290" 
d="M266 224l-4 -55c-19 8 -44 12 -67 12c-71 0 -95 -31 -95 -123c0 -99 31 -132 94 -132c26 0 49 6 70 17l5 -50c-19 -12 -42 -20 -71 -23l-3 -79h-53l4 80c-77 12 -116 70 -116 187c0 113 37 174 129 182l5 76h53l-6 -77c20 -3 39 -8 55 -15z" />
    <glyph glyph-name="cent.sups" horiz-adv-x="290" 
d="M266 864l-4 -56c-21 9 -43 13 -67 13c-71 0 -95 -31 -95 -123c0 -99 31 -132 94 -132c26 0 49 6 70 17l5 -50c-18 -13 -42 -21 -71 -24l-3 -78h-53l4 80c-77 12 -116 70 -116 187c0 113 37 174 129 182l5 76h53l-6 -77c20 -3 39 -8 55 -15z" />
    <glyph glyph-name="cent.onum_pnum" horiz-adv-x="452" 
d="M409 578l-6 -80c-31 15 -68 25 -107 25c-116 0 -160 -59 -160 -219c0 -175 54 -236 158 -236c42 0 79 11 112 32l7 -74c-28 -20 -68 -35 -115 -38l-6 -130h-70l7 133c-123 17 -184 112 -184 313c0 193 61 289 202 301l8 124h69l-9 -125c35 -4 67 -14 94 -26z" />
    <glyph glyph-name="cent.onum" horiz-adv-x="544" 
d="M480 575l-6 -84c-37 17 -83 28 -127 28c-133 0 -185 -60 -185 -216c0 -173 68 -232 184 -232c51 0 95 12 132 35l8 -76c-32 -23 -81 -39 -137 -42l-7 -135h-73l8 137c-140 17 -209 114 -209 313c0 189 69 289 229 301l9 130h73l-10 -132c41 -4 80 -14 111 -27z" />
    <glyph glyph-name="D" unicode="D" horiz-adv-x="665" 
d="M610 378c0 -277 -94 -378 -293 -378h-230v750h228c208 0 295 -101 295 -372zM511 379c0 225 -57 280 -196 280h-133v-569h134c132 0 195 53 195 289z" />
    <glyph glyph-name="Eth" unicode="&#xd0;" horiz-adv-x="673" 
d="M618 378c0 -277 -94 -378 -293 -378h-230v361h-65v62h65v327h228c208 0 295 -101 295 -372zM519 379c0 225 -57 280 -196 280h-133v-236h96v-62h-96v-271h134c132 0 195 53 195 289z" />
    <glyph glyph-name="D.c2sc" horiz-adv-x="607" 
d="M565 327c0 -236 -88 -327 -269 -327h-216v649h214c191 0 271 -93 271 -322zM472 328c0 188 -52 237 -178 237h-125v-482h125c123 0 178 48 178 245z" />
    <glyph glyph-name="I" unicode="I" horiz-adv-x="294" 
d="M99 0v750h97v-750h-97z" />
    <glyph glyph-name="I.c2sc" horiz-adv-x="275" 
d="M91 0v649h92v-649h-92z" />
    <glyph glyph-name="one" unicode="1" horiz-adv-x="590" 
d="M164 0v72h120v474l2 81l-2 1l-67 -46l-79 -51l-10 82l196 139h55v-680h117v-72h-332z" />
    <glyph glyph-name="one.pnum" horiz-adv-x="428" 
d="M316 752v-752h-95v543l2 81l-2 1l-66 -48l-75 -52l-11 82l193 145h54z" />
    <glyph glyph-name="one.onum_pnum" horiz-adv-x="421" 
d="M310 632v-632h-90v434l2 81l-2 1l-66 -46l-66 -43l-10 78l180 127h52z" />
    <glyph glyph-name="one.onum" horiz-adv-x="544" 
d="M104 0v60h155v380l2 80l-2 2l-69 -43l-108 -65l-10 77l225 141h52v-572h143v-60h-388z" />
    <glyph glyph-name="J" unicode="J" horiz-adv-x="492" 
d="M405 750v-513c0 -175 -88 -250 -236 -250c-59 0 -104 14 -137 37l8 86c28 -21 67 -34 115 -34c99 0 153 50 153 163v511h97z" />
    <glyph glyph-name="J.c2sc" horiz-adv-x="415" 
d="M344 649v-448c0 -153 -74 -212 -188 -212c-49 0 -94 12 -123 33l7 80c27 -20 66 -32 99 -32c79 0 114 39 114 131v448h91z" />
    <glyph glyph-name="K" unicode="K" horiz-adv-x="633" 
d="M609 0h-116l-216 348h-95v-348h-95v750h95v-319h96l207 319h111l-231 -355z" />
    <glyph glyph-name="K.c2sc" horiz-adv-x="587" 
d="M565 0h-111l-197 298h-88v-298h-89v649h89v-274h91l189 274h105l-214 -308z" />
    <glyph glyph-name="k" unicode="k" horiz-adv-x="533" 
d="M168 797v-437h81l158 238h101l-181 -273l189 -325h-103l-164 284h-81v-284h-87v792z" />
    <glyph glyph-name="L" unicode="L" horiz-adv-x="515" 
d="M183 91h310l-3 -91h-403v750h96v-659z" />
    <glyph glyph-name="Lslash" unicode="&#x141;" horiz-adv-x="538" 
d="M206 91h310l-3 -91h-403v302l-69 -34l-7 82l76 38v362h96v-318l186 93l9 -86l-195 -95v-253z" />
    <glyph glyph-name="L.c2sc" horiz-adv-x="480" 
d="M169 84h289l-3 -84h-375v649h89v-565z" />
    <glyph glyph-name="M" unicode="M" horiz-adv-x="825" 
d="M87 750h109l189 -529l26 -76h3l25 76l191 529h108v-750h-87v495l2 81l-3 1l-26 -77l-180 -500h-67l-179 497l-26 77l-2 -1l1 -81v-492h-84v750z" />
    <glyph glyph-name="M.c2sc" horiz-adv-x="764" 
d="M80 649h101l172 -443l28 -76h3l27 76l173 443h100v-649h-82v425l2 81l-3 1l-27 -77l-163 -430h-61l-162 423l-28 77l-2 -1l1 -81v-418h-79v649z" />
    <glyph glyph-name="N" unicode="N" horiz-adv-x="683" 
d="M595 0h-69l-313 516l-40 70l-2 -1l1 -81v-504h-85v750h87l297 -500l41 -70l2 1l-2 80v489h83v-750z" />
    <glyph glyph-name="N.c2sc" horiz-adv-x="632" 
d="M552 0h-71l-278 441l-42 70l-2 -1l1 -81v-429h-80v649h80l313 -497l2 1l-2 80l-1 416h80v-649z" />
    <glyph glyph-name="O" unicode="O" horiz-adv-x="668" 
d="M613 375c0 -285 -77 -388 -278 -388c-199 0 -280 106 -280 388s79 387 280 387s278 -105 278 -387zM514 375c0 240 -48 296 -180 296c-130 0 -180 -59 -180 -296s50 -297 181 -297s179 60 179 297z" />
    <glyph glyph-name="Oslash" unicode="&#xd8;" horiz-adv-x="668" 
d="M89 -13l-48 43l57 82c-31 61 -43 146 -43 263c0 282 79 387 279 387c92 0 158 -23 203 -74l55 72l47 -43l-65 -89c27 -61 39 -142 39 -253c0 -285 -76 -388 -279 -388c-88 0 -153 21 -198 68zM154 375c0 -76 4 -133 15 -177l308 407c-28 51 -74 66 -143 66
c-130 0 -180 -59 -180 -296zM514 375c0 72 -4 127 -12 171l-309 -406c29 -47 74 -62 142 -62c131 0 179 60 179 297z" />
    <glyph glyph-name="Q" unicode="Q" horiz-adv-x="668" 
d="M613 375c0 -244 -57 -354 -199 -381l144 -114l-115 -31l-126 138c-186 8 -262 112 -262 388c0 282 79 387 280 387s278 -105 278 -387zM514 375c0 240 -48 296 -180 296c-130 0 -180 -59 -180 -296s50 -297 181 -297s179 60 179 297z" />
    <glyph glyph-name="o" unicode="o" horiz-adv-x="557" 
d="M512 297c0 -229 -70 -310 -232 -310s-235 81 -235 310c0 228 74 310 235 310c162 0 232 -82 232 -310zM136 297c0 -180 40 -233 144 -233c102 0 141 55 141 233s-39 233 -141 233c-104 0 -144 -55 -144 -233z" />
    <glyph glyph-name="oslash" unicode="&#xf8;" horiz-adv-x="557" 
d="M72 -4l-38 35l44 63c-22 48 -33 116 -33 203c0 228 73 310 234 310c68 0 120 -16 156 -48l34 49l40 -36l-39 -57c27 -48 41 -121 41 -218c0 -229 -70 -310 -232 -310c-76 0 -131 16 -170 59zM420 297c0 57 -4 102 -11 137l-248 -307c23 -47 59 -63 118 -63
c102 0 141 55 141 233zM135 297c0 -48 3 -87 8 -118l244 303c-23 35 -57 48 -108 48c-103 0 -144 -55 -144 -233z" />
    <glyph glyph-name="O.c2sc" horiz-adv-x="603" 
d="M561 324c0 -241 -71 -335 -259 -335c-185 0 -260 95 -260 335s74 335 260 335s259 -95 259 -335zM468 324c0 199 -45 252 -166 252s-167 -53 -167 -252c0 -198 45 -252 168 -252c120 0 165 54 165 252z" />
    <glyph glyph-name="Q.c2sc" horiz-adv-x="616" 
d="M568 324c0 -202 -52 -300 -177 -327l132 -105l-101 -20l-130 117c-173 5 -243 103 -243 335c0 240 74 335 260 335s259 -95 259 -335zM475 324c0 199 -45 252 -166 252s-167 -53 -167 -252c0 -198 45 -252 168 -252c120 0 165 54 165 252z" />
    <glyph glyph-name="zero" unicode="0" horiz-adv-x="590" 
d="M537 375c0 -283 -72 -385 -243 -385s-241 102 -241 385c0 291 70 384 242 384c170 0 242 -93 242 -384zM446 376c0 248 -48 296 -151 296c-104 0 -152 -50 -152 -296c0 -252 48 -301 152 -301s151 52 151 301z" />
    <glyph glyph-name="zero.dnom" horiz-adv-x="336" 
d="M308 197c0 -145 -41 -202 -140 -202s-139 57 -139 202c0 149 40 202 140 202c98 0 139 -53 139 -202zM241 197c0 120 -24 144 -72 144c-51 0 -74 -24 -74 -144s23 -145 74 -145c48 0 72 26 72 145z" />
    <glyph glyph-name="zero.pnum" horiz-adv-x="574" 
d="M529 375c0 -283 -73 -385 -242 -385c-172 0 -242 102 -242 385c0 291 70 384 243 384c169 0 241 -93 241 -384zM438 376c0 248 -47 296 -150 296c-105 0 -153 -50 -153 -296c0 -252 48 -301 153 -301c103 0 150 52 150 301z" />
    <glyph glyph-name="zero.onum_pnum" horiz-adv-x="568" 
d="M518 314c0 -229 -70 -324 -234 -324c-166 0 -234 95 -234 324c0 237 70 326 235 326c163 0 233 -89 233 -326zM429 315c0 196 -45 241 -144 241c-100 0 -147 -47 -147 -241c0 -196 47 -243 147 -243c99 0 144 48 144 243z" />
    <glyph glyph-name="zero.onum" horiz-adv-x="544" 
d="M506 314c0 -229 -70 -324 -234 -324c-166 0 -234 95 -234 324c0 237 68 326 234 326c164 0 234 -89 234 -326zM417 315c0 196 -45 241 -145 241c-99 0 -146 -47 -146 -241c0 -196 47 -243 146 -243c100 0 145 48 145 243z" />
    <glyph glyph-name="Omega" unicode="&#x2126;" horiz-adv-x="669" 
d="M334 761c176 0 273 -95 273 -326c0 -137 -54 -262 -162 -350v-3h168v-82h-244v119c84 80 140 183 140 312c0 175 -55 241 -175 241s-174 -66 -174 -241c0 -129 56 -232 140 -312v-119h-244v82h168l1 3c-111 88 -164 210 -164 350c0 227 98 326 273 326z" />
    <glyph glyph-name="P" unicode="P" horiz-adv-x="591" 
d="M550 518c0 -156 -69 -230 -241 -230h-127v-288h-95v750h222c169 0 241 -67 241 -232zM452 519c0 109 -42 146 -143 146h-127v-296h127c97 0 143 33 143 150z" />
    <glyph glyph-name="Thorn" unicode="&#xde;" horiz-adv-x="590" 
d="M550 385c0 -157 -70 -231 -257 -231h-111v-154h-95v750h95v-133h111c183 0 257 -67 257 -232zM453 386c0 110 -45 145 -160 145h-111v-295h111c111 0 160 33 160 150z" />
    <glyph glyph-name="p" unicode="p" horiz-adv-x="566" 
d="M520 300c0 -224 -79 -311 -210 -311c-56 0 -107 15 -144 62l-2 -1l1 -81v-114h-89v740l62 4l18 -58h3c35 41 91 66 156 66c131 0 205 -70 205 -307zM430 301c0 180 -48 223 -136 223c-57 0 -102 -24 -129 -67v-318c20 -39 61 -72 124 -72c84 0 141 45 141 234z" />
    <glyph glyph-name="thorn" unicode="&#xfe;" horiz-adv-x="570" 
d="M525 300c0 -224 -77 -311 -208 -311c-56 0 -107 16 -146 59l-2 -1l1 -81v-111h-89v937l89 5v-175l-1 -80l2 -1c37 41 91 66 155 66c125 0 199 -70 199 -307zM433 301c0 180 -46 223 -134 223c-57 0 -102 -24 -129 -67v-318c20 -39 60 -72 124 -72c83 0 139 45 139 234z
" />
    <glyph glyph-name="q" unicode="q" horiz-adv-x="566" 
d="M488 -145l-88 -1v112l2 81l-2 1c-35 -36 -84 -57 -145 -57c-128 0 -210 83 -210 307c0 217 72 309 215 309c68 0 122 -25 157 -72h3l12 62l57 -1zM401 146v310c-17 36 -65 67 -125 67c-100 0 -140 -49 -140 -225c0 -175 45 -227 140 -227c73 0 118 39 125 75z" />
    <glyph glyph-name="P.c2sc" horiz-adv-x="549" 
d="M509 446c0 -137 -62 -203 -221 -203h-119v-243h-89v649h208c156 0 221 -60 221 -203zM417 446c0 93 -37 124 -129 124h-119v-251h119c89 0 129 26 129 127z" />
    <glyph glyph-name="R" unicode="R" horiz-adv-x="598" 
d="M534 538c0 -119 -46 -183 -134 -199l179 -339h-112l-154 321h-131v-321h-95v750h225c152 0 222 -64 222 -212zM436 534c0 99 -38 131 -123 131h-131v-266h127c88 0 127 34 127 135z" />
    <glyph glyph-name="R.c2sc" horiz-adv-x="564" 
d="M495 463c0 -100 -42 -158 -121 -173l163 -290h-107l-140 273h-121v-273h-89v649h211c140 0 204 -58 204 -186zM403 460c0 81 -32 111 -112 111h-122v-227h120c81 0 114 29 114 116z" />
    <glyph glyph-name="T" unicode="T" horiz-adv-x="527" 
d="M512 658h-201v-658h-96v658h-200l2 92h493z" />
    <glyph glyph-name="T.c2sc" horiz-adv-x="489" 
d="M475 565h-185v-565h-91v565h-185l1 84h458z" />
    <glyph glyph-name="product" unicode="&#x220f;" horiz-adv-x="674" 
d="M221 -148h-83v827l-80 7l-2 64h564l-2 -64l-79 -7v-827h-84v821h-234v-821z" />
    <glyph glyph-name="pi" unicode="&#x3c0;" horiz-adv-x="614" 
d="M399 143v374h-184v-517h-88v517c-37 -2 -65 -10 -82 -23l-23 72c25 20 71 32 139 32h409v-81h-84v-374c0 -59 14 -76 63 -76v-71c-120 0 -150 37 -150 147z" />
    <glyph glyph-name="U" unicode="U" horiz-adv-x="663" 
d="M588 750v-497c0 -185 -91 -266 -256 -266c-167 0 -257 81 -257 266v497h94v-496c0 -124 52 -175 163 -175s161 52 161 175v496h95z" />
    <glyph glyph-name="U.c2sc" horiz-adv-x="620" 
d="M549 649v-421c0 -167 -84 -239 -239 -239c-153 0 -239 72 -239 239v421h90v-420c0 -109 48 -156 149 -156c103 0 149 48 149 156v420h90z" />
    <glyph glyph-name="V" unicode="V" horiz-adv-x="623" 
d="M505 750h99l-237 -750h-111l-236 750h105l167 -577l21 -78h3l20 78z" />
    <glyph glyph-name="V.c2sc" horiz-adv-x="586" 
d="M470 649h95l-220 -649h-103l-221 649h100l150 -490l23 -77h3l22 77z" />
    <glyph glyph-name="v" unicode="v" horiz-adv-x="575" 
d="M448 598h97l-204 -598h-106l-204 598h97l136 -440l23 -77h3l22 77z" />
    <glyph glyph-name="W" unicode="W" horiz-adv-x="910" 
d="M405 750h104l122 -576l16 -79h3l13 80l108 575h95l-161 -750h-116l-118 575l-14 80h-3l-15 -80l-117 -575h-117l-161 750h99l108 -576l14 -80h3l15 79z" />
    <glyph glyph-name="W.c2sc" horiz-adv-x="851" 
d="M378 649h98l111 -486l17 -79h3l14 79l98 486h89l-149 -649h-110l-107 482l-15 80h-3l-16 -80l-106 -482h-109l-150 649h94l97 -489l15 -79h3l16 79z" />
    <glyph glyph-name="w" unicode="w" horiz-adv-x="792" 
d="M351 598h95l97 -444l16 -79h3l13 80l84 443h86l-129 -598h-110l-90 428l-14 80h-3l-16 -80l-92 -428h-109l-135 598h89l87 -441l14 -80h3l15 79z" />
    <glyph glyph-name="X" unicode="X" horiz-adv-x="627" 
d="M580 750l-199 -359l212 -391h-109l-135 261l-35 73h-3l-35 -73l-131 -261h-111l208 389l-201 361h113l122 -233l36 -72h3l35 72l121 233h109z" />
    <glyph glyph-name="x" unicode="x" horiz-adv-x="544" 
d="M404 0l-98 188l-35 73h-3l-36 -73l-97 -188h-99l174 303l-170 295h103l94 -179l36 -72h3l35 72l92 179h99l-166 -293l172 -305h-104z" />
    <glyph glyph-name="X.c2sc" horiz-adv-x="590" 
d="M544 649l-185 -312l197 -337h-105l-118 213l-37 72h-3l-37 -72l-115 -213h-107l192 336l-185 313h109l106 -187l38 -71h3l37 71l105 187h105z" />
    <glyph glyph-name="Y" unicode="Y" horiz-adv-x="603" 
d="M20 750h108l145 -331l31 -74h3l30 74l142 331h105l-232 -497v-253h-97v253z" />
    <glyph glyph-name="yen" unicode="&#xa5;" horiz-adv-x="590" 
d="M125 335h98l-189 415h105l129 -345l27 -76h3l26 76l129 345h102l-184 -415h98v-61h-122v-52h123v-60h-123v-162h-99v162h-123v60h123v52h-123v61z" />
    <glyph glyph-name="yen.pnum" horiz-adv-x="654" 
d="M152 337h101l-197 413h108l164 -416h3l27 75l135 341h104l-192 -413h101v-57h-125v-53h126v-56h-126v-171h-103v171h-126v56h126v53h-126v57z" />
    <glyph glyph-name="yen.onum" horiz-adv-x="544" 
d="M111 290h92l-178 359h97l149 -348h3l29 75l117 273h95l-174 -359h93v-50h-115v-52h115v-50h-115v-138h-93v138h-115v50h115v52h-115v50z" />
    <glyph glyph-name="Y.c2sc" horiz-adv-x="568" 
d="M21 649h103l129 -278l33 -74h3l31 74l128 278h99l-215 -430v-219h-93v219z" />
    <glyph glyph-name="yen.onum_pnum" horiz-adv-x="544" 
d="M111 290h92l-178 359h97l149 -348h3l29 75l117 273h95l-174 -359h93v-50h-115v-52h115v-50h-115v-138h-93v138h-115v50h115v52h-115v50z" />
    <glyph glyph-name="Z" unicode="Z" horiz-adv-x="554" 
d="M504 0h-462v66l311 524l43 67l-2 2h-342l3 91h451v-74l-307 -516l-42 -66l1 -3h349z" />
    <glyph glyph-name="summation" unicode="&#x2211;" horiz-adv-x="626" 
d="M447 300l-211 -304l-47 -63l1 -3h392l-3 -78h-496v54l272 405l-272 380v59h481l2 -80h-370l-1 -2l48 -63l204 -285v-20z" />
    <glyph glyph-name="Z.c2sc" horiz-adv-x="521" 
d="M473 0h-431v61l281 436l44 65l-1 2h-314l4 85h418v-69l-277 -429l-44 -64l1 -3h321z" />
    <glyph glyph-name="z" unicode="z" horiz-adv-x="487" 
d="M433 532l-238 -386l-43 -65l1 -3h285l-3 -78h-382v65l239 386l44 66l-2 2h-271l4 79h366v-66z" />
    <glyph glyph-name="two" unicode="2" horiz-adv-x="590" 
d="M515 558c0 -149 -134 -297 -315 -467l1 -3h319l-3 -88h-439v64c171 182 342 346 342 484c0 70 -42 122 -143 122c-65 0 -126 -30 -173 -70l-25 79c51 45 125 79 213 79c145 0 223 -75 223 -200z" />
    <glyph glyph-name="two.pnum" horiz-adv-x="569" 
d="M503 558c0 -149 -134 -297 -315 -467l1 -3h318l-2 -88h-439v64c171 182 342 346 342 484c0 70 -41 122 -144 122c-64 0 -125 -30 -172 -70l-25 79c51 45 125 79 213 79c145 0 223 -75 223 -200z" />
    <glyph glyph-name="two.onum_pnum" horiz-adv-x="529" 
d="M470 463c0 -129 -121 -237 -292 -379v-3h297l-3 -81h-414v61c163 155 321 279 321 395c0 59 -38 100 -134 100c-61 0 -117 -24 -164 -60l-24 74c51 39 121 69 202 69c140 0 211 -68 211 -176z" />
    <glyph glyph-name="two.onum" horiz-adv-x="544" 
d="M478 463c0 -129 -120 -237 -291 -379v-3h296l-3 -81h-414v61c165 154 321 280 321 395c0 57 -38 100 -133 100c-61 0 -118 -24 -165 -60l-24 74c51 39 122 69 202 69c140 0 211 -68 211 -176z" />
    <glyph glyph-name="seven" unicode="7" horiz-adv-x="590" 
d="M535 749v-80l-285 -669h-104l298 657h-382l5 92h468z" />
    <glyph glyph-name="seven.pnum" horiz-adv-x="562" 
d="M516 750v-81l-279 -669h-104l294 659h-376l5 91h460z" />
    <glyph glyph-name="seven.onum_pnum" horiz-adv-x="525" 
d="M480 630v-76l-272 -653h-98l274 640h-342l6 89h432z" />
    <glyph glyph-name="seven.onum" horiz-adv-x="544" 
d="M492 630v-76l-272 -653h-98l275 640h-343l6 89h432z" />
    <glyph glyph-name="b" unicode="b" horiz-adv-x="570" 
d="M525 301c0 -229 -79 -312 -214 -312c-67 0 -123 26 -155 70l-3 -1l-14 -58h-58v793l87 5v-172l-1 -80l2 -1c39 43 92 63 152 63c124 0 204 -76 204 -307zM435 299c0 188 -51 227 -138 227c-56 0 -102 -25 -129 -68v-321c21 -39 65 -72 130 -72c84 0 137 45 137 234z" />
    <glyph glyph-name="d" unicode="d" horiz-adv-x="568" 
d="M490 0h-67l-11 59l-3 1c-34 -48 -86 -72 -157 -72c-144 0 -207 93 -207 312c0 209 63 308 207 308c59 0 111 -21 150 -64l2 1l-2 80v167l88 5v-797zM402 136v323c-23 40 -69 65 -126 65c-102 0 -140 -58 -140 -227c0 -176 35 -232 139 -232c73 0 112 38 127 71z" />
    <glyph glyph-name="eth" unicode="&#xf0;" horiz-adv-x="558" 
d="M419 763l-70 -56c91 -99 164 -235 164 -371c0 -261 -78 -347 -233 -347c-148 0 -235 66 -235 301c0 197 66 279 213 279c55 0 99 -14 133 -41l2 2c-25 49 -59 94 -99 134l-79 -62l-35 37l75 60c-27 23 -54 43 -85 63l61 43c28 -17 55 -37 80 -60l74 59zM136 286
c0 -179 49 -219 142 -219c96 0 144 71 144 250c0 123 -47 173 -143 173c-103 0 -143 -49 -143 -204z" />
    <glyph glyph-name="partialdiff" unicode="&#x2202;" horiz-adv-x="575" 
d="M299 564c59 0 107 -20 142 -55l2 2c-17 116 -73 167 -174 167c-73 0 -123 -21 -168 -61l-24 64c52 45 112 76 207 76c136 0 245 -95 245 -335c0 -245 -100 -435 -285 -435c-137 0 -199 82 -199 234c0 219 97 343 254 343zM436 384c0 53 -42 108 -124 108
c-109 0 -177 -91 -177 -278c0 -101 41 -152 122 -152c117 0 179 149 179 322z" />
    <glyph glyph-name="f" unicode="f" horiz-adv-x="365" 
d="M196 0h-88v528h-79v70h79v30c0 99 55 168 179 168c28 0 60 -5 80 -12l-6 -62c-17 4 -38 7 -59 7c-75 0 -106 -36 -106 -103v-28h138v-70h-138v-528z" />
    <glyph glyph-name="fi" unicode="&#xfb01;" horiz-adv-x="633" 
d="M534 0h-90v528h-248v-528h-87v528h-80v70h80v30c0 99 54 168 178 168c27 0 56 -4 72 -9l-2 -63c-15 3 -33 6 -52 6c-77 0 -109 -37 -109 -104v-28h338v-598zM547 748c0 -33 -19 -50 -58 -50c-37 0 -57 14 -57 50c0 33 19 50 57 50c39 0 58 -17 58 -50z" />
    <glyph glyph-name="fl" unicode="&#xfb02;" horiz-adv-x="606" 
d="M513 0h-88v729c-31 4 -58 7 -89 7c-103 0 -140 -39 -140 -111v-27h114v-70h-114v-528h-88v528h-79v70h79v31c0 100 59 172 229 172c69 0 114 -10 176 -13v-788z" />
    <glyph glyph-name="florin" unicode="&#x192;" 
d="M78 -145h-87l137 670h-57l14 72h57l10 55c16 81 72 133 168 133c28 0 56 -5 75 -12l-19 -63c-15 5 -34 9 -51 9c-49 0 -78 -23 -86 -70l-9 -52h128l-14 -72h-129z" />
    <glyph glyph-name="h" unicode="h" horiz-adv-x="568" 
d="M500 0h-88v409c0 75 -38 116 -119 116c-56 0 -104 -29 -125 -66v-459h-87v791l87 6v-171l-1 -80l2 -1c39 43 94 63 151 63c116 0 180 -70 180 -199v-409z" />
    <glyph glyph-name="l" unicode="l" horiz-adv-x="273" 
d="M181 0h-89v792l89 5v-797z" />
    <glyph glyph-name="lslash" unicode="&#x142;" horiz-adv-x="328" 
d="M39 371l-1 81l78 44v296l89 5v-261l85 48l1 -79l-86 -49v-456h-89v416z" />
    <glyph glyph-name="m" unicode="m" horiz-adv-x="837" 
d="M770 0h-88v410c0 80 -42 114 -110 114c-57 0 -105 -34 -105 -106v-418h-88v418c0 77 -44 106 -104 106c-44 0 -90 -25 -111 -64v-460h-88v595l63 5l15 -60h3c31 43 83 67 139 67c72 0 120 -29 145 -87h2c29 59 84 87 152 87c103 0 175 -63 175 -196v-411z" />
    <glyph glyph-name="n" unicode="n" horiz-adv-x="563" 
d="M495 0h-87v408c0 83 -43 117 -120 117c-47 0 -100 -24 -124 -65v-460h-88v596l63 5l14 -60h3c36 43 95 67 156 67c113 0 183 -65 183 -200v-408z" />
    <glyph glyph-name="r" unicode="r" horiz-adv-x="404" 
d="M164 0h-88v596l70 5l3 -45l3 -81h2c35 84 94 133 167 133c20 0 39 -3 54 -7l-6 -93c-16 7 -34 8 -53 8c-84 0 -152 -78 -152 -203v-313z" />
    <glyph glyph-name="t" unicode="t" horiz-adv-x="356" 
d="M326 527h-134v-378c0 -60 30 -83 79 -83c15 0 33 3 44 8l6 -70c-16 -7 -46 -13 -75 -13c-95 0 -143 52 -143 156v380h-74v71h77l16 146l70 8v-154h134v-71z" />
    <glyph glyph-name="u" unicode="u" horiz-adv-x="555" 
d="M487 598v-410c0 -129 -67 -199 -210 -199c-141 0 -210 71 -210 199v410h88v-409c0 -78 41 -117 122 -117c82 0 123 39 123 117v409h87z" />
    <glyph glyph-name="mu" unicode="&#xb5;" horiz-adv-x="563" 
d="M292 -10c-57 0 -111 23 -139 78l-2 -1c3 -73 6 -143 11 -210l-86 -8v749h88v-410c0 -75 53 -117 126 -117c68 0 117 34 117 105v422h88v-596l-62 -6l-13 52h-3c-24 -37 -69 -58 -125 -58z" />
    <glyph glyph-name="y" unicode="y" horiz-adv-x="576" 
d="M167 -86c43 0 72 17 95 74l3 11l-234 599h101l150 -434l25 -77h3l20 78l121 433h95l-194 -604c-36 -113 -94 -150 -170 -150c-31 0 -60 6 -84 18l9 67c20 -10 40 -15 60 -15z" />
    <glyph glyph-name="three" unicode="3" horiz-adv-x="590" 
d="M526 224c0 -140 -79 -232 -252 -232c-89 0 -153 23 -201 54l18 78c53 -32 108 -50 180 -50c115 0 165 62 165 154s-58 133 -217 133v72c149 0 202 46 202 130c0 76 -54 109 -143 109c-72 0 -129 -26 -177 -69l-24 76c47 44 120 79 207 79c140 0 223 -64 223 -188
c0 -89 -45 -142 -116 -169v-2c88 -23 135 -76 135 -175z" />
    <glyph glyph-name="three.dnom" horiz-adv-x="322" 
d="M300 118c0 -76 -44 -123 -144 -123c-49 0 -88 13 -117 30l15 53c29 -17 62 -27 101 -27c56 0 79 27 79 70c0 41 -26 62 -111 62v49c80 0 105 21 105 60c0 33 -23 50 -70 50c-41 0 -72 -12 -101 -35l-16 51c28 24 72 41 120 41c81 0 130 -35 130 -103
c0 -45 -22 -72 -61 -87v-2c45 -12 70 -38 70 -89z" />
    <glyph glyph-name="three.pnum" horiz-adv-x="569" 
d="M516 224c0 -140 -79 -232 -252 -232c-89 0 -153 23 -202 54l19 78c52 -32 108 -50 179 -50c115 0 165 62 165 154s-57 133 -217 133v72c149 0 202 46 202 130c0 76 -53 109 -142 109c-73 0 -129 -26 -178 -69l-24 76c47 44 120 79 208 79c140 0 222 -64 222 -188
c0 -89 -46 -142 -115 -169v-2c88 -23 135 -76 135 -175z" />
    <glyph glyph-name="three.onum_pnum" horiz-adv-x="523" 
d="M470 165c0 -170 -137 -270 -360 -275l-8 76c197 5 283 89 283 196c0 79 -47 118 -142 118c-19 0 -41 -2 -60 -5l-5 65c144 16 186 55 186 123c0 60 -36 95 -129 95c-68 0 -120 -20 -167 -57l-21 74c43 39 117 65 194 65c136 0 204 -66 204 -165c0 -71 -29 -121 -92 -148
v-2c81 -23 117 -77 117 -160z" />
    <glyph glyph-name="three.onum" horiz-adv-x="544" 
d="M484 165c0 -170 -137 -270 -360 -275l-8 76c197 5 283 89 283 196c0 79 -47 118 -142 118c-19 0 -42 -2 -61 -5l-5 65c144 16 187 55 187 123c0 60 -35 95 -130 95c-68 0 -119 -20 -166 -57l-22 74c44 39 116 65 195 65c136 0 203 -66 203 -165c0 -71 -30 -121 -91 -148
v-2c80 -23 117 -77 117 -160z" />
    <glyph glyph-name="four" unicode="4" horiz-adv-x="590" 
d="M545 165h-82v-165h-86v165h-314l-8 63l295 522h113v-502h85zM380 248l4 334l3 81l-2 1l-229 -416h224z" />
    <glyph glyph-name="four.dnom" horiz-adv-x="336" 
d="M319 82h-41v-82h-63v82h-184l-5 41l169 271h83v-256h43zM216 138l2 113l3 81l-2 1l-38 -65l-38 -62l-42 -65l1 -3h114z" />
    <glyph glyph-name="four.pnum" horiz-adv-x="584" 
d="M541 165h-83v-165h-86v165h-313l-8 63l294 522h113v-502h86zM375 248l5 336l3 81l-2 1l-39 -72l-190 -346h223z" />
    <glyph glyph-name="four.onum_pnum" horiz-adv-x="556" 
d="M529 69h-77v-171l-81 -5v176h-331l-7 62l319 508l100 -7v-487h80zM373 145l6 331l3 81l-2 1l-210 -345l-43 -65l1 -3h245z" />
    <glyph glyph-name="four.onum" horiz-adv-x="544" 
d="M522 69h-78v-171l-81 -5v176h-330l-8 62l320 508l99 -7v-487h81zM365 145l6 331l3 81l-2 1l-210 -345l-43 -65l1 -3h245z" />
    <glyph glyph-name="five" unicode="5" horiz-adv-x="590" 
d="M519 257c0 -176 -75 -265 -239 -265c-80 0 -143 19 -195 54l17 80c51 -33 101 -51 169 -51c109 0 157 53 157 174c0 103 -48 142 -152 142c-59 0 -115 -15 -155 -36l-34 37l28 358h370l3 -87h-301l-15 -213c40 15 86 22 130 22c144 0 217 -68 217 -215z" />
    <glyph glyph-name="five.dnom" horiz-adv-x="336" 
d="M302 136c0 -92 -41 -141 -137 -141c-45 0 -84 9 -115 28l11 54c32 -16 59 -25 98 -25c56 0 77 23 77 79c0 45 -25 63 -74 63c-31 0 -60 -6 -83 -15l-27 24l17 191h213l3 -59h-164l-6 -93c21 5 42 8 63 8c80 0 124 -37 124 -114z" />
    <glyph glyph-name="five.pnum" horiz-adv-x="547" 
d="M501 257c0 -176 -75 -265 -239 -265c-80 0 -142 19 -195 54l17 80c51 -33 101 -51 169 -51c111 0 157 53 157 174c0 103 -48 142 -152 142c-59 0 -115 -15 -154 -36l-34 37l27 358h370l4 -87h-301l-16 -213c40 15 86 22 131 22c143 0 216 -68 216 -215z" />
    <glyph glyph-name="five.onum_pnum" horiz-adv-x="515" 
d="M470 178c0 -173 -126 -281 -362 -288l-9 80c189 7 282 82 282 199c0 79 -48 119 -145 119c-57 0 -107 -14 -146 -37l-33 37l28 343h353l4 -88h-288l-14 -198c39 15 80 23 124 23c133 0 206 -66 206 -190z" />
    <glyph glyph-name="five.onum" horiz-adv-x="544" 
d="M485 178c0 -173 -126 -281 -362 -288l-9 80c191 7 283 82 283 199c0 79 -49 119 -146 119c-57 0 -107 -14 -146 -37l-32 37l27 343h353l4 -88h-287l-14 -198c39 15 80 23 123 23c133 0 206 -66 206 -190z" />
    <glyph glyph-name="six" unicode="6" horiz-adv-x="590" 
d="M529 259c0 -184 -80 -267 -229 -267c-156 0 -241 84 -241 359c0 283 99 407 284 407c56 0 101 -8 148 -27l-8 -84c-43 16 -81 24 -129 24c-133 0 -198 -75 -207 -255l3 -2c44 40 104 64 168 64c144 0 211 -68 211 -219zM439 261c0 100 -43 141 -139 141
c-51 0 -116 -27 -148 -72c3 -196 45 -255 147 -255c92 0 140 57 140 186z" />
    <glyph glyph-name="six.dnom" horiz-adv-x="336" 
d="M306 136c0 -96 -46 -141 -133 -141c-91 0 -140 50 -140 190c0 147 56 214 164 214c33 0 60 -4 88 -15l-5 -57c-25 11 -46 13 -75 13c-68 0 -99 -32 -106 -112l2 -2c23 19 53 27 84 27c81 0 121 -37 121 -117zM239 137c0 45 -20 64 -65 64c-24 0 -57 -11 -72 -32
c1 -89 21 -117 72 -117c44 0 65 25 65 85z" />
    <glyph glyph-name="six.pnum" horiz-adv-x="561" 
d="M516 259c0 -184 -81 -267 -230 -267c-156 0 -241 84 -241 359c0 283 98 407 285 407c56 0 101 -8 148 -27l-8 -84c-43 16 -81 24 -130 24c-132 0 -198 -75 -207 -255l3 -2c45 40 104 64 168 64c144 0 212 -68 212 -219zM425 261c0 100 -42 141 -138 141
c-51 0 -117 -27 -149 -72c3 -196 45 -255 148 -255c92 0 139 57 139 186z" />
    <glyph glyph-name="six.onum_pnum" horiz-adv-x="537" 
d="M492 254c0 -181 -77 -262 -218 -262c-144 0 -229 84 -229 333c0 285 160 412 358 420l13 -80c-175 -7 -270 -98 -285 -262l3 -2c43 39 98 62 158 62c136 0 200 -66 200 -209zM406 253c0 96 -42 135 -130 135c-51 0 -109 -25 -141 -68c3 -191 48 -244 139 -244
c85 0 132 52 132 177z" />
    <glyph glyph-name="six.onum" horiz-adv-x="544" 
d="M498 254c0 -181 -78 -262 -219 -262c-143 0 -228 84 -228 333c0 285 160 412 357 420l14 -80c-173 -7 -270 -98 -285 -263l3 -2c43 39 98 63 158 63c136 0 200 -66 200 -209zM411 253c0 96 -41 135 -130 135c-49 0 -109 -25 -140 -68c3 -191 48 -244 139 -244
c85 0 131 52 131 177z" />
    <glyph glyph-name="nine" unicode="9" horiz-adv-x="590" 
d="M528 412c0 -309 -93 -420 -273 -420c-64 0 -108 9 -156 32l13 80c43 -19 83 -28 134 -28c129 0 186 76 194 284l-2 1c-43 -39 -99 -57 -163 -57c-149 0 -219 84 -219 221c0 149 73 233 228 233s244 -103 244 -346zM437 448c-3 169 -60 227 -154 227
c-92 0 -138 -45 -138 -146c0 -95 45 -147 145 -147c60 0 112 18 147 66z" />
    <glyph glyph-name="nine.pnum" horiz-adv-x="562" 
d="M517 412c0 -309 -93 -420 -273 -420c-64 0 -108 9 -156 32l13 80c43 -19 83 -28 134 -28c128 0 186 74 194 284l-2 1c-43 -39 -99 -57 -163 -57c-149 0 -219 84 -219 221c0 149 73 233 228 233s244 -103 244 -346zM426 448c-3 169 -60 227 -154 227
c-92 0 -138 -45 -138 -146c0 -95 45 -147 145 -147c60 0 112 18 147 66z" />
    <glyph glyph-name="nine.onum_pnum" horiz-adv-x="530" 
d="M485 330c0 -304 -153 -433 -357 -438l-9 78c155 9 259 99 276 282l-2 1c-37 -38 -87 -57 -148 -57c-123 0 -200 70 -200 217c0 145 71 226 214 226c145 0 226 -89 226 -309zM395 348c-1 151 -41 207 -137 207c-83 0 -124 -46 -124 -139c0 -92 41 -140 129 -140
c60 0 108 21 132 72z" />
    <glyph glyph-name="nine.onum" horiz-adv-x="544" 
d="M491 330c0 -304 -153 -433 -357 -438l-9 78c155 9 259 99 276 282l-2 1c-37 -38 -87 -57 -148 -57c-123 0 -199 69 -199 217c0 145 71 226 214 226c144 0 225 -89 225 -309zM402 348c-3 151 -42 207 -138 207c-83 0 -124 -46 -124 -139c0 -92 41 -140 130 -140
c60 0 108 21 132 72z" />
    <glyph glyph-name="quotesingle" unicode="'" horiz-adv-x="190" 
d="M50 771h89l-18 -236h-58z" />
    <glyph glyph-name="quotedbl" unicode="&#x22;" horiz-adv-x="355" 
d="M218 771h89l-18 -236h-58zM54 771h89l-18 -236h-58z" />
    <glyph glyph-name="quoteleft" unicode="&#x2018;" horiz-adv-x="216" 
d="M109 577c-40 0 -58 24 -58 63c0 37 38 132 69 182l32 -8l-25 -122c21 -7 39 -28 39 -55c0 -35 -16 -60 -57 -60z" />
    <glyph glyph-name="quotedblleft" unicode="&#x201c;" horiz-adv-x="385" 
d="M277 577c-40 0 -58 24 -58 63c0 37 38 132 69 182l32 -8l-25 -122c21 -7 39 -28 39 -55c0 -35 -16 -60 -57 -60zM109 577c-40 0 -58 24 -58 63c0 37 38 132 69 182l32 -8l-25 -122c21 -7 39 -28 39 -55c0 -35 -16 -60 -57 -60z" />
    <glyph glyph-name="quoteright" unicode="&#x2019;" horiz-adv-x="216" 
d="M108 792c40 0 58 -24 58 -63c0 -37 -38 -132 -69 -182l-32 8l25 122c-21 7 -39 28 -39 55c0 35 16 60 57 60z" />
    <glyph glyph-name="quotedblright" unicode="&#x201d;" horiz-adv-x="384" 
d="M108 791c40 0 58 -24 58 -63c0 -37 -38 -132 -69 -182l-32 8l25 122c-21 7 -39 28 -39 55c0 35 16 60 57 60zM276 791c40 0 58 -24 58 -63c0 -37 -38 -132 -69 -182l-32 8l25 122c-21 7 -39 28 -39 55c0 35 16 60 57 60z" />
    <glyph glyph-name="comma" unicode="," horiz-adv-x="231" 
d="M115 105c40 0 58 -24 58 -63c0 -37 -38 -132 -69 -182l-32 8l25 122c-21 7 -39 28 -39 55c0 35 16 60 57 60z" />
    <glyph glyph-name="comma.dnom" horiz-adv-x="146" 
d="M72 67c27 0 41 -14 41 -43c0 -25 -25 -78 -46 -107l-24 5l16 69c-13 5 -27 17 -27 36c0 24 12 40 40 40z" />
    <glyph glyph-name="comma.subs" horiz-adv-x="146" 
d="M72 -77c28 0 41 -16 41 -43c0 -24 -25 -79 -46 -108l-24 6l16 68c-13 5 -27 19 -27 36c0 24 12 41 40 41z" />
    <glyph glyph-name="comma.sups" horiz-adv-x="146" 
d="M72 563c28 0 41 -17 41 -44c0 -25 -25 -78 -46 -107l-24 5l16 69c-13 5 -27 19 -27 36c0 24 12 41 40 41z" />
    <glyph glyph-name="quotesinglbase" unicode="&#x201a;" horiz-adv-x="216" 
d="M108 105c40 0 58 -24 58 -63c0 -37 -38 -132 -69 -182l-32 8l25 122c-21 7 -39 28 -39 55c0 35 16 60 57 60z" />
    <glyph glyph-name="quotedblbase" unicode="&#x201e;" horiz-adv-x="385" 
d="M108 105c40 0 58 -24 58 -63c0 -37 -38 -132 -69 -182l-32 8l25 122c-21 7 -39 28 -39 55c0 35 16 60 57 60zM276 105c40 0 58 -24 58 -63c0 -37 -38 -132 -69 -182l-32 8l25 122c-21 7 -39 28 -39 55c0 35 16 60 57 60z" />
    <glyph glyph-name="period" unicode="." horiz-adv-x="233" 
d="M175 48c0 -37 -19 -59 -58 -59c-40 0 -59 16 -59 59c0 39 20 58 59 58s58 -19 58 -58z" />
    <glyph glyph-name="period.dnom" horiz-adv-x="146" 
d="M114 29c0 -25 -14 -38 -41 -38s-41 13 -41 38c0 27 14 40 41 40s41 -13 41 -40z" />
    <glyph glyph-name="period.subs" horiz-adv-x="146" 
d="M114 -115c0 -25 -14 -38 -41 -38c-28 0 -41 10 -41 38c0 26 14 39 41 39s41 -13 41 -39z" />
    <glyph glyph-name="period.sups" horiz-adv-x="146" 
d="M114 525c0 -25 -14 -38 -41 -38c-28 0 -41 10 -41 38c0 26 14 39 41 39s41 -13 41 -39z" />
    <glyph glyph-name="ellipsis" unicode="&#x2026;" horiz-adv-x="604" 
d="M546 48c0 -37 -19 -59 -58 -59c-40 0 -59 16 -59 59c0 39 20 58 59 58s58 -19 58 -58zM365 48c0 -37 -19 -59 -58 -59c-40 0 -59 16 -59 59c0 39 20 58 59 58s58 -19 58 -58zM175 48c0 -37 -19 -59 -58 -59c-40 0 -59 16 -59 59c0 39 20 58 59 58s58 -19 58 -58z" />
    <glyph glyph-name="colon" unicode=":" horiz-adv-x="233" 
d="M175 505c0 -37 -19 -59 -58 -59c-40 0 -59 16 -59 59c0 39 20 58 59 58s58 -19 58 -58zM175 48c0 -37 -19 -59 -58 -59c-40 0 -59 16 -59 59c0 39 20 58 59 58s58 -19 58 -58z" />
    <glyph glyph-name="semicolon" unicode=";" horiz-adv-x="236" 
d="M178 505c0 -37 -19 -59 -58 -59c-40 0 -59 16 -59 59c0 39 20 58 59 58s58 -19 58 -58zM117 105c40 0 58 -24 58 -63c0 -37 -38 -132 -69 -182l-32 8l25 122c-21 7 -39 28 -39 55c0 35 16 60 57 60z" />
    <glyph glyph-name="exclam" unicode="!" horiz-adv-x="275" 
d="M170 197h-67l-14 553h96zM196 43c0 -35 -18 -54 -57 -54s-57 15 -57 54c0 37 19 55 57 55s57 -18 57 -55z" />
    <glyph glyph-name="exclamdown" unicode="&#xa1;" horiz-adv-x="275" 
d="M103 467h70l11 -601h-93zM79 617c0 33 18 53 57 53s58 -18 58 -53c0 -37 -19 -55 -58 -55c-38 0 -57 18 -57 55z" />
    <glyph glyph-name="question" unicode="?" horiz-adv-x="461" 
d="M422 589c0 -112 -62 -186 -163 -250l-5 -141h-68l-6 172c95 68 152 122 152 205c0 71 -43 101 -114 101c-64 0 -114 -26 -155 -65l-32 73c43 45 115 78 199 78c129 0 192 -62 192 -173zM278 43c0 -35 -18 -54 -57 -54s-57 15 -57 54c0 37 19 55 57 55s57 -18 57 -55z" />
    <glyph glyph-name="questiondown" unicode="&#xbf;" horiz-adv-x="440" 
d="M39 73c0 112 62 186 163 250l5 141h68l6 -173c-93 -69 -151 -121 -151 -205c0 -71 42 -101 113 -101c64 0 115 26 155 65l33 -72c-44 -47 -116 -78 -200 -78c-129 0 -192 61 -192 173zM183 618c0 35 18 54 57 54s58 -15 58 -54c0 -35 -19 -54 -58 -54s-57 19 -57 54z" />
    <glyph glyph-name="periodcentered" unicode="&#xb7;" horiz-adv-x="260" 
d="M189 346c0 -37 -19 -59 -58 -59c-40 0 -59 16 -59 59c0 39 20 58 59 58s58 -19 58 -58z" />
    <glyph glyph-name="bullet" unicode="&#x2022;" horiz-adv-x="382" 
d="M60 325c0 87 43 131 129 131s129 -44 129 -131c0 -89 -43 -133 -129 -133s-129 44 -129 133z" />
    <glyph glyph-name="logicalnot" unicode="&#xac;" horiz-adv-x="590" 
d="M416 302h-316v80h389v-225h-73v145z" />
    <glyph glyph-name="underscore" unicode="_" horiz-adv-x="396" 
d="M23 -45h354v-58h-354v58z" />
    <glyph glyph-name="equal" unicode="=" horiz-adv-x="544" 
d="M473 386h-402v73h402v-73zM473 213h-402v73h402v-73z" />
    <glyph glyph-name="notequal" unicode="&#x2260;" horiz-adv-x="590" 
d="M374 577l58 -29l-43 -89h107v-73h-142l-47 -100h189v-73h-224l-58 -121l-59 28l44 93h-105v73h140l48 100h-188v73h223z" />
    <glyph glyph-name="approxequal" unicode="&#x2248;" horiz-adv-x="590" 
d="M394 360c-73 0 -137 51 -199 51c-39 0 -70 -12 -101 -33v74c29 19 62 32 101 32c70 0 136 -51 199 -51c40 0 71 13 102 33v-74c-28 -19 -62 -32 -102 -32zM394 191c-73 0 -137 50 -199 50c-39 0 -70 -12 -101 -32v73c29 19 62 32 101 32c70 0 136 -50 199 -50
c40 0 71 12 102 32v-73c-28 -20 -62 -32 -102 -32z" />
    <glyph glyph-name="emdash" unicode="&#x2014;" horiz-adv-x="659" 
d="M64 377h531v-68h-531v68z" />
    <glyph glyph-name="endash" unicode="&#x2013;" horiz-adv-x="490" 
d="M64 377h362v-68h-362v68z" />
    <glyph glyph-name="hyphen" unicode="-" horiz-adv-x="369" 
d="M63 377h243v-68h-243v68z" />
    <glyph glyph-name="minus" unicode="&#x2212;" horiz-adv-x="544" 
d="M473 298h-402v85h402v-85z" />
    <glyph glyph-name="plus" unicode="+" horiz-adv-x="544" 
d="M479 299h-170v-170h-79v170h-165v84h165v171h79v-171h170v-84z" />
    <glyph glyph-name="plus.dnom" horiz-adv-x="338" 
d="M300 173h-105v-106h-54v106h-103v58h103v107h54v-107h105v-58z" />
    <glyph glyph-name="plusminus" unicode="&#xb1;" horiz-adv-x="590" 
d="M499 340h-166v-154h-80v154h-162v79h162v164h80v-164h166v-79zM497 75h-407v71h407v-71z" />
    <glyph glyph-name="divide" unicode="&#xf7;" horiz-adv-x="544" 
d="M332 499c0 -35 -21 -53 -60 -53c-37 0 -60 13 -60 53c0 35 23 54 60 54c39 0 60 -19 60 -54zM332 180c0 -35 -21 -52 -60 -52c-37 0 -60 12 -60 52c0 36 23 54 60 54c39 0 60 -18 60 -54zM486 298h-428v85h428v-85z" />
    <glyph glyph-name="less" unicode="&#x3c;" horiz-adv-x="544" 
d="M463 482l-202 -107l-72 -35v-3l274 -139v-91l-382 208v46l382 216v-95z" />
    <glyph glyph-name="greater" unicode="&#x3e;" horiz-adv-x="544" 
d="M81 107v91l203 104l73 35v3l-73 35l-203 107v95l382 -216v-46z" />
    <glyph glyph-name="lessequal" unicode="&#x2264;" horiz-adv-x="590" 
d="M491 519l-263 -100l-76 -26v-3l340 -119v-90l-404 168v87l403 174v-91zM492 59h-400v76h400v-76z" />
    <glyph glyph-name="greaterequal" unicode="&#x2265;" horiz-adv-x="590" 
d="M88 181v90l263 93l77 26v3l-77 26l-262 100v91l403 -174v-87zM487 59h-399v76h399v-76z" />
    <glyph glyph-name="guillemotleft" unicode="&#xab;" horiz-adv-x="578" 
d="M496 439l-180 -115l180 -115v-74l-271 185v8l271 185v-74zM296 439l-180 -115l180 -115v-74l-271 185v8l271 185v-74z" />
    <glyph glyph-name="guillemotright" unicode="&#xbb;" horiz-adv-x="578" 
d="M267 135v74l180 115l-180 115v74l271 -185v-8zM68 135v74l180 115l-180 115v74l271 -185v-8z" />
    <glyph glyph-name="guilsinglleft" unicode="&#x2039;" horiz-adv-x="376" 
d="M313 439l-180 -115l180 -115v-74l-271 185v8l271 185v-74z" />
    <glyph glyph-name="guilsinglright" unicode="&#x203a;" horiz-adv-x="376" 
d="M63 135v74l180 115l-180 115v74l271 -185v-8z" />
    <glyph glyph-name="numbersign" unicode="#" horiz-adv-x="590" 
d="M58 294h106l22 166h-127v72h135l26 218h69l-26 -218h103l27 218h68l-26 -218h97v-72h-105l-21 -166h126v-73h-134l-26 -221h-69l27 221h-104l-27 -221h-69l26 221h-98v73zM256 460l-23 -166h105l21 166h-103z" />
    <glyph glyph-name="numbersign.pnum" horiz-adv-x="581" 
d="M49 294h107l24 166h-131v72h140l28 218h70l-28 -218h103l28 218h69l-29 -218h102v-72h-110l-24 -166h133l1 -73h-142l-29 -221h-68l28 221h-104l-28 -221h-69l28 221h-99v73zM250 460l-24 -166h104l24 166h-104z" />
    <glyph glyph-name="numbersign.onum" horiz-adv-x="544" 
d="M41 257h92l21 140h-113v67h120l24 185h69l-24 -185h120l24 185h67l-24 -185h86v-67h-94l-20 -140h114v-67h-122l-24 -190h-67l24 190h-120l-25 -190h-68l24 190h-84v67zM222 397l-21 -140h121l20 140h-120z" />
    <glyph glyph-name="parenleft" unicode="(" horiz-adv-x="308" 
d="M231 798l72 -5c-85 -135 -131 -288 -131 -459c0 -175 49 -326 130 -458l-71 -5c-91 117 -143 282 -143 463c0 189 50 335 143 464z" />
    <glyph glyph-name="parenleft.dnom" horiz-adv-x="193" 
d="M136 426l47 -4c-43 -71 -65 -149 -65 -240c0 -92 24 -170 65 -239l-47 -4c-51 61 -80 147 -80 243c0 100 27 177 80 244z" />
    <glyph glyph-name="parenright" unicode=")" horiz-adv-x="307" 
d="M5 793l72 5c92 -129 143 -275 143 -464c0 -181 -54 -346 -143 -463l-72 5c81 132 130 283 130 458c0 171 -46 324 -130 459z" />
    <glyph glyph-name="parenright.dnom" horiz-adv-x="193" 
d="M9 422l49 4c52 -67 79 -144 79 -244c0 -96 -28 -182 -79 -243l-49 4c41 69 65 147 65 239c0 89 -22 169 -65 240z" />
    <glyph glyph-name="bracketleft" unicode="[" horiz-adv-x="302" 
d="M88 -126v922h209v-68h-129v-787h129v-67h-209z" />
    <glyph glyph-name="bracketright" unicode="]" horiz-adv-x="302" 
d="M214 796v-922h-209v66h129v788h-129v68h209z" />
    <glyph glyph-name="braceleft" unicode="{" horiz-adv-x="345" 
d="M236 438c0 -47 -20 -82 -55 -99v-3c35 -17 55 -52 55 -99c0 -79 -13 -134 -13 -209c0 -49 24 -82 91 -82h27v-71h-22c-132 0 -178 53 -178 141c0 80 17 145 17 222c0 43 -27 73 -70 80v39c43 7 70 37 70 80c0 77 -17 142 -17 221c0 88 46 142 178 142h22v-72h-27
c-67 0 -91 -32 -91 -81c0 -76 13 -129 13 -209z" />
    <glyph glyph-name="braceright" unicode="}" horiz-adv-x="346" 
d="M109 237c0 47 19 82 56 99v3c-37 17 -56 52 -56 99c0 80 14 133 14 209c0 49 -24 81 -92 81h-26v72h22c132 0 177 -54 177 -142c0 -79 -17 -144 -17 -221c0 -43 28 -73 71 -80v-39c-43 -7 -71 -37 -71 -80c0 -77 17 -142 17 -222c0 -88 -46 -141 -177 -141h-22v71h26
c68 0 92 33 92 82c0 75 -14 130 -14 209z" />
    <glyph glyph-name="asterisk" unicode="*" horiz-adv-x="341" 
d="M149 791h46l4 -108l103 28l16 -47l-102 -36l64 -91l-35 -29l-73 87l-74 -87l-37 27l65 93l-103 36l16 47l104 -28z" />
    <glyph glyph-name="slash" unicode="/" horiz-adv-x="399" 
d="M321 796h76l-314 -921h-74z" />
    <glyph glyph-name="backslash" unicode="\" horiz-adv-x="348" 
d="M9 796h71l271 -921h-72z" />
    <glyph glyph-name="fraction" unicode="&#x2044;" horiz-adv-x="267" 
d="M345 750h66l-464 -750h-66z" />
    <glyph glyph-name="bar" unicode="|" horiz-adv-x="263" 
d="M97 -173v987h69v-987h-69z" />
    <glyph glyph-name="brokenbar" unicode="&#xa6;" horiz-adv-x="263" 
d="M97 377v437h69v-437h-69zM97 -163v439h69v-439h-69z" />
    <glyph glyph-name="at" unicode="@" horiz-adv-x="802" 
d="M418 565c39 0 66 -14 81 -42h3l14 36l49 -4l-41 -260c-2 -12 -3 -23 -3 -34c0 -44 16 -77 63 -77c68 0 117 69 117 222c0 188 -95 323 -277 323c-216 0 -322 -180 -322 -390c0 -216 96 -387 323 -387c142 0 225 52 267 94l23 -49c-64 -59 -158 -100 -290 -100
c-248 0 -378 174 -378 441c0 240 128 447 378 447c205 0 331 -155 331 -379c0 -200 -83 -286 -181 -286c-53 0 -91 24 -104 75l-3 1c-27 -45 -71 -76 -128 -76c-72 0 -122 53 -122 166c0 147 88 279 200 279zM455 306l25 157c-11 25 -31 35 -59 35
c-72 0 -129 -102 -129 -211c0 -67 25 -97 68 -97c47 0 86 47 95 116z" />
    <glyph glyph-name="sterling" unicode="&#xa3;" horiz-adv-x="590" 
d="M78 337l-4 74h51c-17 56 -28 92 -28 144c0 112 65 205 244 205c68 0 123 -15 166 -35l-13 -85c-35 19 -88 32 -143 32c-114 0 -160 -54 -160 -129c0 -39 8 -67 24 -132h232v-74h-216c4 -27 8 -57 8 -90c0 -79 -29 -135 -77 -166l2 -3c59 13 118 18 194 18
c65 0 126 -5 187 -12l-5 -90c-80 9 -146 14 -222 14c-87 0 -159 -4 -256 -13l-5 87c60 21 94 85 94 161c0 36 -3 66 -8 94h-65z" />
    <glyph glyph-name="sterling.pnum" horiz-adv-x="580" 
d="M69 336l-4 76h51c-19 67 -26 93 -26 141c0 113 64 207 248 207c68 0 126 -15 169 -35l-13 -86c-36 19 -90 31 -146 31c-115 0 -161 -53 -161 -128c0 -38 6 -67 22 -130h237v-76h-220c5 -29 8 -58 8 -89c0 -77 -29 -135 -77 -166l2 -3c60 15 120 19 197 19
c67 0 128 -5 189 -12l-5 -91c-80 9 -149 14 -226 14c-88 0 -162 -5 -261 -13l-5 88c61 21 95 85 95 160c0 35 -4 65 -9 93h-65z" />
    <glyph glyph-name="sterling.onum_pnum" horiz-adv-x="502" 
d="M52 290l-3 68h45c-15 48 -22 78 -22 118c0 97 54 181 222 181c60 0 111 -11 151 -30l-12 -76c-33 15 -82 27 -131 27c-103 0 -142 -46 -142 -111c0 -29 6 -61 18 -109h211v-68h-196c4 -23 7 -48 7 -76c0 -65 -23 -113 -62 -140l2 -3c52 11 104 14 171 14
c59 0 114 -4 167 -11l-5 -79c-72 7 -132 11 -203 11c-77 0 -144 -2 -232 -10l-3 77c55 19 82 72 82 136c0 31 -3 57 -7 81h-58z" />
    <glyph glyph-name="sterling.onum" horiz-adv-x="544" 
d="M57 290l-4 69h45c-11 37 -21 71 -21 114c0 99 57 184 230 184c64 0 116 -12 159 -31l-12 -77c-35 16 -87 28 -139 28c-108 0 -149 -47 -149 -112c0 -27 7 -66 18 -106h223v-69h-207c4 -24 7 -49 7 -77c0 -65 -24 -112 -63 -139l1 -2c55 11 108 14 179 14
c61 0 120 -4 175 -12l-5 -79c-75 7 -138 12 -210 12c-82 0 -150 -3 -241 -11l-3 77c55 19 83 74 83 135c0 29 -3 57 -8 82h-58z" />
    <glyph glyph-name="currency" unicode="&#xa4;" horiz-adv-x="590" 
d="M130 354c0 33 9 63 27 90l-62 64l47 51l63 -65c27 16 56 26 89 26c32 0 63 -10 88 -27l66 67l47 -52l-64 -65c16 -27 26 -57 26 -89s-9 -61 -24 -86l61 -62l-47 -52l-62 62c-27 -19 -57 -28 -91 -28c-35 0 -65 9 -92 28l-61 -62l-47 52l60 61c-15 25 -24 55 -24 87z
M189 355c0 -56 45 -101 104 -101s105 45 105 101s-46 101 -105 101s-104 -45 -104 -101z" />
    <glyph glyph-name="currency.pnum" horiz-adv-x="529" 
d="M99 355c0 34 9 64 26 91l-62 65l48 53l64 -67c27 16 56 26 89 26s62 -10 89 -26l66 67l48 -53l-64 -66c16 -27 26 -57 26 -90c0 -32 -8 -61 -23 -86l61 -63l-49 -53l-62 63c-27 -19 -57 -28 -92 -28s-65 9 -92 28l-62 -63l-48 53l61 62c-15 25 -24 55 -24 87zM159 357
c0 -57 46 -102 105 -102s104 45 104 102c0 56 -45 101 -104 101s-105 -45 -105 -101z" />
    <glyph glyph-name="currency.onum_pnum" horiz-adv-x="544" 
d="M111 327c0 33 9 62 26 89l-60 62l46 51l62 -64c26 17 55 25 86 25s61 -10 86 -26l64 65l47 -51l-62 -64c17 -26 25 -55 25 -87c0 -31 -8 -59 -23 -84l59 -60l-47 -51l-59 61c-26 -19 -56 -28 -90 -28c-33 0 -63 9 -90 27l-59 -60l-46 51l58 60c-15 24 -23 53 -23 84z
M171 328c0 -54 45 -97 100 -97s100 43 100 97c0 53 -45 97 -100 97s-100 -44 -100 -97z" />
    <glyph glyph-name="currency.onum" horiz-adv-x="544" 
d="M111 327c0 33 9 62 26 89l-60 62l46 51l62 -64c26 17 55 25 86 25s61 -10 86 -26l64 65l47 -51l-62 -64c17 -26 25 -55 25 -87c0 -31 -8 -59 -23 -84l59 -60l-47 -51l-59 61c-26 -19 -56 -28 -90 -28c-33 0 -63 9 -90 27l-59 -60l-46 51l58 60c-15 24 -23 53 -23 84z
M171 328c0 -54 45 -97 100 -97s100 43 100 97c0 53 -45 97 -100 97s-100 -44 -100 -97z" />
    <glyph glyph-name="section" unicode="&#xa7;" horiz-adv-x="508" 
d="M55 354c0 56 26 113 90 148c-44 35 -76 72 -76 127c0 103 72 161 201 161c60 0 127 -15 171 -44l-9 -72c-51 29 -102 41 -157 41c-76 0 -116 -30 -116 -82c0 -116 313 -132 313 -338c0 -57 -27 -116 -91 -149c44 -33 77 -72 77 -127c0 -103 -72 -161 -201 -161
c-59 0 -127 16 -170 44l8 72c51 -29 102 -41 157 -41c76 0 115 30 115 82c0 116 -312 132 -312 339zM387 286c0 77 -89 120 -172 171c-52 -19 -75 -54 -75 -95c0 -71 73 -115 172 -171c52 19 75 54 75 95z" />
    <glyph glyph-name="ordfeminine" unicode="&#xaa;" horiz-adv-x="383" 
d="M273 377l-6 46l-3 1c-23 -35 -58 -53 -103 -53c-72 0 -118 43 -118 140c0 84 49 134 136 134c29 0 57 -5 78 -16v41c0 60 -24 78 -83 78c-37 0 -66 -7 -101 -23l-6 67c36 17 78 27 122 27c104 0 143 -45 143 -161v-281h-59zM257 501v72c-9 7 -32 13 -63 13
c-53 0 -79 -25 -79 -74c0 -56 27 -73 66 -73c41 0 76 30 76 62z" />
    <glyph glyph-name="ordmasculine" unicode="&#xba;" horiz-adv-x="413" 
d="M371 595c0 -167 -49 -224 -164 -224c-113 0 -164 57 -164 224c0 166 51 224 164 224c115 0 164 -58 164 -224zM121 595c0 -124 23 -156 87 -156c62 0 86 33 86 156s-23 155 -87 155c-62 0 -86 -32 -86 -155z" />
    <glyph glyph-name="degree" unicode="&#xb0;" horiz-adv-x="335" 
d="M44 690c0 69 53 127 124 127c69 0 123 -56 123 -127c0 -69 -54 -126 -123 -126s-124 57 -124 126zM87 690c0 -43 34 -78 81 -78c44 0 80 34 80 78c0 47 -36 80 -80 80c-48 0 -81 -36 -81 -80z" />
    <glyph glyph-name="paragraph" unicode="&#xb6;" horiz-adv-x="607" 
d="M250 -148h-78v654c-80 3 -136 45 -136 126c0 68 48 118 139 118h389l-3 -75h-71v-823h-78v823h-162v-823z" />
    <glyph glyph-name="copyright" unicode="&#xa9;" horiz-adv-x="895" 
d="M56 379c0 216 175 392 392 392c216 0 392 -176 392 -392s-176 -392 -392 -392c-217 0 -392 176 -392 392zM105 379c0 -183 149 -341 343 -341c190 0 344 153 344 341c0 184 -154 338 -344 338c-193 0 -343 -154 -343 -338zM605 590l-7 -69c-31 19 -80 29 -121 29
c-119 0 -186 -72 -186 -171c0 -104 72 -175 189 -175c51 0 97 17 130 36l9 -66c-37 -29 -99 -57 -163 -57c-151 0 -256 110 -256 262c0 136 93 255 256 255c64 0 118 -20 149 -44z" />
    <glyph glyph-name="registered" unicode="&#xae;" horiz-adv-x="427" 
d="M41 658c0 97 77 175 173 175c95 0 172 -78 172 -175c0 -96 -77 -173 -172 -173c-96 0 -173 77 -173 173zM69 659c0 -79 65 -145 146 -145c77 0 143 66 143 145s-66 144 -143 144c-81 0 -146 -65 -146 -144zM298 701c0 -25 -14 -47 -38 -55l44 -83h-44l-38 79h-41v-79h-40
v199h82c55 0 75 -25 75 -61zM259 698c0 20 -9 30 -36 30h-42v-59h46c21 0 32 13 32 29z" />
    <glyph glyph-name="trademark" unicode="&#x2122;" horiz-adv-x="614" 
d="M570 502h-48v127l2 81l-3 1l-28 -77l-51 -132h-39l-52 132l-28 76l-2 -1l1 -81v-126h-48v270h70l50 -127l28 -76h3l27 75l51 128h67v-270zM238 722h-77v-220h-55v220h-78v50h210v-50z" />
    <glyph glyph-name="dagger" unicode="&#x2020;" horiz-adv-x="468" 
d="M40 602l155 -7l-8 197h88l-6 -197l158 7v-87l-158 6l6 -661h-88l8 661l-155 -6v87z" />
    <glyph glyph-name="daggerdbl" unicode="&#x2021;" horiz-adv-x="468" 
d="M427 139v-87l-159 7l7 -200h-88l8 200l-155 -7v86l156 -5l-1 389l-155 -7v87l155 -7l-8 197h88l-6 -197l158 7v-87l-158 7v-389z" />
    <glyph glyph-name="tilde" unicode="&#x2dc;" 
d="M94 685l-42 1c5 68 33 114 80 114c57 0 81 -66 120 -66c19 0 32 18 38 55l43 -1c-5 -68 -36 -113 -81 -113c-56 0 -79 65 -119 65c-19 0 -32 -22 -39 -55z" />
    <glyph glyph-name="asciitilde" unicode="~" horiz-adv-x="590" 
d="M135 632l-53 -1c9 95 49 142 119 142c71 0 128 -68 186 -68c39 0 56 21 67 56l53 1c-9 -94 -49 -141 -119 -141s-128 67 -185 67c-39 0 -57 -21 -68 -56z" />
    <glyph glyph-name="grave" unicode="`" 
d="M266 665h-69l-99 140h106z" />
    <glyph glyph-name="acute" unicode="&#xb4;" 
d="M212 805h106l-104 -140h-68z" />
    <glyph glyph-name="hungarumlaut" unicode="&#x2dd;" 
d="M154 805h95l-99 -140h-59zM303 805h96l-106 -140h-65z" />
    <glyph glyph-name="circumflex" unicode="&#x2c6;" 
d="M147 805h77l97 -140h-69l-66 100l-65 -100h-68z" />
    <glyph glyph-name="caron" unicode="&#x2c7;" 
d="M225 665h-77l-95 140h69l65 -103l64 103h70z" />
    <glyph glyph-name="asciicircum" unicode="^" horiz-adv-x="590" 
d="M456 477l-161 255l-161 -255h-75l206 329h61l204 -329h-74z" />
    <glyph glyph-name="dieresis" unicode="&#xa8;" 
d="M156 749c0 -31 -15 -47 -44 -47c-28 0 -43 12 -43 47c0 31 14 47 43 47s44 -16 44 -47zM306 749c0 -31 -15 -47 -44 -47s-43 12 -43 47c0 31 14 47 43 47s44 -16 44 -47z" />
    <glyph glyph-name="dotaccent" unicode="&#x2d9;" 
d="M243 748c0 -33 -19 -50 -57 -50c-39 0 -57 14 -57 50c0 33 19 50 57 50s57 -17 57 -50z" />
    <glyph glyph-name="macron" unicode="&#xaf;" 
d="M319 769v-59h-262v59h262z" />
    <glyph glyph-name="breve" unicode="&#x2d8;" 
d="M253 805h62c0 -93 -41 -147 -129 -147c-89 0 -129 51 -129 147h61c0 -67 28 -96 68 -96s68 29 67 96z" />
    <glyph glyph-name="ring" unicode="&#x2da;" 
d="M92 745c0 45 31 77 95 77c61 0 95 -32 95 -77c0 -49 -34 -77 -95 -77c-60 0 -95 26 -95 77zM138 745c0 -23 15 -39 50 -39c32 0 50 15 50 39c0 23 -17 38 -50 38c-35 0 -50 -15 -50 -38z" />
    <glyph glyph-name="ogonek" unicode="&#x2db;" 
d="M232 -176c-72 0 -98 36 -98 80c0 49 33 90 88 110l36 -14c-39 -17 -57 -44 -57 -75c0 -25 15 -42 54 -43c19 0 37 5 54 14l7 -50c-24 -15 -52 -22 -84 -22z" />
    <glyph glyph-name="cedilla" unicode="&#xb8;" 
d="M118 -189l59 194l60 1l-35 -195h-84z" />
    <glyph glyph-name="percent" unicode="%" horiz-adv-x="652" 
d="M307 590c0 -123 -44 -173 -132 -173c-91 0 -132 52 -132 173c0 124 40 173 133 173c85 0 131 -44 131 -173zM245 591c0 91 -24 113 -69 113c-48 0 -71 -22 -71 -113s23 -113 71 -113s69 22 69 113zM477 730l53 -40l-368 -672l-53 41zM609 165c0 -124 -44 -173 -132 -173
c-91 0 -132 50 -132 173c0 124 38 174 133 174c85 0 131 -46 131 -174zM548 165c0 90 -23 112 -70 112c-48 0 -71 -22 -71 -112s23 -112 71 -112c47 0 70 22 70 112z" />
    <glyph glyph-name="perthousand" unicode="&#x2030;" horiz-adv-x="947" 
d="M307 590c0 -123 -44 -173 -132 -173c-91 0 -132 52 -132 173c0 124 38 173 133 173c85 0 131 -44 131 -173zM246 591c0 91 -25 113 -70 113c-48 0 -72 -22 -72 -113s24 -113 72 -113c47 0 70 22 70 113zM477 730l54 -40l-367 -672l-55 41zM609 165
c0 -124 -44 -173 -132 -173c-91 0 -132 50 -132 173c0 124 38 174 133 174c85 0 131 -46 131 -174zM549 165c0 90 -24 112 -71 112c-48 0 -72 -22 -72 -112s24 -112 72 -112c47 0 71 22 71 112zM904 165c0 -124 -45 -173 -133 -173c-91 0 -131 50 -131 173
c0 124 39 174 132 174c85 0 132 -46 132 -174zM843 165c0 90 -24 112 -71 112s-71 -22 -71 -112s24 -112 71 -112s71 22 71 112z" />
    <glyph glyph-name="radical" unicode="&#x221a;" horiz-adv-x="535" 
d="M7 409v85h141l93 -315l22 -78h3l17 79l154 616h93l-210 -796h-107l-129 409h-77z" />
    <glyph glyph-name="infinity" unicode="&#x221e;" horiz-adv-x="674" 
d="M483 176c-68 0 -113 32 -148 85c-29 -47 -68 -85 -143 -85c-85 0 -150 63 -150 173c0 103 52 173 149 173c68 0 113 -31 148 -86c29 48 69 86 144 86c85 0 149 -62 149 -174c0 -101 -53 -172 -149 -172zM194 254c62 0 84 58 113 118c-28 49 -60 77 -111 77
c-52 0 -81 -42 -81 -98c0 -64 35 -97 79 -97zM480 444c-62 0 -86 -58 -113 -120c27 -48 59 -75 111 -75s80 42 80 98c0 64 -34 97 -78 97z" />
    <glyph glyph-name="integral" unicode="&#x222b;" horiz-adv-x="290" 
d="M190 613v-578c0 -129 -57 -189 -185 -189l-2 60c67 3 97 39 97 126v582c0 123 61 184 184 185l2 -62c-60 -1 -96 -40 -96 -124z" />
    <glyph glyph-name="lozenge" unicode="&#x25ca;" horiz-adv-x="555" 
d="M28 329l249 322l249 -322l-249 -322zM121 329l155 -200l157 200l-156 201z" />
    <glyph glyph-name="one.dnom" horiz-adv-x="247" 
d="M188 395v-395h-68v229l3 79l-3 1l-75 -49l-7 57l109 78h41z" />
    <glyph glyph-name="two.dnom" horiz-adv-x="322" 
d="M290 288c0 -77 -69 -146 -165 -226v-3h167l-2 -59h-251v45c96 96 180 171 180 237c0 33 -18 57 -69 57c-36 0 -67 -13 -95 -36l-18 56c31 23 74 40 126 40c84 0 127 -43 127 -111z" />
    <glyph glyph-name="seven.dnom" horiz-adv-x="336" 
d="M305 394v-57l-151 -337h-78l156 331h-198l3 63h268z" />
    <glyph glyph-name="eight.dnom" horiz-adv-x="336" 
d="M30 111c0 41 23 73 62 96c-28 19 -48 43 -48 90c0 64 37 102 125 102c87 0 123 -37 123 -102c0 -39 -19 -68 -51 -87v-2c37 -16 65 -42 65 -97c0 -77 -46 -116 -137 -116c-97 0 -139 39 -139 116zM240 106c0 46 -46 57 -94 76c-29 -17 -50 -39 -50 -72
c0 -44 19 -61 74 -61c43 0 70 14 70 57zM108 294c0 -39 38 -53 81 -66c28 19 42 36 42 63c0 37 -18 55 -62 55c-41 0 -61 -17 -61 -52z" />
    <glyph glyph-name="cent.dnom" horiz-adv-x="290" 
d="M266 368l-4 -55c-21 9 -43 13 -67 13c-71 0 -95 -32 -95 -123c0 -99 31 -132 94 -132c26 0 49 6 70 17l5 -50c-19 -14 -43 -22 -71 -25l-3 -77h-53l4 79c-77 12 -116 71 -116 188c0 113 37 173 129 182l5 75h53l-6 -76c20 -3 39 -9 55 -16z" />
    <glyph glyph-name="Eth.c2sc" horiz-adv-x="615" 
d="M573 327c0 -236 -88 -327 -269 -327h-216v308h-73v66h73v275h214c191 0 271 -93 271 -322zM480 328c0 188 -52 237 -178 237h-125v-191h117v-66h-117v-225h125c123 0 178 48 178 245z" />
    <glyph glyph-name="Lslash.c2sc" horiz-adv-x="496" 
d="M185 84h289l-3 -84h-375v277l-65 -32l-4 77l69 33v294h89v-254l179 88l6 -80l-185 -89v-230z" />
    <glyph glyph-name="Oslash.c2sc" horiz-adv-x="603" 
d="M79 -13l-42 37l48 69c-31 53 -43 128 -43 231c0 240 73 335 260 335c79 0 137 -16 178 -55l47 61l42 -39l-52 -69c29 -53 44 -130 44 -233c0 -241 -73 -335 -259 -335c-80 0 -138 17 -181 57zM467 324c0 71 -5 122 -16 161l-279 -360c27 -39 69 -53 130 -53
c120 0 165 54 165 252zM135 324c0 -67 5 -120 16 -158l277 361c-27 36 -66 49 -126 49c-121 0 -167 -53 -167 -252z" />
    <glyph glyph-name="zero.pnum_zero" horiz-adv-x="574" 
d="M325 376c0 -35 -15 -48 -40 -48c-27 0 -40 9 -40 48c0 33 13 49 40 49c25 0 40 -14 40 -49zM529 375c0 -283 -73 -385 -242 -385c-172 0 -242 102 -242 385c0 291 70 384 243 384c169 0 241 -93 241 -384zM438 376c0 248 -47 296 -150 296c-105 0 -153 -50 -153 -296
c0 -252 48 -301 153 -301c103 0 150 52 150 301z" />
    <glyph glyph-name="zero.onum_pnum_zero" horiz-adv-x="568" 
d="M518 314c0 -229 -70 -324 -234 -324c-166 0 -234 95 -234 324c0 237 70 326 235 326c163 0 233 -89 233 -326zM432 315c0 192 -47 238 -148 238s-149 -47 -149 -238c0 -192 48 -239 149 -239s148 47 148 239zM324 316c0 -35 -15 -48 -40 -48c-27 0 -40 9 -40 48
c0 33 13 49 40 49c25 0 40 -14 40 -49z" />
    <glyph glyph-name="zero.onum_zero" horiz-adv-x="544" 
d="M311 316c0 -35 -15 -48 -40 -48c-27 0 -40 9 -40 48c0 33 13 49 40 49c25 0 40 -14 40 -49zM506 314c0 -229 -70 -324 -234 -324c-166 0 -234 95 -234 324c0 237 68 326 234 326c164 0 234 -89 234 -326zM417 315c0 196 -45 241 -145 241c-99 0 -146 -47 -146 -241
c0 -196 47 -243 146 -243c100 0 145 48 145 243z" />
    <glyph glyph-name="zero.zero" horiz-adv-x="590" 
d="M334 376c0 -35 -15 -48 -40 -48c-27 0 -40 9 -40 48c0 33 13 49 40 49c25 0 40 -14 40 -49zM537 375c0 -283 -72 -385 -243 -385s-241 102 -241 385c0 291 70 384 242 384c170 0 242 -93 242 -384zM446 376c0 248 -48 296 -151 296c-104 0 -152 -50 -152 -296
c0 -252 48 -301 152 -301s151 52 151 301z" />
    <glyph glyph-name="Thorn.c2sc" horiz-adv-x="555" 
d="M509 332c0 -135 -65 -202 -236 -202h-104v-130h-89v649h89v-113h104c169 0 236 -61 236 -204zM417 333c0 93 -40 124 -144 124h-104v-251h104c100 0 144 27 144 127z" />
    <glyph glyph-name="nine.dnom" horiz-adv-x="336" 
d="M302 214c0 -157 -52 -219 -156 -219c-41 0 -64 7 -91 18l9 55c27 -11 47 -16 78 -16c64 0 96 35 101 134l-2 1c-22 -21 -50 -31 -83 -31c-89 0 -126 46 -126 118c0 76 42 126 130 126c96 0 140 -58 140 -186zM236 237c-1 83 -26 107 -75 107c-41 0 -65 -22 -65 -67
s21 -70 70 -70c28 0 57 11 70 30z" />
    <glyph glyph-name="equal.dnom" horiz-adv-x="338" 
d="M295 234h-251v51h251v-51zM295 122h-251v50h251v-50z" />
    <glyph glyph-name="minus.dnom" horiz-adv-x="338" 
d="M296 177h-253v57h253v-57z" />
    <glyph glyph-name="numbersign.onum_pnum" horiz-adv-x="544" 
d="M41 257h92l21 140h-113v67h120l24 185h69l-24 -185h120l24 185h67l-24 -185h86v-67h-94l-20 -140h114v-67h-122l-24 -190h-67l24 190h-120l-25 -190h-68l24 190h-84v67zM222 397l-21 -140h121l20 140h-120z" />
    <glyph glyph-name="tilde.case" 
d="M93 803l-44 1c5 60 34 102 81 102c55 0 87 -58 121 -58c19 0 31 15 37 46l41 -1c-5 -61 -35 -103 -82 -103c-53 0 -84 59 -118 59c-19 0 -31 -18 -36 -46z" />
    <glyph glyph-name="grave.case" 
d="M261 798h-73l-112 113h111z" />
    <glyph glyph-name="acute.case" 
d="M190 910h119l-118 -113h-73z" />
    <glyph glyph-name="hungarumlaut.case" 
d="M111 910h95l-89 -114h-59zM261 910h98l-110 -114h-65z" />
    <glyph glyph-name="circumflex.case" 
d="M137 910h94l106 -113h-84l-69 73l-67 -73h-82z" />
    <glyph glyph-name="caron.case" 
d="M232 797h-94l-103 113h83l68 -74l68 74h83z" />
    <glyph glyph-name="dieresis.case" 
d="M143 846c0 -29 -14 -44 -43 -44s-43 12 -43 44c0 30 14 45 43 45s43 -15 43 -45zM318 846c0 -29 -14 -44 -43 -44c-28 0 -43 12 -43 44c0 30 14 45 43 45s43 -15 43 -45z" />
    <glyph glyph-name="uni0307" unicode="&#x307;" horiz-adv-x="1" 
d="M-84 746c0 -33 -19 -49 -57 -49c-39 0 -57 13 -57 49c0 33 19 50 57 50s57 -17 57 -50z" />
    <glyph glyph-name="dotaccent.case" 
d="M245 845c0 -31 -16 -45 -59 -45s-59 12 -59 45c0 31 16 46 59 46s59 -15 59 -46z" />
    <glyph glyph-name="uni0307.c2sc" horiz-adv-x="1" 
d="M-128 765c0 -33 -19 -50 -57 -50c-39 0 -57 14 -57 50c0 33 19 50 57 50s57 -17 57 -50z" />
    <glyph glyph-name="uni0307.case" horiz-adv-x="1" 
d="M-128 846c0 -33 -19 -50 -57 -50c-39 0 -57 14 -57 50c0 33 19 50 57 50s57 -17 57 -50z" />
    <glyph glyph-name="macron.case" 
d="M317 863v-50h-262v50h262z" />
    <glyph glyph-name="breve.case" 
d="M262 910h67c0 -76 -45 -119 -142 -119s-142 40 -142 119h66c0 -49 33 -68 76 -68c44 0 75 17 75 68z" />
    <glyph glyph-name="ring.case" 
d="M90 811c0 47 27 79 94 79c64 0 95 -31 95 -78c0 -53 -32 -80 -95 -80s-94 26 -94 79zM140 809c0 -23 12 -37 45 -37c31 0 46 12 46 37c0 23 -14 37 -46 37c-33 0 -45 -14 -45 -37z" />
    <glyph glyph-name="ogonek.case" 
d="M224 19l38 -19c-39 0 -63 -37 -63 -70c0 -29 16 -47 55 -48c19 0 37 5 53 14l9 -51c-25 -15 -54 -22 -86 -22c-68 0 -100 33 -100 84c0 56 35 99 94 112z" />
    <glyph glyph-name="multiply" unicode="&#xd7;" horiz-adv-x="544" 
d="M459 202l-51 -57l-135 135l-136 -135l-52 57l135 135l-136 134l53 57l136 -134l135 135l53 -58l-137 -134z" />
    <glyph glyph-name="franc" unicode="&#x20a3;" horiz-adv-x="590" 
d="M26 177h78v573h418l2 -92h-325v-231h256l-1 -87h-255v-163h81v-70h-81v-107h-95v107h-78v70z" />
    <glyph glyph-name="lira" unicode="&#x20a4;" horiz-adv-x="590" 
d="M81 403l-4 57h35c-8 31 -13 60 -13 95c0 112 64 205 243 205c68 0 123 -15 166 -35l-13 -85c-35 19 -88 32 -143 32c-114 0 -160 -57 -160 -133c0 -27 3 -52 10 -79h257v-57h-242c5 -19 10 -38 14 -61h228v-56h-221c1 -13 2 -26 2 -39c0 -79 -29 -135 -77 -166l2 -3
c59 13 117 18 193 18c67 0 127 -5 188 -12l-5 -90c-80 9 -146 14 -222 14c-88 0 -159 -5 -256 -13l-5 87c60 21 94 85 94 161c0 15 -1 28 -2 43h-66l-2 56h61c-4 21 -9 42 -15 61h-47z" />
    <glyph glyph-name="peseta" unicode="&#x20a7;" horiz-adv-x="590" 
d="M563 490h-54c-7 -141 -73 -203 -225 -203h-116v-287h-88v490h-55v53h55v207h204c151 0 218 -58 225 -207h54v-53zM168 668v-125h250c-5 93 -46 125 -134 125h-116zM168 366h116c84 0 126 27 134 124h-250v-124z" />
    <glyph glyph-name="_316" 
d="M188 -39c40 0 57 -17 57 -44c0 -28 -38 -76 -76 -114l-27 10l27 72c-25 5 -37 17 -37 37c0 23 15 39 56 39z" />
    <glyph glyph-name="_317" 
d="M188 669c-35 0 -48 18 -48 45s34 78 66 115l23 -10l-26 -73c22 -5 33 -18 33 -38c0 -23 -13 -39 -48 -39z" />
    <glyph glyph-name="_318" 
d="M189 785c35 0 49 -18 49 -45s-35 -78 -67 -115l-22 10l25 72c-21 5 -32 18 -32 39s12 39 47 39z" />
    <glyph glyph-name="_319" horiz-adv-x="656" 
d="M328 -13c-70 0 -126 125 -159 163c-54 64 -118 202 -118 345c0 147 72 270 277 270s277 -123 277 -270c0 -144 -66 -280 -119 -344c-32 -40 -91 -164 -158 -164zM329 35c48 0 98 106 125 138c44 49 104 167 104 287c0 77 -53 102 -229 102c-178 0 -230 -25 -230 -102
c0 -120 60 -238 104 -287c27 -32 76 -138 126 -138zM417 208c-27 7 -56 10 -87 10s-61 -3 -88 -10c-20 23 -37 57 -44 92c42 -15 86 -23 131 -23s89 8 131 23c-7 -36 -22 -69 -43 -92zM366 347l-21 32c40 19 88 45 123 86c16 -15 25 -49 25 -82c-35 -17 -86 -29 -127 -36z
M312 379l-21 -32c-40 7 -91 19 -126 36c0 33 9 67 25 82c35 -41 83 -67 122 -86z" />
    <glyph glyph-name="hungarumlaut.c2sc" 
d="M160 824h92l-102 -129h-58zM308 824h93l-110 -129h-64z" />
    <glyph glyph-name="tilde.c2sc" 
d="M94 727l-42 1c5 53 34 93 79 93c56 0 76 -54 116 -54c18 0 31 14 38 42l42 -1c-5 -53 -35 -92 -80 -92c-53 0 -78 53 -115 53c-19 0 -31 -15 -38 -42z" />
    <glyph glyph-name="ogonek.c2sc" 
d="M228 17l34 -17c-39 0 -63 -37 -63 -70c0 -29 16 -47 55 -48c19 0 37 5 53 14l9 -51c-25 -15 -54 -22 -86 -22c-68 0 -100 33 -100 82c0 57 41 100 98 112z" />
    <glyph glyph-name="ring.c2sc" 
d="M88 753c0 47 31 80 99 80c64 0 99 -33 99 -80c0 -51 -35 -81 -99 -81s-99 28 -99 81zM137 753c0 -27 17 -40 51 -40s51 13 51 40c0 23 -16 40 -51 40s-51 -17 -51 -40z" />
    <glyph glyph-name="dotaccent.c2sc" 
d="M239 762c0 -30 -18 -45 -53 -45s-53 12 -53 45c0 30 18 45 53 45s53 -15 53 -45z" />
    <glyph glyph-name="breve.c2sc" 
d="M253 824h61c0 -84 -40 -133 -128 -133c-91 0 -129 46 -129 133h61c0 -60 27 -87 68 -87c39 0 67 27 67 87z" />
    <glyph glyph-name="caron.c2sc" 
d="M225 695h-77l-95 129h71l63 -95l63 95h71z" />
    <glyph glyph-name="circumflex.c2sc" 
d="M147 824h77l96 -129h-70l-64 94l-64 -94h-69z" />
    <glyph glyph-name="Aring.c2sc" horiz-adv-x="599" 
d="M200 711c0 47 31 80 99 80c64 0 99 -33 99 -80c0 -34 -14 -58 -43 -71l226 -640h-101l-49 154h-269l-49 -154h-95l224 640c-28 13 -42 36 -42 71zM297 577l-24 -78l-86 -267h219l-84 267l-22 78h-3zM249 711c0 -27 17 -40 51 -40s51 13 51 40c0 23 -16 40 -51 40
s-51 -17 -51 -40z" />
    <glyph glyph-name="questiondown.c2sc" horiz-adv-x="473" 
d="M44 73c0 112 62 185 163 250l5 134h68l6 -166c-94 -70 -152 -120 -152 -205c0 -71 43 -101 114 -101c64 0 114 26 155 65l32 -72c-43 -47 -115 -78 -199 -78c-129 0 -192 61 -192 173zM188 611c0 35 18 54 57 54s58 -15 58 -54c0 -35 -19 -54 -58 -54s-57 19 -57 54z" />
    <glyph glyph-name="cedilla.c2sc" 
d="M118 -189l59 194l60 1l-35 -195h-84z" />
    <glyph glyph-name="acute.c2sc" 
d="M220 824h111l-124 -129h-74z" />
    <glyph glyph-name="macron.c2sc" 
d="M319 777v-54h-262v54h262z" />
    <glyph glyph-name="dieresis.c2sc" 
d="M154 765c0 -28 -14 -42 -42 -42s-42 11 -42 42c0 28 14 42 42 42s42 -14 42 -42zM305 765c0 -28 -14 -42 -42 -42c-27 0 -42 11 -42 42c0 28 14 42 42 42s42 -14 42 -42z" />
    <glyph glyph-name="exclamdown.c2sc" horiz-adv-x="275" 
d="M103 457h70l11 -550h-93zM79 612c0 33 18 53 57 53s58 -18 58 -53c0 -37 -19 -55 -58 -55c-38 0 -57 18 -57 55z" />
    <glyph glyph-name="grave.c2sc" 
d="M252 695h-67l-107 129h103z" />
    <glyph glyph-name="question.c2sc" horiz-adv-x="444" 
d="M400 505c0 -96 -58 -160 -151 -215l-5 -116h-64l-6 148c88 55 139 99 139 170c0 60 -39 86 -104 86c-60 0 -103 -20 -142 -57l-32 69c41 40 108 69 187 69c120 0 178 -57 178 -154zM266 39c0 -31 -17 -49 -53 -49c-35 0 -53 16 -53 49s18 50 53 50s53 -17 53 -50z" />
    <glyph glyph-name="ampersand.c2sc" horiz-adv-x="604" 
d="M595 70l-31 -78c-45 25 -89 55 -134 91c-51 -56 -114 -94 -198 -94c-127 0 -175 81 -175 172c0 90 55 150 117 199c-35 56 -54 108 -54 152c0 85 45 147 154 147c93 0 153 -46 153 -117c0 -79 -73 -135 -153 -194c39 -51 90 -105 146 -153c27 44 45 93 53 137h72
c-5 -48 -28 -119 -67 -184c39 -31 78 -55 117 -78zM245 70c49 0 92 24 128 61c-60 52 -114 110 -158 169c-41 -37 -71 -79 -71 -132c0 -63 37 -98 101 -98zM198 512c0 -31 13 -67 36 -107c59 43 109 80 109 129c0 40 -27 58 -71 58s-74 -28 -74 -80z" />
    <glyph glyph-name="exclam.c2sc" horiz-adv-x="266" 
d="M165 174h-65l-13 475h91zM188 39c0 -31 -17 -49 -53 -49c-35 0 -53 16 -53 49s18 50 53 50s53 -17 53 -50z" />
    <glyph glyph-name="peseta.onum" horiz-adv-x="544" 
d="M530 422h-55c-8 -119 -68 -175 -208 -175h-109v-247h-84v422h-52v46h52v181h193c139 0 201 -53 208 -181h55v-46zM158 572v-104h231c-5 79 -42 104 -122 104h-109zM158 321h109c77 0 114 20 122 101h-231v-101z" />
    <glyph glyph-name="lira.onum" horiz-adv-x="544" 
d="M61 348l-3 50h30c-7 23 -10 48 -10 75c0 99 59 184 231 184c64 0 116 -12 159 -31l-13 -77c-35 16 -86 28 -138 28c-108 0 -150 -47 -150 -112c0 -23 4 -44 9 -67h243v-50h-231c5 -17 9 -33 13 -52h218v-49h-212c1 -11 2 -22 2 -34c0 -65 -24 -113 -65 -140l2 -3
c56 12 109 16 180 16c61 0 119 -4 175 -12l-5 -79c-76 7 -139 12 -211 12c-81 0 -149 -3 -241 -11l-3 77c56 19 84 74 84 135c0 15 -1 27 -2 39h-59l-3 49h55c-4 19 -8 35 -13 52h-42z" />
    <glyph glyph-name="franc.onum" horiz-adv-x="544" 
d="M33 156h73v493h392l2 -83h-307v-195h237v-79h-237v-136h77v-62h-77v-94h-87v94h-73v62z" />
    <glyph glyph-name="peseta.pnum" horiz-adv-x="739" 
d="M348 531c0 -164 -46 -222 -162 -222h-53v-309h-68v750h121c112 0 162 -47 162 -219zM512 398h-55v-300c0 -33 12 -43 31 -43c5 0 10 1 17 4l2 -59c-7 -5 -21 -9 -36 -9c-50 0 -75 35 -75 106v301h-28v58h30l11 105l48 7v-112h55v-58zM704 126c0 -96 -33 -137 -98 -137
c-24 0 -49 7 -64 22l2 65c16 -14 35 -21 58 -21c31 0 46 23 46 70c0 100 -110 69 -110 212c0 72 32 125 95 125c24 0 44 -6 60 -19l-4 -63c-16 10 -33 15 -51 15c-29 0 -43 -19 -43 -57c0 -92 109 -60 109 -212zM276 531c0 113 -22 143 -90 143h-53v-293h53
c64 0 90 26 90 150z" />
    <glyph glyph-name="lira.pnum" horiz-adv-x="601" 
d="M73 403l-4 57h35c-8 29 -13 58 -13 93c0 113 64 207 248 207c68 0 126 -15 169 -35l-13 -86c-36 19 -90 31 -146 31c-115 0 -161 -56 -161 -131c0 -27 3 -52 10 -79h260v-57h-245c5 -19 9 -40 13 -61h232v-56h-225c1 -13 2 -26 2 -39c0 -77 -28 -134 -75 -165l1 -2
c60 12 119 17 196 17c67 0 128 -5 189 -12l-5 -91c-80 9 -149 14 -226 14c-88 0 -162 -5 -261 -13l-4 88c60 21 94 85 94 160c0 15 -1 28 -2 43h-66l-3 56h61c-4 23 -9 42 -14 61h-47z" />
    <glyph glyph-name="franc.pnum" horiz-adv-x="555" 
d="M18 177h78v573h413l2 -92h-320v-231h248l-1 -87h-247v-163h82v-70h-82v-107h-95v107h-78v70z" />
    <glyph glyph-name="peseta.onum_pnum" horiz-adv-x="544" 
d="M244 462c0 -153 -28 -190 -114 -190h-41v-272h-52v649h93c84 0 114 -35 114 -187zM373 348h-44v-267c0 -28 11 -36 24 -36c5 0 9 2 14 5l2 -49c-7 -4 -18 -8 -29 -8c-36 0 -58 24 -58 87v268h-22v49h24l8 91l36 7v-98h45v-49zM517 110c0 -84 -25 -118 -76 -118
c-20 0 -36 5 -49 16l2 53c11 -11 25 -16 41 -16c25 0 38 21 38 64c0 85 -84 65 -84 185c0 60 27 108 76 108c19 0 33 -6 45 -14l-3 -54c-12 7 -25 12 -38 12c-24 0 -34 -20 -34 -52c0 -82 82 -56 82 -184zM191 461c0 107 -15 125 -61 125h-41v-254h41c43 0 61 17 61 129z
" />
    <glyph glyph-name="lira.onum_pnum" horiz-adv-x="544" 
d="M61 348l-3 50h30c-7 23 -10 48 -10 75c0 99 59 184 231 184c64 0 116 -12 159 -31l-13 -77c-35 16 -86 28 -138 28c-108 0 -150 -47 -150 -112c0 -23 4 -44 9 -67h243v-50h-231c5 -17 9 -33 13 -52h218v-49h-212c1 -11 2 -22 2 -34c0 -65 -24 -113 -65 -140l2 -3
c56 12 109 16 180 16c61 0 119 -4 175 -12l-5 -79c-76 7 -139 12 -211 12c-81 0 -149 -3 -241 -11l-3 77c56 19 84 74 84 135c0 15 -1 27 -2 39h-59l-3 49h55c-4 19 -8 35 -13 52h-42z" />
    <glyph glyph-name="franc.onum_pnum" horiz-adv-x="544" 
d="M33 156h73v493h392l2 -83h-307v-195h237v-79h-237v-136h77v-62h-77v-94h-87v94h-73v62z" />
    <glyph glyph-name="uni2189" unicode="&#x2189;" horiz-adv-x="848" 
d="M308 553c0 -145 -41 -202 -140 -202s-139 57 -139 202c0 149 40 202 140 202c98 0 139 -53 139 -202zM241 553c0 120 -24 144 -72 144c-51 0 -74 -24 -74 -144s23 -145 74 -145c48 0 72 26 72 145zM604 750h66l-464 -750h-66zM826 118c0 -76 -44 -123 -144 -123
c-49 0 -88 13 -117 30l15 53c29 -17 62 -27 101 -27c56 0 79 27 79 70c0 41 -26 62 -111 62v49c80 0 105 21 105 60c0 33 -23 50 -70 50c-41 0 -72 -12 -101 -35l-16 51c28 24 72 41 120 41c81 0 130 -35 130 -103c0 -45 -22 -72 -61 -87v-2c45 -12 70 -38 70 -89z" />
    <glyph glyph-name="uni215F" unicode="&#x215f;" horiz-adv-x="514" 
d="M188 751v-395h-68v229l3 79l-3 1l-75 -49l-7 57l109 78h41zM592 750h66l-464 -750h-66z" />
    <glyph glyph-name="seveneighths" unicode="&#x215e;" horiz-adv-x="939" 
d="M305 750v-57l-151 -337h-78l156 331h-198l3 63h268zM681 750h66l-464 -750h-66zM633 111c0 41 23 73 62 96c-28 19 -48 43 -48 90c0 64 37 102 125 102c87 0 123 -37 123 -102c0 -39 -19 -68 -51 -87v-2c37 -16 65 -42 65 -97c0 -77 -46 -116 -137 -116
c-97 0 -139 39 -139 116zM843 106c0 46 -46 57 -94 76c-29 -17 -50 -39 -50 -72c0 -44 19 -61 74 -61c43 0 70 14 70 57zM711 294c0 -39 38 -53 81 -66c28 19 42 36 42 63c0 37 -18 55 -62 55c-41 0 -61 -17 -61 -52z" />
    <glyph glyph-name="fiveeighths" unicode="&#x215d;" horiz-adv-x="939" 
d="M302 492c0 -92 -41 -141 -137 -141c-45 0 -84 9 -115 28l11 54c32 -16 59 -25 98 -25c56 0 77 23 77 79c0 45 -25 63 -74 63c-31 0 -60 -6 -83 -15l-27 24l17 191h213l3 -59h-164l-6 -93c21 5 42 8 63 8c80 0 124 -37 124 -114zM681 750h66l-464 -750h-66zM633 111
c0 41 23 73 62 96c-28 19 -48 43 -48 90c0 64 37 102 125 102c87 0 123 -37 123 -102c0 -39 -19 -68 -51 -87v-2c37 -16 65 -42 65 -97c0 -77 -46 -116 -137 -116c-97 0 -139 39 -139 116zM843 106c0 46 -46 57 -94 76c-29 -17 -50 -39 -50 -72c0 -44 19 -61 74 -61
c43 0 70 14 70 57zM711 294c0 -39 38 -53 81 -66c28 19 42 36 42 63c0 37 -18 55 -62 55c-41 0 -61 -17 -61 -52z" />
    <glyph glyph-name="threeeighths" unicode="&#x215c;" horiz-adv-x="925" 
d="M300 474c0 -76 -44 -123 -144 -123c-49 0 -88 13 -117 30l15 53c29 -17 62 -27 101 -27c56 0 79 27 79 70c0 41 -26 62 -111 62v49c80 0 105 21 105 60c0 33 -23 50 -70 50c-41 0 -72 -12 -101 -35l-16 51c28 24 72 41 120 41c81 0 130 -35 130 -103
c0 -45 -22 -72 -61 -87v-2c45 -12 70 -38 70 -89zM667 750h66l-464 -750h-66zM619 111c0 41 23 73 62 96c-28 19 -48 43 -48 90c0 64 37 102 125 102c87 0 123 -37 123 -102c0 -39 -19 -68 -51 -87v-2c37 -16 65 -42 65 -97c0 -77 -46 -116 -137 -116
c-97 0 -139 39 -139 116zM829 106c0 46 -46 57 -94 76c-29 -17 -50 -39 -50 -72c0 -44 19 -61 74 -61c43 0 70 14 70 57zM697 294c0 -39 38 -53 81 -66c28 19 42 36 42 63c0 37 -18 55 -62 55c-41 0 -61 -17 -61 -52z" />
    <glyph glyph-name="oneeighth" unicode="&#x215b;" horiz-adv-x="850" 
d="M188 751v-395h-68v229l3 79l-3 1l-75 -49l-7 57l109 78h41zM592 750h66l-464 -750h-66zM544 111c0 41 23 73 62 96c-28 19 -48 43 -48 90c0 64 37 102 125 102c87 0 123 -37 123 -102c0 -39 -19 -68 -51 -87v-2c37 -16 65 -42 65 -97c0 -77 -46 -116 -137 -116
c-97 0 -139 39 -139 116zM754 106c0 46 -46 57 -94 76c-29 -17 -50 -39 -50 -72c0 -44 19 -61 74 -61c43 0 70 14 70 57zM622 294c0 -39 38 -53 81 -66c28 19 42 36 42 63c0 37 -18 55 -62 55c-41 0 -61 -17 -61 -52z" />
    <glyph glyph-name="uni215A" unicode="&#x215a;" horiz-adv-x="939" 
d="M302 492c0 -92 -41 -141 -137 -141c-45 0 -84 9 -115 28l11 54c32 -16 59 -25 98 -25c56 0 77 23 77 79c0 45 -25 63 -74 63c-31 0 -60 -6 -83 -15l-27 24l17 191h213l3 -59h-164l-6 -93c21 5 42 8 63 8c80 0 124 -37 124 -114zM681 750h66l-464 -750h-66zM909 136
c0 -96 -46 -141 -133 -141c-91 0 -140 50 -140 190c0 147 56 214 164 214c33 0 60 -4 88 -15l-5 -57c-25 11 -46 13 -75 13c-68 0 -99 -32 -106 -112l2 -2c23 19 53 27 84 27c81 0 121 -37 121 -117zM842 137c0 45 -20 64 -65 64c-24 0 -57 -11 -72 -32
c1 -89 21 -117 72 -117c44 0 65 25 65 85z" />
    <glyph glyph-name="uni2159" unicode="&#x2159;" horiz-adv-x="850" 
d="M188 751v-395h-68v229l3 79l-3 1l-75 -49l-7 57l109 78h41zM592 750h66l-464 -750h-66zM820 136c0 -96 -46 -141 -133 -141c-91 0 -140 50 -140 190c0 147 56 214 164 214c33 0 60 -4 88 -15l-5 -57c-25 11 -46 13 -75 13c-68 0 -99 -32 -106 -112l2 -2
c23 19 53 27 84 27c81 0 121 -37 121 -117zM753 137c0 45 -20 64 -65 64c-24 0 -57 -11 -72 -32c1 -89 21 -117 72 -117c44 0 65 25 65 85z" />
    <glyph glyph-name="uni2158" unicode="&#x2158;" horiz-adv-x="939" 
d="M319 438h-41v-82h-63v82h-184l-5 41l169 271h83v-256h43zM216 494l2 113l3 81l-2 1l-38 -65l-38 -62l-42 -65l1 -3h114zM681 750h66l-464 -750h-66zM905 136c0 -92 -41 -141 -137 -141c-45 0 -84 9 -115 28l11 54c32 -16 59 -25 98 -25c56 0 77 23 77 79
c0 45 -25 63 -74 63c-31 0 -60 -6 -83 -15l-27 24l17 191h213l3 -59h-164l-6 -93c21 5 42 8 63 8c80 0 124 -37 124 -114z" />
    <glyph glyph-name="uni2157" unicode="&#x2157;" horiz-adv-x="925" 
d="M300 474c0 -76 -44 -123 -144 -123c-49 0 -88 13 -117 30l15 53c29 -17 62 -27 101 -27c56 0 79 27 79 70c0 41 -26 62 -111 62v49c80 0 105 21 105 60c0 33 -23 50 -70 50c-41 0 -72 -12 -101 -35l-16 51c28 24 72 41 120 41c81 0 130 -35 130 -103
c0 -45 -22 -72 -61 -87v-2c45 -12 70 -38 70 -89zM667 750h66l-464 -750h-66zM891 136c0 -92 -41 -141 -137 -141c-45 0 -84 9 -115 28l11 54c32 -16 59 -25 98 -25c56 0 77 23 77 79c0 45 -25 63 -74 63c-31 0 -60 -6 -83 -15l-27 24l17 191h213l3 -59h-164l-6 -93
c21 5 42 8 63 8c80 0 124 -37 124 -114z" />
    <glyph glyph-name="uni2156" unicode="&#x2156;" horiz-adv-x="925" 
d="M290 644c0 -77 -69 -146 -165 -226v-3h167l-2 -59h-251v45c96 96 180 171 180 237c0 33 -18 57 -69 57c-36 0 -67 -13 -95 -36l-18 56c31 23 74 40 126 40c84 0 127 -43 127 -111zM667 750h66l-464 -750h-66zM891 136c0 -92 -41 -141 -137 -141c-45 0 -84 9 -115 28
l11 54c32 -16 59 -25 98 -25c56 0 77 23 77 79c0 45 -25 63 -74 63c-31 0 -60 -6 -83 -15l-27 24l17 191h213l3 -59h-164l-6 -93c21 5 42 8 63 8c80 0 124 -37 124 -114z" />
    <glyph glyph-name="uni2155" unicode="&#x2155;" horiz-adv-x="850" 
d="M188 751v-395h-68v229l3 79l-3 1l-75 -49l-7 57l109 78h41zM592 750h66l-464 -750h-66zM816 136c0 -92 -41 -141 -137 -141c-45 0 -84 9 -115 28l11 54c32 -16 59 -25 98 -25c56 0 77 23 77 79c0 45 -25 63 -74 63c-31 0 -60 -6 -83 -15l-27 24l17 191h213l3 -59h-164
l-6 -93c21 5 42 8 63 8c80 0 124 -37 124 -114z" />
    <glyph glyph-name="twothirds" unicode="&#x2154;" horiz-adv-x="911" 
d="M290 644c0 -77 -69 -146 -165 -226v-3h167l-2 -59h-251v45c96 96 180 171 180 237c0 33 -18 57 -69 57c-36 0 -67 -13 -95 -36l-18 56c31 23 74 40 126 40c84 0 127 -43 127 -111zM667 750h66l-464 -750h-66zM889 118c0 -76 -44 -123 -144 -123c-49 0 -88 13 -117 30
l15 53c29 -17 62 -27 101 -27c56 0 79 27 79 70c0 41 -26 62 -111 62v49c80 0 105 21 105 60c0 33 -23 50 -70 50c-41 0 -72 -12 -101 -35l-16 51c28 24 72 41 120 41c81 0 130 -35 130 -103c0 -45 -22 -72 -61 -87v-2c45 -12 70 -38 70 -89z" />
    <glyph glyph-name="onethird" unicode="&#x2153;" horiz-adv-x="836" 
d="M188 751v-395h-68v229l3 79l-3 1l-75 -49l-7 57l109 78h41zM592 750h66l-464 -750h-66zM814 118c0 -76 -44 -123 -144 -123c-49 0 -88 13 -117 30l15 53c29 -17 62 -27 101 -27c56 0 79 27 79 70c0 41 -26 62 -111 62v49c80 0 105 21 105 60c0 33 -23 50 -70 50
c-41 0 -72 -12 -101 -35l-16 51c28 24 72 41 120 41c81 0 130 -35 130 -103c0 -45 -22 -72 -61 -87v-2c45 -12 70 -38 70 -89z" />
    <glyph glyph-name="uni2152" unicode="&#x2152;" horiz-adv-x="1097" 
d="M188 751v-395h-68v229l3 79l-3 1l-75 -49l-7 57l109 78h41zM592 750h66l-464 -750h-66zM702 395v-395h-68v229l3 79l-3 1l-75 -49l-7 57l109 78h41zM1069 197c0 -145 -41 -202 -140 -202s-139 57 -139 202c0 149 40 202 140 202c98 0 139 -53 139 -202zM1002 197
c0 120 -24 144 -72 144c-51 0 -74 -24 -74 -144s23 -145 74 -145c48 0 72 26 72 145z" />
    <glyph glyph-name="uni2151" unicode="&#x2151;" horiz-adv-x="850" 
d="M188 751v-395h-68v229l3 79l-3 1l-75 -49l-7 57l109 78h41zM592 750h66l-464 -750h-66zM816 214c0 -157 -52 -219 -156 -219c-41 0 -64 7 -91 18l9 55c27 -11 47 -16 78 -16c64 0 96 35 101 134l-2 1c-22 -21 -50 -31 -83 -31c-89 0 -126 46 -126 118
c0 76 42 126 130 126c96 0 140 -58 140 -186zM750 237c-1 83 -26 107 -75 107c-41 0 -65 -22 -65 -67s21 -70 70 -70c28 0 57 11 70 30z" />
    <glyph glyph-name="uni2150" unicode="&#x2150;" horiz-adv-x="850" 
d="M188 751v-395h-68v229l3 79l-3 1l-75 -49l-7 57l109 78h41zM592 750h66l-464 -750h-66zM819 394v-57l-151 -337h-78l156 331h-198l3 63h268z" />
    <glyph glyph-name="threequarters" unicode="&#xbe;" horiz-adv-x="925" 
d="M300 474c0 -76 -44 -123 -144 -123c-49 0 -88 13 -117 30l15 53c29 -17 62 -27 101 -27c56 0 79 27 79 70c0 41 -26 62 -111 62v49c80 0 105 21 105 60c0 33 -23 50 -70 50c-41 0 -72 -12 -101 -35l-16 51c28 24 72 41 120 41c81 0 130 -35 130 -103
c0 -45 -22 -72 -61 -87v-2c45 -12 70 -38 70 -89zM667 750h66l-464 -750h-66zM908 82h-41v-82h-63v82h-184l-5 41l169 271h83v-256h43zM805 138l2 113l3 81l-2 1l-38 -65l-38 -62l-42 -65l1 -3h114z" />
    <glyph glyph-name="onehalf" unicode="&#xbd;" horiz-adv-x="836" 
d="M188 751v-395h-68v229l3 79l-3 1l-75 -49l-7 57l109 78h41zM592 750h66l-464 -750h-66zM804 288c0 -77 -69 -146 -165 -226v-3h167l-2 -59h-251v45c96 96 180 171 180 237c0 33 -18 57 -69 57c-36 0 -67 -13 -95 -36l-18 56c31 23 74 40 126 40c84 0 127 -43 127 -111z
" />
    <glyph glyph-name="onequarter" unicode="&#xbc;" horiz-adv-x="850" 
d="M188 751v-395h-68v229l3 79l-3 1l-75 -49l-7 57l109 78h41zM592 750h66l-464 -750h-66zM833 82h-41v-82h-63v82h-184l-5 41l169 271h83v-256h43zM730 138l2 113l3 81l-2 1l-38 -65l-38 -62l-42 -65l1 -3h114z" />
    <glyph glyph-name="guilsinglright.case" horiz-adv-x="376" 
d="M63 186v74l180 115l-180 115v74l271 -185v-8z" />
    <glyph glyph-name="guilsinglleft.case" horiz-adv-x="376" 
d="M313 490l-180 -115l180 -115v-74l-271 185v8l271 185v-74z" />
    <glyph glyph-name="emdash.case" horiz-adv-x="659" 
d="M64 409h531v-68h-531v68z" />
    <glyph glyph-name="endash.case" horiz-adv-x="490" 
d="M64 409h362v-68h-362v68z" />
    <glyph glyph-name="guillemotright.case" horiz-adv-x="578" 
d="M267 186v74l180 115l-180 115v74l271 -185v-8zM68 186v74l180 115l-180 115v74l271 -185v-8z" />
    <glyph glyph-name="uni00AD.case" horiz-adv-x="369" 
d="M63 409h243v-68h-243v68z" />
    <glyph glyph-name="guillemotleft.case" horiz-adv-x="578" 
d="M496 490l-180 -115l180 -115v-74l-271 185v8l271 185v-74zM296 490l-180 -115l180 -115v-74l-271 185v8l271 185v-74z" />
    <glyph glyph-name="braceright.case" horiz-adv-x="346" 
d="M109 274c0 47 19 82 56 99v3c-37 17 -56 52 -56 99c0 80 14 133 14 209c0 49 -24 81 -92 81h-26v72h22c132 0 177 -54 177 -142c0 -79 -17 -144 -17 -221c0 -43 28 -73 71 -80v-39c-43 -7 -71 -37 -71 -80c0 -77 17 -142 17 -222c0 -88 -46 -141 -177 -141h-22v71h26
c68 0 92 33 92 82c0 75 -14 130 -14 209z" />
    <glyph glyph-name="braceleft.case" horiz-adv-x="345" 
d="M236 475c0 -47 -20 -82 -55 -99v-3c35 -17 55 -52 55 -99c0 -79 -13 -134 -13 -209c0 -49 24 -82 91 -82h27v-71h-22c-132 0 -178 53 -178 141c0 80 17 145 17 222c0 43 -27 73 -70 80v39c43 7 70 37 70 80c0 77 -17 142 -17 221c0 88 46 142 178 142h22v-72h-27
c-67 0 -91 -32 -91 -81c0 -76 13 -129 13 -209z" />
    <glyph glyph-name="bracketright.case" horiz-adv-x="302" 
d="M214 836v-922h-209v66h129v788h-129v68h209z" />
    <glyph glyph-name="bracketleft.case" horiz-adv-x="302" 
d="M88 -86v922h209v-68h-129v-787h129v-67h-209z" />
    <glyph glyph-name="hyphen.case" horiz-adv-x="369" 
d="M63 409h243v-68h-243v68z" />
    <glyph glyph-name="parenright.case" horiz-adv-x="307" 
d="M5 833l72 5c92 -129 143 -275 143 -464c0 -181 -54 -346 -143 -463l-72 5c81 132 130 283 130 458c0 171 -46 324 -130 459z" />
    <glyph glyph-name="parenleft.case" horiz-adv-x="308" 
d="M231 838l72 -5c-85 -135 -131 -288 -131 -459c0 -175 49 -326 130 -458l-71 -5c-91 117 -143 282 -143 463c0 189 50 335 143 464z" />
    <glyph glyph-name="fl.smcp" horiz-adv-x="979" 
d="M467 564h-297v-197h260v-81h-260v-286h-90v649h385zM668 84h289l-3 -84h-375v649h89v-565z" />
    <glyph glyph-name="fi.smcp" horiz-adv-x="774" 
d="M467 564h-297v-197h260v-81h-260v-286h-90v649h385zM590 0v649h92v-649h-92z" />
    <glyph glyph-name="longs.smcp" horiz-adv-x="482" 
d="M445 184c0 -123 -76 -195 -216 -195c-71 0 -133 16 -184 48l14 80c51 -31 105 -48 169 -48c88 0 131 41 131 110c0 146 -309 83 -309 299c0 101 65 181 208 181c61 0 120 -11 165 -34l-12 -78c-51 19 -96 30 -149 30c-92 0 -125 -43 -125 -94c0 -141 308 -76 308 -299z
" />
    <glyph glyph-name="Zcaron.c2sc" horiz-adv-x="521" 
d="M473 0h-431v61l281 436l44 65l-1 2h-314l4 85h418v-69l-277 -429l-44 -64l1 -3h321zM300 695h-77l-95 129h71l63 -95l63 95h71z" />
    <glyph glyph-name="Scaron.c2sc" horiz-adv-x="482" 
d="M445 184c0 -123 -76 -195 -216 -195c-71 0 -133 16 -184 48l14 80c51 -31 105 -48 169 -48c88 0 131 41 131 110c0 146 -309 83 -309 299c0 101 65 181 208 181c61 0 120 -11 165 -34l-12 -78c-51 19 -96 30 -149 30c-92 0 -125 -43 -125 -94c0 -141 308 -76 308 -299z
M291 695h-77l-95 129h71l63 -95l63 95h71z" />
    <glyph glyph-name="IJ.c2sc" horiz-adv-x="690" 
d="M91 0v649h92v-649h-92zM619 649v-448c0 -153 -74 -212 -188 -212c-49 0 -94 12 -123 33l7 80c27 -20 66 -32 99 -32c79 0 114 39 114 131v448h91z" />
    <glyph glyph-name="dotlessi.smcp" horiz-adv-x="275" 
d="M91 0v649h92v-649h-92z" />
    <glyph glyph-name="Ydieresis.c2sc" horiz-adv-x="568" 
d="M21 649h103l129 -278l33 -74h3l31 74l128 278h99l-215 -430v-219h-93v219zM253 765c0 -28 -14 -42 -42 -42s-42 11 -42 42c0 28 14 42 42 42s42 -14 42 -42zM404 765c0 -28 -14 -42 -42 -42c-27 0 -42 11 -42 42c0 28 14 42 42 42s42 -14 42 -42z" />
    <glyph glyph-name="Yacute.c2sc" horiz-adv-x="568" 
d="M21 649h103l129 -278l33 -74h3l31 74l128 278h99l-215 -430v-219h-93v219zM318 824h111l-124 -129h-74z" />
    <glyph glyph-name="Udieresis.c2sc" horiz-adv-x="620" 
d="M549 649v-421c0 -167 -84 -239 -239 -239c-153 0 -239 72 -239 239v421h90v-420c0 -109 48 -156 149 -156c103 0 149 48 149 156v420h90zM276 765c0 -28 -14 -42 -42 -42s-42 11 -42 42c0 28 14 42 42 42s42 -14 42 -42zM427 765c0 -28 -14 -42 -42 -42
c-27 0 -42 11 -42 42c0 28 14 42 42 42s42 -14 42 -42z" />
    <glyph glyph-name="Ucircumflex.c2sc" horiz-adv-x="620" 
d="M549 649v-421c0 -167 -84 -239 -239 -239c-153 0 -239 72 -239 239v421h90v-420c0 -109 48 -156 149 -156c103 0 149 48 149 156v420h90zM270 824h77l96 -129h-70l-64 94l-64 -94h-69z" />
    <glyph glyph-name="Uacute.c2sc" horiz-adv-x="620" 
d="M549 649v-421c0 -167 -84 -239 -239 -239c-153 0 -239 72 -239 239v421h90v-420c0 -109 48 -156 149 -156c103 0 149 48 149 156v420h90zM341 824h111l-124 -129h-74z" />
    <glyph glyph-name="Ugrave.c2sc" horiz-adv-x="620" 
d="M549 649v-421c0 -167 -84 -239 -239 -239c-153 0 -239 72 -239 239v421h90v-420c0 -109 48 -156 149 -156c103 0 149 48 149 156v420h90zM370 695h-67l-107 129h103z" />
    <glyph glyph-name="Odieresis.c2sc" horiz-adv-x="603" 
d="M561 324c0 -241 -71 -335 -259 -335c-185 0 -260 95 -260 335s74 335 260 335s259 -95 259 -335zM468 324c0 199 -45 252 -166 252s-167 -53 -167 -252c0 -198 45 -252 168 -252c120 0 165 54 165 252zM268 765c0 -28 -14 -42 -42 -42s-42 11 -42 42c0 28 14 42 42 42
s42 -14 42 -42zM419 765c0 -28 -14 -42 -42 -42c-27 0 -42 11 -42 42c0 28 14 42 42 42s42 -14 42 -42z" />
    <glyph glyph-name="Otilde.c2sc" horiz-adv-x="603" 
d="M561 324c0 -241 -71 -335 -259 -335c-185 0 -260 95 -260 335s74 335 260 335s259 -95 259 -335zM468 324c0 199 -45 252 -166 252s-167 -53 -167 -252c0 -198 45 -252 168 -252c120 0 165 54 165 252zM209 727l-42 1c5 53 34 93 79 93c56 0 76 -54 116 -54
c18 0 31 14 38 42l42 -1c-5 -53 -35 -92 -80 -92c-53 0 -78 53 -115 53c-19 0 -31 -15 -38 -42z" />
    <glyph glyph-name="Ocircumflex.c2sc" horiz-adv-x="603" 
d="M561 324c0 -241 -71 -335 -259 -335c-185 0 -260 95 -260 335s74 335 260 335s259 -95 259 -335zM468 324c0 199 -45 252 -166 252s-167 -53 -167 -252c0 -198 45 -252 168 -252c120 0 165 54 165 252zM262 824h77l96 -129h-70l-64 94l-64 -94h-69z" />
    <glyph glyph-name="Oacute.c2sc" horiz-adv-x="603" 
d="M561 324c0 -241 -71 -335 -259 -335c-185 0 -260 95 -260 335s74 335 260 335s259 -95 259 -335zM468 324c0 199 -45 252 -166 252s-167 -53 -167 -252c0 -198 45 -252 168 -252c120 0 165 54 165 252zM333 824h111l-124 -129h-74z" />
    <glyph glyph-name="Ograve.c2sc" horiz-adv-x="603" 
d="M561 324c0 -241 -71 -335 -259 -335c-185 0 -260 95 -260 335s74 335 260 335s259 -95 259 -335zM468 324c0 199 -45 252 -166 252s-167 -53 -167 -252c0 -198 45 -252 168 -252c120 0 165 54 165 252zM363 695h-67l-107 129h103z" />
    <glyph glyph-name="Ntilde.c2sc" horiz-adv-x="632" 
d="M552 0h-71l-278 441l-42 70l-2 -1l1 -81v-429h-80v649h80l313 -497l2 1l-2 80l-1 416h80v-649zM222 727l-42 1c5 53 34 93 79 93c56 0 76 -54 116 -54c18 0 31 14 38 42l42 -1c-5 -53 -35 -92 -80 -92c-53 0 -78 53 -115 53c-19 0 -31 -15 -38 -42z" />
    <glyph glyph-name="Idieresis.c2sc" horiz-adv-x="275" 
d="M91 0v649h92v-649h-92zM103 765c0 -28 -14 -42 -42 -42s-42 11 -42 42c0 28 14 42 42 42s42 -14 42 -42zM254 765c0 -28 -14 -42 -42 -42c-27 0 -42 11 -42 42c0 28 14 42 42 42s42 -14 42 -42z" />
    <glyph glyph-name="Icircumflex.c2sc" horiz-adv-x="275" 
d="M91 0v649h92v-649h-92zM97 824h77l96 -129h-70l-64 94l-64 -94h-69z" />
    <glyph glyph-name="Iacute.c2sc" horiz-adv-x="275" 
d="M91 0v649h92v-649h-92zM168 824h111l-124 -129h-74z" />
    <glyph glyph-name="Igrave.c2sc" horiz-adv-x="275" 
d="M91 0v649h92v-649h-92zM197 695h-67l-107 129h103z" />
    <glyph glyph-name="Edieresis.c2sc" horiz-adv-x="519" 
d="M169 82h313l-3 -82h-399v649h386l2 -83h-299v-191h256v-75h-256v-218zM250 765c0 -28 -14 -42 -42 -42s-42 11 -42 42c0 28 14 42 42 42s42 -14 42 -42zM401 765c0 -28 -14 -42 -42 -42c-27 0 -42 11 -42 42c0 28 14 42 42 42s42 -14 42 -42z" />
    <glyph glyph-name="Ecircumflex.c2sc" horiz-adv-x="519" 
d="M169 82h313l-3 -82h-399v649h386l2 -83h-299v-191h256v-75h-256v-218zM244 824h77l96 -129h-70l-64 94l-64 -94h-69z" />
    <glyph glyph-name="Eacute.c2sc" horiz-adv-x="519" 
d="M169 82h313l-3 -82h-399v649h386l2 -83h-299v-191h256v-75h-256v-218zM315 824h111l-124 -129h-74z" />
    <glyph glyph-name="Egrave.c2sc" horiz-adv-x="519" 
d="M169 82h313l-3 -82h-399v649h386l2 -83h-299v-191h256v-75h-256v-218zM344 695h-67l-107 129h103z" />
    <glyph glyph-name="Adieresis.c2sc" horiz-adv-x="599" 
d="M480 0l-49 154h-269l-49 -154h-95l227 649h107l229 -649h-101zM297 577l-24 -78l-86 -267h219l-84 267l-22 78h-3zM265 765c0 -28 -14 -42 -42 -42s-42 11 -42 42c0 28 14 42 42 42s42 -14 42 -42zM416 765c0 -28 -14 -42 -42 -42c-27 0 -42 11 -42 42c0 28 14 42 42 42
s42 -14 42 -42z" />
    <glyph glyph-name="Atilde.c2sc" horiz-adv-x="599" 
d="M480 0l-49 154h-269l-49 -154h-95l227 649h107l229 -649h-101zM297 577l-24 -78l-86 -267h219l-84 267l-22 78h-3zM206 727l-42 1c5 53 34 93 79 93c56 0 76 -54 116 -54c18 0 31 14 38 42l42 -1c-5 -53 -35 -92 -80 -92c-53 0 -78 53 -115 53c-19 0 -31 -15 -38 -42z
" />
    <glyph glyph-name="Acircumflex.c2sc" horiz-adv-x="599" 
d="M480 0l-49 154h-269l-49 -154h-95l227 649h107l229 -649h-101zM297 577l-24 -78l-86 -267h219l-84 267l-22 78h-3zM259 824h77l96 -129h-70l-64 94l-64 -94h-69z" />
    <glyph glyph-name="Aacute.c2sc" horiz-adv-x="599" 
d="M480 0l-49 154h-269l-49 -154h-95l227 649h107l229 -649h-101zM297 577l-24 -78l-86 -267h219l-84 267l-22 78h-3zM329 824h111l-124 -129h-74z" />
    <glyph glyph-name="Agrave.c2sc" horiz-adv-x="599" 
d="M480 0l-49 154h-269l-49 -154h-95l227 649h107l229 -649h-101zM297 577l-24 -78l-86 -267h219l-84 267l-22 78h-3zM359 695h-67l-107 129h103z" />
    <glyph glyph-name="germandbls.smcp" horiz-adv-x="964" 
d="M445 184c0 -123 -76 -195 -216 -195c-71 0 -133 16 -184 48l14 80c51 -31 105 -48 169 -48c88 0 131 41 131 110c0 146 -309 83 -309 299c0 101 65 181 208 181c61 0 120 -11 165 -34l-12 -78c-51 19 -96 30 -149 30c-92 0 -125 -43 -125 -94c0 -141 308 -76 308 -299z
M927 184c0 -123 -76 -195 -216 -195c-71 0 -133 16 -184 48l14 80c51 -31 105 -48 169 -48c88 0 131 41 131 110c0 146 -309 83 -309 299c0 101 65 181 208 181c61 0 120 -11 165 -34l-12 -78c-51 19 -96 30 -149 30c-92 0 -125 -43 -125 -94c0 -141 308 -76 308 -299z" />
    <glyph glyph-name="_418" horiz-adv-x="979" 
d="M467 564h-297v-197h260v-81h-260v-286h-90v649h385zM668 84h289l-3 -84h-375v649h89v-565z" />
    <glyph glyph-name="_419" horiz-adv-x="774" 
d="M467 564h-297v-197h260v-81h-260v-286h-90v649h385zM590 0v649h92v-649h-92z" />
    <glyph glyph-name="uni2007.onum" horiz-adv-x="544" 
 />
    <glyph glyph-name="space.frac" horiz-adv-x="54" 
 />
    <glyph glyph-name="minus.numr" horiz-adv-x="338" 
d="M296 533h-253v57h253v-57z" />
    <glyph glyph-name="cent.numr" horiz-adv-x="290" 
d="M266 724l-4 -55c-21 9 -43 13 -67 13c-71 0 -95 -32 -95 -123c0 -99 31 -132 94 -132c26 0 49 6 70 17l5 -50c-19 -14 -43 -22 -71 -25l-3 -77h-53l4 79c-77 12 -116 71 -116 188c0 113 37 173 129 182l5 75h53l-6 -76c20 -3 39 -9 55 -16z" />
    <glyph glyph-name="equal.numr" horiz-adv-x="338" 
d="M295 590h-251v51h251v-51zM295 478h-251v50h251v-50z" />
    <glyph glyph-name="nine.numr" horiz-adv-x="336" 
d="M302 570c0 -157 -52 -219 -156 -219c-41 0 -64 7 -91 18l9 55c27 -11 47 -16 78 -16c64 0 96 35 101 134l-2 1c-22 -21 -50 -31 -83 -31c-89 0 -126 46 -126 118c0 76 42 126 130 126c96 0 140 -58 140 -186zM236 593c-1 83 -26 107 -75 107c-41 0 -65 -22 -65 -67
s21 -70 70 -70c28 0 57 11 70 30z" />
    <glyph glyph-name="eight.numr" horiz-adv-x="336" 
d="M30 467c0 41 23 73 62 96c-28 19 -48 43 -48 90c0 64 37 102 125 102c87 0 123 -37 123 -102c0 -39 -19 -68 -51 -87v-2c37 -16 65 -42 65 -97c0 -77 -46 -116 -137 -116c-97 0 -139 39 -139 116zM240 462c0 46 -46 57 -94 76c-29 -17 -50 -39 -50 -72
c0 -44 19 -61 74 -61c43 0 70 14 70 57zM108 650c0 -39 38 -53 81 -66c28 19 42 36 42 63c0 37 -18 55 -62 55c-41 0 -61 -17 -61 -52z" />
    <glyph glyph-name="seven.numr" horiz-adv-x="336" 
d="M305 750v-57l-151 -337h-78l156 331h-198l3 63h268z" />
    <glyph glyph-name="six.numr" horiz-adv-x="336" 
d="M306 492c0 -96 -46 -141 -133 -141c-91 0 -140 50 -140 190c0 147 56 214 164 214c33 0 60 -4 88 -15l-5 -57c-25 11 -46 13 -75 13c-68 0 -99 -32 -106 -112l2 -2c23 19 53 27 84 27c81 0 121 -37 121 -117zM239 493c0 45 -20 64 -65 64c-24 0 -57 -11 -72 -32
c1 -89 21 -117 72 -117c44 0 65 25 65 85z" />
    <glyph glyph-name="five.numr" horiz-adv-x="336" 
d="M302 492c0 -92 -41 -141 -137 -141c-45 0 -84 9 -115 28l11 54c32 -16 59 -25 98 -25c56 0 77 23 77 79c0 45 -25 63 -74 63c-31 0 -60 -6 -83 -15l-27 24l17 191h213l3 -59h-164l-6 -93c21 5 42 8 63 8c80 0 124 -37 124 -114z" />
    <glyph glyph-name="four.numr" horiz-adv-x="336" 
d="M319 438h-41v-82h-63v82h-184l-5 41l169 271h83v-256h43zM216 494l2 113l3 81l-2 1l-38 -65l-38 -62l-42 -65l1 -3h114z" />
    <glyph glyph-name="three.numr" horiz-adv-x="322" 
d="M300 474c0 -76 -44 -123 -144 -123c-49 0 -88 13 -117 30l15 53c29 -17 62 -27 101 -27c56 0 79 27 79 70c0 41 -26 62 -111 62v49c80 0 105 21 105 60c0 33 -23 50 -70 50c-41 0 -72 -12 -101 -35l-16 51c28 24 72 41 120 41c81 0 130 -35 130 -103
c0 -45 -22 -72 -61 -87v-2c45 -12 70 -38 70 -89z" />
    <glyph glyph-name="two.numr" horiz-adv-x="322" 
d="M290 644c0 -77 -69 -146 -165 -226v-3h167l-2 -59h-251v45c96 96 180 171 180 237c0 33 -18 57 -69 57c-36 0 -67 -13 -95 -36l-18 56c31 23 74 40 126 40c84 0 127 -43 127 -111z" />
    <glyph glyph-name="one.numr" horiz-adv-x="247" 
d="M188 751v-395h-68v229l3 79l-3 1l-75 -49l-7 57l109 78h41z" />
    <glyph glyph-name="zero.numr" horiz-adv-x="336" 
d="M308 553c0 -145 -41 -202 -140 -202s-139 57 -139 202c0 149 40 202 140 202c98 0 139 -53 139 -202zM241 553c0 120 -24 144 -72 144c-51 0 -74 -24 -74 -144s23 -145 74 -145c48 0 72 26 72 145z" />
    <glyph glyph-name="period.numr" horiz-adv-x="146" 
d="M114 385c0 -25 -14 -38 -41 -38s-41 13 -41 38c0 27 14 40 41 40s41 -13 41 -40z" />
    <glyph glyph-name="comma.numr" horiz-adv-x="146" 
d="M72 423c27 0 41 -14 41 -43c0 -25 -25 -78 -46 -107l-24 5l16 69c-13 5 -27 17 -27 36c0 24 12 40 40 40z" />
    <glyph glyph-name="plus.numr" horiz-adv-x="338" 
d="M300 529h-105v-106h-54v106h-103v58h103v107h54v-107h105v-58z" />
    <glyph glyph-name="parenright.numr" horiz-adv-x="193" 
d="M9 778l49 4c52 -67 79 -144 79 -244c0 -96 -28 -182 -79 -243l-49 4c41 69 65 147 65 239c0 89 -22 169 -65 240z" />
    <glyph glyph-name="parenleft.numr" horiz-adv-x="193" 
d="M136 782l47 -4c-43 -71 -65 -149 -65 -240c0 -92 24 -170 65 -239l-47 -4c-51 61 -80 147 -80 243c0 100 27 177 80 244z" />
    <glyph glyph-name="dollar.numr" horiz-adv-x="290" 
d="M148 816h52l-5 -75c26 -3 49 -8 70 -17l-8 -56c-31 11 -54 16 -85 16c-51 0 -66 -20 -66 -45c0 -69 172 -35 172 -162c0 -61 -34 -102 -98 -111l-3 -74h-52l4 73c-35 3 -64 12 -88 27l9 57c31 -19 60 -28 97 -28c45 0 68 17 68 52c0 71 -172 40 -172 163
c0 55 31 97 100 105z" />
    <glyph glyph-name="dotmath" unicode="&#x22c5;" horiz-adv-x="544" 
d="M330 346c0 -37 -19 -59 -58 -59c-40 0 -59 16 -59 59c0 39 20 58 59 58s58 -19 58 -58z" />
    <glyph glyph-name="uni2219" unicode="&#x2219;" horiz-adv-x="544" 
d="M143 325c0 87 43 131 129 131s129 -44 129 -131c0 -89 -43 -133 -129 -133s-129 44 -129 133z" />
    <glyph glyph-name="uni208E" unicode="&#x208e;" horiz-adv-x="193" 
d="M9 278l49 4c52 -67 79 -144 79 -244c0 -96 -28 -182 -79 -243l-49 4c41 69 65 147 65 239c0 89 -22 169 -65 240z" />
    <glyph glyph-name="uni208D" unicode="&#x208d;" horiz-adv-x="193" 
d="M136 282l47 -4c-43 -71 -65 -149 -65 -240c0 -92 24 -170 65 -239l-47 -4c-51 61 -80 147 -80 243c0 100 27 177 80 244z" />
    <glyph glyph-name="uni208C" unicode="&#x208c;" horiz-adv-x="338" 
d="M295 90h-251v51h251v-51zM295 -22h-251v50h251v-50z" />
    <glyph glyph-name="uni208B" unicode="&#x208b;" horiz-adv-x="338" 
d="M296 33h-253v57h253v-57z" />
    <glyph glyph-name="uni208A" unicode="&#x208a;" horiz-adv-x="338" 
d="M300 29h-105v-106h-54v106h-103v58h103v107h54v-107h105v-58z" />
    <glyph glyph-name="uni2089" unicode="&#x2089;" horiz-adv-x="336" 
d="M302 70c0 -157 -52 -219 -156 -219c-41 0 -64 7 -91 18l9 55c27 -11 47 -16 78 -16c64 0 96 35 101 134l-2 1c-22 -21 -50 -31 -83 -31c-89 0 -126 46 -126 118c0 76 42 126 130 126c96 0 140 -58 140 -186zM236 93c-1 83 -26 107 -75 107c-41 0 -65 -22 -65 -67
s21 -70 70 -70c28 0 57 11 70 30z" />
    <glyph glyph-name="uni2088" unicode="&#x2088;" horiz-adv-x="336" 
d="M30 -33c0 41 23 73 62 96c-28 19 -48 43 -48 90c0 64 37 102 125 102c87 0 123 -37 123 -102c0 -39 -19 -68 -51 -87v-2c37 -16 65 -42 65 -97c0 -77 -46 -116 -137 -116c-97 0 -139 39 -139 116zM240 -38c0 46 -46 57 -94 76c-29 -17 -50 -39 -50 -72
c0 -44 19 -61 74 -61c43 0 70 14 70 57zM108 150c0 -39 38 -53 81 -66c28 19 42 36 42 63c0 37 -18 55 -62 55c-41 0 -61 -17 -61 -52z" />
    <glyph glyph-name="uni2087" unicode="&#x2087;" horiz-adv-x="336" 
d="M305 250v-57l-151 -337h-78l156 331h-198l3 63h268z" />
    <glyph glyph-name="uni2086" unicode="&#x2086;" horiz-adv-x="336" 
d="M306 -8c0 -96 -46 -141 -133 -141c-91 0 -140 50 -140 190c0 147 56 214 164 214c33 0 60 -4 88 -15l-5 -57c-25 11 -46 13 -75 13c-68 0 -99 -32 -106 -112l2 -2c23 19 53 27 84 27c81 0 121 -37 121 -117zM239 -7c0 45 -20 64 -65 64c-24 0 -57 -11 -72 -32
c1 -89 21 -117 72 -117c44 0 65 25 65 85z" />
    <glyph glyph-name="uni2085" unicode="&#x2085;" horiz-adv-x="336" 
d="M302 -8c0 -92 -41 -141 -137 -141c-45 0 -84 9 -115 28l11 54c32 -16 59 -25 98 -25c56 0 77 23 77 79c0 45 -25 63 -74 63c-31 0 -60 -6 -83 -15l-27 24l17 191h213l3 -59h-164l-6 -93c21 5 42 8 63 8c80 0 124 -37 124 -114z" />
    <glyph glyph-name="uni2084" unicode="&#x2084;" horiz-adv-x="336" 
d="M319 -62h-41v-82h-63v82h-184l-5 41l169 271h83v-256h43zM216 -6l2 113l3 81l-2 1l-38 -65l-38 -62l-42 -65l1 -3h114z" />
    <glyph glyph-name="uni2083" unicode="&#x2083;" horiz-adv-x="322" 
d="M300 -26c0 -76 -44 -123 -144 -123c-49 0 -88 13 -117 30l15 53c29 -17 62 -27 101 -27c56 0 79 27 79 70c0 41 -26 62 -111 62v49c80 0 105 21 105 60c0 33 -23 50 -70 50c-41 0 -72 -12 -101 -35l-16 51c28 24 72 41 120 41c81 0 130 -35 130 -103
c0 -45 -22 -72 -61 -87v-2c45 -12 70 -38 70 -89z" />
    <glyph glyph-name="uni2082" unicode="&#x2082;" horiz-adv-x="322" 
d="M290 144c0 -77 -69 -146 -165 -226v-3h167l-2 -59h-251v45c96 96 180 171 180 237c0 33 -18 57 -69 57c-36 0 -67 -13 -95 -36l-18 56c31 23 74 40 126 40c84 0 127 -43 127 -111z" />
    <glyph glyph-name="uni2081" unicode="&#x2081;" horiz-adv-x="247" 
d="M188 251v-395h-68v229l3 79l-3 1l-75 -49l-7 57l109 78h41z" />
    <glyph glyph-name="uni2080" unicode="&#x2080;" horiz-adv-x="336" 
d="M308 53c0 -145 -41 -202 -140 -202s-139 57 -139 202c0 149 40 202 140 202c98 0 139 -53 139 -202zM241 53c0 120 -24 144 -72 144c-51 0 -74 -24 -74 -144s23 -145 74 -145c48 0 72 26 72 145z" />
    <glyph glyph-name="uni207E" unicode="&#x207e;" horiz-adv-x="193" 
d="M9 917l49 4c52 -67 79 -144 79 -244c0 -96 -28 -182 -79 -243l-49 4c41 69 65 147 65 239c0 89 -22 169 -65 240z" />
    <glyph glyph-name="uni207D" unicode="&#x207d;" horiz-adv-x="193" 
d="M136 921l47 -4c-43 -71 -65 -149 -65 -240c0 -92 24 -170 65 -239l-47 -4c-51 61 -80 147 -80 243c0 100 27 177 80 244z" />
    <glyph glyph-name="uni207C" unicode="&#x207c;" horiz-adv-x="338" 
d="M295 729h-251v51h251v-51zM295 617h-251v50h251v-50z" />
    <glyph glyph-name="uni207B" unicode="&#x207b;" horiz-adv-x="338" 
d="M296 672h-253v57h253v-57z" />
    <glyph glyph-name="uni207A" unicode="&#x207a;" horiz-adv-x="338" 
d="M300 668h-105v-106h-54v106h-103v58h103v107h54v-107h105v-58z" />
    <glyph glyph-name="uni2079" unicode="&#x2079;" horiz-adv-x="336" 
d="M302 709c0 -157 -52 -219 -156 -219c-41 0 -64 7 -91 18l9 55c27 -11 47 -16 78 -16c64 0 96 35 101 134l-2 1c-22 -21 -50 -31 -83 -31c-89 0 -126 46 -126 118c0 76 42 126 130 126c96 0 140 -58 140 -186zM236 732c-1 83 -26 107 -75 107c-41 0 -65 -22 -65 -67
s21 -70 70 -70c28 0 57 11 70 30z" />
    <glyph glyph-name="uni2078" unicode="&#x2078;" horiz-adv-x="336" 
d="M30 606c0 41 23 73 62 96c-28 19 -48 43 -48 90c0 64 37 102 125 102c87 0 123 -37 123 -102c0 -39 -19 -68 -51 -87v-2c37 -16 65 -42 65 -97c0 -77 -46 -116 -137 -116c-97 0 -139 39 -139 116zM240 601c0 46 -46 57 -94 76c-29 -17 -50 -39 -50 -72
c0 -44 19 -61 74 -61c43 0 70 14 70 57zM108 789c0 -39 38 -53 81 -66c28 19 42 36 42 63c0 37 -18 55 -62 55c-41 0 -61 -17 -61 -52z" />
    <glyph glyph-name="uni2077" unicode="&#x2077;" horiz-adv-x="336" 
d="M305 889v-57l-151 -337h-78l156 331h-198l3 63h268z" />
    <glyph glyph-name="uni2076" unicode="&#x2076;" horiz-adv-x="336" 
d="M306 631c0 -96 -46 -141 -133 -141c-91 0 -140 50 -140 190c0 147 56 214 164 214c33 0 60 -4 88 -15l-5 -57c-25 11 -46 13 -75 13c-68 0 -99 -32 -106 -112l2 -2c23 19 53 27 84 27c81 0 121 -37 121 -117zM239 632c0 45 -20 64 -65 64c-24 0 -57 -11 -72 -32
c1 -89 21 -117 72 -117c44 0 65 25 65 85z" />
    <glyph glyph-name="uni2075" unicode="&#x2075;" horiz-adv-x="336" 
d="M302 631c0 -92 -41 -141 -137 -141c-45 0 -84 9 -115 28l11 54c32 -16 59 -25 98 -25c56 0 77 23 77 79c0 45 -25 63 -74 63c-31 0 -60 -6 -83 -15l-27 24l17 191h213l3 -59h-164l-6 -93c21 5 42 8 63 8c80 0 124 -37 124 -114z" />
    <glyph glyph-name="uni2074" unicode="&#x2074;" horiz-adv-x="336" 
d="M319 577h-41v-82h-63v82h-184l-5 41l169 271h83v-256h43zM216 633l2 113l3 81l-2 1l-38 -65l-38 -62l-42 -65l1 -3h114z" />
    <glyph glyph-name="uni2070" unicode="&#x2070;" horiz-adv-x="336" 
d="M308 692c0 -145 -41 -202 -140 -202s-139 57 -139 202c0 149 40 202 140 202c98 0 139 -53 139 -202zM241 692c0 120 -24 144 -72 144c-51 0 -74 -24 -74 -144s23 -145 74 -145c48 0 72 26 72 145z" />
    <glyph glyph-name="uni200B" unicode="&#x200b;" horiz-adv-x="0" 
 />
    <glyph glyph-name="uni2008" unicode="&#x2008;" horiz-adv-x="233" 
 />
    <glyph glyph-name="uni2007" unicode="&#x2007;" horiz-adv-x="590" 
 />
    <glyph glyph-name="uni03BC" unicode="&#x3bc;" horiz-adv-x="563" 
d="M292 -10c-57 0 -111 23 -139 78l-2 -1c3 -73 6 -143 11 -210l-86 -8v749h88v-410c0 -75 53 -117 126 -117c68 0 117 34 117 105v422h88v-596l-62 -6l-13 52h-3c-24 -37 -69 -58 -125 -58z" />
    <glyph glyph-name="uni03A9" unicode="&#x3a9;" horiz-adv-x="669" 
d="M334 761c176 0 273 -95 273 -326c0 -137 -54 -262 -162 -350v-3h168v-82h-244v119c84 80 140 183 140 312c0 175 -55 241 -175 241s-174 -66 -174 -241c0 -129 56 -232 140 -312v-119h-244v82h168l1 3c-111 88 -164 210 -164 350c0 227 98 326 273 326z" />
    <glyph glyph-name="uni0394" unicode="&#x394;" horiz-adv-x="680" 
d="M372 754l266 -754h-597l267 754h64zM338 636l-25 -78l-163 -476h376l-161 476l-24 78h-3z" />
    <glyph glyph-name="uni02BC" unicode="&#x2bc;" horiz-adv-x="216" 
d="M108 792c40 0 58 -24 58 -63c0 -37 -38 -132 -69 -182l-32 8l25 122c-21 7 -39 28 -39 55c0 35 16 60 57 60z" />
    <glyph glyph-name="uni02BB" unicode="&#x2bb;" horiz-adv-x="216" 
d="M109 577c-40 0 -58 24 -58 63c0 37 38 132 69 182l32 -8l-25 -122c21 -7 39 -28 39 -55c0 -35 -16 -60 -57 -60z" />
    <glyph glyph-name="zcaron" unicode="&#x17e;" horiz-adv-x="487" 
d="M433 532l-238 -386l-43 -65l1 -3h285l-3 -78h-382v65l239 386l44 66l-2 2h-271l4 79h366v-66zM288 665h-77l-95 140h69l65 -103l64 103h70z" />
    <glyph glyph-name="Zcaron" unicode="&#x17d;" horiz-adv-x="554" 
d="M504 0h-462v66l311 524l43 67l-2 2h-342l3 91h451v-74l-307 -516l-42 -66l1 -3h349zM327 797h-94l-103 113h83l68 -74l68 74h83z" />
    <glyph glyph-name="Ydieresis" unicode="&#x178;" horiz-adv-x="603" 
d="M20 750h108l145 -331l31 -74h3l30 74l142 331h105l-232 -497v-253h-97v253zM259 846c0 -29 -14 -44 -43 -44s-43 12 -43 44c0 30 14 45 43 45s43 -15 43 -45zM434 846c0 -29 -14 -44 -43 -44c-28 0 -43 12 -43 44c0 30 14 45 43 45s43 -15 43 -45z" />
    <glyph glyph-name="scaron" unicode="&#x161;" horiz-adv-x="446" 
d="M406 173c0 -116 -57 -185 -192 -185c-64 0 -121 15 -164 46l11 79c40 -31 100 -47 152 -47c79 0 112 39 112 99c0 139 -275 78 -275 277c0 100 65 165 190 165c53 0 101 -11 145 -32l-8 -77c-44 20 -94 31 -137 31c-67 0 -106 -31 -106 -82c0 -129 272 -67 272 -274z
M271 665h-77l-95 140h69l65 -103l64 103h70z" />
    <glyph glyph-name="Scaron" unicode="&#x160;" horiz-adv-x="513" 
d="M476 211c0 -143 -82 -224 -233 -224c-79 0 -145 21 -198 54l15 87c55 -33 112 -53 181 -53c96 0 144 46 144 130c0 172 -334 107 -334 351c0 118 70 206 225 206c67 0 129 -14 177 -38l-13 -85c-52 21 -102 33 -158 33c-102 0 -140 -48 -140 -112
c0 -164 334 -98 334 -349zM325 797h-94l-103 113h83l68 -74l68 74h83z" />
    <glyph glyph-name="ij" unicode="&#x133;" horiz-adv-x="569" 
d="M187 0h-89v594l89 6v-600zM200 746c0 -33 -19 -49 -57 -49c-39 0 -57 13 -57 49c0 33 19 50 57 50s57 -17 57 -50zM471 600v-610c0 -109 -57 -144 -133 -144c-23 0 -46 4 -65 12l6 66c13 -5 25 -8 38 -8c40 0 66 21 66 76v603zM483 748c0 -33 -19 -50 -57 -50
c-39 0 -57 14 -57 50c0 33 19 50 57 50s57 -17 57 -50z" />
    <glyph glyph-name="IJ" unicode="&#x132;" horiz-adv-x="786" 
d="M99 0v750h97v-750h-97zM699 750v-513c0 -175 -88 -250 -236 -250c-59 0 -104 14 -137 37l8 86c28 -21 67 -34 115 -34c99 0 153 50 153 163v511h97z" />
    <glyph glyph-name="ydieresis" unicode="&#xff;" horiz-adv-x="576" 
d="M167 -86c43 0 72 17 95 74l3 11l-234 599h101l150 -434l25 -77h3l20 78l121 433h95l-194 -604c-36 -113 -94 -150 -170 -150c-31 0 -60 6 -84 18l9 67c20 -10 40 -15 60 -15zM257 749c0 -31 -15 -47 -44 -47c-28 0 -43 12 -43 47c0 31 14 47 43 47s44 -16 44 -47z
M407 749c0 -31 -15 -47 -44 -47s-43 12 -43 47c0 31 14 47 43 47s44 -16 44 -47z" />
    <glyph glyph-name="yacute" unicode="&#xfd;" horiz-adv-x="576" 
d="M167 -86c43 0 72 17 95 74l3 11l-234 599h101l150 -434l25 -77h3l20 78l121 433h95l-194 -604c-36 -113 -94 -150 -170 -150c-31 0 -60 6 -84 18l9 67c20 -10 40 -15 60 -15zM297 805h106l-104 -140h-68z" />
    <glyph glyph-name="udieresis" unicode="&#xfc;" horiz-adv-x="555" 
d="M487 598v-410c0 -129 -67 -199 -210 -199c-141 0 -210 71 -210 199v410h88v-409c0 -78 41 -117 122 -117c82 0 123 39 123 117v409h87zM246 749c0 -31 -15 -47 -44 -47c-28 0 -43 12 -43 47c0 31 14 47 43 47s44 -16 44 -47zM396 749c0 -31 -15 -47 -44 -47
s-43 12 -43 47c0 31 14 47 43 47s44 -16 44 -47z" />
    <glyph glyph-name="ucircumflex" unicode="&#xfb;" horiz-adv-x="555" 
d="M487 598v-410c0 -129 -67 -199 -210 -199c-141 0 -210 71 -210 199v410h88v-409c0 -78 41 -117 122 -117c82 0 123 39 123 117v409h87zM239 805h77l97 -140h-69l-66 100l-65 -100h-68z" />
    <glyph glyph-name="uacute" unicode="&#xfa;" horiz-adv-x="555" 
d="M487 598v-410c0 -129 -67 -199 -210 -199c-141 0 -210 71 -210 199v410h88v-409c0 -78 41 -117 122 -117c82 0 123 39 123 117v409h87zM289 805h106l-104 -140h-68z" />
    <glyph glyph-name="ugrave" unicode="&#xf9;" horiz-adv-x="555" 
d="M487 598v-410c0 -129 -67 -199 -210 -199c-141 0 -210 71 -210 199v410h88v-409c0 -78 41 -117 122 -117c82 0 123 39 123 117v409h87zM329 665h-69l-99 140h106z" />
    <glyph glyph-name="odieresis" unicode="&#xf6;" horiz-adv-x="557" 
d="M512 297c0 -229 -70 -310 -232 -310s-235 81 -235 310c0 228 74 310 235 310c162 0 232 -82 232 -310zM136 297c0 -180 40 -233 144 -233c102 0 141 55 141 233s-39 233 -141 233c-104 0 -144 -55 -144 -233zM247 749c0 -31 -15 -47 -44 -47c-28 0 -43 12 -43 47
c0 31 14 47 43 47s44 -16 44 -47zM397 749c0 -31 -15 -47 -44 -47s-43 12 -43 47c0 31 14 47 43 47s44 -16 44 -47z" />
    <glyph glyph-name="otilde" unicode="&#xf5;" horiz-adv-x="557" 
d="M512 297c0 -229 -70 -310 -232 -310s-235 81 -235 310c0 228 74 310 235 310c162 0 232 -82 232 -310zM136 297c0 -180 40 -233 144 -233c102 0 141 55 141 233s-39 233 -141 233c-104 0 -144 -55 -144 -233zM184 685l-42 1c5 68 33 114 80 114c57 0 81 -66 120 -66
c19 0 32 18 38 55l43 -1c-5 -68 -36 -113 -81 -113c-56 0 -79 65 -119 65c-19 0 -32 -22 -39 -55z" />
    <glyph glyph-name="ocircumflex" unicode="&#xf4;" horiz-adv-x="557" 
d="M512 297c0 -229 -70 -310 -232 -310s-235 81 -235 310c0 228 74 310 235 310c162 0 232 -82 232 -310zM136 297c0 -180 40 -233 144 -233c102 0 141 55 141 233s-39 233 -141 233c-104 0 -144 -55 -144 -233zM240 805h77l97 -140h-69l-66 100l-65 -100h-68z" />
    <glyph glyph-name="oacute" unicode="&#xf3;" horiz-adv-x="557" 
d="M512 297c0 -229 -70 -310 -232 -310s-235 81 -235 310c0 228 74 310 235 310c162 0 232 -82 232 -310zM136 297c0 -180 40 -233 144 -233c102 0 141 55 141 233s-39 233 -141 233c-104 0 -144 -55 -144 -233zM289 805h106l-104 -140h-68z" />
    <glyph glyph-name="ograve" unicode="&#xf2;" horiz-adv-x="557" 
d="M512 297c0 -229 -70 -310 -232 -310s-235 81 -235 310c0 228 74 310 235 310c162 0 232 -82 232 -310zM136 297c0 -180 40 -233 144 -233c102 0 141 55 141 233s-39 233 -141 233c-104 0 -144 -55 -144 -233zM330 665h-69l-99 140h106z" />
    <glyph glyph-name="ntilde" unicode="&#xf1;" horiz-adv-x="563" 
d="M495 0h-87v408c0 83 -43 117 -120 117c-47 0 -100 -24 -124 -65v-460h-88v596l63 5l14 -60h3c36 43 95 67 156 67c113 0 183 -65 183 -200v-408zM189 685l-42 1c5 68 33 114 80 114c57 0 81 -66 120 -66c19 0 32 18 38 55l43 -1c-5 -68 -36 -113 -81 -113
c-56 0 -79 65 -119 65c-19 0 -32 -22 -39 -55z" />
    <glyph glyph-name="idieresis" unicode="&#xef;" horiz-adv-x="285" 
d="M187 0h-89v594l89 6v-600zM116 749c0 -31 -15 -47 -44 -47c-28 0 -43 12 -43 47c0 31 14 47 43 47s44 -16 44 -47zM266 749c0 -31 -15 -47 -44 -47s-43 12 -43 47c0 31 14 47 43 47s44 -16 44 -47z" />
    <glyph glyph-name="icircumflex" unicode="&#xee;" horiz-adv-x="285" 
d="M187 0h-89v594l89 6v-600zM104 805h77l97 -140h-69l-66 100l-65 -100h-68z" />
    <glyph glyph-name="iacute" unicode="&#xed;" horiz-adv-x="285" 
d="M187 0h-89v594l89 6v-600zM153 805h106l-104 -140h-68z" />
    <glyph glyph-name="igrave" unicode="&#xec;" horiz-adv-x="285" 
d="M187 0h-89v594l89 6v-600zM194 665h-69l-99 140h106z" />
    <glyph glyph-name="edieresis" unicode="&#xeb;" horiz-adv-x="525" 
d="M297 -11c-178 0 -252 96 -252 326c0 195 74 292 223 292c131 0 214 -79 214 -274c0 -15 0 -33 -3 -46h-343c3 -166 55 -217 171 -217c56 0 101 13 146 36l10 -76c-45 -27 -99 -41 -166 -41zM134 350h266c0 132 -55 179 -131 179c-92 0 -130 -54 -135 -179zM230 749
c0 -31 -15 -47 -44 -47c-28 0 -43 12 -43 47c0 31 14 47 43 47s44 -16 44 -47zM380 749c0 -31 -15 -47 -44 -47s-43 12 -43 47c0 31 14 47 43 47s44 -16 44 -47z" />
    <glyph glyph-name="ecircumflex" unicode="&#xea;" horiz-adv-x="525" 
d="M297 -11c-178 0 -252 96 -252 326c0 195 74 292 223 292c131 0 214 -79 214 -274c0 -15 0 -33 -3 -46h-343c3 -166 55 -217 171 -217c56 0 101 13 146 36l10 -76c-45 -27 -99 -41 -166 -41zM134 350h266c0 132 -55 179 -131 179c-92 0 -130 -54 -135 -179zM229 805h77
l97 -140h-69l-66 100l-65 -100h-68z" />
    <glyph glyph-name="eacute" unicode="&#xe9;" horiz-adv-x="525" 
d="M297 -11c-178 0 -252 96 -252 326c0 195 74 292 223 292c131 0 214 -79 214 -274c0 -15 0 -33 -3 -46h-343c3 -166 55 -217 171 -217c56 0 101 13 146 36l10 -76c-45 -27 -99 -41 -166 -41zM134 350h266c0 132 -55 179 -131 179c-92 0 -130 -54 -135 -179zM278 805h106
l-104 -140h-68z" />
    <glyph glyph-name="egrave" unicode="&#xe8;" horiz-adv-x="525" 
d="M297 -11c-178 0 -252 96 -252 326c0 195 74 292 223 292c131 0 214 -79 214 -274c0 -15 0 -33 -3 -46h-343c3 -166 55 -217 171 -217c56 0 101 13 146 36l10 -76c-45 -27 -99 -41 -166 -41zM134 350h266c0 132 -55 179 -131 179c-92 0 -130 -54 -135 -179zM319 665h-69
l-99 140h106z" />
    <glyph glyph-name="aring" unicode="&#xe5;" horiz-adv-x="522" 
d="M387 0l-8 71l-3 1c-32 -51 -89 -80 -158 -80c-100 0 -168 57 -168 190c0 116 67 181 196 181c45 0 88 -9 121 -22v64c0 95 -37 125 -125 125c-56 0 -103 -11 -151 -35l-8 76c51 25 109 38 174 38c141 0 197 -61 197 -217v-392h-67zM367 166v110c-13 9 -52 21 -105 21
c-89 0 -128 -39 -128 -114c0 -86 45 -116 108 -116c66 0 125 48 125 99zM166 745c0 45 31 77 95 77c61 0 95 -32 95 -77c0 -49 -34 -77 -95 -77c-60 0 -95 26 -95 77zM212 745c0 -23 15 -39 50 -39c32 0 50 15 50 39c0 23 -17 38 -50 38c-35 0 -50 -15 -50 -38z" />
    <glyph glyph-name="adieresis" unicode="&#xe4;" horiz-adv-x="522" 
d="M387 0l-8 71l-3 1c-32 -51 -89 -80 -158 -80c-100 0 -168 57 -168 190c0 116 67 181 196 181c45 0 88 -9 121 -22v64c0 95 -37 125 -125 125c-56 0 -103 -11 -151 -35l-8 76c51 25 109 38 174 38c141 0 197 -61 197 -217v-392h-67zM367 166v110c-13 9 -52 21 -105 21
c-89 0 -128 -39 -128 -114c0 -86 45 -116 108 -116c66 0 125 48 125 99zM232 749c0 -31 -15 -47 -44 -47c-28 0 -43 12 -43 47c0 31 14 47 43 47s44 -16 44 -47zM382 749c0 -31 -15 -47 -44 -47s-43 12 -43 47c0 31 14 47 43 47s44 -16 44 -47z" />
    <glyph glyph-name="atilde" unicode="&#xe3;" horiz-adv-x="522" 
d="M387 0l-8 71l-3 1c-32 -51 -89 -80 -158 -80c-100 0 -168 57 -168 190c0 116 67 181 196 181c45 0 88 -9 121 -22v64c0 95 -37 125 -125 125c-56 0 -103 -11 -151 -35l-8 76c51 25 109 38 174 38c141 0 197 -61 197 -217v-392h-67zM367 166v110c-13 9 -52 21 -105 21
c-89 0 -128 -39 -128 -114c0 -86 45 -116 108 -116c66 0 125 48 125 99zM162 685l-42 1c5 68 33 114 80 114c57 0 81 -66 120 -66c19 0 32 18 38 55l43 -1c-5 -68 -36 -113 -81 -113c-56 0 -79 65 -119 65c-19 0 -32 -22 -39 -55z" />
    <glyph glyph-name="acircumflex" unicode="&#xe2;" horiz-adv-x="522" 
d="M387 0l-8 71l-3 1c-32 -51 -89 -80 -158 -80c-100 0 -168 57 -168 190c0 116 67 181 196 181c45 0 88 -9 121 -22v64c0 95 -37 125 -125 125c-56 0 -103 -11 -151 -35l-8 76c51 25 109 38 174 38c141 0 197 -61 197 -217v-392h-67zM367 166v110c-13 9 -52 21 -105 21
c-89 0 -128 -39 -128 -114c0 -86 45 -116 108 -116c66 0 125 48 125 99zM219 805h77l97 -140h-69l-66 100l-65 -100h-68z" />
    <glyph glyph-name="aacute" unicode="&#xe1;" horiz-adv-x="522" 
d="M387 0l-8 71l-3 1c-32 -51 -89 -80 -158 -80c-100 0 -168 57 -168 190c0 116 67 181 196 181c45 0 88 -9 121 -22v64c0 95 -37 125 -125 125c-56 0 -103 -11 -151 -35l-8 76c51 25 109 38 174 38c141 0 197 -61 197 -217v-392h-67zM367 166v110c-13 9 -52 21 -105 21
c-89 0 -128 -39 -128 -114c0 -86 45 -116 108 -116c66 0 125 48 125 99zM268 805h106l-104 -140h-68z" />
    <glyph glyph-name="agrave" unicode="&#xe0;" horiz-adv-x="522" 
d="M387 0l-8 71l-3 1c-32 -51 -89 -80 -158 -80c-100 0 -168 57 -168 190c0 116 67 181 196 181c45 0 88 -9 121 -22v64c0 95 -37 125 -125 125c-56 0 -103 -11 -151 -35l-8 76c51 25 109 38 174 38c141 0 197 -61 197 -217v-392h-67zM367 166v110c-13 9 -52 21 -105 21
c-89 0 -128 -39 -128 -114c0 -86 45 -116 108 -116c66 0 125 48 125 99zM308 665h-69l-99 140h106z" />
    <glyph glyph-name="Yacute" unicode="&#xdd;" horiz-adv-x="603" 
d="M20 750h108l145 -331l31 -74h3l30 74l142 331h105l-232 -497v-253h-97v253zM319 910h119l-118 -113h-73z" />
    <glyph glyph-name="Udieresis" unicode="&#xdc;" horiz-adv-x="663" 
d="M588 750v-497c0 -185 -91 -266 -256 -266c-167 0 -257 81 -257 266v497h94v-496c0 -124 52 -175 163 -175s161 52 161 175v496h95zM287 846c0 -29 -14 -44 -43 -44s-43 12 -43 44c0 30 14 45 43 45s43 -15 43 -45zM462 846c0 -29 -14 -44 -43 -44c-28 0 -43 12 -43 44
c0 30 14 45 43 45s43 -15 43 -45z" />
    <glyph glyph-name="Ucircumflex" unicode="&#xdb;" horiz-adv-x="663" 
d="M588 750v-497c0 -185 -91 -266 -256 -266c-167 0 -257 81 -257 266v497h94v-496c0 -124 52 -175 163 -175s161 52 161 175v496h95zM284 910h94l106 -113h-84l-69 73l-67 -73h-82z" />
    <glyph glyph-name="Uacute" unicode="&#xda;" horiz-adv-x="663" 
d="M588 750v-497c0 -185 -91 -266 -256 -266c-167 0 -257 81 -257 266v497h94v-496c0 -124 52 -175 163 -175s161 52 161 175v496h95zM347 910h119l-118 -113h-73z" />
    <glyph glyph-name="Ugrave" unicode="&#xd9;" horiz-adv-x="663" 
d="M588 750v-497c0 -185 -91 -266 -256 -266c-167 0 -257 81 -257 266v497h94v-496c0 -124 52 -175 163 -175s161 52 161 175v496h95zM384 798h-73l-112 113h111z" />
    <glyph glyph-name="Odieresis" unicode="&#xd6;" horiz-adv-x="668" 
d="M613 375c0 -285 -77 -388 -278 -388c-199 0 -280 106 -280 388s79 387 280 387s278 -105 278 -387zM514 375c0 240 -48 296 -180 296c-130 0 -180 -59 -180 -296s50 -297 181 -297s179 60 179 297zM291 846c0 -29 -14 -44 -43 -44s-43 12 -43 44c0 30 14 45 43 45
s43 -15 43 -45zM466 846c0 -29 -14 -44 -43 -44c-28 0 -43 12 -43 44c0 30 14 45 43 45s43 -15 43 -45z" />
    <glyph glyph-name="Otilde" unicode="&#xd5;" horiz-adv-x="668" 
d="M613 375c0 -285 -77 -388 -278 -388c-199 0 -280 106 -280 388s79 387 280 387s278 -105 278 -387zM514 375c0 240 -48 296 -180 296c-130 0 -180 -59 -180 -296s50 -297 181 -297s179 60 179 297zM240 803l-44 1c5 60 34 102 81 102c55 0 87 -58 121 -58
c19 0 31 15 37 46l41 -1c-5 -61 -35 -103 -82 -103c-53 0 -84 59 -118 59c-19 0 -31 -18 -36 -46z" />
    <glyph glyph-name="Ocircumflex" unicode="&#xd4;" horiz-adv-x="668" 
d="M613 375c0 -285 -77 -388 -278 -388c-199 0 -280 106 -280 388s79 387 280 387s278 -105 278 -387zM514 375c0 240 -48 296 -180 296c-130 0 -180 -59 -180 -296s50 -297 181 -297s179 60 179 297zM287 910h94l106 -113h-84l-69 73l-67 -73h-82z" />
    <glyph glyph-name="Oacute" unicode="&#xd3;" horiz-adv-x="668" 
d="M613 375c0 -285 -77 -388 -278 -388c-199 0 -280 106 -280 388s79 387 280 387s278 -105 278 -387zM514 375c0 240 -48 296 -180 296c-130 0 -180 -59 -180 -296s50 -297 181 -297s179 60 179 297zM351 910h119l-118 -113h-73z" />
    <glyph glyph-name="Ograve" unicode="&#xd2;" horiz-adv-x="668" 
d="M613 375c0 -285 -77 -388 -278 -388c-199 0 -280 106 -280 388s79 387 280 387s278 -105 278 -387zM514 375c0 240 -48 296 -180 296c-130 0 -180 -59 -180 -296s50 -297 181 -297s179 60 179 297zM404 798h-73l-112 113h111z" />
    <glyph glyph-name="Ntilde" unicode="&#xd1;" horiz-adv-x="683" 
d="M595 0h-69l-313 516l-40 70l-2 -1l1 -81v-504h-85v750h87l297 -500l41 -70l2 1l-2 80v489h83v-750zM253 803l-44 1c5 60 34 102 81 102c55 0 87 -58 121 -58c19 0 31 15 37 46l41 -1c-5 -61 -35 -103 -82 -103c-53 0 -84 59 -118 59c-19 0 -31 -18 -36 -46z" />
    <glyph glyph-name="Idieresis" unicode="&#xcf;" horiz-adv-x="294" 
d="M99 0v750h97v-750h-97zM104 846c0 -29 -14 -44 -43 -44s-43 12 -43 44c0 30 14 45 43 45s43 -15 43 -45zM279 846c0 -29 -14 -44 -43 -44c-28 0 -43 12 -43 44c0 30 14 45 43 45s43 -15 43 -45z" />
    <glyph glyph-name="Icircumflex" unicode="&#xce;" horiz-adv-x="294" 
d="M99 0v750h97v-750h-97zM101 910h94l106 -113h-84l-69 73l-67 -73h-82z" />
    <glyph glyph-name="Iacute" unicode="&#xcd;" horiz-adv-x="294" 
d="M99 0v750h97v-750h-97zM164 910h119l-118 -113h-73z" />
    <glyph glyph-name="Igrave" unicode="&#xcc;" horiz-adv-x="294" 
d="M99 0v750h97v-750h-97zM201 798h-73l-112 113h111z" />
    <glyph glyph-name="Edieresis" unicode="&#xcb;" horiz-adv-x="559" 
d="M182 89h337l-3 -89h-429v750h414l2 -90h-321v-228h275v-83h-275v-260zM258 846c0 -29 -14 -44 -43 -44s-43 12 -43 44c0 30 14 45 43 45s43 -15 43 -45zM433 846c0 -29 -14 -44 -43 -44c-28 0 -43 12 -43 44c0 30 14 45 43 45s43 -15 43 -45z" />
    <glyph glyph-name="Ecircumflex" unicode="&#xca;" horiz-adv-x="559" 
d="M182 89h337l-3 -89h-429v750h414l2 -90h-321v-228h275v-83h-275v-260zM255 910h94l106 -113h-84l-69 73l-67 -73h-82z" />
    <glyph glyph-name="Eacute" unicode="&#xc9;" horiz-adv-x="559" 
d="M182 89h337l-3 -89h-429v750h414l2 -90h-321v-228h275v-83h-275v-260zM318 910h119l-118 -113h-73z" />
    <glyph glyph-name="Egrave" unicode="&#xc8;" horiz-adv-x="559" 
d="M182 89h337l-3 -89h-429v750h414l2 -90h-321v-228h275v-83h-275v-260zM355 798h-73l-112 113h111z" />
    <glyph glyph-name="Adieresis" unicode="&#xc4;" horiz-adv-x="639" 
d="M515 0l-53 181h-291l-53 -181h-101l244 750h116l244 -750h-106zM317 679l-22 -79l-99 -334h242l-98 334l-20 79h-3zM274 846c0 -29 -14 -44 -43 -44s-43 12 -43 44c0 30 14 45 43 45s43 -15 43 -45zM449 846c0 -29 -14 -44 -43 -44c-28 0 -43 12 -43 44c0 30 14 45 43 45
s43 -15 43 -45z" />
    <glyph glyph-name="Atilde" unicode="&#xc3;" horiz-adv-x="639" 
d="M515 0l-53 181h-291l-53 -181h-101l244 750h116l244 -750h-106zM317 679l-22 -79l-99 -334h242l-98 334l-20 79h-3zM224 803l-44 1c5 60 34 102 81 102c55 0 87 -58 121 -58c19 0 31 15 37 46l41 -1c-5 -61 -35 -103 -82 -103c-53 0 -84 59 -118 59
c-19 0 -31 -18 -36 -46z" />
    <glyph glyph-name="Acircumflex" unicode="&#xc2;" horiz-adv-x="639" 
d="M515 0l-53 181h-291l-53 -181h-101l244 750h116l244 -750h-106zM317 679l-22 -79l-99 -334h242l-98 334l-20 79h-3zM271 910h94l106 -113h-84l-69 73l-67 -73h-82z" />
    <glyph glyph-name="Aacute" unicode="&#xc1;" horiz-adv-x="639" 
d="M515 0l-53 181h-291l-53 -181h-101l244 750h116l244 -750h-106zM317 679l-22 -79l-99 -334h242l-98 334l-20 79h-3zM334 910h119l-118 -113h-73z" />
    <glyph glyph-name="Agrave" unicode="&#xc0;" horiz-adv-x="639" 
d="M515 0l-53 181h-291l-53 -181h-101l244 750h116l244 -750h-106zM317 679l-22 -79l-99 -334h242l-98 334l-20 79h-3zM371 798h-73l-112 113h111z" />
    <glyph glyph-name="onesuperior" unicode="&#xb9;" horiz-adv-x="247" 
d="M188 890v-395h-68v229l3 79l-3 1l-75 -49l-7 57l109 78h41z" />
    <glyph glyph-name="threesuperior" unicode="&#xb3;" horiz-adv-x="322" 
d="M300 613c0 -76 -44 -123 -144 -123c-49 0 -88 13 -117 30l15 53c29 -17 62 -27 101 -27c56 0 79 27 79 70c0 41 -26 62 -111 62v49c80 0 105 21 105 60c0 33 -23 50 -70 50c-41 0 -72 -12 -101 -35l-16 51c28 24 72 41 120 41c81 0 130 -35 130 -103
c0 -45 -22 -72 -61 -87v-2c45 -12 70 -38 70 -89z" />
    <glyph glyph-name="twosuperior" unicode="&#xb2;" horiz-adv-x="322" 
d="M290 783c0 -77 -69 -146 -165 -226v-3h167l-2 -59h-251v45c96 96 180 171 180 237c0 33 -18 57 -69 57c-36 0 -67 -13 -95 -36l-18 56c31 23 74 40 126 40c84 0 127 -43 127 -111z" />
    <glyph glyph-name="uni00AD" unicode="&#xad;" horiz-adv-x="369" 
d="M76 1v750h411v-750h-411zM134 59h295v634h-295v-634z" />
    <glyph glyph-name="uni00A0" unicode="&#xa0;" horiz-adv-x="274" 
 />
    <glyph glyph-name="space" unicode=" " horiz-adv-x="274" 
 />
    <glyph glyph-name="CR" unicode="&#xd;" horiz-adv-x="274" 
 />
    <glyph glyph-name="NULL" horiz-adv-x="0" 
 />
    <glyph glyph-name="NULL" horiz-adv-x="0" 
 />
    <glyph glyph-name="uniFEFF" unicode="&#xfeff;" horiz-adv-x="0" 
 />
    </font>
</defs>
</svg>
